<?xml version="1.0"?>
<!DOCTYPE lmms-project>
<lmms-project type="song" version="1.0" creator="LMMS" creatorversion="1.2.2">
  <head masterpitch="0" mastervol="100">
    <bpm scale_type="linear" id="7670" value="120"/>
    <timesig_numerator scale_type="linear" id="10745" value="4"/>
    <timesig_denominator scale_type="linear" id="30717" value="4"/>
  </head>
  <song>
    <trackcontainer minimized="0" x="5" visible="1" maximized="0" type="song" y="5" width="600" height="300">
      <track name="Layton_TC" type="0" solo="0" muted="0">
        <instrumenttrack fxch="0" basenote="57" pan="0" vol="100" usemasterpitch="1" pitchrange="2">
          <pitch scale_type="linear" id="16089" value="-6.49414"/>
          <instrument name="sf2player">
            <sf2player gain="1" src="C:/Users/cervi/Downloads/tmp/Layton_TC.sf2" reverbDamping="0" chorusOn="0" chorusSpeed="0.3" reverbOn="0" chorusNum="3" reverbLevel="0.9" chorusDepth="8" reverbWidth="0.5" bank="0" patch="84" reverbRoomSize="0.2" chorusLevel="2"/>
          </instrument>
          <eldata fwet="0" fres="0.5" fcut="14000" ftype="0">
            <elvol dec="0.5" lspd="0.1" hold="0.5" sustain="0.5" lshp="0" ctlenvamt="0" rel="0.1" userwavefile="" lamt="0" pdel="0" lspd_syncmode="0" lpdel="0" att="0" x100="0" lspd_numerator="4" lspd_denominator="4" amt="0" latt="0"/>
            <elcut dec="0.5" lspd="0.1" hold="0.5" sustain="0.5" lshp="0" ctlenvamt="0" rel="0.1" userwavefile="" lamt="0" pdel="0" lspd_syncmode="0" lpdel="0" att="0" x100="0" lspd_numerator="4" lspd_denominator="4" amt="0" latt="0"/>
            <elres dec="0.5" lspd="0.1" hold="0.5" sustain="0.5" lshp="0" ctlenvamt="0" rel="0.1" userwavefile="" lamt="0" pdel="0" lspd_syncmode="0" lpdel="0" att="0" x100="0" lspd_numerator="4" lspd_denominator="4" amt="0" latt="0"/>
          </eldata>
          <chordcreator chord="0" chordrange="1" chord-enabled="0"/>
          <arpeggiator arpcycle="0" arpgate="100" arp="0" arprange="1" arpdir="0" arp-enabled="0" arpskip="0" arptime_syncmode="0" arptime="200" arpmiss="0" arpmode="0" arptime_denominator="4" arptime_numerator="4"/>
          <midiport inputchannel="0" fixedoutputvelocity="-1" outputchannel="1" outputcontroller="0" writable="0" inputcontroller="0" fixedoutputnote="-1" outputprogram="1" basevelocity="63" fixedinputvelocity="-1" readable="0"/>
          <fxchain enabled="0" numofeffects="0"/>
        </instrumenttrack>
        <pattern steps="16" name="Layton_TC" pos="192" type="1" muted="0">
          <note key="38" pan="0" pos="0" vol="125" len="9"/>
          <note key="38" pan="0" pos="12" vol="125" len="9"/>
          <note key="50" pan="0" pos="24" vol="125" len="9"/>
          <note key="45" pan="0" pos="48" vol="125" len="9"/>
          <note key="44" pan="0" pos="84" vol="125" len="9"/>
          <note key="43" pan="0" pos="108" vol="125" len="9"/>
          <note key="41" pan="0" pos="132" vol="125" len="21"/>
          <note key="38" pan="0" pos="156" vol="125" len="9"/>
          <note key="41" pan="0" pos="168" vol="125" len="9"/>
          <note key="43" pan="0" pos="180" vol="125" len="9"/>
          <note key="36" pan="0" pos="192" vol="125" len="9"/>
          <note key="36" pan="0" pos="204" vol="125" len="9"/>
          <note key="50" pan="0" pos="216" vol="125" len="9"/>
          <note key="45" pan="0" pos="240" vol="125" len="9"/>
          <note key="44" pan="0" pos="276" vol="125" len="9"/>
          <note key="43" pan="0" pos="300" vol="125" len="9"/>
          <note key="41" pan="0" pos="324" vol="110" len="21"/>
          <note key="38" pan="0" pos="348" vol="125" len="9"/>
          <note key="41" pan="0" pos="360" vol="125" len="9"/>
          <note key="43" pan="0" pos="372" vol="125" len="9"/>
          <note key="35" pan="0" pos="384" vol="125" len="9"/>
          <note key="35" pan="0" pos="396" vol="125" len="9"/>
          <note key="50" pan="0" pos="408" vol="125" len="9"/>
          <note key="45" pan="0" pos="432" vol="125" len="9"/>
          <note key="44" pan="0" pos="468" vol="125" len="9"/>
          <note key="43" pan="0" pos="492" vol="125" len="9"/>
          <note key="41" pan="0" pos="516" vol="125" len="21"/>
          <note key="38" pan="0" pos="540" vol="125" len="9"/>
          <note key="41" pan="0" pos="552" vol="125" len="9"/>
          <note key="43" pan="0" pos="564" vol="125" len="9"/>
          <note key="34" pan="0" pos="576" vol="125" len="9"/>
          <note key="34" pan="0" pos="588" vol="125" len="9"/>
          <note key="50" pan="0" pos="600" vol="125" len="9"/>
          <note key="45" pan="0" pos="624" vol="125" len="9"/>
          <note key="44" pan="0" pos="660" vol="125" len="9"/>
          <note key="43" pan="0" pos="684" vol="125" len="9"/>
          <note key="41" pan="0" pos="708" vol="125" len="21"/>
          <note key="38" pan="0" pos="732" vol="125" len="9"/>
          <note key="41" pan="0" pos="744" vol="125" len="9"/>
          <note key="43" pan="0" pos="756" vol="125" len="9"/>
          <note key="38" pan="0" pos="768" vol="125" len="9"/>
          <note key="38" pan="0" pos="780" vol="125" len="9"/>
          <note key="50" pan="0" pos="792" vol="125" len="9"/>
          <note key="45" pan="0" pos="816" vol="125" len="9"/>
          <note key="44" pan="0" pos="852" vol="125" len="9"/>
          <note key="43" pan="0" pos="876" vol="125" len="9"/>
          <note key="41" pan="0" pos="900" vol="125" len="21"/>
          <note key="38" pan="0" pos="924" vol="125" len="9"/>
          <note key="41" pan="0" pos="936" vol="125" len="9"/>
          <note key="43" pan="0" pos="948" vol="125" len="9"/>
          <note key="36" pan="0" pos="960" vol="125" len="9"/>
          <note key="36" pan="0" pos="972" vol="125" len="9"/>
          <note key="50" pan="0" pos="984" vol="125" len="9"/>
          <note key="45" pan="0" pos="1008" vol="125" len="9"/>
          <note key="44" pan="0" pos="1044" vol="125" len="9"/>
          <note key="43" pan="0" pos="1068" vol="125" len="9"/>
          <note key="41" pan="0" pos="1092" vol="125" len="21"/>
          <note key="38" pan="0" pos="1116" vol="125" len="9"/>
          <note key="41" pan="0" pos="1128" vol="125" len="9"/>
          <note key="43" pan="0" pos="1140" vol="125" len="9"/>
          <note key="35" pan="0" pos="1152" vol="125" len="9"/>
          <note key="35" pan="0" pos="1164" vol="125" len="9"/>
          <note key="50" pan="0" pos="1176" vol="125" len="9"/>
          <note key="45" pan="0" pos="1200" vol="125" len="9"/>
          <note key="44" pan="0" pos="1236" vol="125" len="9"/>
          <note key="43" pan="0" pos="1260" vol="125" len="9"/>
          <note key="41" pan="0" pos="1284" vol="125" len="21"/>
          <note key="38" pan="0" pos="1308" vol="125" len="9"/>
          <note key="41" pan="0" pos="1320" vol="125" len="9"/>
          <note key="43" pan="0" pos="1332" vol="125" len="9"/>
          <note key="34" pan="0" pos="1344" vol="125" len="9"/>
          <note key="34" pan="0" pos="1356" vol="125" len="9"/>
          <note key="50" pan="0" pos="1368" vol="125" len="9"/>
          <note key="45" pan="0" pos="1392" vol="125" len="9"/>
          <note key="44" pan="0" pos="1428" vol="125" len="9"/>
          <note key="43" pan="0" pos="1452" vol="125" len="9"/>
          <note key="41" pan="0" pos="1476" vol="125" len="21"/>
          <note key="38" pan="0" pos="1500" vol="125" len="9"/>
          <note key="41" pan="0" pos="1512" vol="125" len="9"/>
          <note key="43" pan="0" pos="1524" vol="125" len="9"/>
          <note key="38" pan="0" pos="1536" vol="94" len="9"/>
          <note key="38" pan="0" pos="1548" vol="94" len="9"/>
          <note key="50" pan="0" pos="1560" vol="94" len="9"/>
          <note key="45" pan="0" pos="1584" vol="94" len="9"/>
          <note key="44" pan="0" pos="1620" vol="94" len="9"/>
          <note key="43" pan="0" pos="1644" vol="94" len="9"/>
          <note key="41" pan="0" pos="1668" vol="94" len="21"/>
          <note key="38" pan="0" pos="1692" vol="94" len="9"/>
          <note key="41" pan="0" pos="1704" vol="94" len="9"/>
          <note key="43" pan="0" pos="1716" vol="94" len="9"/>
          <note key="36" pan="0" pos="1728" vol="94" len="9"/>
          <note key="36" pan="0" pos="1740" vol="94" len="9"/>
          <note key="50" pan="0" pos="1752" vol="94" len="9"/>
          <note key="45" pan="0" pos="1776" vol="94" len="9"/>
          <note key="44" pan="0" pos="1812" vol="94" len="9"/>
          <note key="43" pan="0" pos="1836" vol="94" len="9"/>
          <note key="41" pan="0" pos="1860" vol="94" len="21"/>
          <note key="38" pan="0" pos="1884" vol="94" len="9"/>
          <note key="41" pan="0" pos="1896" vol="94" len="9"/>
          <note key="43" pan="0" pos="1908" vol="94" len="9"/>
          <note key="35" pan="0" pos="1920" vol="94" len="9"/>
          <note key="35" pan="0" pos="1932" vol="94" len="9"/>
          <note key="50" pan="0" pos="1944" vol="94" len="9"/>
          <note key="45" pan="0" pos="1968" vol="94" len="9"/>
          <note key="44" pan="0" pos="2004" vol="94" len="9"/>
          <note key="43" pan="0" pos="2028" vol="94" len="9"/>
          <note key="41" pan="0" pos="2052" vol="94" len="21"/>
          <note key="38" pan="0" pos="2076" vol="94" len="9"/>
          <note key="41" pan="0" pos="2088" vol="94" len="9"/>
          <note key="43" pan="0" pos="2100" vol="94" len="9"/>
          <note key="34" pan="0" pos="2112" vol="94" len="9"/>
          <note key="34" pan="0" pos="2124" vol="94" len="9"/>
          <note key="50" pan="0" pos="2136" vol="94" len="9"/>
          <note key="45" pan="0" pos="2160" vol="94" len="9"/>
          <note key="44" pan="0" pos="2196" vol="94" len="9"/>
          <note key="43" pan="0" pos="2220" vol="94" len="9"/>
          <note key="41" pan="0" pos="2244" vol="94" len="21"/>
          <note key="38" pan="0" pos="2268" vol="94" len="9"/>
          <note key="41" pan="0" pos="2280" vol="94" len="9"/>
          <note key="43" pan="0" pos="2292" vol="94" len="9"/>
          <note key="38" pan="0" pos="2304" vol="94" len="9"/>
          <note key="38" pan="0" pos="2316" vol="94" len="9"/>
          <note key="50" pan="0" pos="2328" vol="94" len="9"/>
          <note key="45" pan="0" pos="2352" vol="94" len="9"/>
          <note key="44" pan="0" pos="2388" vol="94" len="9"/>
          <note key="43" pan="0" pos="2412" vol="94" len="9"/>
          <note key="41" pan="0" pos="2436" vol="94" len="21"/>
          <note key="38" pan="0" pos="2460" vol="94" len="9"/>
          <note key="41" pan="0" pos="2472" vol="94" len="9"/>
          <note key="43" pan="0" pos="2484" vol="94" len="9"/>
          <note key="36" pan="0" pos="2496" vol="94" len="9"/>
          <note key="36" pan="0" pos="2508" vol="94" len="9"/>
          <note key="50" pan="0" pos="2520" vol="94" len="9"/>
          <note key="45" pan="0" pos="2544" vol="94" len="9"/>
          <note key="44" pan="0" pos="2580" vol="94" len="9"/>
          <note key="43" pan="0" pos="2604" vol="94" len="9"/>
          <note key="41" pan="0" pos="2628" vol="94" len="21"/>
          <note key="38" pan="0" pos="2652" vol="94" len="9"/>
          <note key="41" pan="0" pos="2664" vol="94" len="9"/>
          <note key="43" pan="0" pos="2676" vol="94" len="9"/>
          <note key="35" pan="0" pos="2688" vol="94" len="9"/>
          <note key="35" pan="0" pos="2700" vol="94" len="9"/>
          <note key="50" pan="0" pos="2712" vol="94" len="9"/>
          <note key="45" pan="0" pos="2736" vol="94" len="9"/>
          <note key="44" pan="0" pos="2772" vol="94" len="9"/>
          <note key="43" pan="0" pos="2796" vol="94" len="9"/>
          <note key="41" pan="0" pos="2820" vol="94" len="21"/>
          <note key="38" pan="0" pos="2844" vol="94" len="9"/>
          <note key="41" pan="0" pos="2856" vol="94" len="9"/>
          <note key="43" pan="0" pos="2868" vol="94" len="9"/>
          <note key="34" pan="0" pos="2880" vol="94" len="9"/>
          <note key="34" pan="0" pos="2892" vol="94" len="9"/>
          <note key="50" pan="0" pos="2904" vol="94" len="9"/>
          <note key="45" pan="0" pos="2928" vol="94" len="9"/>
          <note key="44" pan="0" pos="2964" vol="94" len="9"/>
          <note key="43" pan="0" pos="2988" vol="94" len="9"/>
          <note key="41" pan="0" pos="3012" vol="94" len="21"/>
          <note key="38" pan="0" pos="3036" vol="94" len="9"/>
          <note key="41" pan="0" pos="3048" vol="94" len="9"/>
          <note key="43" pan="0" pos="3060" vol="94" len="9"/>
        </pattern>
        <pattern steps="16" name="Layton_TC" pos="4032" type="1" muted="0">
          <note key="38" pan="0" pos="0" vol="110" len="9"/>
          <note key="38" pan="0" pos="12" vol="110" len="9"/>
          <note key="50" pan="0" pos="24" vol="110" len="9"/>
          <note key="45" pan="0" pos="48" vol="110" len="9"/>
          <note key="44" pan="0" pos="84" vol="110" len="9"/>
          <note key="43" pan="0" pos="108" vol="110" len="9"/>
          <note key="41" pan="0" pos="132" vol="110" len="21"/>
          <note key="38" pan="0" pos="156" vol="110" len="9"/>
          <note key="41" pan="0" pos="168" vol="110" len="9"/>
          <note key="43" pan="0" pos="180" vol="110" len="9"/>
          <note key="36" pan="0" pos="192" vol="110" len="9"/>
          <note key="36" pan="0" pos="204" vol="110" len="9"/>
          <note key="50" pan="0" pos="216" vol="110" len="9"/>
          <note key="45" pan="0" pos="240" vol="110" len="9"/>
          <note key="44" pan="0" pos="276" vol="110" len="9"/>
          <note key="43" pan="0" pos="300" vol="110" len="9"/>
          <note key="41" pan="0" pos="324" vol="110" len="21"/>
          <note key="38" pan="0" pos="348" vol="110" len="9"/>
          <note key="41" pan="0" pos="360" vol="110" len="9"/>
          <note key="43" pan="0" pos="372" vol="110" len="9"/>
          <note key="35" pan="0" pos="384" vol="110" len="9"/>
          <note key="35" pan="0" pos="396" vol="110" len="9"/>
          <note key="50" pan="0" pos="408" vol="110" len="9"/>
          <note key="45" pan="0" pos="432" vol="110" len="9"/>
          <note key="44" pan="0" pos="468" vol="110" len="9"/>
          <note key="43" pan="0" pos="492" vol="110" len="9"/>
          <note key="41" pan="0" pos="516" vol="110" len="21"/>
          <note key="38" pan="0" pos="540" vol="110" len="9"/>
          <note key="41" pan="0" pos="552" vol="110" len="9"/>
          <note key="43" pan="0" pos="564" vol="110" len="9"/>
          <note key="34" pan="0" pos="576" vol="110" len="9"/>
          <note key="34" pan="0" pos="588" vol="110" len="9"/>
          <note key="50" pan="0" pos="600" vol="110" len="9"/>
          <note key="45" pan="0" pos="624" vol="110" len="9"/>
          <note key="44" pan="0" pos="660" vol="110" len="9"/>
          <note key="43" pan="0" pos="684" vol="110" len="9"/>
          <note key="41" pan="0" pos="708" vol="110" len="21"/>
          <note key="38" pan="0" pos="732" vol="110" len="9"/>
          <note key="41" pan="0" pos="744" vol="110" len="9"/>
          <note key="43" pan="0" pos="756" vol="110" len="9"/>
        </pattern>
        <pattern steps="16" name="Layton_TC" pos="9408" type="1" muted="0">
          <note key="38" pan="0" pos="0" vol="125" len="9"/>
          <note key="38" pan="0" pos="12" vol="125" len="9"/>
          <note key="50" pan="0" pos="24" vol="125" len="9"/>
          <note key="45" pan="0" pos="48" vol="125" len="9"/>
          <note key="44" pan="0" pos="84" vol="125" len="9"/>
          <note key="43" pan="0" pos="108" vol="125" len="9"/>
          <note key="41" pan="0" pos="132" vol="125" len="21"/>
          <note key="38" pan="0" pos="156" vol="125" len="9"/>
          <note key="41" pan="0" pos="168" vol="125" len="9"/>
          <note key="43" pan="0" pos="180" vol="125" len="9"/>
          <note key="36" pan="0" pos="192" vol="125" len="9"/>
          <note key="36" pan="0" pos="204" vol="125" len="9"/>
          <note key="50" pan="0" pos="216" vol="125" len="9"/>
          <note key="45" pan="0" pos="240" vol="125" len="9"/>
          <note key="44" pan="0" pos="276" vol="125" len="9"/>
          <note key="43" pan="0" pos="300" vol="125" len="9"/>
          <note key="41" pan="0" pos="324" vol="125" len="21"/>
          <note key="38" pan="0" pos="348" vol="125" len="9"/>
          <note key="41" pan="0" pos="360" vol="125" len="9"/>
          <note key="43" pan="0" pos="372" vol="125" len="9"/>
          <note key="35" pan="0" pos="384" vol="125" len="9"/>
          <note key="35" pan="0" pos="396" vol="125" len="9"/>
          <note key="50" pan="0" pos="408" vol="125" len="9"/>
          <note key="45" pan="0" pos="432" vol="125" len="9"/>
          <note key="44" pan="0" pos="468" vol="125" len="9"/>
          <note key="43" pan="0" pos="492" vol="125" len="9"/>
          <note key="41" pan="0" pos="516" vol="125" len="21"/>
          <note key="38" pan="0" pos="540" vol="125" len="9"/>
          <note key="41" pan="0" pos="552" vol="125" len="9"/>
          <note key="43" pan="0" pos="564" vol="125" len="9"/>
          <note key="35" pan="0" pos="576" vol="125" len="9"/>
          <note key="35" pan="0" pos="588" vol="125" len="9"/>
          <note key="50" pan="0" pos="600" vol="125" len="9"/>
          <note key="45" pan="0" pos="624" vol="125" len="9"/>
          <note key="44" pan="0" pos="660" vol="125" len="9"/>
          <note key="43" pan="0" pos="684" vol="125" len="9"/>
          <note key="41" pan="0" pos="708" vol="125" len="21"/>
          <note key="38" pan="0" pos="732" vol="125" len="9"/>
          <note key="41" pan="0" pos="744" vol="125" len="9"/>
          <note key="43" pan="0" pos="756" vol="125" len="9"/>
          <note key="34" pan="0" pos="768" vol="125" len="9"/>
          <note key="34" pan="0" pos="780" vol="125" len="9"/>
          <note key="50" pan="0" pos="792" vol="125" len="9"/>
          <note key="45" pan="0" pos="816" vol="125" len="9"/>
          <note key="44" pan="0" pos="852" vol="125" len="9"/>
          <note key="43" pan="0" pos="876" vol="125" len="9"/>
          <note key="41" pan="0" pos="900" vol="125" len="21"/>
          <note key="38" pan="0" pos="924" vol="125" len="9"/>
          <note key="41" pan="0" pos="936" vol="125" len="9"/>
          <note key="43" pan="0" pos="948" vol="125" len="9"/>
          <note key="36" pan="0" pos="960" vol="125" len="9"/>
          <note key="36" pan="0" pos="972" vol="125" len="9"/>
          <note key="50" pan="0" pos="984" vol="125" len="9"/>
          <note key="45" pan="0" pos="1008" vol="125" len="9"/>
          <note key="44" pan="0" pos="1044" vol="125" len="9"/>
          <note key="43" pan="0" pos="1068" vol="125" len="9"/>
          <note key="41" pan="0" pos="1092" vol="125" len="21"/>
          <note key="38" pan="0" pos="1116" vol="125" len="9"/>
          <note key="41" pan="0" pos="1128" vol="125" len="9"/>
          <note key="43" pan="0" pos="1140" vol="125" len="9"/>
          <note key="38" pan="0" pos="1152" vol="125" len="9"/>
          <note key="38" pan="0" pos="1164" vol="125" len="9"/>
          <note key="50" pan="0" pos="1176" vol="125" len="9"/>
          <note key="45" pan="0" pos="1200" vol="125" len="9"/>
          <note key="44" pan="0" pos="1236" vol="125" len="9"/>
          <note key="43" pan="0" pos="1260" vol="125" len="9"/>
          <note key="41" pan="0" pos="1284" vol="125" len="21"/>
          <note key="38" pan="0" pos="1308" vol="125" len="9"/>
          <note key="41" pan="0" pos="1320" vol="125" len="9"/>
          <note key="43" pan="0" pos="1332" vol="125" len="9"/>
          <note key="38" pan="0" pos="1344" vol="125" len="9"/>
          <note key="38" pan="0" pos="1356" vol="125" len="9"/>
          <note key="50" pan="0" pos="1368" vol="125" len="9"/>
          <note key="45" pan="0" pos="1392" vol="125" len="9"/>
          <note key="44" pan="0" pos="1428" vol="125" len="9"/>
          <note key="43" pan="0" pos="1452" vol="125" len="9"/>
          <note key="41" pan="0" pos="1476" vol="125" len="21"/>
          <note key="38" pan="0" pos="1500" vol="125" len="9"/>
          <note key="41" pan="0" pos="1512" vol="125" len="9"/>
          <note key="43" pan="0" pos="1524" vol="125" len="9"/>
        </pattern>
        <pattern steps="16" name="Layton_TC" pos="13632" type="1" muted="0">
          <note key="38" pan="0" pos="0" vol="125" len="9"/>
          <note key="38" pan="0" pos="12" vol="125" len="9"/>
          <note key="50" pan="0" pos="24" vol="125" len="9"/>
          <note key="45" pan="0" pos="48" vol="125" len="9"/>
          <note key="44" pan="0" pos="84" vol="125" len="9"/>
          <note key="43" pan="0" pos="108" vol="125" len="9"/>
          <note key="41" pan="0" pos="132" vol="125" len="21"/>
          <note key="38" pan="0" pos="156" vol="125" len="9"/>
          <note key="41" pan="0" pos="168" vol="125" len="9"/>
          <note key="43" pan="0" pos="180" vol="125" len="9"/>
          <note key="38" pan="0" pos="192" vol="125" len="9"/>
          <note key="38" pan="0" pos="204" vol="125" len="9"/>
          <note key="50" pan="0" pos="216" vol="125" len="9"/>
          <note key="45" pan="0" pos="240" vol="125" len="9"/>
          <note key="44" pan="0" pos="276" vol="125" len="9"/>
          <note key="43" pan="0" pos="300" vol="125" len="9"/>
          <note key="41" pan="0" pos="324" vol="125" len="21"/>
          <note key="38" pan="0" pos="348" vol="125" len="9"/>
          <note key="41" pan="0" pos="360" vol="125" len="9"/>
          <note key="43" pan="0" pos="372" vol="125" len="9"/>
          <note key="34" pan="0" pos="384" vol="125" len="9"/>
          <note key="34" pan="0" pos="396" vol="125" len="9"/>
          <note key="50" pan="0" pos="408" vol="125" len="9"/>
          <note key="45" pan="0" pos="432" vol="125" len="9"/>
          <note key="44" pan="0" pos="468" vol="125" len="9"/>
          <note key="43" pan="0" pos="492" vol="125" len="9"/>
          <note key="41" pan="0" pos="516" vol="125" len="21"/>
          <note key="38" pan="0" pos="540" vol="125" len="9"/>
          <note key="41" pan="0" pos="552" vol="125" len="9"/>
          <note key="43" pan="0" pos="564" vol="125" len="9"/>
          <note key="36" pan="0" pos="576" vol="125" len="9"/>
          <note key="36" pan="0" pos="588" vol="125" len="9"/>
          <note key="50" pan="0" pos="600" vol="125" len="9"/>
          <note key="45" pan="0" pos="624" vol="125" len="9"/>
          <note key="44" pan="0" pos="660" vol="125" len="9"/>
          <note key="43" pan="0" pos="684" vol="125" len="9"/>
          <note key="41" pan="0" pos="708" vol="125" len="21"/>
          <note key="38" pan="0" pos="732" vol="125" len="9"/>
          <note key="41" pan="0" pos="744" vol="125" len="9"/>
          <note key="43" pan="0" pos="756" vol="125" len="9"/>
          <note key="38" pan="0" pos="768" vol="125" len="9"/>
          <note key="38" pan="0" pos="780" vol="125" len="9"/>
          <note key="50" pan="0" pos="792" vol="125" len="9"/>
          <note key="45" pan="0" pos="816" vol="125" len="9"/>
          <note key="44" pan="0" pos="852" vol="125" len="9"/>
          <note key="43" pan="0" pos="876" vol="125" len="9"/>
          <note key="41" pan="0" pos="900" vol="125" len="21"/>
          <note key="38" pan="0" pos="924" vol="125" len="9"/>
          <note key="41" pan="0" pos="936" vol="125" len="9"/>
          <note key="43" pan="0" pos="948" vol="125" len="9"/>
          <note key="38" pan="0" pos="960" vol="125" len="9"/>
          <note key="38" pan="0" pos="972" vol="125" len="9"/>
          <note key="50" pan="0" pos="984" vol="125" len="9"/>
          <note key="45" pan="0" pos="1008" vol="125" len="9"/>
          <note key="44" pan="0" pos="1044" vol="125" len="9"/>
          <note key="43" pan="0" pos="1068" vol="125" len="9"/>
          <note key="41" pan="0" pos="1092" vol="125" len="21"/>
          <note key="38" pan="0" pos="1116" vol="125" len="9"/>
          <note key="41" pan="0" pos="1128" vol="125" len="9"/>
          <note key="43" pan="0" pos="1140" vol="125" len="9"/>
          <note key="34" pan="0" pos="1152" vol="125" len="9"/>
          <note key="34" pan="0" pos="1164" vol="125" len="9"/>
          <note key="50" pan="0" pos="1176" vol="125" len="9"/>
          <note key="45" pan="0" pos="1200" vol="125" len="9"/>
          <note key="44" pan="0" pos="1236" vol="125" len="9"/>
          <note key="43" pan="0" pos="1260" vol="125" len="9"/>
          <note key="41" pan="0" pos="1284" vol="125" len="21"/>
          <note key="38" pan="0" pos="1308" vol="125" len="9"/>
          <note key="41" pan="0" pos="1320" vol="125" len="9"/>
          <note key="43" pan="0" pos="1332" vol="125" len="9"/>
          <note key="36" pan="0" pos="1344" vol="125" len="9"/>
          <note key="36" pan="0" pos="1356" vol="125" len="9"/>
          <note key="50" pan="0" pos="1368" vol="125" len="9"/>
          <note key="45" pan="0" pos="1392" vol="125" len="9"/>
          <note key="44" pan="0" pos="1428" vol="125" len="9"/>
          <note key="43" pan="0" pos="1452" vol="125" len="9"/>
          <note key="41" pan="0" pos="1476" vol="125" len="21"/>
          <note key="38" pan="0" pos="1500" vol="125" len="9"/>
          <note key="41" pan="0" pos="1512" vol="125" len="9"/>
          <note key="43" pan="0" pos="1524" vol="125" len="9"/>
          <note key="38" pan="0" pos="1536" vol="125" len="9"/>
          <note key="38" pan="0" pos="1548" vol="125" len="9"/>
          <note key="50" pan="0" pos="1560" vol="125" len="9"/>
          <note key="45" pan="0" pos="1584" vol="125" len="9"/>
          <note key="44" pan="0" pos="1620" vol="125" len="9"/>
          <note key="43" pan="0" pos="1644" vol="125" len="9"/>
          <note key="41" pan="0" pos="1668" vol="125" len="21"/>
          <note key="38" pan="0" pos="1692" vol="125" len="9"/>
          <note key="41" pan="0" pos="1704" vol="125" len="9"/>
          <note key="43" pan="0" pos="1716" vol="125" len="9"/>
          <note key="36" pan="0" pos="1728" vol="125" len="9"/>
          <note key="36" pan="0" pos="1740" vol="125" len="9"/>
          <note key="50" pan="0" pos="1752" vol="125" len="9"/>
          <note key="45" pan="0" pos="1776" vol="125" len="9"/>
          <note key="44" pan="0" pos="1812" vol="125" len="9"/>
          <note key="43" pan="0" pos="1836" vol="125" len="9"/>
          <note key="41" pan="0" pos="1860" vol="110" len="21"/>
          <note key="38" pan="0" pos="1884" vol="125" len="9"/>
          <note key="41" pan="0" pos="1896" vol="125" len="9"/>
          <note key="43" pan="0" pos="1908" vol="125" len="9"/>
          <note key="35" pan="0" pos="1920" vol="125" len="9"/>
          <note key="35" pan="0" pos="1932" vol="125" len="9"/>
          <note key="50" pan="0" pos="1944" vol="125" len="9"/>
          <note key="45" pan="0" pos="1968" vol="125" len="9"/>
          <note key="44" pan="0" pos="2004" vol="125" len="9"/>
          <note key="43" pan="0" pos="2028" vol="125" len="9"/>
          <note key="41" pan="0" pos="2052" vol="125" len="21"/>
          <note key="38" pan="0" pos="2076" vol="125" len="9"/>
          <note key="41" pan="0" pos="2088" vol="125" len="9"/>
          <note key="43" pan="0" pos="2100" vol="125" len="9"/>
          <note key="34" pan="0" pos="2112" vol="125" len="9"/>
          <note key="34" pan="0" pos="2124" vol="125" len="9"/>
          <note key="50" pan="0" pos="2136" vol="125" len="9"/>
          <note key="45" pan="0" pos="2160" vol="125" len="9"/>
          <note key="44" pan="0" pos="2196" vol="125" len="9"/>
          <note key="43" pan="0" pos="2220" vol="125" len="9"/>
          <note key="41" pan="0" pos="2244" vol="125" len="21"/>
          <note key="38" pan="0" pos="2268" vol="125" len="9"/>
          <note key="41" pan="0" pos="2280" vol="125" len="9"/>
          <note key="43" pan="0" pos="2292" vol="125" len="9"/>
          <note key="38" pan="0" pos="2304" vol="125" len="9"/>
          <note key="38" pan="0" pos="2316" vol="125" len="9"/>
          <note key="50" pan="0" pos="2328" vol="125" len="9"/>
          <note key="45" pan="0" pos="2352" vol="125" len="9"/>
          <note key="44" pan="0" pos="2388" vol="125" len="9"/>
          <note key="43" pan="0" pos="2412" vol="125" len="9"/>
          <note key="41" pan="0" pos="2436" vol="125" len="21"/>
          <note key="38" pan="0" pos="2460" vol="125" len="9"/>
          <note key="41" pan="0" pos="2472" vol="125" len="9"/>
          <note key="43" pan="0" pos="2484" vol="125" len="9"/>
          <note key="36" pan="0" pos="2496" vol="125" len="9"/>
          <note key="36" pan="0" pos="2508" vol="125" len="9"/>
          <note key="50" pan="0" pos="2520" vol="125" len="9"/>
          <note key="45" pan="0" pos="2544" vol="125" len="9"/>
          <note key="44" pan="0" pos="2580" vol="125" len="9"/>
          <note key="43" pan="0" pos="2604" vol="125" len="9"/>
          <note key="41" pan="0" pos="2628" vol="125" len="21"/>
          <note key="38" pan="0" pos="2652" vol="125" len="9"/>
          <note key="41" pan="0" pos="2664" vol="125" len="9"/>
          <note key="43" pan="0" pos="2676" vol="125" len="9"/>
          <note key="35" pan="0" pos="2688" vol="125" len="9"/>
          <note key="35" pan="0" pos="2700" vol="125" len="9"/>
          <note key="50" pan="0" pos="2712" vol="125" len="9"/>
          <note key="45" pan="0" pos="2736" vol="125" len="9"/>
          <note key="44" pan="0" pos="2772" vol="125" len="9"/>
          <note key="43" pan="0" pos="2796" vol="125" len="9"/>
          <note key="41" pan="0" pos="2820" vol="125" len="21"/>
          <note key="38" pan="0" pos="2844" vol="125" len="9"/>
          <note key="41" pan="0" pos="2856" vol="125" len="9"/>
          <note key="43" pan="0" pos="2868" vol="125" len="9"/>
          <note key="34" pan="0" pos="2880" vol="125" len="9"/>
          <note key="34" pan="0" pos="2892" vol="125" len="9"/>
          <note key="50" pan="0" pos="2904" vol="125" len="9"/>
          <note key="45" pan="0" pos="2928" vol="125" len="9"/>
          <note key="44" pan="0" pos="2964" vol="125" len="9"/>
          <note key="43" pan="0" pos="2988" vol="125" len="9"/>
          <note key="41" pan="0" pos="3012" vol="125" len="21"/>
          <note key="38" pan="0" pos="3036" vol="125" len="9"/>
          <note key="41" pan="0" pos="3048" vol="125" len="9"/>
          <note key="43" pan="0" pos="3060" vol="125" len="9"/>
          <note key="38" pan="0" pos="3072" vol="94" len="9"/>
          <note key="38" pan="0" pos="3084" vol="94" len="9"/>
          <note key="50" pan="0" pos="3096" vol="94" len="9"/>
          <note key="45" pan="0" pos="3120" vol="94" len="9"/>
          <note key="44" pan="0" pos="3156" vol="94" len="9"/>
          <note key="43" pan="0" pos="3180" vol="94" len="9"/>
          <note key="41" pan="0" pos="3204" vol="94" len="21"/>
          <note key="38" pan="0" pos="3228" vol="94" len="9"/>
          <note key="41" pan="0" pos="3240" vol="94" len="9"/>
          <note key="43" pan="0" pos="3252" vol="94" len="9"/>
          <note key="36" pan="0" pos="3264" vol="94" len="9"/>
          <note key="36" pan="0" pos="3276" vol="94" len="9"/>
          <note key="50" pan="0" pos="3288" vol="94" len="9"/>
          <note key="45" pan="0" pos="3312" vol="94" len="9"/>
          <note key="44" pan="0" pos="3348" vol="94" len="9"/>
          <note key="43" pan="0" pos="3372" vol="94" len="9"/>
          <note key="41" pan="0" pos="3396" vol="94" len="21"/>
          <note key="38" pan="0" pos="3420" vol="94" len="9"/>
          <note key="41" pan="0" pos="3432" vol="94" len="9"/>
          <note key="43" pan="0" pos="3444" vol="94" len="9"/>
          <note key="35" pan="0" pos="3456" vol="94" len="9"/>
          <note key="35" pan="0" pos="3468" vol="94" len="9"/>
          <note key="50" pan="0" pos="3480" vol="94" len="9"/>
          <note key="45" pan="0" pos="3504" vol="94" len="9"/>
          <note key="44" pan="0" pos="3540" vol="94" len="9"/>
          <note key="43" pan="0" pos="3564" vol="94" len="9"/>
          <note key="41" pan="0" pos="3588" vol="94" len="21"/>
          <note key="38" pan="0" pos="3612" vol="94" len="9"/>
          <note key="41" pan="0" pos="3624" vol="94" len="9"/>
          <note key="43" pan="0" pos="3636" vol="94" len="9"/>
          <note key="34" pan="0" pos="3648" vol="94" len="9"/>
          <note key="34" pan="0" pos="3660" vol="94" len="9"/>
          <note key="50" pan="0" pos="3672" vol="94" len="9"/>
          <note key="45" pan="0" pos="3696" vol="94" len="9"/>
          <note key="44" pan="0" pos="3732" vol="94" len="9"/>
          <note key="43" pan="0" pos="3756" vol="94" len="9"/>
          <note key="41" pan="0" pos="3780" vol="94" len="21"/>
          <note key="38" pan="0" pos="3804" vol="94" len="9"/>
          <note key="41" pan="0" pos="3816" vol="94" len="9"/>
          <note key="43" pan="0" pos="3828" vol="94" len="9"/>
          <note key="38" pan="0" pos="3840" vol="94" len="9"/>
          <note key="38" pan="0" pos="3852" vol="94" len="9"/>
          <note key="50" pan="0" pos="3864" vol="94" len="9"/>
          <note key="45" pan="0" pos="3888" vol="94" len="9"/>
          <note key="44" pan="0" pos="3924" vol="94" len="9"/>
          <note key="43" pan="0" pos="3948" vol="94" len="9"/>
          <note key="41" pan="0" pos="3972" vol="94" len="21"/>
          <note key="38" pan="0" pos="3996" vol="94" len="9"/>
          <note key="41" pan="0" pos="4008" vol="94" len="9"/>
          <note key="43" pan="0" pos="4020" vol="94" len="9"/>
          <note key="36" pan="0" pos="4032" vol="94" len="9"/>
          <note key="36" pan="0" pos="4044" vol="94" len="9"/>
          <note key="50" pan="0" pos="4056" vol="94" len="9"/>
          <note key="45" pan="0" pos="4080" vol="94" len="9"/>
          <note key="44" pan="0" pos="4116" vol="94" len="9"/>
          <note key="43" pan="0" pos="4140" vol="94" len="9"/>
          <note key="41" pan="0" pos="4164" vol="94" len="21"/>
          <note key="38" pan="0" pos="4188" vol="94" len="9"/>
          <note key="41" pan="0" pos="4200" vol="94" len="9"/>
          <note key="43" pan="0" pos="4212" vol="94" len="9"/>
          <note key="35" pan="0" pos="4224" vol="94" len="9"/>
          <note key="35" pan="0" pos="4236" vol="94" len="9"/>
          <note key="50" pan="0" pos="4248" vol="94" len="9"/>
          <note key="45" pan="0" pos="4272" vol="94" len="9"/>
          <note key="44" pan="0" pos="4308" vol="94" len="9"/>
          <note key="43" pan="0" pos="4332" vol="94" len="9"/>
          <note key="41" pan="0" pos="4356" vol="94" len="21"/>
          <note key="38" pan="0" pos="4380" vol="94" len="9"/>
          <note key="41" pan="0" pos="4392" vol="94" len="9"/>
          <note key="43" pan="0" pos="4404" vol="94" len="9"/>
          <note key="34" pan="0" pos="4416" vol="94" len="9"/>
          <note key="34" pan="0" pos="4428" vol="94" len="9"/>
          <note key="50" pan="0" pos="4440" vol="94" len="9"/>
          <note key="45" pan="0" pos="4464" vol="94" len="9"/>
          <note key="44" pan="0" pos="4500" vol="94" len="9"/>
          <note key="43" pan="0" pos="4524" vol="94" len="9"/>
          <note key="41" pan="0" pos="4548" vol="94" len="21"/>
          <note key="38" pan="0" pos="4572" vol="94" len="9"/>
          <note key="41" pan="0" pos="4584" vol="94" len="9"/>
          <note key="43" pan="0" pos="4596" vol="94" len="9"/>
        </pattern>
        <pattern steps="16" name="Layton_TC" pos="19008" type="1" muted="0">
          <note key="38" pan="0" pos="0" vol="110" len="9"/>
          <note key="38" pan="0" pos="12" vol="110" len="9"/>
          <note key="50" pan="0" pos="24" vol="110" len="9"/>
          <note key="45" pan="0" pos="48" vol="110" len="9"/>
          <note key="44" pan="0" pos="84" vol="110" len="9"/>
          <note key="43" pan="0" pos="108" vol="110" len="9"/>
          <note key="41" pan="0" pos="132" vol="110" len="21"/>
          <note key="38" pan="0" pos="156" vol="110" len="9"/>
          <note key="41" pan="0" pos="168" vol="110" len="9"/>
          <note key="43" pan="0" pos="180" vol="110" len="9"/>
          <note key="36" pan="0" pos="192" vol="110" len="9"/>
          <note key="36" pan="0" pos="204" vol="110" len="9"/>
          <note key="50" pan="0" pos="216" vol="110" len="9"/>
          <note key="45" pan="0" pos="240" vol="110" len="9"/>
          <note key="44" pan="0" pos="276" vol="110" len="9"/>
          <note key="43" pan="0" pos="300" vol="110" len="9"/>
          <note key="41" pan="0" pos="324" vol="110" len="21"/>
          <note key="38" pan="0" pos="348" vol="110" len="9"/>
          <note key="41" pan="0" pos="360" vol="110" len="9"/>
          <note key="43" pan="0" pos="372" vol="110" len="9"/>
          <note key="35" pan="0" pos="384" vol="110" len="9"/>
          <note key="35" pan="0" pos="396" vol="110" len="9"/>
          <note key="50" pan="0" pos="408" vol="110" len="9"/>
          <note key="45" pan="0" pos="432" vol="110" len="9"/>
          <note key="44" pan="0" pos="468" vol="110" len="9"/>
          <note key="43" pan="0" pos="492" vol="110" len="9"/>
          <note key="41" pan="0" pos="516" vol="110" len="21"/>
          <note key="38" pan="0" pos="540" vol="110" len="9"/>
          <note key="41" pan="0" pos="552" vol="110" len="9"/>
          <note key="43" pan="0" pos="564" vol="110" len="9"/>
          <note key="34" pan="0" pos="576" vol="110" len="9"/>
          <note key="34" pan="0" pos="588" vol="110" len="9"/>
          <note key="50" pan="0" pos="600" vol="110" len="9"/>
          <note key="45" pan="0" pos="624" vol="110" len="9"/>
          <note key="44" pan="0" pos="660" vol="110" len="9"/>
          <note key="43" pan="0" pos="684" vol="110" len="9"/>
          <note key="41" pan="0" pos="708" vol="110" len="21"/>
          <note key="38" pan="0" pos="732" vol="110" len="9"/>
          <note key="41" pan="0" pos="744" vol="110" len="9"/>
          <note key="43" pan="0" pos="756" vol="110" len="9"/>
        </pattern>
        <pattern steps="16" name="Layton_TC" pos="24384" type="1" muted="0">
          <note key="38" pan="0" pos="0" vol="125" len="9"/>
          <note key="38" pan="0" pos="12" vol="125" len="9"/>
          <note key="50" pan="0" pos="24" vol="125" len="9"/>
          <note key="45" pan="0" pos="48" vol="125" len="9"/>
          <note key="44" pan="0" pos="84" vol="125" len="9"/>
          <note key="43" pan="0" pos="108" vol="125" len="9"/>
          <note key="41" pan="0" pos="132" vol="125" len="21"/>
          <note key="38" pan="0" pos="156" vol="125" len="9"/>
          <note key="41" pan="0" pos="168" vol="125" len="9"/>
          <note key="43" pan="0" pos="180" vol="125" len="9"/>
          <note key="36" pan="0" pos="192" vol="125" len="9"/>
          <note key="36" pan="0" pos="204" vol="125" len="9"/>
          <note key="50" pan="0" pos="216" vol="125" len="9"/>
          <note key="45" pan="0" pos="240" vol="125" len="9"/>
          <note key="44" pan="0" pos="276" vol="125" len="9"/>
          <note key="43" pan="0" pos="300" vol="125" len="9"/>
          <note key="41" pan="0" pos="324" vol="125" len="21"/>
          <note key="38" pan="0" pos="348" vol="125" len="9"/>
          <note key="41" pan="0" pos="360" vol="125" len="9"/>
          <note key="43" pan="0" pos="372" vol="125" len="9"/>
          <note key="35" pan="0" pos="384" vol="125" len="9"/>
          <note key="35" pan="0" pos="396" vol="125" len="9"/>
          <note key="50" pan="0" pos="408" vol="125" len="9"/>
          <note key="45" pan="0" pos="432" vol="125" len="9"/>
          <note key="44" pan="0" pos="468" vol="125" len="9"/>
          <note key="43" pan="0" pos="492" vol="125" len="9"/>
          <note key="41" pan="0" pos="516" vol="125" len="21"/>
          <note key="38" pan="0" pos="540" vol="125" len="9"/>
          <note key="41" pan="0" pos="552" vol="125" len="9"/>
          <note key="43" pan="0" pos="564" vol="125" len="9"/>
          <note key="35" pan="0" pos="576" vol="125" len="9"/>
          <note key="35" pan="0" pos="588" vol="125" len="9"/>
          <note key="50" pan="0" pos="600" vol="125" len="9"/>
          <note key="45" pan="0" pos="624" vol="125" len="9"/>
          <note key="44" pan="0" pos="660" vol="125" len="9"/>
          <note key="43" pan="0" pos="684" vol="125" len="9"/>
          <note key="41" pan="0" pos="708" vol="125" len="21"/>
          <note key="38" pan="0" pos="732" vol="125" len="9"/>
          <note key="41" pan="0" pos="744" vol="125" len="9"/>
          <note key="43" pan="0" pos="756" vol="125" len="9"/>
          <note key="34" pan="0" pos="768" vol="125" len="9"/>
          <note key="34" pan="0" pos="780" vol="125" len="9"/>
          <note key="50" pan="0" pos="792" vol="125" len="9"/>
          <note key="45" pan="0" pos="816" vol="125" len="9"/>
          <note key="44" pan="0" pos="852" vol="125" len="9"/>
          <note key="43" pan="0" pos="876" vol="125" len="9"/>
          <note key="41" pan="0" pos="900" vol="125" len="21"/>
          <note key="38" pan="0" pos="924" vol="125" len="9"/>
          <note key="41" pan="0" pos="936" vol="125" len="9"/>
          <note key="43" pan="0" pos="948" vol="125" len="9"/>
          <note key="36" pan="0" pos="960" vol="125" len="9"/>
          <note key="36" pan="0" pos="972" vol="125" len="9"/>
          <note key="50" pan="0" pos="984" vol="125" len="9"/>
          <note key="45" pan="0" pos="1008" vol="125" len="9"/>
          <note key="44" pan="0" pos="1044" vol="125" len="9"/>
          <note key="43" pan="0" pos="1068" vol="125" len="9"/>
          <note key="41" pan="0" pos="1092" vol="125" len="21"/>
          <note key="38" pan="0" pos="1116" vol="125" len="9"/>
          <note key="41" pan="0" pos="1128" vol="125" len="9"/>
          <note key="43" pan="0" pos="1140" vol="125" len="9"/>
          <note key="38" pan="0" pos="1152" vol="125" len="9"/>
          <note key="38" pan="0" pos="1164" vol="125" len="9"/>
          <note key="50" pan="0" pos="1176" vol="125" len="9"/>
          <note key="45" pan="0" pos="1200" vol="125" len="9"/>
          <note key="44" pan="0" pos="1236" vol="125" len="9"/>
          <note key="43" pan="0" pos="1260" vol="125" len="9"/>
          <note key="41" pan="0" pos="1284" vol="125" len="21"/>
          <note key="38" pan="0" pos="1308" vol="125" len="9"/>
          <note key="41" pan="0" pos="1320" vol="125" len="9"/>
          <note key="43" pan="0" pos="1332" vol="125" len="9"/>
          <note key="38" pan="0" pos="1344" vol="125" len="9"/>
          <note key="38" pan="0" pos="1356" vol="125" len="9"/>
          <note key="50" pan="0" pos="1368" vol="125" len="9"/>
          <note key="45" pan="0" pos="1392" vol="125" len="9"/>
          <note key="44" pan="0" pos="1428" vol="125" len="9"/>
          <note key="43" pan="0" pos="1452" vol="125" len="9"/>
          <note key="41" pan="0" pos="1476" vol="125" len="21"/>
          <note key="38" pan="0" pos="1500" vol="125" len="9"/>
          <note key="41" pan="0" pos="1512" vol="125" len="9"/>
          <note key="43" pan="0" pos="1524" vol="125" len="9"/>
        </pattern>
        <pattern steps="16" name="Layton_TC" pos="28608" type="1" muted="0">
          <note key="38" pan="0" pos="0" vol="125" len="9"/>
          <note key="38" pan="0" pos="12" vol="125" len="9"/>
          <note key="50" pan="0" pos="24" vol="125" len="9"/>
          <note key="45" pan="0" pos="48" vol="125" len="9"/>
          <note key="44" pan="0" pos="84" vol="125" len="9"/>
          <note key="43" pan="0" pos="108" vol="125" len="9"/>
          <note key="41" pan="0" pos="132" vol="125" len="21"/>
          <note key="38" pan="0" pos="156" vol="125" len="9"/>
          <note key="41" pan="0" pos="168" vol="125" len="9"/>
          <note key="43" pan="0" pos="180" vol="125" len="9"/>
          <note key="38" pan="0" pos="192" vol="125" len="9"/>
          <note key="38" pan="0" pos="204" vol="125" len="9"/>
          <note key="50" pan="0" pos="216" vol="125" len="9"/>
          <note key="45" pan="0" pos="240" vol="125" len="9"/>
          <note key="44" pan="0" pos="276" vol="125" len="9"/>
          <note key="43" pan="0" pos="300" vol="125" len="9"/>
          <note key="41" pan="0" pos="324" vol="125" len="21"/>
          <note key="38" pan="0" pos="348" vol="125" len="9"/>
          <note key="41" pan="0" pos="360" vol="125" len="9"/>
          <note key="43" pan="0" pos="372" vol="125" len="9"/>
          <note key="34" pan="0" pos="384" vol="125" len="9"/>
          <note key="34" pan="0" pos="396" vol="125" len="9"/>
          <note key="50" pan="0" pos="408" vol="125" len="9"/>
          <note key="45" pan="0" pos="432" vol="125" len="9"/>
          <note key="44" pan="0" pos="468" vol="125" len="9"/>
          <note key="43" pan="0" pos="492" vol="125" len="9"/>
          <note key="41" pan="0" pos="516" vol="125" len="21"/>
          <note key="38" pan="0" pos="540" vol="125" len="9"/>
          <note key="41" pan="0" pos="552" vol="125" len="9"/>
          <note key="43" pan="0" pos="564" vol="125" len="9"/>
          <note key="36" pan="0" pos="576" vol="125" len="9"/>
          <note key="36" pan="0" pos="588" vol="125" len="9"/>
          <note key="50" pan="0" pos="600" vol="125" len="9"/>
          <note key="45" pan="0" pos="624" vol="125" len="9"/>
          <note key="44" pan="0" pos="660" vol="125" len="9"/>
          <note key="43" pan="0" pos="684" vol="125" len="9"/>
          <note key="41" pan="0" pos="708" vol="125" len="21"/>
          <note key="38" pan="0" pos="732" vol="125" len="9"/>
          <note key="41" pan="0" pos="744" vol="125" len="9"/>
          <note key="43" pan="0" pos="756" vol="125" len="9"/>
          <note key="38" pan="0" pos="768" vol="125" len="9"/>
          <note key="38" pan="0" pos="780" vol="125" len="9"/>
          <note key="50" pan="0" pos="792" vol="125" len="9"/>
          <note key="45" pan="0" pos="816" vol="125" len="9"/>
          <note key="44" pan="0" pos="852" vol="125" len="9"/>
          <note key="43" pan="0" pos="876" vol="125" len="9"/>
          <note key="41" pan="0" pos="900" vol="125" len="21"/>
          <note key="38" pan="0" pos="924" vol="125" len="9"/>
          <note key="41" pan="0" pos="936" vol="125" len="9"/>
          <note key="43" pan="0" pos="948" vol="125" len="9"/>
          <note key="38" pan="0" pos="960" vol="125" len="9"/>
          <note key="38" pan="0" pos="972" vol="125" len="9"/>
          <note key="50" pan="0" pos="984" vol="125" len="9"/>
          <note key="45" pan="0" pos="1008" vol="125" len="9"/>
          <note key="44" pan="0" pos="1044" vol="125" len="9"/>
          <note key="43" pan="0" pos="1068" vol="125" len="9"/>
          <note key="41" pan="0" pos="1092" vol="125" len="21"/>
          <note key="38" pan="0" pos="1116" vol="125" len="9"/>
          <note key="41" pan="0" pos="1128" vol="125" len="9"/>
          <note key="43" pan="0" pos="1140" vol="125" len="9"/>
          <note key="34" pan="0" pos="1152" vol="125" len="9"/>
          <note key="34" pan="0" pos="1164" vol="125" len="9"/>
          <note key="50" pan="0" pos="1176" vol="125" len="9"/>
          <note key="45" pan="0" pos="1200" vol="125" len="9"/>
          <note key="44" pan="0" pos="1236" vol="125" len="9"/>
          <note key="43" pan="0" pos="1260" vol="125" len="9"/>
          <note key="41" pan="0" pos="1284" vol="125" len="21"/>
          <note key="38" pan="0" pos="1308" vol="125" len="9"/>
          <note key="41" pan="0" pos="1320" vol="125" len="9"/>
          <note key="43" pan="0" pos="1332" vol="125" len="9"/>
          <note key="36" pan="0" pos="1344" vol="125" len="9"/>
          <note key="36" pan="0" pos="1356" vol="125" len="9"/>
          <note key="50" pan="0" pos="1368" vol="125" len="9"/>
          <note key="45" pan="0" pos="1392" vol="125" len="9"/>
          <note key="44" pan="0" pos="1428" vol="125" len="9"/>
          <note key="43" pan="0" pos="1452" vol="125" len="9"/>
          <note key="41" pan="0" pos="1476" vol="125" len="21"/>
          <note key="38" pan="0" pos="1500" vol="125" len="9"/>
          <note key="41" pan="0" pos="1512" vol="125" len="9"/>
          <note key="43" pan="0" pos="1524" vol="125" len="9"/>
        </pattern>
      </track>
      <track name="Untitled > Pitch" type="5" solo="0" muted="0">
        <automationtrack/>
        <automationpattern tens="1" mute="0" pos="192" name="Layton_TC>Pitch" prog="0" len="192">
          <time pos="0" value="-6.49414"/>
          <object id="16089"/>
        </automationpattern>
        <automationpattern tens="1" mute="0" pos="15168" name="Layton_TC>Pitch" prog="0" len="192">
          <time pos="0" value="-6.49414"/>
          <object id="16089"/>
        </automationpattern>
      </track>
      <track minimized="0" x="605" name="Track 2" visible="1" maximized="0" type="0" solo="0" y="0" tab="0" muted="0" width="262" height="467">
        <instrumenttrack fxch="0" basenote="57" vol="100" usemasterpitch="1" pitchrange="2">
          <pan scale_type="linear" id="24665" value="0.787402"/>
          <pitch scale_type="linear" id="13641" value="-6.49414"/>
          <instrument name="sf2player">
            <sf2player gain="1" src="C:/Users/cervi/Downloads/tmp/Layton_TC.sf2" reverbDamping="0" chorusOn="0" chorusSpeed="0.3" reverbOn="0" chorusNum="3" reverbLevel="0.9" chorusDepth="8" reverbWidth="0.5" bank="0" patch="87" reverbRoomSize="0.2" chorusLevel="2"/>
          </instrument>
          <eldata fwet="0" fres="0.5" fcut="14000" ftype="0">
            <elvol dec="0.5" lspd="0.1" hold="0.5" sustain="0.5" lshp="0" ctlenvamt="0" rel="0.1" userwavefile="" lamt="0" pdel="0" lspd_syncmode="0" lpdel="0" att="0" x100="0" lspd_numerator="4" lspd_denominator="4" amt="0" latt="0"/>
            <elcut dec="0.5" lspd="0.1" hold="0.5" sustain="0.5" lshp="0" ctlenvamt="0" rel="0.1" userwavefile="" lamt="0" pdel="0" lspd_syncmode="0" lpdel="0" att="0" x100="0" lspd_numerator="4" lspd_denominator="4" amt="0" latt="0"/>
            <elres dec="0.5" lspd="0.1" hold="0.5" sustain="0.5" lshp="0" ctlenvamt="0" rel="0.1" userwavefile="" lamt="0" pdel="0" lspd_syncmode="0" lpdel="0" att="0" x100="0" lspd_numerator="4" lspd_denominator="4" amt="0" latt="0"/>
          </eldata>
          <chordcreator chord="0" chordrange="1" chord-enabled="0"/>
          <arpeggiator arpcycle="0" arpgate="100" arp="0" arprange="1" arpdir="0" arp-enabled="0" arpskip="0" arptime_syncmode="0" arptime="200" arpmiss="0" arpmode="0" arptime_denominator="4" arptime_numerator="4"/>
          <midiport inputchannel="0" fixedoutputvelocity="-1" outputchannel="1" outputcontroller="0" writable="0" inputcontroller="0" fixedoutputnote="-1" outputprogram="1" basevelocity="63" fixedinputvelocity="-1" readable="0"/>
          <fxchain enabled="0" numofeffects="0"/>
        </instrumenttrack>
        <pattern steps="16" name="Track 2" pos="1728" type="1" muted="0">
          <note key="62" pan="0" pos="0" vol="94" len="9"/>
          <note key="50" pan="0" pos="0" vol="94" len="9"/>
          <note key="62" pan="0" pos="12" vol="94" len="9"/>
          <note key="50" pan="0" pos="12" vol="94" len="9"/>
          <note key="74" pan="0" pos="24" vol="94" len="9"/>
          <note key="62" pan="0" pos="24" vol="94" len="9"/>
          <note key="69" pan="0" pos="48" vol="94" len="9"/>
          <note key="57" pan="0" pos="48" vol="94" len="9"/>
          <note key="68" pan="0" pos="84" vol="94" len="9"/>
          <note key="56" pan="0" pos="84" vol="94" len="9"/>
          <note key="67" pan="0" pos="108" vol="94" len="9"/>
          <note key="55" pan="0" pos="108" vol="94" len="9"/>
          <note key="65" pan="0" pos="132" vol="94" len="21"/>
          <note key="53" pan="0" pos="132" vol="94" len="21"/>
          <note key="62" pan="0" pos="156" vol="94" len="9"/>
          <note key="50" pan="0" pos="156" vol="94" len="9"/>
          <note key="65" pan="0" pos="168" vol="94" len="9"/>
          <note key="53" pan="0" pos="168" vol="94" len="9"/>
          <note key="67" pan="0" pos="180" vol="94" len="9"/>
          <note key="55" pan="0" pos="180" vol="94" len="9"/>
          <note key="60" pan="0" pos="192" vol="94" len="9"/>
          <note key="48" pan="0" pos="192" vol="94" len="9"/>
          <note key="60" pan="0" pos="204" vol="94" len="9"/>
          <note key="48" pan="0" pos="204" vol="94" len="9"/>
          <note key="74" pan="0" pos="216" vol="94" len="9"/>
          <note key="62" pan="0" pos="216" vol="94" len="9"/>
          <note key="69" pan="0" pos="240" vol="94" len="9"/>
          <note key="57" pan="0" pos="240" vol="94" len="9"/>
          <note key="68" pan="0" pos="276" vol="94" len="9"/>
          <note key="56" pan="0" pos="276" vol="94" len="9"/>
          <note key="67" pan="0" pos="300" vol="94" len="9"/>
          <note key="55" pan="0" pos="300" vol="94" len="9"/>
          <note key="65" pan="0" pos="324" vol="94" len="21"/>
          <note key="53" pan="0" pos="324" vol="94" len="21"/>
          <note key="62" pan="0" pos="348" vol="94" len="9"/>
          <note key="50" pan="0" pos="348" vol="94" len="9"/>
          <note key="65" pan="0" pos="360" vol="94" len="9"/>
          <note key="53" pan="0" pos="360" vol="94" len="9"/>
          <note key="67" pan="0" pos="372" vol="94" len="9"/>
          <note key="55" pan="0" pos="372" vol="94" len="9"/>
          <note key="59" pan="0" pos="384" vol="94" len="9"/>
          <note key="47" pan="0" pos="384" vol="94" len="9"/>
          <note key="59" pan="0" pos="396" vol="94" len="9"/>
          <note key="47" pan="0" pos="396" vol="94" len="9"/>
          <note key="74" pan="0" pos="408" vol="94" len="9"/>
          <note key="62" pan="0" pos="408" vol="94" len="9"/>
          <note key="69" pan="0" pos="432" vol="94" len="9"/>
          <note key="57" pan="0" pos="432" vol="94" len="9"/>
          <note key="68" pan="0" pos="468" vol="94" len="9"/>
          <note key="56" pan="0" pos="468" vol="94" len="9"/>
          <note key="67" pan="0" pos="492" vol="94" len="9"/>
          <note key="55" pan="0" pos="492" vol="94" len="9"/>
          <note key="65" pan="0" pos="516" vol="94" len="21"/>
          <note key="53" pan="0" pos="516" vol="94" len="21"/>
          <note key="62" pan="0" pos="540" vol="94" len="9"/>
          <note key="50" pan="0" pos="540" vol="94" len="9"/>
          <note key="65" pan="0" pos="552" vol="94" len="9"/>
          <note key="53" pan="0" pos="552" vol="94" len="9"/>
          <note key="67" pan="0" pos="564" vol="94" len="9"/>
          <note key="55" pan="0" pos="564" vol="94" len="9"/>
          <note key="58" pan="0" pos="576" vol="94" len="9"/>
          <note key="46" pan="0" pos="576" vol="94" len="9"/>
          <note key="58" pan="0" pos="588" vol="94" len="9"/>
          <note key="46" pan="0" pos="588" vol="94" len="9"/>
          <note key="74" pan="0" pos="600" vol="94" len="9"/>
          <note key="62" pan="0" pos="600" vol="94" len="9"/>
          <note key="69" pan="0" pos="624" vol="94" len="9"/>
          <note key="57" pan="0" pos="624" vol="94" len="9"/>
          <note key="68" pan="0" pos="660" vol="94" len="9"/>
          <note key="56" pan="0" pos="660" vol="94" len="9"/>
          <note key="67" pan="0" pos="684" vol="94" len="9"/>
          <note key="55" pan="0" pos="684" vol="94" len="9"/>
          <note key="65" pan="0" pos="708" vol="94" len="21"/>
          <note key="53" pan="0" pos="708" vol="94" len="21"/>
          <note key="62" pan="0" pos="732" vol="94" len="9"/>
          <note key="50" pan="0" pos="732" vol="94" len="9"/>
          <note key="65" pan="0" pos="744" vol="94" len="9"/>
          <note key="53" pan="0" pos="744" vol="94" len="9"/>
          <note key="67" pan="0" pos="756" vol="94" len="9"/>
          <note key="55" pan="0" pos="756" vol="94" len="9"/>
          <note key="62" pan="0" pos="768" vol="94" len="9"/>
          <note key="50" pan="0" pos="768" vol="94" len="9"/>
          <note key="62" pan="0" pos="780" vol="94" len="9"/>
          <note key="50" pan="0" pos="780" vol="94" len="9"/>
          <note key="74" pan="0" pos="792" vol="94" len="9"/>
          <note key="62" pan="0" pos="792" vol="94" len="9"/>
          <note key="69" pan="0" pos="816" vol="94" len="9"/>
          <note key="57" pan="0" pos="816" vol="94" len="9"/>
          <note key="68" pan="0" pos="852" vol="94" len="9"/>
          <note key="56" pan="0" pos="852" vol="94" len="9"/>
          <note key="67" pan="0" pos="876" vol="94" len="9"/>
          <note key="55" pan="0" pos="876" vol="94" len="9"/>
          <note key="65" pan="0" pos="900" vol="94" len="21"/>
          <note key="53" pan="0" pos="900" vol="94" len="21"/>
          <note key="62" pan="0" pos="924" vol="94" len="9"/>
          <note key="50" pan="0" pos="924" vol="94" len="9"/>
          <note key="65" pan="0" pos="936" vol="94" len="9"/>
          <note key="53" pan="0" pos="936" vol="94" len="9"/>
          <note key="67" pan="0" pos="948" vol="94" len="9"/>
          <note key="55" pan="0" pos="948" vol="94" len="9"/>
          <note key="60" pan="0" pos="960" vol="94" len="9"/>
          <note key="48" pan="0" pos="960" vol="94" len="9"/>
          <note key="60" pan="0" pos="972" vol="94" len="9"/>
          <note key="48" pan="0" pos="972" vol="94" len="9"/>
          <note key="74" pan="0" pos="984" vol="94" len="9"/>
          <note key="62" pan="0" pos="984" vol="94" len="9"/>
          <note key="69" pan="0" pos="1008" vol="94" len="9"/>
          <note key="57" pan="0" pos="1008" vol="94" len="9"/>
          <note key="68" pan="0" pos="1044" vol="94" len="9"/>
          <note key="56" pan="0" pos="1044" vol="94" len="9"/>
          <note key="67" pan="0" pos="1068" vol="94" len="9"/>
          <note key="55" pan="0" pos="1068" vol="94" len="9"/>
          <note key="65" pan="0" pos="1092" vol="94" len="21"/>
          <note key="53" pan="0" pos="1092" vol="94" len="21"/>
          <note key="62" pan="0" pos="1116" vol="94" len="9"/>
          <note key="50" pan="0" pos="1116" vol="94" len="9"/>
          <note key="65" pan="0" pos="1128" vol="94" len="9"/>
          <note key="53" pan="0" pos="1128" vol="94" len="9"/>
          <note key="67" pan="0" pos="1140" vol="94" len="9"/>
          <note key="55" pan="0" pos="1140" vol="94" len="9"/>
          <note key="59" pan="0" pos="1152" vol="94" len="9"/>
          <note key="47" pan="0" pos="1152" vol="94" len="9"/>
          <note key="59" pan="0" pos="1164" vol="94" len="9"/>
          <note key="47" pan="0" pos="1164" vol="94" len="9"/>
          <note key="74" pan="0" pos="1176" vol="94" len="9"/>
          <note key="62" pan="0" pos="1176" vol="94" len="9"/>
          <note key="69" pan="0" pos="1200" vol="94" len="9"/>
          <note key="57" pan="0" pos="1200" vol="94" len="9"/>
          <note key="68" pan="0" pos="1236" vol="94" len="9"/>
          <note key="56" pan="0" pos="1236" vol="94" len="9"/>
          <note key="67" pan="0" pos="1260" vol="94" len="9"/>
          <note key="55" pan="0" pos="1260" vol="94" len="9"/>
          <note key="65" pan="0" pos="1284" vol="94" len="21"/>
          <note key="53" pan="0" pos="1284" vol="94" len="21"/>
          <note key="62" pan="0" pos="1308" vol="94" len="9"/>
          <note key="50" pan="0" pos="1308" vol="94" len="9"/>
          <note key="65" pan="0" pos="1320" vol="94" len="9"/>
          <note key="53" pan="0" pos="1320" vol="94" len="9"/>
          <note key="67" pan="0" pos="1332" vol="94" len="9"/>
          <note key="55" pan="0" pos="1332" vol="94" len="9"/>
          <note key="58" pan="0" pos="1344" vol="94" len="9"/>
          <note key="46" pan="0" pos="1344" vol="94" len="9"/>
          <note key="58" pan="0" pos="1356" vol="94" len="9"/>
          <note key="46" pan="0" pos="1356" vol="94" len="9"/>
          <note key="74" pan="0" pos="1368" vol="94" len="9"/>
          <note key="62" pan="0" pos="1368" vol="94" len="9"/>
          <note key="69" pan="0" pos="1392" vol="94" len="9"/>
          <note key="57" pan="0" pos="1392" vol="94" len="9"/>
          <note key="68" pan="0" pos="1428" vol="94" len="9"/>
          <note key="56" pan="0" pos="1428" vol="94" len="9"/>
          <note key="67" pan="0" pos="1452" vol="94" len="9"/>
          <note key="55" pan="0" pos="1452" vol="94" len="9"/>
          <note key="65" pan="0" pos="1476" vol="94" len="21"/>
          <note key="53" pan="0" pos="1476" vol="94" len="21"/>
          <note key="62" pan="0" pos="1500" vol="94" len="9"/>
          <note key="50" pan="0" pos="1500" vol="94" len="9"/>
          <note key="65" pan="0" pos="1512" vol="94" len="9"/>
          <note key="53" pan="0" pos="1512" vol="94" len="9"/>
          <note key="67" pan="0" pos="1524" vol="94" len="9"/>
          <note key="55" pan="0" pos="1524" vol="94" len="9"/>
        </pattern>
        <pattern steps="16" name="Track 2" pos="9984" type="1" muted="0">
          <note key="65" pan="0" pos="24" vol="70" len="12"/>
          <note key="62" pan="0" pos="36" vol="70" len="12"/>
          <note key="67" pan="0" pos="48" vol="86" len="12"/>
          <note key="65" pan="0" pos="72" vol="86" len="12"/>
          <note key="62" pan="0" pos="96" vol="86" len="12"/>
          <note key="60" pan="0" pos="108" vol="86" len="12"/>
          <note key="57" pan="0" pos="132" vol="70" len="24"/>
          <note key="55" pan="0" pos="156" vol="70" len="12"/>
          <note key="57" pan="0" pos="168" vol="70" len="12"/>
          <note key="60" pan="0" pos="180" vol="70" len="12"/>
          <note key="53" pan="0" pos="216" vol="70" len="12"/>
          <note key="50" pan="0" pos="240" vol="70" len="12"/>
          <note key="48" pan="0" pos="276" vol="70" len="12"/>
          <note key="46" pan="0" pos="300" vol="70" len="12"/>
          <note key="45" pan="0" pos="324" vol="70" len="24"/>
          <note key="43" pan="0" pos="348" vol="70" len="12"/>
          <note key="45" pan="0" pos="360" vol="70" len="12"/>
          <note key="48" pan="0" pos="372" vol="70" len="12"/>
          <note key="53" pan="0" pos="408" vol="70" len="12"/>
          <note key="50" pan="0" pos="432" vol="70" len="12"/>
          <note key="48" pan="0" pos="468" vol="70" len="12"/>
          <note key="46" pan="0" pos="492" vol="70" len="12"/>
          <note key="45" pan="0" pos="516" vol="70" len="24"/>
          <note key="43" pan="0" pos="540" vol="70" len="12"/>
          <note key="45" pan="0" pos="552" vol="70" len="12"/>
          <note key="48" pan="0" pos="564" vol="70" len="12"/>
          <note key="53" pan="0" pos="600" vol="70" len="12"/>
          <note key="50" pan="0" pos="624" vol="70" len="12"/>
          <note key="48" pan="0" pos="660" vol="70" len="12"/>
          <note key="46" pan="0" pos="684" vol="70" len="12"/>
          <note key="45" pan="0" pos="708" vol="70" len="24"/>
          <note key="43" pan="0" pos="732" vol="70" len="12"/>
          <note key="45" pan="0" pos="744" vol="70" len="12"/>
          <note key="48" pan="0" pos="756" vol="70" len="12"/>
          <note key="53" pan="0" pos="792" vol="70" len="12"/>
          <note key="50" pan="0" pos="816" vol="70" len="12"/>
          <note key="48" pan="0" pos="852" vol="70" len="12"/>
          <note key="46" pan="0" pos="876" vol="70" len="12"/>
          <note key="45" pan="0" pos="900" vol="70" len="24"/>
          <note key="43" pan="0" pos="924" vol="70" len="12"/>
          <note key="45" pan="0" pos="936" vol="70" len="12"/>
          <note key="48" pan="0" pos="948" vol="70" len="12"/>
        </pattern>
        <pattern steps="16" name="Track 2" pos="16704" type="1" muted="0">
          <note key="62" pan="0" pos="0" vol="94" len="9"/>
          <note key="50" pan="0" pos="0" vol="94" len="9"/>
          <note key="62" pan="0" pos="12" vol="94" len="9"/>
          <note key="50" pan="0" pos="12" vol="94" len="9"/>
          <note key="74" pan="0" pos="24" vol="94" len="9"/>
          <note key="62" pan="0" pos="24" vol="94" len="9"/>
          <note key="69" pan="0" pos="48" vol="94" len="9"/>
          <note key="57" pan="0" pos="48" vol="94" len="9"/>
          <note key="68" pan="0" pos="84" vol="94" len="9"/>
          <note key="56" pan="0" pos="84" vol="94" len="9"/>
          <note key="67" pan="0" pos="108" vol="94" len="9"/>
          <note key="55" pan="0" pos="108" vol="94" len="9"/>
          <note key="65" pan="0" pos="132" vol="94" len="21"/>
          <note key="53" pan="0" pos="132" vol="94" len="21"/>
          <note key="62" pan="0" pos="156" vol="94" len="9"/>
          <note key="50" pan="0" pos="156" vol="94" len="9"/>
          <note key="65" pan="0" pos="168" vol="94" len="9"/>
          <note key="53" pan="0" pos="168" vol="94" len="9"/>
          <note key="67" pan="0" pos="180" vol="94" len="9"/>
          <note key="55" pan="0" pos="180" vol="94" len="9"/>
          <note key="60" pan="0" pos="192" vol="94" len="9"/>
          <note key="48" pan="0" pos="192" vol="94" len="9"/>
          <note key="60" pan="0" pos="204" vol="94" len="9"/>
          <note key="48" pan="0" pos="204" vol="94" len="9"/>
          <note key="74" pan="0" pos="216" vol="94" len="9"/>
          <note key="62" pan="0" pos="216" vol="94" len="9"/>
          <note key="69" pan="0" pos="240" vol="94" len="9"/>
          <note key="57" pan="0" pos="240" vol="94" len="9"/>
          <note key="68" pan="0" pos="276" vol="94" len="9"/>
          <note key="56" pan="0" pos="276" vol="94" len="9"/>
          <note key="67" pan="0" pos="300" vol="94" len="9"/>
          <note key="55" pan="0" pos="300" vol="94" len="9"/>
          <note key="65" pan="0" pos="324" vol="94" len="21"/>
          <note key="53" pan="0" pos="324" vol="94" len="21"/>
          <note key="62" pan="0" pos="348" vol="94" len="9"/>
          <note key="50" pan="0" pos="348" vol="94" len="9"/>
          <note key="65" pan="0" pos="360" vol="94" len="9"/>
          <note key="53" pan="0" pos="360" vol="94" len="9"/>
          <note key="67" pan="0" pos="372" vol="94" len="9"/>
          <note key="55" pan="0" pos="372" vol="94" len="9"/>
          <note key="59" pan="0" pos="384" vol="94" len="9"/>
          <note key="47" pan="0" pos="384" vol="94" len="9"/>
          <note key="59" pan="0" pos="396" vol="94" len="9"/>
          <note key="47" pan="0" pos="396" vol="94" len="9"/>
          <note key="74" pan="0" pos="408" vol="94" len="9"/>
          <note key="62" pan="0" pos="408" vol="94" len="9"/>
          <note key="69" pan="0" pos="432" vol="94" len="9"/>
          <note key="57" pan="0" pos="432" vol="94" len="9"/>
          <note key="68" pan="0" pos="468" vol="94" len="9"/>
          <note key="56" pan="0" pos="468" vol="94" len="9"/>
          <note key="67" pan="0" pos="492" vol="94" len="9"/>
          <note key="55" pan="0" pos="492" vol="94" len="9"/>
          <note key="65" pan="0" pos="516" vol="94" len="21"/>
          <note key="53" pan="0" pos="516" vol="94" len="21"/>
          <note key="62" pan="0" pos="540" vol="94" len="9"/>
          <note key="50" pan="0" pos="540" vol="94" len="9"/>
          <note key="65" pan="0" pos="552" vol="94" len="9"/>
          <note key="53" pan="0" pos="552" vol="94" len="9"/>
          <note key="67" pan="0" pos="564" vol="94" len="9"/>
          <note key="55" pan="0" pos="564" vol="94" len="9"/>
          <note key="58" pan="0" pos="576" vol="94" len="9"/>
          <note key="46" pan="0" pos="576" vol="94" len="9"/>
          <note key="58" pan="0" pos="588" vol="94" len="9"/>
          <note key="46" pan="0" pos="588" vol="94" len="9"/>
          <note key="74" pan="0" pos="600" vol="94" len="9"/>
          <note key="62" pan="0" pos="600" vol="94" len="9"/>
          <note key="69" pan="0" pos="624" vol="94" len="9"/>
          <note key="57" pan="0" pos="624" vol="94" len="9"/>
          <note key="68" pan="0" pos="660" vol="94" len="9"/>
          <note key="56" pan="0" pos="660" vol="94" len="9"/>
          <note key="67" pan="0" pos="684" vol="94" len="9"/>
          <note key="55" pan="0" pos="684" vol="94" len="9"/>
          <note key="65" pan="0" pos="708" vol="94" len="21"/>
          <note key="53" pan="0" pos="708" vol="94" len="21"/>
          <note key="62" pan="0" pos="732" vol="94" len="9"/>
          <note key="50" pan="0" pos="732" vol="94" len="9"/>
          <note key="65" pan="0" pos="744" vol="94" len="9"/>
          <note key="53" pan="0" pos="744" vol="94" len="9"/>
          <note key="67" pan="0" pos="756" vol="94" len="9"/>
          <note key="55" pan="0" pos="756" vol="94" len="9"/>
          <note key="62" pan="0" pos="768" vol="94" len="9"/>
          <note key="50" pan="0" pos="768" vol="94" len="9"/>
          <note key="62" pan="0" pos="780" vol="94" len="9"/>
          <note key="50" pan="0" pos="780" vol="94" len="9"/>
          <note key="74" pan="0" pos="792" vol="94" len="9"/>
          <note key="62" pan="0" pos="792" vol="94" len="9"/>
          <note key="69" pan="0" pos="816" vol="94" len="9"/>
          <note key="57" pan="0" pos="816" vol="94" len="9"/>
          <note key="68" pan="0" pos="852" vol="94" len="9"/>
          <note key="56" pan="0" pos="852" vol="94" len="9"/>
          <note key="67" pan="0" pos="876" vol="94" len="9"/>
          <note key="55" pan="0" pos="876" vol="94" len="9"/>
          <note key="65" pan="0" pos="900" vol="94" len="21"/>
          <note key="53" pan="0" pos="900" vol="94" len="21"/>
          <note key="62" pan="0" pos="924" vol="94" len="9"/>
          <note key="50" pan="0" pos="924" vol="94" len="9"/>
          <note key="65" pan="0" pos="936" vol="94" len="9"/>
          <note key="53" pan="0" pos="936" vol="94" len="9"/>
          <note key="67" pan="0" pos="948" vol="94" len="9"/>
          <note key="55" pan="0" pos="948" vol="94" len="9"/>
          <note key="60" pan="0" pos="960" vol="94" len="9"/>
          <note key="48" pan="0" pos="960" vol="94" len="9"/>
          <note key="60" pan="0" pos="972" vol="94" len="9"/>
          <note key="48" pan="0" pos="972" vol="94" len="9"/>
          <note key="74" pan="0" pos="984" vol="94" len="9"/>
          <note key="62" pan="0" pos="984" vol="94" len="9"/>
          <note key="69" pan="0" pos="1008" vol="94" len="9"/>
          <note key="57" pan="0" pos="1008" vol="94" len="9"/>
          <note key="68" pan="0" pos="1044" vol="94" len="9"/>
          <note key="56" pan="0" pos="1044" vol="94" len="9"/>
          <note key="67" pan="0" pos="1068" vol="94" len="9"/>
          <note key="55" pan="0" pos="1068" vol="94" len="9"/>
          <note key="65" pan="0" pos="1092" vol="94" len="21"/>
          <note key="53" pan="0" pos="1092" vol="94" len="21"/>
          <note key="62" pan="0" pos="1116" vol="94" len="9"/>
          <note key="50" pan="0" pos="1116" vol="94" len="9"/>
          <note key="65" pan="0" pos="1128" vol="94" len="9"/>
          <note key="53" pan="0" pos="1128" vol="94" len="9"/>
          <note key="67" pan="0" pos="1140" vol="94" len="9"/>
          <note key="55" pan="0" pos="1140" vol="94" len="9"/>
          <note key="59" pan="0" pos="1152" vol="94" len="9"/>
          <note key="47" pan="0" pos="1152" vol="94" len="9"/>
          <note key="59" pan="0" pos="1164" vol="94" len="9"/>
          <note key="47" pan="0" pos="1164" vol="94" len="9"/>
          <note key="74" pan="0" pos="1176" vol="94" len="9"/>
          <note key="62" pan="0" pos="1176" vol="94" len="9"/>
          <note key="69" pan="0" pos="1200" vol="94" len="9"/>
          <note key="57" pan="0" pos="1200" vol="94" len="9"/>
          <note key="68" pan="0" pos="1236" vol="94" len="9"/>
          <note key="56" pan="0" pos="1236" vol="94" len="9"/>
          <note key="67" pan="0" pos="1260" vol="94" len="9"/>
          <note key="55" pan="0" pos="1260" vol="94" len="9"/>
          <note key="65" pan="0" pos="1284" vol="94" len="21"/>
          <note key="53" pan="0" pos="1284" vol="94" len="21"/>
          <note key="62" pan="0" pos="1308" vol="94" len="9"/>
          <note key="50" pan="0" pos="1308" vol="94" len="9"/>
          <note key="65" pan="0" pos="1320" vol="94" len="9"/>
          <note key="53" pan="0" pos="1320" vol="94" len="9"/>
          <note key="67" pan="0" pos="1332" vol="94" len="9"/>
          <note key="55" pan="0" pos="1332" vol="94" len="9"/>
          <note key="58" pan="0" pos="1344" vol="94" len="9"/>
          <note key="46" pan="0" pos="1344" vol="94" len="9"/>
          <note key="58" pan="0" pos="1356" vol="94" len="9"/>
          <note key="46" pan="0" pos="1356" vol="94" len="9"/>
          <note key="74" pan="0" pos="1368" vol="94" len="9"/>
          <note key="62" pan="0" pos="1368" vol="94" len="9"/>
          <note key="69" pan="0" pos="1392" vol="94" len="9"/>
          <note key="57" pan="0" pos="1392" vol="94" len="9"/>
          <note key="68" pan="0" pos="1428" vol="94" len="9"/>
          <note key="56" pan="0" pos="1428" vol="94" len="9"/>
          <note key="67" pan="0" pos="1452" vol="94" len="9"/>
          <note key="55" pan="0" pos="1452" vol="94" len="9"/>
          <note key="65" pan="0" pos="1476" vol="94" len="21"/>
          <note key="53" pan="0" pos="1476" vol="94" len="21"/>
          <note key="62" pan="0" pos="1500" vol="94" len="9"/>
          <note key="50" pan="0" pos="1500" vol="94" len="9"/>
          <note key="65" pan="0" pos="1512" vol="94" len="9"/>
          <note key="53" pan="0" pos="1512" vol="94" len="9"/>
          <note key="67" pan="0" pos="1524" vol="94" len="9"/>
          <note key="55" pan="0" pos="1524" vol="94" len="9"/>
        </pattern>
        <pattern steps="16" name="Track 2" pos="24960" type="1" muted="0">
          <note key="65" pan="0" pos="24" vol="70" len="12"/>
          <note key="62" pan="0" pos="36" vol="70" len="12"/>
          <note key="67" pan="0" pos="48" vol="86" len="12"/>
          <note key="65" pan="0" pos="72" vol="86" len="12"/>
          <note key="62" pan="0" pos="96" vol="86" len="12"/>
          <note key="60" pan="0" pos="108" vol="86" len="12"/>
          <note key="57" pan="0" pos="132" vol="70" len="24"/>
          <note key="55" pan="0" pos="156" vol="70" len="12"/>
          <note key="57" pan="0" pos="168" vol="70" len="12"/>
          <note key="60" pan="0" pos="180" vol="70" len="12"/>
          <note key="53" pan="0" pos="216" vol="70" len="12"/>
          <note key="50" pan="0" pos="240" vol="70" len="12"/>
          <note key="48" pan="0" pos="276" vol="70" len="12"/>
          <note key="46" pan="0" pos="300" vol="70" len="12"/>
          <note key="45" pan="0" pos="324" vol="70" len="24"/>
          <note key="43" pan="0" pos="348" vol="70" len="12"/>
          <note key="45" pan="0" pos="360" vol="70" len="12"/>
          <note key="48" pan="0" pos="372" vol="70" len="12"/>
          <note key="53" pan="0" pos="408" vol="70" len="12"/>
          <note key="50" pan="0" pos="432" vol="70" len="12"/>
          <note key="48" pan="0" pos="468" vol="70" len="12"/>
          <note key="46" pan="0" pos="492" vol="70" len="12"/>
          <note key="45" pan="0" pos="516" vol="70" len="24"/>
          <note key="43" pan="0" pos="540" vol="70" len="12"/>
          <note key="45" pan="0" pos="552" vol="70" len="12"/>
          <note key="48" pan="0" pos="564" vol="70" len="12"/>
          <note key="53" pan="0" pos="600" vol="70" len="12"/>
          <note key="50" pan="0" pos="624" vol="70" len="12"/>
          <note key="48" pan="0" pos="660" vol="70" len="12"/>
          <note key="46" pan="0" pos="684" vol="70" len="12"/>
          <note key="45" pan="0" pos="708" vol="70" len="24"/>
          <note key="43" pan="0" pos="732" vol="70" len="12"/>
          <note key="45" pan="0" pos="744" vol="70" len="12"/>
          <note key="48" pan="0" pos="756" vol="70" len="12"/>
          <note key="53" pan="0" pos="792" vol="70" len="12"/>
          <note key="50" pan="0" pos="816" vol="70" len="12"/>
          <note key="48" pan="0" pos="852" vol="70" len="12"/>
          <note key="46" pan="0" pos="876" vol="70" len="12"/>
          <note key="45" pan="0" pos="900" vol="70" len="24"/>
          <note key="43" pan="0" pos="924" vol="70" len="12"/>
          <note key="45" pan="0" pos="936" vol="70" len="12"/>
          <note key="48" pan="0" pos="948" vol="70" len="12"/>
        </pattern>
      </track>
      <track name="Untitled > Pitch" type="5" solo="0" muted="0">
        <automationtrack/>
        <automationpattern tens="1" mute="0" pos="1728" name="Track 2>Pitch" prog="0" len="192">
          <time pos="0" value="-6.49414"/>
          <object id="13641"/>
        </automationpattern>
        <automationpattern tens="1" mute="0" pos="16704" name="Track 2>Pitch" prog="0" len="192">
          <time pos="0" value="-6.49414"/>
          <object id="13641"/>
        </automationpattern>
      </track>
      <track name="Untitled > Panning" type="5" solo="0" muted="0">
        <automationtrack/>
        <automationpattern tens="1" mute="0" pos="9984" name="Track 2>Panning" prog="0" len="192">
          <time pos="0" value="49.6063"/>
          <object id="24665"/>
        </automationpattern>
        <automationpattern tens="1" mute="0" pos="16512" name="Track 2>Panning" prog="0" len="192">
          <time pos="0" value="0.787402"/>
          <object id="24665"/>
        </automationpattern>
        <automationpattern tens="1" mute="0" pos="24960" name="Track 2>Panning" prog="0" len="192">
          <time pos="0" value="49.6063"/>
          <object id="24665"/>
        </automationpattern>
      </track>
      <track name="Track 3" type="0" solo="0" muted="0">
        <instrumenttrack fxch="0" basenote="57" pan="0" vol="100" usemasterpitch="1" pitchrange="2">
          <pitch scale_type="linear" id="29586" value="-6.49414"/>
          <instrument name="sf2player">
            <sf2player gain="1" src="C:/Users/cervi/Downloads/tmp/Layton_TC.sf2" reverbDamping="0" chorusOn="0" chorusSpeed="0.3" reverbOn="0" chorusNum="3" reverbLevel="0.9" chorusDepth="8" reverbWidth="0.5" bank="0" patch="29" reverbRoomSize="0.2" chorusLevel="2"/>
          </instrument>
          <eldata fwet="0" fres="0.5" fcut="14000" ftype="0">
            <elvol dec="0.5" lspd="0.1" hold="0.5" sustain="0.5" lshp="0" ctlenvamt="0" rel="0.1" userwavefile="" lamt="0" pdel="0" lspd_syncmode="0" lpdel="0" att="0" x100="0" lspd_numerator="4" lspd_denominator="4" amt="0" latt="0"/>
            <elcut dec="0.5" lspd="0.1" hold="0.5" sustain="0.5" lshp="0" ctlenvamt="0" rel="0.1" userwavefile="" lamt="0" pdel="0" lspd_syncmode="0" lpdel="0" att="0" x100="0" lspd_numerator="4" lspd_denominator="4" amt="0" latt="0"/>
            <elres dec="0.5" lspd="0.1" hold="0.5" sustain="0.5" lshp="0" ctlenvamt="0" rel="0.1" userwavefile="" lamt="0" pdel="0" lspd_syncmode="0" lpdel="0" att="0" x100="0" lspd_numerator="4" lspd_denominator="4" amt="0" latt="0"/>
          </eldata>
          <chordcreator chord="0" chordrange="1" chord-enabled="0"/>
          <arpeggiator arpcycle="0" arpgate="100" arp="0" arprange="1" arpdir="0" arp-enabled="0" arpskip="0" arptime_syncmode="0" arptime="200" arpmiss="0" arpmode="0" arptime_denominator="4" arptime_numerator="4"/>
          <midiport inputchannel="0" fixedoutputvelocity="-1" outputchannel="1" outputcontroller="0" writable="0" inputcontroller="0" fixedoutputnote="-1" outputprogram="1" basevelocity="63" fixedinputvelocity="-1" readable="0"/>
          <fxchain enabled="0" numofeffects="0"/>
        </instrumenttrack>
        <pattern steps="16" name="Track 3" pos="960" type="1" muted="0">
          <note key="26" pan="0" pos="0" vol="110" len="12"/>
          <note key="26" pan="0" pos="24" vol="110" len="12"/>
          <note key="26" pan="0" pos="48" vol="110" len="12"/>
          <note key="26" pan="0" pos="60" vol="110" len="12"/>
          <note key="26" pan="0" pos="84" vol="110" len="12"/>
          <note key="26" pan="0" pos="108" vol="110" len="12"/>
          <note key="26" pan="0" pos="132" vol="110" len="12"/>
          <note key="26" pan="0" pos="144" vol="110" len="12"/>
          <note key="26" pan="0" pos="156" vol="110" len="12"/>
          <note key="26" pan="0" pos="168" vol="110" len="24"/>
          <note key="24" pan="0" pos="192" vol="110" len="12"/>
          <note key="24" pan="0" pos="216" vol="110" len="12"/>
          <note key="24" pan="0" pos="240" vol="110" len="12"/>
          <note key="24" pan="0" pos="252" vol="110" len="12"/>
          <note key="24" pan="0" pos="276" vol="110" len="12"/>
          <note key="24" pan="0" pos="300" vol="110" len="12"/>
          <note key="24" pan="0" pos="324" vol="110" len="12"/>
          <note key="24" pan="0" pos="336" vol="110" len="12"/>
          <note key="24" pan="0" pos="348" vol="110" len="12"/>
          <note key="24" pan="0" pos="360" vol="110" len="24"/>
          <note key="23" pan="0" pos="384" vol="110" len="12"/>
          <note key="23" pan="0" pos="408" vol="110" len="12"/>
          <note key="23" pan="0" pos="432" vol="110" len="12"/>
          <note key="23" pan="0" pos="444" vol="110" len="12"/>
          <note key="23" pan="0" pos="468" vol="110" len="12"/>
          <note key="23" pan="0" pos="492" vol="110" len="12"/>
          <note key="23" pan="0" pos="516" vol="110" len="12"/>
          <note key="23" pan="0" pos="528" vol="110" len="12"/>
          <note key="23" pan="0" pos="540" vol="110" len="12"/>
          <note key="23" pan="0" pos="552" vol="110" len="24"/>
          <note key="22" pan="0" pos="576" vol="110" len="12"/>
          <note key="22" pan="0" pos="600" vol="110" len="12"/>
          <note key="22" pan="0" pos="624" vol="110" len="12"/>
          <note key="22" pan="0" pos="636" vol="110" len="12"/>
          <note key="24" pan="0" pos="660" vol="110" len="12"/>
          <note key="24" pan="0" pos="684" vol="110" len="12"/>
          <note key="24" pan="0" pos="708" vol="110" len="12"/>
          <note key="24" pan="0" pos="720" vol="110" len="12"/>
          <note key="24" pan="0" pos="732" vol="110" len="12"/>
          <note key="24" pan="0" pos="744" vol="110" len="24"/>
          <note key="26" pan="0" pos="768" vol="78" len="24"/>
          <note key="21" pan="0" pos="768" vol="78" len="24"/>
          <note key="26" pan="0" pos="792" vol="78" len="24"/>
          <note key="21" pan="0" pos="792" vol="78" len="24"/>
          <note key="26" pan="0" pos="816" vol="78" len="12"/>
          <note key="21" pan="0" pos="816" vol="78" len="12"/>
          <note key="26" pan="0" pos="828" vol="94" len="24"/>
          <note key="21" pan="0" pos="828" vol="94" len="24"/>
          <note key="26" pan="0" pos="852" vol="78" len="24"/>
          <note key="21" pan="0" pos="852" vol="78" len="24"/>
          <note key="26" pan="0" pos="876" vol="78" len="24"/>
          <note key="21" pan="0" pos="876" vol="78" len="24"/>
          <note key="26" pan="0" pos="900" vol="78" len="12"/>
          <note key="21" pan="0" pos="900" vol="78" len="12"/>
          <note key="26" pan="0" pos="912" vol="78" len="12"/>
          <note key="21" pan="0" pos="912" vol="78" len="12"/>
          <note key="26" pan="0" pos="924" vol="78" len="12"/>
          <note key="21" pan="0" pos="924" vol="78" len="12"/>
          <note key="26" pan="0" pos="936" vol="78" len="24"/>
          <note key="21" pan="0" pos="936" vol="78" len="24"/>
          <note key="24" pan="0" pos="960" vol="78" len="24"/>
          <note key="19" pan="0" pos="960" vol="78" len="24"/>
          <note key="24" pan="0" pos="984" vol="78" len="24"/>
          <note key="19" pan="0" pos="984" vol="78" len="24"/>
          <note key="24" pan="0" pos="1008" vol="78" len="12"/>
          <note key="19" pan="0" pos="1008" vol="78" len="12"/>
          <note key="24" pan="0" pos="1020" vol="94" len="24"/>
          <note key="19" pan="0" pos="1020" vol="94" len="24"/>
          <note key="24" pan="0" pos="1044" vol="78" len="24"/>
          <note key="19" pan="0" pos="1044" vol="78" len="24"/>
          <note key="24" pan="0" pos="1068" vol="78" len="24"/>
          <note key="19" pan="0" pos="1068" vol="78" len="24"/>
          <note key="24" pan="0" pos="1092" vol="78" len="12"/>
          <note key="19" pan="0" pos="1092" vol="78" len="12"/>
          <note key="24" pan="0" pos="1104" vol="78" len="12"/>
          <note key="19" pan="0" pos="1104" vol="78" len="12"/>
          <note key="24" pan="0" pos="1116" vol="78" len="12"/>
          <note key="19" pan="0" pos="1116" vol="78" len="12"/>
          <note key="24" pan="0" pos="1128" vol="78" len="24"/>
          <note key="19" pan="0" pos="1128" vol="78" len="24"/>
          <note key="23" pan="0" pos="1152" vol="78" len="24"/>
          <note key="18" pan="0" pos="1152" vol="78" len="24"/>
          <note key="23" pan="0" pos="1176" vol="78" len="24"/>
          <note key="18" pan="0" pos="1176" vol="78" len="24"/>
          <note key="23" pan="0" pos="1200" vol="78" len="12"/>
          <note key="18" pan="0" pos="1200" vol="78" len="12"/>
          <note key="23" pan="0" pos="1212" vol="94" len="24"/>
          <note key="18" pan="0" pos="1212" vol="94" len="24"/>
          <note key="23" pan="0" pos="1236" vol="78" len="24"/>
          <note key="18" pan="0" pos="1236" vol="78" len="24"/>
          <note key="23" pan="0" pos="1260" vol="78" len="24"/>
          <note key="18" pan="0" pos="1260" vol="78" len="24"/>
          <note key="23" pan="0" pos="1284" vol="78" len="12"/>
          <note key="18" pan="0" pos="1284" vol="78" len="12"/>
          <note key="23" pan="0" pos="1296" vol="78" len="12"/>
          <note key="18" pan="0" pos="1296" vol="78" len="12"/>
          <note key="23" pan="0" pos="1308" vol="78" len="12"/>
          <note key="18" pan="0" pos="1308" vol="78" len="12"/>
          <note key="23" pan="0" pos="1320" vol="78" len="24"/>
          <note key="18" pan="0" pos="1320" vol="78" len="24"/>
          <note key="22" pan="0" pos="1344" vol="78" len="24"/>
          <note key="17" pan="0" pos="1344" vol="78" len="24"/>
          <note key="22" pan="0" pos="1368" vol="78" len="24"/>
          <note key="17" pan="0" pos="1368" vol="78" len="24"/>
          <note key="22" pan="0" pos="1392" vol="78" len="12"/>
          <note key="17" pan="0" pos="1392" vol="78" len="12"/>
          <note key="22" pan="0" pos="1404" vol="94" len="24"/>
          <note key="17" pan="0" pos="1404" vol="94" len="24"/>
          <note key="24" pan="0" pos="1428" vol="78" len="24"/>
          <note key="19" pan="0" pos="1428" vol="78" len="24"/>
          <note key="24" pan="0" pos="1452" vol="78" len="24"/>
          <note key="19" pan="0" pos="1452" vol="78" len="24"/>
          <note key="24" pan="0" pos="1476" vol="78" len="12"/>
          <note key="19" pan="0" pos="1476" vol="78" len="12"/>
          <note key="24" pan="0" pos="1488" vol="78" len="12"/>
          <note key="19" pan="0" pos="1488" vol="78" len="12"/>
          <note key="24" pan="0" pos="1500" vol="78" len="12"/>
          <note key="19" pan="0" pos="1500" vol="78" len="12"/>
          <note key="24" pan="0" pos="1512" vol="78" len="24"/>
          <note key="19" pan="0" pos="1512" vol="78" len="24"/>
          <note key="26" pan="0" pos="1536" vol="78" len="24"/>
          <note key="21" pan="0" pos="1536" vol="78" len="24"/>
          <note key="26" pan="0" pos="1560" vol="78" len="24"/>
          <note key="21" pan="0" pos="1560" vol="78" len="24"/>
          <note key="26" pan="0" pos="1584" vol="78" len="12"/>
          <note key="21" pan="0" pos="1584" vol="78" len="12"/>
          <note key="26" pan="0" pos="1596" vol="94" len="24"/>
          <note key="21" pan="0" pos="1596" vol="94" len="24"/>
          <note key="26" pan="0" pos="1620" vol="78" len="24"/>
          <note key="21" pan="0" pos="1620" vol="78" len="24"/>
          <note key="26" pan="0" pos="1644" vol="78" len="24"/>
          <note key="21" pan="0" pos="1644" vol="78" len="24"/>
          <note key="26" pan="0" pos="1668" vol="78" len="12"/>
          <note key="21" pan="0" pos="1668" vol="78" len="12"/>
          <note key="26" pan="0" pos="1680" vol="78" len="12"/>
          <note key="21" pan="0" pos="1680" vol="78" len="12"/>
          <note key="26" pan="0" pos="1692" vol="78" len="12"/>
          <note key="21" pan="0" pos="1692" vol="78" len="12"/>
          <note key="26" pan="0" pos="1704" vol="78" len="24"/>
          <note key="21" pan="0" pos="1704" vol="78" len="24"/>
          <note key="24" pan="0" pos="1728" vol="78" len="24"/>
          <note key="19" pan="0" pos="1728" vol="78" len="24"/>
          <note key="24" pan="0" pos="1752" vol="78" len="24"/>
          <note key="19" pan="0" pos="1752" vol="78" len="24"/>
          <note key="24" pan="0" pos="1776" vol="78" len="12"/>
          <note key="19" pan="0" pos="1776" vol="78" len="12"/>
          <note key="24" pan="0" pos="1788" vol="94" len="24"/>
          <note key="19" pan="0" pos="1788" vol="94" len="24"/>
          <note key="24" pan="0" pos="1812" vol="78" len="24"/>
          <note key="19" pan="0" pos="1812" vol="78" len="24"/>
          <note key="24" pan="0" pos="1836" vol="78" len="24"/>
          <note key="19" pan="0" pos="1836" vol="78" len="24"/>
          <note key="24" pan="0" pos="1860" vol="78" len="12"/>
          <note key="19" pan="0" pos="1860" vol="78" len="12"/>
          <note key="24" pan="0" pos="1872" vol="78" len="12"/>
          <note key="19" pan="0" pos="1872" vol="78" len="12"/>
          <note key="24" pan="0" pos="1884" vol="78" len="12"/>
          <note key="19" pan="0" pos="1884" vol="78" len="12"/>
          <note key="24" pan="0" pos="1896" vol="78" len="24"/>
          <note key="19" pan="0" pos="1896" vol="78" len="24"/>
          <note key="23" pan="0" pos="1920" vol="78" len="24"/>
          <note key="18" pan="0" pos="1920" vol="78" len="24"/>
          <note key="23" pan="0" pos="1944" vol="78" len="24"/>
          <note key="18" pan="0" pos="1944" vol="78" len="24"/>
          <note key="23" pan="0" pos="1968" vol="78" len="12"/>
          <note key="18" pan="0" pos="1968" vol="78" len="12"/>
          <note key="23" pan="0" pos="1980" vol="94" len="24"/>
          <note key="18" pan="0" pos="1980" vol="94" len="24"/>
          <note key="23" pan="0" pos="2004" vol="78" len="24"/>
          <note key="18" pan="0" pos="2004" vol="78" len="24"/>
          <note key="23" pan="0" pos="2028" vol="78" len="24"/>
          <note key="18" pan="0" pos="2028" vol="78" len="24"/>
          <note key="23" pan="0" pos="2052" vol="78" len="12"/>
          <note key="18" pan="0" pos="2052" vol="78" len="12"/>
          <note key="23" pan="0" pos="2064" vol="78" len="12"/>
          <note key="18" pan="0" pos="2064" vol="78" len="12"/>
          <note key="23" pan="0" pos="2076" vol="78" len="12"/>
          <note key="18" pan="0" pos="2076" vol="78" len="12"/>
          <note key="23" pan="0" pos="2088" vol="78" len="24"/>
          <note key="18" pan="0" pos="2088" vol="78" len="24"/>
          <note key="22" pan="0" pos="2112" vol="78" len="24"/>
          <note key="17" pan="0" pos="2112" vol="78" len="24"/>
          <note key="22" pan="0" pos="2136" vol="78" len="24"/>
          <note key="17" pan="0" pos="2136" vol="78" len="24"/>
          <note key="22" pan="0" pos="2160" vol="78" len="12"/>
          <note key="17" pan="0" pos="2160" vol="78" len="12"/>
          <note key="22" pan="0" pos="2172" vol="94" len="24"/>
          <note key="17" pan="0" pos="2172" vol="94" len="24"/>
          <note key="24" pan="0" pos="2196" vol="78" len="24"/>
          <note key="19" pan="0" pos="2196" vol="78" len="24"/>
          <note key="24" pan="0" pos="2220" vol="78" len="24"/>
          <note key="19" pan="0" pos="2220" vol="78" len="24"/>
          <note key="24" pan="0" pos="2244" vol="78" len="12"/>
          <note key="19" pan="0" pos="2244" vol="78" len="12"/>
          <note key="24" pan="0" pos="2256" vol="78" len="12"/>
          <note key="19" pan="0" pos="2256" vol="78" len="12"/>
          <note key="24" pan="0" pos="2268" vol="78" len="12"/>
          <note key="19" pan="0" pos="2268" vol="78" len="12"/>
          <note key="24" pan="0" pos="2280" vol="78" len="24"/>
          <note key="19" pan="0" pos="2280" vol="78" len="24"/>
          <note key="33" pan="0" pos="2304" vol="78" len="21"/>
          <note key="26" pan="0" pos="2304" vol="78" len="21"/>
          <note key="33" pan="0" pos="2328" vol="78" len="24"/>
          <note key="26" pan="0" pos="2328" vol="78" len="24"/>
          <note key="33" pan="0" pos="2352" vol="78" len="12"/>
          <note key="26" pan="0" pos="2352" vol="78" len="12"/>
          <note key="33" pan="0" pos="2364" vol="94" len="21"/>
          <note key="26" pan="0" pos="2364" vol="94" len="21"/>
          <note key="33" pan="0" pos="2388" vol="78" len="21"/>
          <note key="26" pan="0" pos="2388" vol="78" len="21"/>
          <note key="33" pan="0" pos="2412" vol="78" len="24"/>
          <note key="26" pan="0" pos="2412" vol="78" len="24"/>
          <note key="33" pan="0" pos="2436" vol="78" len="9"/>
          <note key="26" pan="0" pos="2436" vol="78" len="9"/>
          <note key="33" pan="0" pos="2448" vol="78" len="9"/>
          <note key="26" pan="0" pos="2448" vol="78" len="9"/>
          <note key="33" pan="0" pos="2460" vol="78" len="9"/>
          <note key="26" pan="0" pos="2460" vol="78" len="9"/>
          <note key="45" pan="0" pos="2472" vol="78" len="24"/>
          <note key="38" pan="0" pos="2472" vol="78" len="24"/>
          <note key="31" pan="0" pos="2496" vol="78" len="21"/>
          <note key="24" pan="0" pos="2496" vol="78" len="21"/>
          <note key="31" pan="0" pos="2520" vol="78" len="24"/>
          <note key="24" pan="0" pos="2520" vol="78" len="24"/>
          <note key="31" pan="0" pos="2544" vol="78" len="12"/>
          <note key="24" pan="0" pos="2544" vol="78" len="12"/>
          <note key="31" pan="0" pos="2556" vol="94" len="21"/>
          <note key="24" pan="0" pos="2556" vol="94" len="21"/>
          <note key="31" pan="0" pos="2580" vol="78" len="21"/>
          <note key="24" pan="0" pos="2580" vol="78" len="21"/>
          <note key="31" pan="0" pos="2604" vol="78" len="24"/>
          <note key="24" pan="0" pos="2604" vol="78" len="24"/>
          <note key="31" pan="0" pos="2628" vol="78" len="9"/>
          <note key="24" pan="0" pos="2628" vol="78" len="9"/>
          <note key="31" pan="0" pos="2640" vol="78" len="9"/>
          <note key="24" pan="0" pos="2640" vol="78" len="9"/>
          <note key="31" pan="0" pos="2652" vol="78" len="9"/>
          <note key="24" pan="0" pos="2652" vol="78" len="9"/>
          <note key="31" pan="0" pos="2664" vol="78" len="24"/>
          <note key="24" pan="0" pos="2664" vol="78" len="24"/>
          <note key="30" pan="0" pos="2688" vol="78" len="21"/>
          <note key="23" pan="0" pos="2688" vol="78" len="21"/>
          <note key="30" pan="0" pos="2712" vol="78" len="24"/>
          <note key="23" pan="0" pos="2712" vol="78" len="24"/>
          <note key="30" pan="0" pos="2736" vol="78" len="12"/>
          <note key="23" pan="0" pos="2736" vol="78" len="12"/>
          <note key="30" pan="0" pos="2748" vol="94" len="21"/>
          <note key="23" pan="0" pos="2748" vol="94" len="21"/>
          <note key="30" pan="0" pos="2772" vol="78" len="21"/>
          <note key="23" pan="0" pos="2772" vol="78" len="21"/>
          <note key="30" pan="0" pos="2796" vol="78" len="24"/>
          <note key="23" pan="0" pos="2796" vol="78" len="24"/>
          <note key="30" pan="0" pos="2820" vol="78" len="9"/>
          <note key="23" pan="0" pos="2820" vol="78" len="9"/>
          <note key="30" pan="0" pos="2832" vol="78" len="9"/>
          <note key="23" pan="0" pos="2832" vol="78" len="9"/>
          <note key="30" pan="0" pos="2844" vol="78" len="9"/>
          <note key="23" pan="0" pos="2844" vol="78" len="9"/>
          <note key="30" pan="0" pos="2856" vol="78" len="24"/>
          <note key="23" pan="0" pos="2856" vol="78" len="24"/>
          <note key="29" pan="0" pos="2880" vol="78" len="21"/>
          <note key="22" pan="0" pos="2880" vol="78" len="21"/>
          <note key="29" pan="0" pos="2904" vol="78" len="24"/>
          <note key="22" pan="0" pos="2904" vol="78" len="24"/>
          <note key="29" pan="0" pos="2928" vol="78" len="12"/>
          <note key="22" pan="0" pos="2928" vol="78" len="12"/>
          <note key="29" pan="0" pos="2940" vol="94" len="21"/>
          <note key="22" pan="0" pos="2940" vol="94" len="21"/>
          <note key="31" pan="0" pos="2964" vol="78" len="21"/>
          <note key="24" pan="0" pos="2964" vol="78" len="21"/>
          <note key="31" pan="0" pos="2988" vol="78" len="24"/>
          <note key="24" pan="0" pos="2988" vol="78" len="24"/>
          <note key="31" pan="0" pos="3012" vol="78" len="9"/>
          <note key="24" pan="0" pos="3012" vol="78" len="9"/>
          <note key="31" pan="0" pos="3024" vol="78" len="9"/>
          <note key="24" pan="0" pos="3024" vol="78" len="9"/>
          <note key="31" pan="0" pos="3036" vol="78" len="9"/>
          <note key="24" pan="0" pos="3036" vol="78" len="9"/>
          <note key="31" pan="0" pos="3048" vol="78" len="24"/>
          <note key="24" pan="0" pos="3048" vol="78" len="24"/>
          <note key="33" pan="0" pos="3072" vol="78" len="21"/>
          <note key="26" pan="0" pos="3072" vol="78" len="21"/>
          <note key="33" pan="0" pos="3096" vol="78" len="24"/>
          <note key="26" pan="0" pos="3096" vol="78" len="24"/>
          <note key="33" pan="0" pos="3120" vol="78" len="12"/>
          <note key="26" pan="0" pos="3120" vol="78" len="12"/>
          <note key="33" pan="0" pos="3132" vol="94" len="21"/>
          <note key="26" pan="0" pos="3132" vol="94" len="21"/>
          <note key="33" pan="0" pos="3156" vol="78" len="21"/>
          <note key="26" pan="0" pos="3156" vol="78" len="21"/>
          <note key="33" pan="0" pos="3180" vol="78" len="24"/>
          <note key="26" pan="0" pos="3180" vol="78" len="24"/>
          <note key="33" pan="0" pos="3204" vol="78" len="9"/>
          <note key="26" pan="0" pos="3204" vol="78" len="9"/>
          <note key="33" pan="0" pos="3216" vol="78" len="9"/>
          <note key="26" pan="0" pos="3216" vol="78" len="9"/>
          <note key="33" pan="0" pos="3228" vol="78" len="9"/>
          <note key="26" pan="0" pos="3228" vol="78" len="9"/>
          <note key="45" pan="0" pos="3240" vol="78" len="24"/>
          <note key="38" pan="0" pos="3240" vol="78" len="24"/>
          <note key="31" pan="0" pos="3264" vol="78" len="21"/>
          <note key="24" pan="0" pos="3264" vol="78" len="21"/>
          <note key="31" pan="0" pos="3288" vol="78" len="24"/>
          <note key="24" pan="0" pos="3288" vol="78" len="24"/>
          <note key="31" pan="0" pos="3312" vol="78" len="12"/>
          <note key="24" pan="0" pos="3312" vol="78" len="12"/>
          <note key="31" pan="0" pos="3324" vol="94" len="21"/>
          <note key="24" pan="0" pos="3324" vol="94" len="21"/>
          <note key="31" pan="0" pos="3348" vol="78" len="21"/>
          <note key="24" pan="0" pos="3348" vol="78" len="21"/>
          <note key="31" pan="0" pos="3372" vol="78" len="24"/>
          <note key="24" pan="0" pos="3372" vol="78" len="24"/>
          <note key="31" pan="0" pos="3396" vol="78" len="9"/>
          <note key="24" pan="0" pos="3396" vol="78" len="9"/>
          <note key="31" pan="0" pos="3408" vol="78" len="9"/>
          <note key="24" pan="0" pos="3408" vol="78" len="9"/>
          <note key="31" pan="0" pos="3420" vol="78" len="9"/>
          <note key="24" pan="0" pos="3420" vol="78" len="9"/>
          <note key="31" pan="0" pos="3432" vol="78" len="24"/>
          <note key="24" pan="0" pos="3432" vol="78" len="24"/>
          <note key="30" pan="0" pos="3456" vol="78" len="21"/>
          <note key="23" pan="0" pos="3456" vol="78" len="21"/>
          <note key="30" pan="0" pos="3480" vol="78" len="24"/>
          <note key="23" pan="0" pos="3480" vol="78" len="24"/>
          <note key="30" pan="0" pos="3504" vol="78" len="12"/>
          <note key="23" pan="0" pos="3504" vol="78" len="12"/>
          <note key="30" pan="0" pos="3516" vol="94" len="21"/>
          <note key="23" pan="0" pos="3516" vol="94" len="21"/>
          <note key="30" pan="0" pos="3540" vol="78" len="21"/>
          <note key="23" pan="0" pos="3540" vol="78" len="21"/>
          <note key="30" pan="0" pos="3564" vol="78" len="24"/>
          <note key="23" pan="0" pos="3564" vol="78" len="24"/>
          <note key="30" pan="0" pos="3588" vol="78" len="9"/>
          <note key="23" pan="0" pos="3588" vol="78" len="9"/>
          <note key="30" pan="0" pos="3600" vol="78" len="9"/>
          <note key="23" pan="0" pos="3600" vol="78" len="9"/>
          <note key="30" pan="0" pos="3612" vol="78" len="9"/>
          <note key="23" pan="0" pos="3612" vol="78" len="9"/>
          <note key="30" pan="0" pos="3624" vol="78" len="24"/>
          <note key="23" pan="0" pos="3624" vol="78" len="24"/>
          <note key="29" pan="0" pos="3648" vol="78" len="21"/>
          <note key="22" pan="0" pos="3648" vol="78" len="21"/>
          <note key="29" pan="0" pos="3672" vol="78" len="24"/>
          <note key="22" pan="0" pos="3672" vol="78" len="24"/>
          <note key="29" pan="0" pos="3696" vol="78" len="12"/>
          <note key="22" pan="0" pos="3696" vol="78" len="12"/>
          <note key="29" pan="0" pos="3708" vol="94" len="21"/>
          <note key="22" pan="0" pos="3708" vol="94" len="21"/>
          <note key="31" pan="0" pos="3732" vol="78" len="21"/>
          <note key="24" pan="0" pos="3732" vol="78" len="21"/>
          <note key="31" pan="0" pos="3756" vol="78" len="24"/>
          <note key="24" pan="0" pos="3756" vol="78" len="24"/>
          <note key="31" pan="0" pos="3780" vol="78" len="9"/>
          <note key="24" pan="0" pos="3780" vol="78" len="9"/>
          <note key="31" pan="0" pos="3792" vol="78" len="9"/>
          <note key="24" pan="0" pos="3792" vol="78" len="9"/>
          <note key="31" pan="0" pos="3804" vol="78" len="9"/>
          <note key="24" pan="0" pos="3804" vol="78" len="9"/>
          <note key="31" pan="0" pos="3816" vol="78" len="24"/>
          <note key="24" pan="0" pos="3816" vol="78" len="24"/>
          <note key="29" pan="0" pos="3840" vol="78" len="21"/>
          <note key="22" pan="0" pos="3840" vol="78" len="21"/>
          <note key="29" pan="0" pos="3864" vol="78" len="24"/>
          <note key="22" pan="0" pos="3864" vol="78" len="24"/>
          <note key="29" pan="0" pos="3888" vol="78" len="12"/>
          <note key="22" pan="0" pos="3888" vol="78" len="12"/>
          <note key="29" pan="0" pos="3900" vol="94" len="21"/>
          <note key="22" pan="0" pos="3900" vol="94" len="21"/>
          <note key="29" pan="0" pos="3924" vol="78" len="21"/>
          <note key="22" pan="0" pos="3924" vol="78" len="21"/>
          <note key="29" pan="0" pos="3948" vol="78" len="24"/>
          <note key="22" pan="0" pos="3948" vol="78" len="24"/>
          <note key="29" pan="0" pos="3972" vol="78" len="9"/>
          <note key="22" pan="0" pos="3972" vol="78" len="9"/>
          <note key="29" pan="0" pos="3984" vol="78" len="9"/>
          <note key="22" pan="0" pos="3984" vol="78" len="9"/>
          <note key="29" pan="0" pos="3996" vol="78" len="9"/>
          <note key="22" pan="0" pos="3996" vol="78" len="9"/>
          <note key="41" pan="0" pos="4008" vol="78" len="24"/>
          <note key="34" pan="0" pos="4008" vol="78" len="24"/>
          <note key="31" pan="0" pos="4032" vol="78" len="21"/>
          <note key="24" pan="0" pos="4032" vol="78" len="21"/>
          <note key="31" pan="0" pos="4056" vol="78" len="24"/>
          <note key="24" pan="0" pos="4056" vol="78" len="24"/>
          <note key="31" pan="0" pos="4080" vol="78" len="12"/>
          <note key="24" pan="0" pos="4080" vol="78" len="12"/>
          <note key="31" pan="0" pos="4092" vol="94" len="21"/>
          <note key="24" pan="0" pos="4092" vol="94" len="21"/>
          <note key="31" pan="0" pos="4116" vol="78" len="21"/>
          <note key="24" pan="0" pos="4116" vol="78" len="21"/>
          <note key="31" pan="0" pos="4140" vol="78" len="24"/>
          <note key="24" pan="0" pos="4140" vol="78" len="24"/>
          <note key="31" pan="0" pos="4164" vol="78" len="9"/>
          <note key="24" pan="0" pos="4164" vol="78" len="9"/>
          <note key="31" pan="0" pos="4176" vol="78" len="9"/>
          <note key="24" pan="0" pos="4176" vol="78" len="9"/>
          <note key="31" pan="0" pos="4188" vol="78" len="9"/>
          <note key="24" pan="0" pos="4188" vol="78" len="9"/>
          <note key="31" pan="0" pos="4200" vol="78" len="24"/>
          <note key="24" pan="0" pos="4200" vol="78" len="24"/>
          <note key="33" pan="0" pos="4224" vol="78" len="21"/>
          <note key="26" pan="0" pos="4224" vol="78" len="21"/>
          <note key="33" pan="0" pos="4248" vol="78" len="24"/>
          <note key="26" pan="0" pos="4248" vol="78" len="24"/>
          <note key="33" pan="0" pos="4272" vol="78" len="12"/>
          <note key="26" pan="0" pos="4272" vol="78" len="12"/>
          <note key="33" pan="0" pos="4284" vol="94" len="21"/>
          <note key="26" pan="0" pos="4284" vol="94" len="21"/>
          <note key="33" pan="0" pos="4308" vol="78" len="21"/>
          <note key="26" pan="0" pos="4308" vol="78" len="21"/>
          <note key="33" pan="0" pos="4332" vol="78" len="24"/>
          <note key="26" pan="0" pos="4332" vol="78" len="24"/>
          <note key="33" pan="0" pos="4356" vol="78" len="9"/>
          <note key="26" pan="0" pos="4356" vol="78" len="9"/>
          <note key="33" pan="0" pos="4368" vol="78" len="9"/>
          <note key="26" pan="0" pos="4368" vol="78" len="9"/>
          <note key="33" pan="0" pos="4380" vol="78" len="9"/>
          <note key="26" pan="0" pos="4380" vol="78" len="9"/>
          <note key="33" pan="0" pos="4392" vol="78" len="24"/>
          <note key="26" pan="0" pos="4392" vol="78" len="24"/>
          <note key="32" pan="0" pos="4416" vol="78" len="21"/>
          <note key="25" pan="0" pos="4416" vol="78" len="21"/>
          <note key="32" pan="0" pos="4440" vol="78" len="24"/>
          <note key="25" pan="0" pos="4440" vol="78" len="24"/>
          <note key="32" pan="0" pos="4464" vol="78" len="12"/>
          <note key="25" pan="0" pos="4464" vol="78" len="12"/>
          <note key="32" pan="0" pos="4476" vol="94" len="21"/>
          <note key="25" pan="0" pos="4476" vol="94" len="21"/>
          <note key="34" pan="0" pos="4500" vol="78" len="21"/>
          <note key="27" pan="0" pos="4500" vol="78" len="21"/>
          <note key="34" pan="0" pos="4524" vol="78" len="24"/>
          <note key="27" pan="0" pos="4524" vol="78" len="24"/>
          <note key="34" pan="0" pos="4548" vol="78" len="9"/>
          <note key="27" pan="0" pos="4548" vol="78" len="9"/>
          <note key="34" pan="0" pos="4560" vol="78" len="9"/>
          <note key="27" pan="0" pos="4560" vol="78" len="9"/>
          <note key="34" pan="0" pos="4572" vol="78" len="9"/>
          <note key="27" pan="0" pos="4572" vol="78" len="9"/>
          <note key="34" pan="0" pos="4584" vol="78" len="24"/>
          <note key="27" pan="0" pos="4584" vol="78" len="24"/>
          <note key="29" pan="0" pos="4608" vol="78" len="21"/>
          <note key="22" pan="0" pos="4608" vol="78" len="21"/>
          <note key="29" pan="0" pos="4632" vol="78" len="24"/>
          <note key="22" pan="0" pos="4632" vol="78" len="24"/>
          <note key="29" pan="0" pos="4656" vol="78" len="12"/>
          <note key="22" pan="0" pos="4656" vol="78" len="12"/>
          <note key="29" pan="0" pos="4668" vol="94" len="21"/>
          <note key="22" pan="0" pos="4668" vol="94" len="21"/>
          <note key="29" pan="0" pos="4692" vol="78" len="21"/>
          <note key="22" pan="0" pos="4692" vol="78" len="21"/>
          <note key="29" pan="0" pos="4716" vol="78" len="24"/>
          <note key="22" pan="0" pos="4716" vol="78" len="24"/>
          <note key="29" pan="0" pos="4740" vol="78" len="9"/>
          <note key="22" pan="0" pos="4740" vol="78" len="9"/>
          <note key="29" pan="0" pos="4752" vol="78" len="9"/>
          <note key="22" pan="0" pos="4752" vol="78" len="9"/>
          <note key="29" pan="0" pos="4764" vol="78" len="9"/>
          <note key="22" pan="0" pos="4764" vol="78" len="9"/>
          <note key="41" pan="0" pos="4776" vol="78" len="24"/>
          <note key="34" pan="0" pos="4776" vol="78" len="24"/>
          <note key="31" pan="0" pos="4800" vol="78" len="21"/>
          <note key="24" pan="0" pos="4800" vol="78" len="21"/>
          <note key="31" pan="0" pos="4824" vol="78" len="24"/>
          <note key="24" pan="0" pos="4824" vol="78" len="24"/>
          <note key="31" pan="0" pos="4848" vol="78" len="12"/>
          <note key="24" pan="0" pos="4848" vol="78" len="12"/>
          <note key="31" pan="0" pos="4860" vol="94" len="21"/>
          <note key="24" pan="0" pos="4860" vol="94" len="21"/>
          <note key="31" pan="0" pos="4884" vol="78" len="21"/>
          <note key="24" pan="0" pos="4884" vol="78" len="21"/>
          <note key="31" pan="0" pos="4908" vol="78" len="24"/>
          <note key="24" pan="0" pos="4908" vol="78" len="24"/>
          <note key="31" pan="0" pos="4932" vol="78" len="9"/>
          <note key="24" pan="0" pos="4932" vol="78" len="9"/>
          <note key="31" pan="0" pos="4944" vol="78" len="9"/>
          <note key="24" pan="0" pos="4944" vol="78" len="9"/>
          <note key="31" pan="0" pos="4956" vol="78" len="9"/>
          <note key="24" pan="0" pos="4956" vol="78" len="9"/>
          <note key="31" pan="0" pos="4968" vol="78" len="24"/>
          <note key="24" pan="0" pos="4968" vol="78" len="24"/>
          <note key="33" pan="0" pos="4992" vol="78" len="21"/>
          <note key="26" pan="0" pos="4992" vol="78" len="21"/>
          <note key="33" pan="0" pos="5016" vol="78" len="24"/>
          <note key="26" pan="0" pos="5016" vol="78" len="24"/>
          <note key="33" pan="0" pos="5040" vol="78" len="12"/>
          <note key="26" pan="0" pos="5040" vol="78" len="12"/>
          <note key="33" pan="0" pos="5052" vol="94" len="21"/>
          <note key="26" pan="0" pos="5052" vol="94" len="21"/>
          <note key="33" pan="0" pos="5076" vol="78" len="21"/>
          <note key="26" pan="0" pos="5076" vol="78" len="21"/>
          <note key="33" pan="0" pos="5100" vol="78" len="24"/>
          <note key="26" pan="0" pos="5100" vol="78" len="24"/>
          <note key="33" pan="0" pos="5124" vol="78" len="9"/>
          <note key="26" pan="0" pos="5124" vol="78" len="9"/>
          <note key="33" pan="0" pos="5136" vol="78" len="9"/>
          <note key="26" pan="0" pos="5136" vol="78" len="9"/>
          <note key="33" pan="0" pos="5148" vol="78" len="9"/>
          <note key="26" pan="0" pos="5148" vol="78" len="9"/>
          <note key="33" pan="0" pos="5160" vol="78" len="24"/>
          <note key="26" pan="0" pos="5160" vol="78" len="24"/>
          <note key="32" pan="0" pos="5184" vol="78" len="21"/>
          <note key="25" pan="0" pos="5184" vol="78" len="21"/>
          <note key="32" pan="0" pos="5208" vol="78" len="24"/>
          <note key="25" pan="0" pos="5208" vol="78" len="24"/>
          <note key="32" pan="0" pos="5232" vol="78" len="12"/>
          <note key="25" pan="0" pos="5232" vol="78" len="12"/>
          <note key="32" pan="0" pos="5244" vol="94" len="21"/>
          <note key="25" pan="0" pos="5244" vol="94" len="21"/>
          <note key="34" pan="0" pos="5268" vol="78" len="21"/>
          <note key="27" pan="0" pos="5268" vol="78" len="21"/>
          <note key="34" pan="0" pos="5292" vol="78" len="24"/>
          <note key="27" pan="0" pos="5292" vol="78" len="24"/>
          <note key="34" pan="0" pos="5316" vol="78" len="9"/>
          <note key="27" pan="0" pos="5316" vol="78" len="9"/>
          <note key="34" pan="0" pos="5328" vol="78" len="9"/>
          <note key="27" pan="0" pos="5328" vol="78" len="9"/>
          <note key="34" pan="0" pos="5340" vol="78" len="9"/>
          <note key="27" pan="0" pos="5340" vol="78" len="9"/>
          <note key="34" pan="0" pos="5352" vol="78" len="24"/>
          <note key="27" pan="0" pos="5352" vol="78" len="24"/>
          <note key="29" pan="0" pos="5376" vol="78" len="21"/>
          <note key="22" pan="0" pos="5376" vol="78" len="21"/>
          <note key="29" pan="0" pos="5400" vol="78" len="24"/>
          <note key="22" pan="0" pos="5400" vol="78" len="24"/>
          <note key="29" pan="0" pos="5424" vol="78" len="12"/>
          <note key="22" pan="0" pos="5424" vol="78" len="12"/>
          <note key="29" pan="0" pos="5436" vol="94" len="21"/>
          <note key="22" pan="0" pos="5436" vol="94" len="21"/>
          <note key="29" pan="0" pos="5460" vol="78" len="21"/>
          <note key="22" pan="0" pos="5460" vol="78" len="21"/>
          <note key="29" pan="0" pos="5484" vol="78" len="24"/>
          <note key="22" pan="0" pos="5484" vol="78" len="24"/>
          <note key="29" pan="0" pos="5508" vol="78" len="9"/>
          <note key="22" pan="0" pos="5508" vol="78" len="9"/>
          <note key="29" pan="0" pos="5520" vol="78" len="9"/>
          <note key="22" pan="0" pos="5520" vol="78" len="9"/>
          <note key="29" pan="0" pos="5532" vol="78" len="9"/>
          <note key="22" pan="0" pos="5532" vol="78" len="9"/>
          <note key="41" pan="0" pos="5544" vol="78" len="24"/>
          <note key="34" pan="0" pos="5544" vol="78" len="24"/>
          <note key="31" pan="0" pos="5568" vol="78" len="21"/>
          <note key="24" pan="0" pos="5568" vol="78" len="21"/>
          <note key="31" pan="0" pos="5592" vol="78" len="24"/>
          <note key="24" pan="0" pos="5592" vol="78" len="24"/>
          <note key="31" pan="0" pos="5616" vol="78" len="12"/>
          <note key="24" pan="0" pos="5616" vol="78" len="12"/>
          <note key="31" pan="0" pos="5628" vol="94" len="21"/>
          <note key="24" pan="0" pos="5628" vol="94" len="21"/>
          <note key="31" pan="0" pos="5652" vol="78" len="21"/>
          <note key="24" pan="0" pos="5652" vol="78" len="21"/>
          <note key="31" pan="0" pos="5676" vol="78" len="24"/>
          <note key="24" pan="0" pos="5676" vol="78" len="24"/>
          <note key="31" pan="0" pos="5700" vol="78" len="9"/>
          <note key="24" pan="0" pos="5700" vol="78" len="9"/>
          <note key="31" pan="0" pos="5712" vol="78" len="9"/>
          <note key="24" pan="0" pos="5712" vol="78" len="9"/>
          <note key="31" pan="0" pos="5724" vol="78" len="9"/>
          <note key="24" pan="0" pos="5724" vol="78" len="9"/>
          <note key="31" pan="0" pos="5736" vol="78" len="24"/>
          <note key="24" pan="0" pos="5736" vol="78" len="24"/>
          <note key="33" pan="0" pos="5760" vol="78" len="21"/>
          <note key="26" pan="0" pos="5760" vol="78" len="21"/>
          <note key="33" pan="0" pos="5784" vol="78" len="24"/>
          <note key="26" pan="0" pos="5784" vol="78" len="24"/>
          <note key="33" pan="0" pos="5808" vol="78" len="12"/>
          <note key="26" pan="0" pos="5808" vol="78" len="12"/>
          <note key="33" pan="0" pos="5820" vol="94" len="21"/>
          <note key="26" pan="0" pos="5820" vol="94" len="21"/>
          <note key="33" pan="0" pos="5844" vol="78" len="21"/>
          <note key="26" pan="0" pos="5844" vol="78" len="21"/>
          <note key="33" pan="0" pos="5868" vol="78" len="24"/>
          <note key="26" pan="0" pos="5868" vol="78" len="24"/>
          <note key="33" pan="0" pos="5892" vol="78" len="9"/>
          <note key="26" pan="0" pos="5892" vol="78" len="9"/>
          <note key="33" pan="0" pos="5904" vol="78" len="9"/>
          <note key="26" pan="0" pos="5904" vol="78" len="9"/>
          <note key="33" pan="0" pos="5916" vol="78" len="9"/>
          <note key="26" pan="0" pos="5916" vol="78" len="9"/>
          <note key="33" pan="0" pos="5928" vol="78" len="24"/>
          <note key="26" pan="0" pos="5928" vol="78" len="24"/>
          <note key="32" pan="0" pos="5952" vol="78" len="21"/>
          <note key="25" pan="0" pos="5952" vol="78" len="21"/>
          <note key="32" pan="0" pos="5976" vol="78" len="24"/>
          <note key="25" pan="0" pos="5976" vol="78" len="24"/>
          <note key="32" pan="0" pos="6000" vol="78" len="12"/>
          <note key="25" pan="0" pos="6000" vol="78" len="12"/>
          <note key="32" pan="0" pos="6012" vol="94" len="21"/>
          <note key="25" pan="0" pos="6012" vol="94" len="21"/>
          <note key="34" pan="0" pos="6036" vol="78" len="21"/>
          <note key="27" pan="0" pos="6036" vol="78" len="21"/>
          <note key="34" pan="0" pos="6060" vol="78" len="24"/>
          <note key="27" pan="0" pos="6060" vol="78" len="24"/>
          <note key="34" pan="0" pos="6084" vol="78" len="9"/>
          <note key="27" pan="0" pos="6084" vol="78" len="9"/>
          <note key="34" pan="0" pos="6096" vol="78" len="9"/>
          <note key="27" pan="0" pos="6096" vol="78" len="9"/>
          <note key="34" pan="0" pos="6108" vol="78" len="9"/>
          <note key="27" pan="0" pos="6108" vol="78" len="9"/>
          <note key="34" pan="0" pos="6120" vol="78" len="24"/>
          <note key="27" pan="0" pos="6120" vol="78" len="24"/>
          <note key="29" pan="0" pos="6144" vol="78" len="21"/>
          <note key="22" pan="0" pos="6144" vol="78" len="21"/>
          <note key="29" pan="0" pos="6168" vol="78" len="24"/>
          <note key="22" pan="0" pos="6168" vol="78" len="24"/>
          <note key="29" pan="0" pos="6192" vol="78" len="12"/>
          <note key="22" pan="0" pos="6192" vol="78" len="12"/>
          <note key="29" pan="0" pos="6204" vol="94" len="21"/>
          <note key="22" pan="0" pos="6204" vol="94" len="21"/>
          <note key="29" pan="0" pos="6228" vol="78" len="21"/>
          <note key="22" pan="0" pos="6228" vol="78" len="21"/>
          <note key="29" pan="0" pos="6252" vol="78" len="24"/>
          <note key="22" pan="0" pos="6252" vol="78" len="24"/>
          <note key="29" pan="0" pos="6276" vol="78" len="9"/>
          <note key="22" pan="0" pos="6276" vol="78" len="9"/>
          <note key="29" pan="0" pos="6288" vol="78" len="9"/>
          <note key="22" pan="0" pos="6288" vol="78" len="9"/>
          <note key="29" pan="0" pos="6300" vol="78" len="9"/>
          <note key="22" pan="0" pos="6300" vol="78" len="9"/>
          <note key="41" pan="0" pos="6312" vol="78" len="24"/>
          <note key="34" pan="0" pos="6312" vol="78" len="24"/>
          <note key="31" pan="0" pos="6336" vol="78" len="21"/>
          <note key="24" pan="0" pos="6336" vol="78" len="21"/>
          <note key="31" pan="0" pos="6360" vol="78" len="24"/>
          <note key="24" pan="0" pos="6360" vol="78" len="24"/>
          <note key="31" pan="0" pos="6384" vol="78" len="12"/>
          <note key="24" pan="0" pos="6384" vol="78" len="12"/>
          <note key="31" pan="0" pos="6396" vol="94" len="21"/>
          <note key="24" pan="0" pos="6396" vol="94" len="21"/>
          <note key="31" pan="0" pos="6420" vol="78" len="21"/>
          <note key="24" pan="0" pos="6420" vol="78" len="21"/>
          <note key="31" pan="0" pos="6444" vol="78" len="24"/>
          <note key="24" pan="0" pos="6444" vol="78" len="24"/>
          <note key="31" pan="0" pos="6468" vol="78" len="9"/>
          <note key="24" pan="0" pos="6468" vol="78" len="9"/>
          <note key="31" pan="0" pos="6480" vol="78" len="9"/>
          <note key="24" pan="0" pos="6480" vol="78" len="9"/>
          <note key="31" pan="0" pos="6492" vol="78" len="9"/>
          <note key="24" pan="0" pos="6492" vol="78" len="9"/>
          <note key="31" pan="0" pos="6504" vol="78" len="24"/>
          <note key="24" pan="0" pos="6504" vol="78" len="24"/>
          <note key="33" pan="0" pos="6528" vol="78" len="21"/>
          <note key="26" pan="0" pos="6528" vol="78" len="21"/>
          <note key="33" pan="0" pos="6552" vol="78" len="24"/>
          <note key="26" pan="0" pos="6552" vol="78" len="24"/>
          <note key="33" pan="0" pos="6576" vol="78" len="12"/>
          <note key="26" pan="0" pos="6576" vol="78" len="12"/>
          <note key="33" pan="0" pos="6588" vol="94" len="21"/>
          <note key="26" pan="0" pos="6588" vol="94" len="21"/>
          <note key="33" pan="0" pos="6612" vol="78" len="21"/>
          <note key="26" pan="0" pos="6612" vol="78" len="21"/>
          <note key="33" pan="0" pos="6636" vol="78" len="24"/>
          <note key="26" pan="0" pos="6636" vol="78" len="24"/>
          <note key="33" pan="0" pos="6660" vol="78" len="9"/>
          <note key="26" pan="0" pos="6660" vol="78" len="9"/>
          <note key="33" pan="0" pos="6672" vol="78" len="9"/>
          <note key="26" pan="0" pos="6672" vol="78" len="9"/>
          <note key="33" pan="0" pos="6684" vol="78" len="9"/>
          <note key="26" pan="0" pos="6684" vol="78" len="9"/>
          <note key="33" pan="0" pos="6696" vol="78" len="24"/>
          <note key="26" pan="0" pos="6696" vol="78" len="24"/>
          <note key="32" pan="0" pos="6720" vol="78" len="21"/>
          <note key="25" pan="0" pos="6720" vol="78" len="21"/>
          <note key="32" pan="0" pos="6744" vol="78" len="24"/>
          <note key="25" pan="0" pos="6744" vol="78" len="24"/>
          <note key="32" pan="0" pos="6768" vol="78" len="12"/>
          <note key="25" pan="0" pos="6768" vol="78" len="12"/>
          <note key="32" pan="0" pos="6780" vol="94" len="21"/>
          <note key="25" pan="0" pos="6780" vol="94" len="21"/>
          <note key="34" pan="0" pos="6804" vol="78" len="21"/>
          <note key="27" pan="0" pos="6804" vol="78" len="21"/>
          <note key="34" pan="0" pos="6828" vol="78" len="24"/>
          <note key="27" pan="0" pos="6828" vol="78" len="24"/>
          <note key="34" pan="0" pos="6852" vol="78" len="9"/>
          <note key="27" pan="0" pos="6852" vol="78" len="9"/>
          <note key="34" pan="0" pos="6864" vol="78" len="9"/>
          <note key="27" pan="0" pos="6864" vol="78" len="9"/>
          <note key="34" pan="0" pos="6876" vol="78" len="9"/>
          <note key="27" pan="0" pos="6876" vol="78" len="9"/>
          <note key="34" pan="0" pos="6888" vol="78" len="24"/>
          <note key="27" pan="0" pos="6888" vol="78" len="24"/>
          <note key="29" pan="0" pos="6912" vol="78" len="21"/>
          <note key="22" pan="0" pos="6912" vol="78" len="21"/>
          <note key="29" pan="0" pos="6936" vol="78" len="24"/>
          <note key="22" pan="0" pos="6936" vol="78" len="24"/>
          <note key="29" pan="0" pos="6960" vol="78" len="12"/>
          <note key="22" pan="0" pos="6960" vol="78" len="12"/>
          <note key="29" pan="0" pos="6972" vol="94" len="21"/>
          <note key="22" pan="0" pos="6972" vol="94" len="21"/>
          <note key="29" pan="0" pos="6996" vol="78" len="21"/>
          <note key="22" pan="0" pos="6996" vol="78" len="21"/>
          <note key="29" pan="0" pos="7020" vol="78" len="24"/>
          <note key="22" pan="0" pos="7020" vol="78" len="24"/>
          <note key="29" pan="0" pos="7044" vol="78" len="9"/>
          <note key="22" pan="0" pos="7044" vol="78" len="9"/>
          <note key="29" pan="0" pos="7056" vol="78" len="9"/>
          <note key="22" pan="0" pos="7056" vol="78" len="9"/>
          <note key="29" pan="0" pos="7068" vol="78" len="9"/>
          <note key="22" pan="0" pos="7068" vol="78" len="9"/>
          <note key="29" pan="0" pos="7080" vol="78" len="24"/>
          <note key="22" pan="0" pos="7080" vol="78" len="24"/>
          <note key="31" pan="0" pos="7104" vol="78" len="21"/>
          <note key="24" pan="0" pos="7104" vol="78" len="21"/>
          <note key="31" pan="0" pos="7128" vol="78" len="24"/>
          <note key="24" pan="0" pos="7128" vol="78" len="24"/>
          <note key="31" pan="0" pos="7152" vol="78" len="12"/>
          <note key="24" pan="0" pos="7152" vol="78" len="12"/>
          <note key="31" pan="0" pos="7164" vol="94" len="21"/>
          <note key="24" pan="0" pos="7164" vol="94" len="21"/>
          <note key="31" pan="0" pos="7188" vol="78" len="21"/>
          <note key="24" pan="0" pos="7188" vol="78" len="21"/>
          <note key="31" pan="0" pos="7212" vol="78" len="24"/>
          <note key="24" pan="0" pos="7212" vol="78" len="24"/>
          <note key="31" pan="0" pos="7236" vol="78" len="9"/>
          <note key="24" pan="0" pos="7236" vol="78" len="9"/>
          <note key="31" pan="0" pos="7248" vol="78" len="9"/>
          <note key="24" pan="0" pos="7248" vol="78" len="9"/>
          <note key="31" pan="0" pos="7260" vol="78" len="9"/>
          <note key="24" pan="0" pos="7260" vol="78" len="9"/>
          <note key="31" pan="0" pos="7272" vol="78" len="24"/>
          <note key="24" pan="0" pos="7272" vol="78" len="24"/>
          <note key="30" pan="0" pos="7296" vol="78" len="21"/>
          <note key="23" pan="0" pos="7296" vol="78" len="21"/>
          <note key="30" pan="0" pos="7320" vol="78" len="24"/>
          <note key="23" pan="0" pos="7320" vol="78" len="24"/>
          <note key="30" pan="0" pos="7344" vol="78" len="12"/>
          <note key="23" pan="0" pos="7344" vol="78" len="12"/>
          <note key="30" pan="0" pos="7356" vol="94" len="21"/>
          <note key="23" pan="0" pos="7356" vol="94" len="21"/>
          <note key="30" pan="0" pos="7380" vol="78" len="21"/>
          <note key="23" pan="0" pos="7380" vol="78" len="21"/>
          <note key="30" pan="0" pos="7404" vol="78" len="24"/>
          <note key="23" pan="0" pos="7404" vol="78" len="24"/>
          <note key="30" pan="0" pos="7428" vol="78" len="9"/>
          <note key="23" pan="0" pos="7428" vol="78" len="9"/>
          <note key="30" pan="0" pos="7440" vol="78" len="9"/>
          <note key="23" pan="0" pos="7440" vol="78" len="9"/>
          <note key="30" pan="0" pos="7452" vol="78" len="9"/>
          <note key="23" pan="0" pos="7452" vol="78" len="9"/>
          <note key="30" pan="0" pos="7464" vol="78" len="24"/>
          <note key="23" pan="0" pos="7464" vol="78" len="24"/>
          <note key="30" pan="0" pos="7488" vol="78" len="21"/>
          <note key="23" pan="0" pos="7488" vol="78" len="21"/>
          <note key="30" pan="0" pos="7512" vol="78" len="24"/>
          <note key="23" pan="0" pos="7512" vol="78" len="24"/>
          <note key="30" pan="0" pos="7536" vol="78" len="12"/>
          <note key="23" pan="0" pos="7536" vol="78" len="12"/>
          <note key="30" pan="0" pos="7548" vol="94" len="21"/>
          <note key="23" pan="0" pos="7548" vol="94" len="21"/>
          <note key="30" pan="0" pos="7572" vol="78" len="21"/>
          <note key="23" pan="0" pos="7572" vol="78" len="21"/>
          <note key="30" pan="0" pos="7596" vol="78" len="24"/>
          <note key="23" pan="0" pos="7596" vol="78" len="24"/>
          <note key="30" pan="0" pos="7620" vol="78" len="9"/>
          <note key="23" pan="0" pos="7620" vol="78" len="9"/>
          <note key="30" pan="0" pos="7632" vol="78" len="9"/>
          <note key="23" pan="0" pos="7632" vol="78" len="9"/>
          <note key="30" pan="0" pos="7644" vol="78" len="9"/>
          <note key="23" pan="0" pos="7644" vol="78" len="9"/>
          <note key="30" pan="0" pos="7656" vol="78" len="24"/>
          <note key="23" pan="0" pos="7656" vol="78" len="24"/>
          <note key="29" pan="0" pos="7680" vol="78" len="21"/>
          <note key="22" pan="0" pos="7680" vol="78" len="21"/>
          <note key="29" pan="0" pos="7704" vol="78" len="24"/>
          <note key="22" pan="0" pos="7704" vol="78" len="24"/>
          <note key="29" pan="0" pos="7728" vol="78" len="12"/>
          <note key="22" pan="0" pos="7728" vol="78" len="12"/>
          <note key="29" pan="0" pos="7740" vol="94" len="21"/>
          <note key="22" pan="0" pos="7740" vol="94" len="21"/>
          <note key="29" pan="0" pos="7764" vol="78" len="21"/>
          <note key="22" pan="0" pos="7764" vol="78" len="21"/>
          <note key="29" pan="0" pos="7788" vol="78" len="24"/>
          <note key="22" pan="0" pos="7788" vol="78" len="24"/>
          <note key="29" pan="0" pos="7812" vol="78" len="9"/>
          <note key="22" pan="0" pos="7812" vol="78" len="9"/>
          <note key="29" pan="0" pos="7824" vol="78" len="9"/>
          <note key="22" pan="0" pos="7824" vol="78" len="9"/>
          <note key="29" pan="0" pos="7836" vol="78" len="9"/>
          <note key="22" pan="0" pos="7836" vol="78" len="9"/>
          <note key="29" pan="0" pos="7848" vol="78" len="24"/>
          <note key="22" pan="0" pos="7848" vol="78" len="24"/>
          <note key="31" pan="0" pos="7872" vol="78" len="21"/>
          <note key="24" pan="0" pos="7872" vol="78" len="21"/>
          <note key="31" pan="0" pos="7896" vol="78" len="24"/>
          <note key="24" pan="0" pos="7896" vol="78" len="24"/>
          <note key="31" pan="0" pos="7920" vol="78" len="12"/>
          <note key="24" pan="0" pos="7920" vol="78" len="12"/>
          <note key="31" pan="0" pos="7932" vol="94" len="21"/>
          <note key="24" pan="0" pos="7932" vol="94" len="21"/>
          <note key="31" pan="0" pos="7956" vol="78" len="21"/>
          <note key="24" pan="0" pos="7956" vol="78" len="21"/>
          <note key="31" pan="0" pos="7980" vol="78" len="24"/>
          <note key="24" pan="0" pos="7980" vol="78" len="24"/>
          <note key="31" pan="0" pos="8004" vol="78" len="9"/>
          <note key="24" pan="0" pos="8004" vol="78" len="9"/>
          <note key="31" pan="0" pos="8016" vol="78" len="9"/>
          <note key="24" pan="0" pos="8016" vol="78" len="9"/>
          <note key="31" pan="0" pos="8028" vol="78" len="9"/>
          <note key="24" pan="0" pos="8028" vol="78" len="9"/>
          <note key="31" pan="0" pos="8040" vol="78" len="24"/>
          <note key="24" pan="0" pos="8040" vol="78" len="24"/>
          <note key="33" pan="0" pos="8064" vol="78" len="21"/>
          <note key="26" pan="0" pos="8064" vol="78" len="21"/>
          <note key="33" pan="0" pos="8088" vol="78" len="24"/>
          <note key="26" pan="0" pos="8088" vol="78" len="24"/>
          <note key="33" pan="0" pos="8112" vol="78" len="12"/>
          <note key="26" pan="0" pos="8112" vol="78" len="12"/>
          <note key="33" pan="0" pos="8124" vol="94" len="21"/>
          <note key="26" pan="0" pos="8124" vol="94" len="21"/>
          <note key="33" pan="0" pos="8148" vol="78" len="21"/>
          <note key="26" pan="0" pos="8148" vol="78" len="21"/>
          <note key="33" pan="0" pos="8172" vol="78" len="24"/>
          <note key="26" pan="0" pos="8172" vol="78" len="24"/>
          <note key="33" pan="0" pos="8196" vol="78" len="9"/>
          <note key="26" pan="0" pos="8196" vol="78" len="9"/>
          <note key="33" pan="0" pos="8208" vol="78" len="9"/>
          <note key="26" pan="0" pos="8208" vol="78" len="9"/>
          <note key="33" pan="0" pos="8220" vol="78" len="9"/>
          <note key="26" pan="0" pos="8220" vol="78" len="9"/>
          <note key="33" pan="0" pos="8232" vol="78" len="24"/>
          <note key="26" pan="0" pos="8232" vol="78" len="24"/>
          <note key="33" pan="0" pos="8256" vol="78" len="21"/>
          <note key="26" pan="0" pos="8256" vol="78" len="21"/>
          <note key="33" pan="0" pos="8280" vol="78" len="24"/>
          <note key="26" pan="0" pos="8280" vol="78" len="24"/>
          <note key="33" pan="0" pos="8304" vol="78" len="12"/>
          <note key="26" pan="0" pos="8304" vol="78" len="12"/>
          <note key="33" pan="0" pos="8316" vol="94" len="21"/>
          <note key="26" pan="0" pos="8316" vol="94" len="21"/>
          <note key="33" pan="0" pos="8340" vol="78" len="21"/>
          <note key="26" pan="0" pos="8340" vol="78" len="21"/>
          <note key="33" pan="0" pos="8364" vol="78" len="24"/>
          <note key="26" pan="0" pos="8364" vol="78" len="24"/>
          <note key="33" pan="0" pos="8388" vol="78" len="9"/>
          <note key="26" pan="0" pos="8388" vol="78" len="9"/>
          <note key="33" pan="0" pos="8400" vol="78" len="9"/>
          <note key="26" pan="0" pos="8400" vol="78" len="9"/>
          <note key="33" pan="0" pos="8412" vol="78" len="9"/>
          <note key="26" pan="0" pos="8412" vol="78" len="9"/>
          <note key="33" pan="0" pos="8424" vol="78" len="24"/>
          <note key="26" pan="0" pos="8424" vol="78" len="24"/>
          <note key="29" pan="0" pos="8448" vol="78" len="21"/>
          <note key="22" pan="0" pos="8448" vol="78" len="21"/>
          <note key="29" pan="0" pos="8472" vol="78" len="24"/>
          <note key="22" pan="0" pos="8472" vol="78" len="24"/>
          <note key="29" pan="0" pos="8496" vol="78" len="12"/>
          <note key="22" pan="0" pos="8496" vol="78" len="12"/>
          <note key="29" pan="0" pos="8508" vol="94" len="21"/>
          <note key="22" pan="0" pos="8508" vol="94" len="21"/>
          <note key="29" pan="0" pos="8532" vol="78" len="21"/>
          <note key="22" pan="0" pos="8532" vol="78" len="21"/>
          <note key="29" pan="0" pos="8556" vol="78" len="24"/>
          <note key="22" pan="0" pos="8556" vol="78" len="24"/>
          <note key="29" pan="0" pos="8580" vol="78" len="9"/>
          <note key="22" pan="0" pos="8580" vol="78" len="9"/>
          <note key="29" pan="0" pos="8592" vol="78" len="9"/>
          <note key="22" pan="0" pos="8592" vol="78" len="9"/>
          <note key="29" pan="0" pos="8604" vol="78" len="9"/>
          <note key="22" pan="0" pos="8604" vol="78" len="9"/>
          <note key="29" pan="0" pos="8616" vol="78" len="24"/>
          <note key="22" pan="0" pos="8616" vol="78" len="24"/>
          <note key="31" pan="0" pos="8640" vol="78" len="21"/>
          <note key="24" pan="0" pos="8640" vol="78" len="21"/>
          <note key="31" pan="0" pos="8664" vol="78" len="24"/>
          <note key="24" pan="0" pos="8664" vol="78" len="24"/>
          <note key="31" pan="0" pos="8688" vol="78" len="12"/>
          <note key="24" pan="0" pos="8688" vol="78" len="12"/>
          <note key="31" pan="0" pos="8700" vol="94" len="21"/>
          <note key="24" pan="0" pos="8700" vol="94" len="21"/>
          <note key="31" pan="0" pos="8724" vol="78" len="21"/>
          <note key="24" pan="0" pos="8724" vol="78" len="21"/>
          <note key="31" pan="0" pos="8748" vol="78" len="24"/>
          <note key="24" pan="0" pos="8748" vol="78" len="24"/>
          <note key="31" pan="0" pos="8772" vol="78" len="9"/>
          <note key="24" pan="0" pos="8772" vol="78" len="9"/>
          <note key="31" pan="0" pos="8784" vol="78" len="9"/>
          <note key="24" pan="0" pos="8784" vol="78" len="9"/>
          <note key="31" pan="0" pos="8796" vol="78" len="9"/>
          <note key="24" pan="0" pos="8796" vol="78" len="9"/>
          <note key="31" pan="0" pos="8808" vol="78" len="24"/>
          <note key="24" pan="0" pos="8808" vol="78" len="24"/>
          <note key="30" pan="0" pos="8832" vol="78" len="21"/>
          <note key="23" pan="0" pos="8832" vol="78" len="21"/>
          <note key="30" pan="0" pos="8856" vol="78" len="24"/>
          <note key="23" pan="0" pos="8856" vol="78" len="24"/>
          <note key="30" pan="0" pos="8880" vol="78" len="12"/>
          <note key="23" pan="0" pos="8880" vol="78" len="12"/>
          <note key="30" pan="0" pos="8892" vol="94" len="21"/>
          <note key="23" pan="0" pos="8892" vol="94" len="21"/>
          <note key="30" pan="0" pos="8916" vol="78" len="21"/>
          <note key="23" pan="0" pos="8916" vol="78" len="21"/>
          <note key="30" pan="0" pos="8940" vol="78" len="24"/>
          <note key="23" pan="0" pos="8940" vol="78" len="24"/>
          <note key="30" pan="0" pos="8964" vol="78" len="9"/>
          <note key="23" pan="0" pos="8964" vol="78" len="9"/>
          <note key="30" pan="0" pos="8976" vol="78" len="9"/>
          <note key="23" pan="0" pos="8976" vol="78" len="9"/>
          <note key="30" pan="0" pos="8988" vol="78" len="9"/>
          <note key="23" pan="0" pos="8988" vol="78" len="9"/>
          <note key="30" pan="0" pos="9000" vol="78" len="24"/>
          <note key="23" pan="0" pos="9000" vol="78" len="24"/>
          <note key="30" pan="0" pos="9024" vol="78" len="21"/>
          <note key="23" pan="0" pos="9024" vol="78" len="21"/>
          <note key="30" pan="0" pos="9048" vol="78" len="24"/>
          <note key="23" pan="0" pos="9048" vol="78" len="24"/>
          <note key="30" pan="0" pos="9072" vol="78" len="12"/>
          <note key="23" pan="0" pos="9072" vol="78" len="12"/>
          <note key="30" pan="0" pos="9084" vol="94" len="21"/>
          <note key="23" pan="0" pos="9084" vol="94" len="21"/>
          <note key="30" pan="0" pos="9108" vol="78" len="21"/>
          <note key="23" pan="0" pos="9108" vol="78" len="21"/>
          <note key="30" pan="0" pos="9132" vol="78" len="24"/>
          <note key="23" pan="0" pos="9132" vol="78" len="24"/>
          <note key="30" pan="0" pos="9156" vol="78" len="9"/>
          <note key="23" pan="0" pos="9156" vol="78" len="9"/>
          <note key="30" pan="0" pos="9168" vol="78" len="9"/>
          <note key="23" pan="0" pos="9168" vol="78" len="9"/>
          <note key="30" pan="0" pos="9180" vol="78" len="9"/>
          <note key="23" pan="0" pos="9180" vol="78" len="9"/>
          <note key="30" pan="0" pos="9192" vol="78" len="24"/>
          <note key="23" pan="0" pos="9192" vol="78" len="24"/>
          <note key="29" pan="0" pos="9216" vol="78" len="21"/>
          <note key="22" pan="0" pos="9216" vol="78" len="21"/>
          <note key="29" pan="0" pos="9240" vol="78" len="24"/>
          <note key="22" pan="0" pos="9240" vol="78" len="24"/>
          <note key="29" pan="0" pos="9264" vol="78" len="12"/>
          <note key="22" pan="0" pos="9264" vol="78" len="12"/>
          <note key="29" pan="0" pos="9276" vol="94" len="21"/>
          <note key="22" pan="0" pos="9276" vol="94" len="21"/>
          <note key="29" pan="0" pos="9300" vol="78" len="21"/>
          <note key="22" pan="0" pos="9300" vol="78" len="21"/>
          <note key="29" pan="0" pos="9324" vol="78" len="24"/>
          <note key="22" pan="0" pos="9324" vol="78" len="24"/>
          <note key="29" pan="0" pos="9348" vol="78" len="9"/>
          <note key="22" pan="0" pos="9348" vol="78" len="9"/>
          <note key="29" pan="0" pos="9360" vol="78" len="9"/>
          <note key="22" pan="0" pos="9360" vol="78" len="9"/>
          <note key="29" pan="0" pos="9372" vol="78" len="9"/>
          <note key="22" pan="0" pos="9372" vol="78" len="9"/>
          <note key="29" pan="0" pos="9384" vol="78" len="24"/>
          <note key="22" pan="0" pos="9384" vol="78" len="24"/>
          <note key="31" pan="0" pos="9408" vol="78" len="21"/>
          <note key="24" pan="0" pos="9408" vol="78" len="21"/>
          <note key="31" pan="0" pos="9432" vol="78" len="24"/>
          <note key="24" pan="0" pos="9432" vol="78" len="24"/>
          <note key="31" pan="0" pos="9456" vol="78" len="12"/>
          <note key="24" pan="0" pos="9456" vol="78" len="12"/>
          <note key="31" pan="0" pos="9468" vol="94" len="21"/>
          <note key="24" pan="0" pos="9468" vol="94" len="21"/>
          <note key="31" pan="0" pos="9492" vol="78" len="21"/>
          <note key="24" pan="0" pos="9492" vol="78" len="21"/>
          <note key="31" pan="0" pos="9516" vol="78" len="24"/>
          <note key="24" pan="0" pos="9516" vol="78" len="24"/>
          <note key="31" pan="0" pos="9540" vol="78" len="9"/>
          <note key="24" pan="0" pos="9540" vol="78" len="9"/>
          <note key="31" pan="0" pos="9552" vol="78" len="9"/>
          <note key="24" pan="0" pos="9552" vol="78" len="9"/>
          <note key="31" pan="0" pos="9564" vol="78" len="9"/>
          <note key="24" pan="0" pos="9564" vol="78" len="9"/>
          <note key="31" pan="0" pos="9576" vol="78" len="24"/>
          <note key="24" pan="0" pos="9576" vol="78" len="24"/>
          <note key="33" pan="0" pos="9600" vol="78" len="21"/>
          <note key="26" pan="0" pos="9600" vol="78" len="21"/>
          <note key="33" pan="0" pos="9624" vol="78" len="24"/>
          <note key="26" pan="0" pos="9624" vol="78" len="24"/>
          <note key="33" pan="0" pos="9648" vol="78" len="12"/>
          <note key="26" pan="0" pos="9648" vol="78" len="12"/>
          <note key="33" pan="0" pos="9660" vol="94" len="21"/>
          <note key="26" pan="0" pos="9660" vol="94" len="21"/>
          <note key="33" pan="0" pos="9684" vol="78" len="21"/>
          <note key="26" pan="0" pos="9684" vol="78" len="21"/>
          <note key="33" pan="0" pos="9708" vol="78" len="24"/>
          <note key="26" pan="0" pos="9708" vol="78" len="24"/>
          <note key="33" pan="0" pos="9732" vol="78" len="9"/>
          <note key="26" pan="0" pos="9732" vol="78" len="9"/>
          <note key="33" pan="0" pos="9744" vol="78" len="9"/>
          <note key="26" pan="0" pos="9744" vol="78" len="9"/>
          <note key="33" pan="0" pos="9756" vol="78" len="9"/>
          <note key="26" pan="0" pos="9756" vol="78" len="9"/>
          <note key="33" pan="0" pos="9768" vol="78" len="24"/>
          <note key="26" pan="0" pos="9768" vol="78" len="24"/>
          <note key="33" pan="0" pos="9792" vol="78" len="21"/>
          <note key="26" pan="0" pos="9792" vol="78" len="21"/>
          <note key="33" pan="0" pos="9816" vol="78" len="24"/>
          <note key="26" pan="0" pos="9816" vol="78" len="24"/>
          <note key="33" pan="0" pos="9840" vol="78" len="12"/>
          <note key="26" pan="0" pos="9840" vol="78" len="12"/>
          <note key="33" pan="0" pos="9852" vol="94" len="21"/>
          <note key="26" pan="0" pos="9852" vol="94" len="21"/>
          <note key="33" pan="0" pos="9876" vol="78" len="21"/>
          <note key="26" pan="0" pos="9876" vol="78" len="21"/>
          <note key="33" pan="0" pos="9900" vol="78" len="24"/>
          <note key="26" pan="0" pos="9900" vol="78" len="24"/>
          <note key="33" pan="0" pos="9924" vol="78" len="9"/>
          <note key="26" pan="0" pos="9924" vol="78" len="9"/>
          <note key="33" pan="0" pos="9936" vol="78" len="9"/>
          <note key="26" pan="0" pos="9936" vol="78" len="9"/>
          <note key="33" pan="0" pos="9948" vol="78" len="9"/>
          <note key="26" pan="0" pos="9948" vol="78" len="9"/>
          <note key="33" pan="0" pos="9960" vol="78" len="24"/>
          <note key="26" pan="0" pos="9960" vol="78" len="24"/>
          <note key="29" pan="0" pos="9984" vol="110" len="24"/>
          <note key="22" pan="0" pos="9984" vol="110" len="24"/>
          <note key="29" pan="0" pos="10008" vol="110" len="24"/>
          <note key="22" pan="0" pos="10008" vol="110" len="24"/>
          <note key="29" pan="0" pos="10032" vol="110" len="9"/>
          <note key="22" pan="0" pos="10032" vol="110" len="9"/>
          <note key="29" pan="0" pos="10044" vol="110" len="24"/>
          <note key="22" pan="0" pos="10044" vol="110" len="24"/>
          <note key="29" pan="0" pos="10068" vol="110" len="24"/>
          <note key="22" pan="0" pos="10068" vol="110" len="24"/>
          <note key="29" pan="0" pos="10092" vol="110" len="24"/>
          <note key="22" pan="0" pos="10092" vol="110" len="24"/>
          <note key="29" pan="0" pos="10116" vol="110" len="9"/>
          <note key="22" pan="0" pos="10116" vol="110" len="9"/>
          <note key="29" pan="0" pos="10128" vol="110" len="9"/>
          <note key="22" pan="0" pos="10128" vol="110" len="9"/>
          <note key="29" pan="0" pos="10140" vol="110" len="9"/>
          <note key="22" pan="0" pos="10140" vol="110" len="9"/>
          <note key="41" pan="0" pos="10152" vol="110" len="21"/>
          <note key="34" pan="0" pos="10152" vol="110" len="21"/>
          <note key="31" pan="0" pos="10176" vol="110" len="24"/>
          <note key="24" pan="0" pos="10176" vol="110" len="24"/>
          <note key="31" pan="0" pos="10200" vol="110" len="24"/>
          <note key="24" pan="0" pos="10200" vol="110" len="24"/>
          <note key="31" pan="0" pos="10224" vol="110" len="9"/>
          <note key="24" pan="0" pos="10224" vol="110" len="9"/>
          <note key="31" pan="0" pos="10236" vol="110" len="24"/>
          <note key="24" pan="0" pos="10236" vol="110" len="24"/>
          <note key="31" pan="0" pos="10260" vol="110" len="24"/>
          <note key="24" pan="0" pos="10260" vol="110" len="24"/>
          <note key="31" pan="0" pos="10284" vol="110" len="24"/>
          <note key="24" pan="0" pos="10284" vol="110" len="24"/>
          <note key="31" pan="0" pos="10308" vol="110" len="9"/>
          <note key="24" pan="0" pos="10308" vol="110" len="9"/>
          <note key="31" pan="0" pos="10320" vol="110" len="9"/>
          <note key="24" pan="0" pos="10320" vol="110" len="9"/>
          <note key="31" pan="0" pos="10332" vol="110" len="9"/>
          <note key="24" pan="0" pos="10332" vol="110" len="9"/>
          <note key="31" pan="0" pos="10344" vol="110" len="21"/>
          <note key="24" pan="0" pos="10344" vol="110" len="21"/>
          <note key="33" pan="0" pos="10368" vol="110" len="24"/>
          <note key="26" pan="0" pos="10368" vol="110" len="24"/>
          <note key="33" pan="0" pos="10392" vol="110" len="24"/>
          <note key="26" pan="0" pos="10392" vol="110" len="24"/>
          <note key="33" pan="0" pos="10416" vol="110" len="9"/>
          <note key="26" pan="0" pos="10416" vol="110" len="9"/>
          <note key="33" pan="0" pos="10428" vol="110" len="24"/>
          <note key="26" pan="0" pos="10428" vol="110" len="24"/>
          <note key="32" pan="0" pos="10452" vol="110" len="24"/>
          <note key="25" pan="0" pos="10452" vol="110" len="24"/>
          <note key="32" pan="0" pos="10476" vol="110" len="24"/>
          <note key="25" pan="0" pos="10476" vol="110" len="24"/>
          <note key="32" pan="0" pos="10500" vol="110" len="9"/>
          <note key="25" pan="0" pos="10500" vol="110" len="9"/>
          <note key="32" pan="0" pos="10512" vol="110" len="9"/>
          <note key="25" pan="0" pos="10512" vol="110" len="9"/>
          <note key="32" pan="0" pos="10524" vol="110" len="9"/>
          <note key="25" pan="0" pos="10524" vol="110" len="9"/>
          <note key="32" pan="0" pos="10536" vol="110" len="18"/>
          <note key="25" pan="0" pos="10536" vol="110" len="18"/>
          <note key="31" pan="0" pos="10560" vol="110" len="24"/>
          <note key="24" pan="0" pos="10560" vol="110" len="24"/>
          <note key="31" pan="0" pos="10584" vol="110" len="24"/>
          <note key="24" pan="0" pos="10584" vol="110" len="24"/>
          <note key="31" pan="0" pos="10608" vol="110" len="9"/>
          <note key="24" pan="0" pos="10608" vol="110" len="9"/>
          <note key="31" pan="0" pos="10620" vol="110" len="24"/>
          <note key="24" pan="0" pos="10620" vol="110" len="24"/>
          <note key="30" pan="0" pos="10644" vol="110" len="24"/>
          <note key="23" pan="0" pos="10644" vol="110" len="24"/>
          <note key="30" pan="0" pos="10668" vol="110" len="24"/>
          <note key="23" pan="0" pos="10668" vol="110" len="24"/>
          <note key="30" pan="0" pos="10692" vol="110" len="9"/>
          <note key="23" pan="0" pos="10692" vol="110" len="9"/>
          <note key="30" pan="0" pos="10704" vol="110" len="9"/>
          <note key="23" pan="0" pos="10704" vol="110" len="9"/>
          <note key="30" pan="0" pos="10716" vol="110" len="9"/>
          <note key="23" pan="0" pos="10716" vol="110" len="9"/>
          <note key="30" pan="0" pos="10728" vol="110" len="21"/>
          <note key="23" pan="0" pos="10728" vol="110" len="21"/>
          <note key="29" pan="0" pos="10752" vol="110" len="24"/>
          <note key="22" pan="0" pos="10752" vol="110" len="24"/>
          <note key="29" pan="0" pos="10776" vol="110" len="24"/>
          <note key="22" pan="0" pos="10776" vol="110" len="24"/>
          <note key="29" pan="0" pos="10800" vol="110" len="9"/>
          <note key="22" pan="0" pos="10800" vol="110" len="9"/>
          <note key="29" pan="0" pos="10812" vol="110" len="24"/>
          <note key="22" pan="0" pos="10812" vol="110" len="24"/>
          <note key="29" pan="0" pos="10836" vol="110" len="24"/>
          <note key="22" pan="0" pos="10836" vol="110" len="24"/>
          <note key="29" pan="0" pos="10860" vol="110" len="24"/>
          <note key="22" pan="0" pos="10860" vol="110" len="24"/>
          <note key="29" pan="0" pos="10884" vol="110" len="9"/>
          <note key="22" pan="0" pos="10884" vol="110" len="9"/>
          <note key="29" pan="0" pos="10896" vol="110" len="9"/>
          <note key="22" pan="0" pos="10896" vol="110" len="9"/>
          <note key="29" pan="0" pos="10908" vol="110" len="9"/>
          <note key="22" pan="0" pos="10908" vol="110" len="9"/>
          <note key="41" pan="0" pos="10920" vol="110" len="21"/>
          <note key="34" pan="0" pos="10920" vol="110" len="21"/>
          <note key="31" pan="0" pos="10944" vol="110" len="24"/>
          <note key="24" pan="0" pos="10944" vol="110" len="24"/>
          <note key="31" pan="0" pos="10968" vol="110" len="24"/>
          <note key="24" pan="0" pos="10968" vol="110" len="24"/>
          <note key="31" pan="0" pos="10992" vol="110" len="9"/>
          <note key="24" pan="0" pos="10992" vol="110" len="9"/>
          <note key="31" pan="0" pos="11004" vol="110" len="24"/>
          <note key="24" pan="0" pos="11004" vol="110" len="24"/>
          <note key="31" pan="0" pos="11028" vol="110" len="24"/>
          <note key="24" pan="0" pos="11028" vol="110" len="24"/>
          <note key="31" pan="0" pos="11052" vol="110" len="24"/>
          <note key="24" pan="0" pos="11052" vol="110" len="24"/>
          <note key="31" pan="0" pos="11076" vol="110" len="9"/>
          <note key="24" pan="0" pos="11076" vol="110" len="9"/>
          <note key="31" pan="0" pos="11088" vol="110" len="9"/>
          <note key="24" pan="0" pos="11088" vol="110" len="9"/>
          <note key="31" pan="0" pos="11100" vol="110" len="9"/>
          <note key="24" pan="0" pos="11100" vol="110" len="9"/>
          <note key="31" pan="0" pos="11112" vol="110" len="21"/>
          <note key="24" pan="0" pos="11112" vol="110" len="21"/>
          <note key="33" pan="0" pos="11136" vol="110" len="24"/>
          <note key="26" pan="0" pos="11136" vol="110" len="24"/>
          <note key="33" pan="0" pos="11160" vol="110" len="24"/>
          <note key="26" pan="0" pos="11160" vol="110" len="24"/>
          <note key="33" pan="0" pos="11184" vol="110" len="9"/>
          <note key="26" pan="0" pos="11184" vol="110" len="9"/>
          <note key="33" pan="0" pos="11196" vol="110" len="24"/>
          <note key="26" pan="0" pos="11196" vol="110" len="24"/>
          <note key="33" pan="0" pos="11220" vol="110" len="24"/>
          <note key="26" pan="0" pos="11220" vol="110" len="24"/>
          <note key="33" pan="0" pos="11244" vol="110" len="24"/>
          <note key="26" pan="0" pos="11244" vol="110" len="24"/>
          <note key="33" pan="0" pos="11268" vol="110" len="9"/>
          <note key="26" pan="0" pos="11268" vol="110" len="9"/>
          <note key="33" pan="0" pos="11280" vol="110" len="9"/>
          <note key="26" pan="0" pos="11280" vol="110" len="9"/>
          <note key="33" pan="0" pos="11292" vol="110" len="9"/>
          <note key="26" pan="0" pos="11292" vol="110" len="9"/>
          <note key="33" pan="0" pos="11304" vol="110" len="21"/>
          <note key="26" pan="0" pos="11304" vol="110" len="21"/>
          <note key="33" pan="0" pos="11328" vol="110" len="24"/>
          <note key="26" pan="0" pos="11328" vol="110" len="24"/>
          <note key="33" pan="0" pos="11352" vol="110" len="24"/>
          <note key="26" pan="0" pos="11352" vol="110" len="24"/>
          <note key="33" pan="0" pos="11376" vol="110" len="9"/>
          <note key="26" pan="0" pos="11376" vol="110" len="9"/>
          <note key="33" pan="0" pos="11388" vol="110" len="24"/>
          <note key="26" pan="0" pos="11388" vol="110" len="24"/>
          <note key="33" pan="0" pos="11412" vol="110" len="24"/>
          <note key="26" pan="0" pos="11412" vol="110" len="24"/>
          <note key="33" pan="0" pos="11436" vol="110" len="24"/>
          <note key="26" pan="0" pos="11436" vol="110" len="24"/>
          <note key="33" pan="0" pos="11460" vol="110" len="9"/>
          <note key="26" pan="0" pos="11460" vol="110" len="9"/>
          <note key="33" pan="0" pos="11472" vol="110" len="9"/>
          <note key="26" pan="0" pos="11472" vol="110" len="9"/>
          <note key="33" pan="0" pos="11484" vol="110" len="9"/>
          <note key="26" pan="0" pos="11484" vol="110" len="9"/>
          <note key="33" pan="0" pos="11496" vol="110" len="21"/>
          <note key="26" pan="0" pos="11496" vol="110" len="21"/>
          <note key="29" pan="0" pos="11520" vol="110" len="24"/>
          <note key="22" pan="0" pos="11520" vol="110" len="24"/>
          <note key="29" pan="0" pos="11544" vol="110" len="24"/>
          <note key="22" pan="0" pos="11544" vol="110" len="24"/>
          <note key="29" pan="0" pos="11568" vol="110" len="9"/>
          <note key="22" pan="0" pos="11568" vol="110" len="9"/>
          <note key="29" pan="0" pos="11580" vol="110" len="24"/>
          <note key="22" pan="0" pos="11580" vol="110" len="24"/>
          <note key="29" pan="0" pos="11604" vol="110" len="24"/>
          <note key="22" pan="0" pos="11604" vol="110" len="24"/>
          <note key="29" pan="0" pos="11628" vol="110" len="24"/>
          <note key="22" pan="0" pos="11628" vol="110" len="24"/>
          <note key="29" pan="0" pos="11652" vol="110" len="9"/>
          <note key="22" pan="0" pos="11652" vol="110" len="9"/>
          <note key="29" pan="0" pos="11664" vol="110" len="9"/>
          <note key="22" pan="0" pos="11664" vol="110" len="9"/>
          <note key="29" pan="0" pos="11676" vol="110" len="9"/>
          <note key="22" pan="0" pos="11676" vol="110" len="9"/>
          <note key="41" pan="0" pos="11688" vol="110" len="21"/>
          <note key="34" pan="0" pos="11688" vol="110" len="21"/>
          <note key="31" pan="0" pos="11712" vol="110" len="24"/>
          <note key="24" pan="0" pos="11712" vol="110" len="24"/>
          <note key="31" pan="0" pos="11736" vol="110" len="24"/>
          <note key="24" pan="0" pos="11736" vol="110" len="24"/>
          <note key="31" pan="0" pos="11760" vol="110" len="9"/>
          <note key="24" pan="0" pos="11760" vol="110" len="9"/>
          <note key="31" pan="0" pos="11772" vol="110" len="24"/>
          <note key="24" pan="0" pos="11772" vol="110" len="24"/>
          <note key="31" pan="0" pos="11796" vol="110" len="24"/>
          <note key="24" pan="0" pos="11796" vol="110" len="24"/>
          <note key="31" pan="0" pos="11820" vol="110" len="24"/>
          <note key="24" pan="0" pos="11820" vol="110" len="24"/>
          <note key="31" pan="0" pos="11844" vol="110" len="9"/>
          <note key="24" pan="0" pos="11844" vol="110" len="9"/>
          <note key="31" pan="0" pos="11856" vol="110" len="9"/>
          <note key="24" pan="0" pos="11856" vol="110" len="9"/>
          <note key="31" pan="0" pos="11868" vol="110" len="9"/>
          <note key="24" pan="0" pos="11868" vol="110" len="9"/>
          <note key="31" pan="0" pos="11880" vol="110" len="21"/>
          <note key="24" pan="0" pos="11880" vol="110" len="21"/>
          <note key="33" pan="0" pos="11904" vol="110" len="24"/>
          <note key="26" pan="0" pos="11904" vol="110" len="24"/>
          <note key="33" pan="0" pos="11928" vol="110" len="24"/>
          <note key="26" pan="0" pos="11928" vol="110" len="24"/>
          <note key="33" pan="0" pos="11952" vol="110" len="9"/>
          <note key="26" pan="0" pos="11952" vol="110" len="9"/>
          <note key="33" pan="0" pos="11964" vol="110" len="24"/>
          <note key="26" pan="0" pos="11964" vol="110" len="24"/>
          <note key="32" pan="0" pos="11988" vol="110" len="24"/>
          <note key="25" pan="0" pos="11988" vol="110" len="24"/>
          <note key="32" pan="0" pos="12012" vol="110" len="24"/>
          <note key="25" pan="0" pos="12012" vol="110" len="24"/>
          <note key="32" pan="0" pos="12036" vol="110" len="9"/>
          <note key="25" pan="0" pos="12036" vol="110" len="9"/>
          <note key="32" pan="0" pos="12048" vol="110" len="9"/>
          <note key="25" pan="0" pos="12048" vol="110" len="9"/>
          <note key="32" pan="0" pos="12060" vol="110" len="9"/>
          <note key="25" pan="0" pos="12060" vol="110" len="9"/>
          <note key="32" pan="0" pos="12072" vol="110" len="18"/>
          <note key="25" pan="0" pos="12072" vol="110" len="18"/>
          <note key="31" pan="0" pos="12096" vol="110" len="24"/>
          <note key="24" pan="0" pos="12096" vol="110" len="24"/>
          <note key="31" pan="0" pos="12120" vol="110" len="24"/>
          <note key="24" pan="0" pos="12120" vol="110" len="24"/>
          <note key="31" pan="0" pos="12144" vol="110" len="9"/>
          <note key="24" pan="0" pos="12144" vol="110" len="9"/>
          <note key="31" pan="0" pos="12156" vol="110" len="24"/>
          <note key="24" pan="0" pos="12156" vol="110" len="24"/>
          <note key="30" pan="0" pos="12180" vol="110" len="24"/>
          <note key="23" pan="0" pos="12180" vol="110" len="24"/>
          <note key="30" pan="0" pos="12204" vol="110" len="24"/>
          <note key="23" pan="0" pos="12204" vol="110" len="24"/>
          <note key="30" pan="0" pos="12228" vol="110" len="9"/>
          <note key="23" pan="0" pos="12228" vol="110" len="9"/>
          <note key="30" pan="0" pos="12240" vol="110" len="9"/>
          <note key="23" pan="0" pos="12240" vol="110" len="9"/>
          <note key="30" pan="0" pos="12252" vol="110" len="9"/>
          <note key="23" pan="0" pos="12252" vol="110" len="9"/>
          <note key="30" pan="0" pos="12264" vol="110" len="21"/>
          <note key="23" pan="0" pos="12264" vol="110" len="21"/>
          <note key="29" pan="0" pos="12288" vol="110" len="24"/>
          <note key="22" pan="0" pos="12288" vol="110" len="24"/>
          <note key="29" pan="0" pos="12312" vol="110" len="24"/>
          <note key="22" pan="0" pos="12312" vol="110" len="24"/>
          <note key="29" pan="0" pos="12336" vol="110" len="9"/>
          <note key="22" pan="0" pos="12336" vol="110" len="9"/>
          <note key="29" pan="0" pos="12348" vol="110" len="24"/>
          <note key="22" pan="0" pos="12348" vol="110" len="24"/>
          <note key="29" pan="0" pos="12372" vol="110" len="24"/>
          <note key="22" pan="0" pos="12372" vol="110" len="24"/>
          <note key="29" pan="0" pos="12396" vol="110" len="24"/>
          <note key="22" pan="0" pos="12396" vol="110" len="24"/>
          <note key="29" pan="0" pos="12420" vol="110" len="9"/>
          <note key="22" pan="0" pos="12420" vol="110" len="9"/>
          <note key="29" pan="0" pos="12432" vol="110" len="9"/>
          <note key="22" pan="0" pos="12432" vol="110" len="9"/>
          <note key="29" pan="0" pos="12444" vol="110" len="9"/>
          <note key="22" pan="0" pos="12444" vol="110" len="9"/>
          <note key="41" pan="0" pos="12456" vol="110" len="21"/>
          <note key="34" pan="0" pos="12456" vol="110" len="21"/>
          <note key="31" pan="0" pos="12480" vol="110" len="24"/>
          <note key="24" pan="0" pos="12480" vol="110" len="24"/>
          <note key="31" pan="0" pos="12504" vol="110" len="24"/>
          <note key="24" pan="0" pos="12504" vol="110" len="24"/>
          <note key="31" pan="0" pos="12528" vol="110" len="9"/>
          <note key="24" pan="0" pos="12528" vol="110" len="9"/>
          <note key="31" pan="0" pos="12540" vol="110" len="24"/>
          <note key="24" pan="0" pos="12540" vol="110" len="24"/>
          <note key="31" pan="0" pos="12564" vol="110" len="24"/>
          <note key="24" pan="0" pos="12564" vol="110" len="24"/>
          <note key="31" pan="0" pos="12588" vol="110" len="24"/>
          <note key="24" pan="0" pos="12588" vol="110" len="24"/>
          <note key="31" pan="0" pos="12612" vol="110" len="9"/>
          <note key="24" pan="0" pos="12612" vol="110" len="9"/>
          <note key="31" pan="0" pos="12624" vol="110" len="9"/>
          <note key="24" pan="0" pos="12624" vol="110" len="9"/>
          <note key="31" pan="0" pos="12636" vol="110" len="9"/>
          <note key="24" pan="0" pos="12636" vol="110" len="9"/>
          <note key="31" pan="0" pos="12648" vol="110" len="21"/>
          <note key="24" pan="0" pos="12648" vol="110" len="21"/>
          <note key="33" pan="0" pos="12672" vol="110" len="24"/>
          <note key="26" pan="0" pos="12672" vol="110" len="24"/>
          <note key="33" pan="0" pos="12696" vol="110" len="24"/>
          <note key="26" pan="0" pos="12696" vol="110" len="24"/>
          <note key="33" pan="0" pos="12720" vol="110" len="9"/>
          <note key="26" pan="0" pos="12720" vol="110" len="9"/>
          <note key="33" pan="0" pos="12732" vol="110" len="24"/>
          <note key="26" pan="0" pos="12732" vol="110" len="24"/>
          <note key="33" pan="0" pos="12756" vol="110" len="24"/>
          <note key="26" pan="0" pos="12756" vol="110" len="24"/>
          <note key="33" pan="0" pos="12780" vol="110" len="24"/>
          <note key="26" pan="0" pos="12780" vol="110" len="24"/>
          <note key="33" pan="0" pos="12804" vol="110" len="9"/>
          <note key="26" pan="0" pos="12804" vol="110" len="9"/>
          <note key="33" pan="0" pos="12816" vol="110" len="9"/>
          <note key="26" pan="0" pos="12816" vol="110" len="9"/>
          <note key="33" pan="0" pos="12828" vol="110" len="9"/>
          <note key="26" pan="0" pos="12828" vol="110" len="9"/>
          <note key="33" pan="0" pos="12840" vol="110" len="21"/>
          <note key="26" pan="0" pos="12840" vol="110" len="21"/>
          <note key="33" pan="0" pos="12864" vol="110" len="24"/>
          <note key="26" pan="0" pos="12864" vol="110" len="24"/>
          <note key="33" pan="0" pos="12888" vol="110" len="24"/>
          <note key="26" pan="0" pos="12888" vol="110" len="24"/>
          <note key="33" pan="0" pos="12912" vol="110" len="9"/>
          <note key="26" pan="0" pos="12912" vol="110" len="9"/>
          <note key="33" pan="0" pos="12924" vol="110" len="24"/>
          <note key="26" pan="0" pos="12924" vol="110" len="24"/>
          <note key="33" pan="0" pos="12948" vol="110" len="24"/>
          <note key="26" pan="0" pos="12948" vol="110" len="24"/>
          <note key="33" pan="0" pos="12972" vol="110" len="24"/>
          <note key="26" pan="0" pos="12972" vol="110" len="24"/>
          <note key="33" pan="0" pos="12996" vol="110" len="9"/>
          <note key="26" pan="0" pos="12996" vol="110" len="9"/>
          <note key="33" pan="0" pos="13008" vol="110" len="9"/>
          <note key="26" pan="0" pos="13008" vol="110" len="9"/>
          <note key="33" pan="0" pos="13020" vol="110" len="9"/>
          <note key="26" pan="0" pos="13020" vol="110" len="9"/>
          <note key="33" pan="0" pos="13032" vol="110" len="21"/>
          <note key="26" pan="0" pos="13032" vol="110" len="21"/>
        </pattern>
        <pattern steps="16" name="Track 3" pos="15936" type="1" muted="0">
          <note key="26" pan="0" pos="0" vol="110" len="12"/>
          <note key="26" pan="0" pos="24" vol="110" len="12"/>
          <note key="26" pan="0" pos="48" vol="110" len="12"/>
          <note key="26" pan="0" pos="60" vol="110" len="12"/>
          <note key="26" pan="0" pos="84" vol="110" len="12"/>
          <note key="26" pan="0" pos="108" vol="110" len="12"/>
          <note key="26" pan="0" pos="132" vol="110" len="12"/>
          <note key="26" pan="0" pos="144" vol="110" len="12"/>
          <note key="26" pan="0" pos="156" vol="110" len="12"/>
          <note key="26" pan="0" pos="168" vol="110" len="24"/>
          <note key="24" pan="0" pos="192" vol="110" len="12"/>
          <note key="24" pan="0" pos="216" vol="110" len="12"/>
          <note key="24" pan="0" pos="240" vol="110" len="12"/>
          <note key="24" pan="0" pos="252" vol="110" len="12"/>
          <note key="24" pan="0" pos="276" vol="110" len="12"/>
          <note key="24" pan="0" pos="300" vol="110" len="12"/>
          <note key="24" pan="0" pos="324" vol="110" len="12"/>
          <note key="24" pan="0" pos="336" vol="110" len="12"/>
          <note key="24" pan="0" pos="348" vol="110" len="12"/>
          <note key="24" pan="0" pos="360" vol="110" len="24"/>
          <note key="23" pan="0" pos="384" vol="110" len="12"/>
          <note key="23" pan="0" pos="408" vol="110" len="12"/>
          <note key="23" pan="0" pos="432" vol="110" len="12"/>
          <note key="23" pan="0" pos="444" vol="110" len="12"/>
          <note key="23" pan="0" pos="468" vol="110" len="12"/>
          <note key="23" pan="0" pos="492" vol="110" len="12"/>
          <note key="23" pan="0" pos="516" vol="110" len="12"/>
          <note key="23" pan="0" pos="528" vol="110" len="12"/>
          <note key="23" pan="0" pos="540" vol="110" len="12"/>
          <note key="23" pan="0" pos="552" vol="110" len="24"/>
          <note key="22" pan="0" pos="576" vol="110" len="12"/>
          <note key="22" pan="0" pos="600" vol="110" len="12"/>
          <note key="22" pan="0" pos="624" vol="110" len="12"/>
          <note key="22" pan="0" pos="636" vol="110" len="12"/>
          <note key="24" pan="0" pos="660" vol="110" len="12"/>
          <note key="24" pan="0" pos="684" vol="110" len="12"/>
          <note key="24" pan="0" pos="708" vol="110" len="12"/>
          <note key="24" pan="0" pos="720" vol="110" len="12"/>
          <note key="24" pan="0" pos="732" vol="110" len="12"/>
          <note key="24" pan="0" pos="744" vol="110" len="24"/>
          <note key="26" pan="0" pos="768" vol="78" len="24"/>
          <note key="21" pan="0" pos="768" vol="78" len="24"/>
          <note key="26" pan="0" pos="792" vol="78" len="24"/>
          <note key="21" pan="0" pos="792" vol="78" len="24"/>
          <note key="26" pan="0" pos="816" vol="78" len="12"/>
          <note key="21" pan="0" pos="816" vol="78" len="12"/>
          <note key="26" pan="0" pos="828" vol="94" len="24"/>
          <note key="21" pan="0" pos="828" vol="94" len="24"/>
          <note key="26" pan="0" pos="852" vol="78" len="24"/>
          <note key="21" pan="0" pos="852" vol="78" len="24"/>
          <note key="26" pan="0" pos="876" vol="78" len="24"/>
          <note key="21" pan="0" pos="876" vol="78" len="24"/>
          <note key="26" pan="0" pos="900" vol="78" len="12"/>
          <note key="21" pan="0" pos="900" vol="78" len="12"/>
          <note key="26" pan="0" pos="912" vol="78" len="12"/>
          <note key="21" pan="0" pos="912" vol="78" len="12"/>
          <note key="26" pan="0" pos="924" vol="78" len="12"/>
          <note key="21" pan="0" pos="924" vol="78" len="12"/>
          <note key="26" pan="0" pos="936" vol="78" len="24"/>
          <note key="21" pan="0" pos="936" vol="78" len="24"/>
          <note key="24" pan="0" pos="960" vol="78" len="24"/>
          <note key="19" pan="0" pos="960" vol="78" len="24"/>
          <note key="24" pan="0" pos="984" vol="78" len="24"/>
          <note key="19" pan="0" pos="984" vol="78" len="24"/>
          <note key="24" pan="0" pos="1008" vol="78" len="12"/>
          <note key="19" pan="0" pos="1008" vol="78" len="12"/>
          <note key="24" pan="0" pos="1020" vol="94" len="24"/>
          <note key="19" pan="0" pos="1020" vol="94" len="24"/>
          <note key="24" pan="0" pos="1044" vol="78" len="24"/>
          <note key="19" pan="0" pos="1044" vol="78" len="24"/>
          <note key="24" pan="0" pos="1068" vol="78" len="24"/>
          <note key="19" pan="0" pos="1068" vol="78" len="24"/>
          <note key="24" pan="0" pos="1092" vol="78" len="12"/>
          <note key="19" pan="0" pos="1092" vol="78" len="12"/>
          <note key="24" pan="0" pos="1104" vol="78" len="12"/>
          <note key="19" pan="0" pos="1104" vol="78" len="12"/>
          <note key="24" pan="0" pos="1116" vol="78" len="12"/>
          <note key="19" pan="0" pos="1116" vol="78" len="12"/>
          <note key="24" pan="0" pos="1128" vol="78" len="24"/>
          <note key="19" pan="0" pos="1128" vol="78" len="24"/>
          <note key="23" pan="0" pos="1152" vol="78" len="24"/>
          <note key="18" pan="0" pos="1152" vol="78" len="24"/>
          <note key="23" pan="0" pos="1176" vol="78" len="24"/>
          <note key="18" pan="0" pos="1176" vol="78" len="24"/>
          <note key="23" pan="0" pos="1200" vol="78" len="12"/>
          <note key="18" pan="0" pos="1200" vol="78" len="12"/>
          <note key="23" pan="0" pos="1212" vol="94" len="24"/>
          <note key="18" pan="0" pos="1212" vol="94" len="24"/>
          <note key="23" pan="0" pos="1236" vol="78" len="24"/>
          <note key="18" pan="0" pos="1236" vol="78" len="24"/>
          <note key="23" pan="0" pos="1260" vol="78" len="24"/>
          <note key="18" pan="0" pos="1260" vol="78" len="24"/>
          <note key="23" pan="0" pos="1284" vol="78" len="12"/>
          <note key="18" pan="0" pos="1284" vol="78" len="12"/>
          <note key="23" pan="0" pos="1296" vol="78" len="12"/>
          <note key="18" pan="0" pos="1296" vol="78" len="12"/>
          <note key="23" pan="0" pos="1308" vol="78" len="12"/>
          <note key="18" pan="0" pos="1308" vol="78" len="12"/>
          <note key="23" pan="0" pos="1320" vol="78" len="24"/>
          <note key="18" pan="0" pos="1320" vol="78" len="24"/>
          <note key="22" pan="0" pos="1344" vol="78" len="24"/>
          <note key="17" pan="0" pos="1344" vol="78" len="24"/>
          <note key="22" pan="0" pos="1368" vol="78" len="24"/>
          <note key="17" pan="0" pos="1368" vol="78" len="24"/>
          <note key="22" pan="0" pos="1392" vol="78" len="12"/>
          <note key="17" pan="0" pos="1392" vol="78" len="12"/>
          <note key="22" pan="0" pos="1404" vol="94" len="24"/>
          <note key="17" pan="0" pos="1404" vol="94" len="24"/>
          <note key="24" pan="0" pos="1428" vol="78" len="24"/>
          <note key="19" pan="0" pos="1428" vol="78" len="24"/>
          <note key="24" pan="0" pos="1452" vol="78" len="24"/>
          <note key="19" pan="0" pos="1452" vol="78" len="24"/>
          <note key="24" pan="0" pos="1476" vol="78" len="12"/>
          <note key="19" pan="0" pos="1476" vol="78" len="12"/>
          <note key="24" pan="0" pos="1488" vol="78" len="12"/>
          <note key="19" pan="0" pos="1488" vol="78" len="12"/>
          <note key="24" pan="0" pos="1500" vol="78" len="12"/>
          <note key="19" pan="0" pos="1500" vol="78" len="12"/>
          <note key="24" pan="0" pos="1512" vol="78" len="24"/>
          <note key="19" pan="0" pos="1512" vol="78" len="24"/>
          <note key="26" pan="0" pos="1536" vol="78" len="24"/>
          <note key="21" pan="0" pos="1536" vol="78" len="24"/>
          <note key="26" pan="0" pos="1560" vol="78" len="24"/>
          <note key="21" pan="0" pos="1560" vol="78" len="24"/>
          <note key="26" pan="0" pos="1584" vol="78" len="12"/>
          <note key="21" pan="0" pos="1584" vol="78" len="12"/>
          <note key="26" pan="0" pos="1596" vol="94" len="24"/>
          <note key="21" pan="0" pos="1596" vol="94" len="24"/>
          <note key="26" pan="0" pos="1620" vol="78" len="24"/>
          <note key="21" pan="0" pos="1620" vol="78" len="24"/>
          <note key="26" pan="0" pos="1644" vol="78" len="24"/>
          <note key="21" pan="0" pos="1644" vol="78" len="24"/>
          <note key="26" pan="0" pos="1668" vol="78" len="12"/>
          <note key="21" pan="0" pos="1668" vol="78" len="12"/>
          <note key="26" pan="0" pos="1680" vol="78" len="12"/>
          <note key="21" pan="0" pos="1680" vol="78" len="12"/>
          <note key="26" pan="0" pos="1692" vol="78" len="12"/>
          <note key="21" pan="0" pos="1692" vol="78" len="12"/>
          <note key="26" pan="0" pos="1704" vol="78" len="24"/>
          <note key="21" pan="0" pos="1704" vol="78" len="24"/>
          <note key="24" pan="0" pos="1728" vol="78" len="24"/>
          <note key="19" pan="0" pos="1728" vol="78" len="24"/>
          <note key="24" pan="0" pos="1752" vol="78" len="24"/>
          <note key="19" pan="0" pos="1752" vol="78" len="24"/>
          <note key="24" pan="0" pos="1776" vol="78" len="12"/>
          <note key="19" pan="0" pos="1776" vol="78" len="12"/>
          <note key="24" pan="0" pos="1788" vol="94" len="24"/>
          <note key="19" pan="0" pos="1788" vol="94" len="24"/>
          <note key="24" pan="0" pos="1812" vol="78" len="24"/>
          <note key="19" pan="0" pos="1812" vol="78" len="24"/>
          <note key="24" pan="0" pos="1836" vol="78" len="24"/>
          <note key="19" pan="0" pos="1836" vol="78" len="24"/>
          <note key="24" pan="0" pos="1860" vol="78" len="12"/>
          <note key="19" pan="0" pos="1860" vol="78" len="12"/>
          <note key="24" pan="0" pos="1872" vol="78" len="12"/>
          <note key="19" pan="0" pos="1872" vol="78" len="12"/>
          <note key="24" pan="0" pos="1884" vol="78" len="12"/>
          <note key="19" pan="0" pos="1884" vol="78" len="12"/>
          <note key="24" pan="0" pos="1896" vol="78" len="24"/>
          <note key="19" pan="0" pos="1896" vol="78" len="24"/>
          <note key="23" pan="0" pos="1920" vol="78" len="24"/>
          <note key="18" pan="0" pos="1920" vol="78" len="24"/>
          <note key="23" pan="0" pos="1944" vol="78" len="24"/>
          <note key="18" pan="0" pos="1944" vol="78" len="24"/>
          <note key="23" pan="0" pos="1968" vol="78" len="12"/>
          <note key="18" pan="0" pos="1968" vol="78" len="12"/>
          <note key="23" pan="0" pos="1980" vol="94" len="24"/>
          <note key="18" pan="0" pos="1980" vol="94" len="24"/>
          <note key="23" pan="0" pos="2004" vol="78" len="24"/>
          <note key="18" pan="0" pos="2004" vol="78" len="24"/>
          <note key="23" pan="0" pos="2028" vol="78" len="24"/>
          <note key="18" pan="0" pos="2028" vol="78" len="24"/>
          <note key="23" pan="0" pos="2052" vol="78" len="12"/>
          <note key="18" pan="0" pos="2052" vol="78" len="12"/>
          <note key="23" pan="0" pos="2064" vol="78" len="12"/>
          <note key="18" pan="0" pos="2064" vol="78" len="12"/>
          <note key="23" pan="0" pos="2076" vol="78" len="12"/>
          <note key="18" pan="0" pos="2076" vol="78" len="12"/>
          <note key="23" pan="0" pos="2088" vol="78" len="24"/>
          <note key="18" pan="0" pos="2088" vol="78" len="24"/>
          <note key="22" pan="0" pos="2112" vol="78" len="24"/>
          <note key="17" pan="0" pos="2112" vol="78" len="24"/>
          <note key="22" pan="0" pos="2136" vol="78" len="24"/>
          <note key="17" pan="0" pos="2136" vol="78" len="24"/>
          <note key="22" pan="0" pos="2160" vol="78" len="12"/>
          <note key="17" pan="0" pos="2160" vol="78" len="12"/>
          <note key="22" pan="0" pos="2172" vol="94" len="24"/>
          <note key="17" pan="0" pos="2172" vol="94" len="24"/>
          <note key="24" pan="0" pos="2196" vol="78" len="24"/>
          <note key="19" pan="0" pos="2196" vol="78" len="24"/>
          <note key="24" pan="0" pos="2220" vol="78" len="24"/>
          <note key="19" pan="0" pos="2220" vol="78" len="24"/>
          <note key="24" pan="0" pos="2244" vol="78" len="12"/>
          <note key="19" pan="0" pos="2244" vol="78" len="12"/>
          <note key="24" pan="0" pos="2256" vol="78" len="12"/>
          <note key="19" pan="0" pos="2256" vol="78" len="12"/>
          <note key="24" pan="0" pos="2268" vol="78" len="12"/>
          <note key="19" pan="0" pos="2268" vol="78" len="12"/>
          <note key="24" pan="0" pos="2280" vol="78" len="24"/>
          <note key="19" pan="0" pos="2280" vol="78" len="24"/>
          <note key="33" pan="0" pos="2304" vol="78" len="21"/>
          <note key="26" pan="0" pos="2304" vol="78" len="21"/>
          <note key="33" pan="0" pos="2328" vol="78" len="24"/>
          <note key="26" pan="0" pos="2328" vol="78" len="24"/>
          <note key="33" pan="0" pos="2352" vol="78" len="12"/>
          <note key="26" pan="0" pos="2352" vol="78" len="12"/>
          <note key="33" pan="0" pos="2364" vol="94" len="21"/>
          <note key="26" pan="0" pos="2364" vol="94" len="21"/>
          <note key="33" pan="0" pos="2388" vol="78" len="21"/>
          <note key="26" pan="0" pos="2388" vol="78" len="21"/>
          <note key="33" pan="0" pos="2412" vol="78" len="24"/>
          <note key="26" pan="0" pos="2412" vol="78" len="24"/>
          <note key="33" pan="0" pos="2436" vol="78" len="9"/>
          <note key="26" pan="0" pos="2436" vol="78" len="9"/>
          <note key="33" pan="0" pos="2448" vol="78" len="9"/>
          <note key="26" pan="0" pos="2448" vol="78" len="9"/>
          <note key="33" pan="0" pos="2460" vol="78" len="9"/>
          <note key="26" pan="0" pos="2460" vol="78" len="9"/>
          <note key="45" pan="0" pos="2472" vol="78" len="24"/>
          <note key="38" pan="0" pos="2472" vol="78" len="24"/>
          <note key="31" pan="0" pos="2496" vol="78" len="21"/>
          <note key="24" pan="0" pos="2496" vol="78" len="21"/>
          <note key="31" pan="0" pos="2520" vol="78" len="24"/>
          <note key="24" pan="0" pos="2520" vol="78" len="24"/>
          <note key="31" pan="0" pos="2544" vol="78" len="12"/>
          <note key="24" pan="0" pos="2544" vol="78" len="12"/>
          <note key="31" pan="0" pos="2556" vol="94" len="21"/>
          <note key="24" pan="0" pos="2556" vol="94" len="21"/>
          <note key="31" pan="0" pos="2580" vol="78" len="21"/>
          <note key="24" pan="0" pos="2580" vol="78" len="21"/>
          <note key="31" pan="0" pos="2604" vol="78" len="24"/>
          <note key="24" pan="0" pos="2604" vol="78" len="24"/>
          <note key="31" pan="0" pos="2628" vol="78" len="9"/>
          <note key="24" pan="0" pos="2628" vol="78" len="9"/>
          <note key="31" pan="0" pos="2640" vol="78" len="9"/>
          <note key="24" pan="0" pos="2640" vol="78" len="9"/>
          <note key="31" pan="0" pos="2652" vol="78" len="9"/>
          <note key="24" pan="0" pos="2652" vol="78" len="9"/>
          <note key="31" pan="0" pos="2664" vol="78" len="24"/>
          <note key="24" pan="0" pos="2664" vol="78" len="24"/>
          <note key="30" pan="0" pos="2688" vol="78" len="21"/>
          <note key="23" pan="0" pos="2688" vol="78" len="21"/>
          <note key="30" pan="0" pos="2712" vol="78" len="24"/>
          <note key="23" pan="0" pos="2712" vol="78" len="24"/>
          <note key="30" pan="0" pos="2736" vol="78" len="12"/>
          <note key="23" pan="0" pos="2736" vol="78" len="12"/>
          <note key="30" pan="0" pos="2748" vol="94" len="21"/>
          <note key="23" pan="0" pos="2748" vol="94" len="21"/>
          <note key="30" pan="0" pos="2772" vol="78" len="21"/>
          <note key="23" pan="0" pos="2772" vol="78" len="21"/>
          <note key="30" pan="0" pos="2796" vol="78" len="24"/>
          <note key="23" pan="0" pos="2796" vol="78" len="24"/>
          <note key="30" pan="0" pos="2820" vol="78" len="9"/>
          <note key="23" pan="0" pos="2820" vol="78" len="9"/>
          <note key="30" pan="0" pos="2832" vol="78" len="9"/>
          <note key="23" pan="0" pos="2832" vol="78" len="9"/>
          <note key="30" pan="0" pos="2844" vol="78" len="9"/>
          <note key="23" pan="0" pos="2844" vol="78" len="9"/>
          <note key="30" pan="0" pos="2856" vol="78" len="24"/>
          <note key="23" pan="0" pos="2856" vol="78" len="24"/>
          <note key="29" pan="0" pos="2880" vol="78" len="21"/>
          <note key="22" pan="0" pos="2880" vol="78" len="21"/>
          <note key="29" pan="0" pos="2904" vol="78" len="24"/>
          <note key="22" pan="0" pos="2904" vol="78" len="24"/>
          <note key="29" pan="0" pos="2928" vol="78" len="12"/>
          <note key="22" pan="0" pos="2928" vol="78" len="12"/>
          <note key="29" pan="0" pos="2940" vol="94" len="21"/>
          <note key="22" pan="0" pos="2940" vol="94" len="21"/>
          <note key="31" pan="0" pos="2964" vol="78" len="21"/>
          <note key="24" pan="0" pos="2964" vol="78" len="21"/>
          <note key="31" pan="0" pos="2988" vol="78" len="24"/>
          <note key="24" pan="0" pos="2988" vol="78" len="24"/>
          <note key="31" pan="0" pos="3012" vol="78" len="9"/>
          <note key="24" pan="0" pos="3012" vol="78" len="9"/>
          <note key="31" pan="0" pos="3024" vol="78" len="9"/>
          <note key="24" pan="0" pos="3024" vol="78" len="9"/>
          <note key="31" pan="0" pos="3036" vol="78" len="9"/>
          <note key="24" pan="0" pos="3036" vol="78" len="9"/>
          <note key="31" pan="0" pos="3048" vol="78" len="24"/>
          <note key="24" pan="0" pos="3048" vol="78" len="24"/>
          <note key="33" pan="0" pos="3072" vol="78" len="21"/>
          <note key="26" pan="0" pos="3072" vol="78" len="21"/>
          <note key="33" pan="0" pos="3096" vol="78" len="24"/>
          <note key="26" pan="0" pos="3096" vol="78" len="24"/>
          <note key="33" pan="0" pos="3120" vol="78" len="12"/>
          <note key="26" pan="0" pos="3120" vol="78" len="12"/>
          <note key="33" pan="0" pos="3132" vol="94" len="21"/>
          <note key="26" pan="0" pos="3132" vol="94" len="21"/>
          <note key="33" pan="0" pos="3156" vol="78" len="21"/>
          <note key="26" pan="0" pos="3156" vol="78" len="21"/>
          <note key="33" pan="0" pos="3180" vol="78" len="24"/>
          <note key="26" pan="0" pos="3180" vol="78" len="24"/>
          <note key="33" pan="0" pos="3204" vol="78" len="9"/>
          <note key="26" pan="0" pos="3204" vol="78" len="9"/>
          <note key="33" pan="0" pos="3216" vol="78" len="9"/>
          <note key="26" pan="0" pos="3216" vol="78" len="9"/>
          <note key="33" pan="0" pos="3228" vol="78" len="9"/>
          <note key="26" pan="0" pos="3228" vol="78" len="9"/>
          <note key="45" pan="0" pos="3240" vol="78" len="24"/>
          <note key="38" pan="0" pos="3240" vol="78" len="24"/>
          <note key="31" pan="0" pos="3264" vol="78" len="21"/>
          <note key="24" pan="0" pos="3264" vol="78" len="21"/>
          <note key="31" pan="0" pos="3288" vol="78" len="24"/>
          <note key="24" pan="0" pos="3288" vol="78" len="24"/>
          <note key="31" pan="0" pos="3312" vol="78" len="12"/>
          <note key="24" pan="0" pos="3312" vol="78" len="12"/>
          <note key="31" pan="0" pos="3324" vol="94" len="21"/>
          <note key="24" pan="0" pos="3324" vol="94" len="21"/>
          <note key="31" pan="0" pos="3348" vol="78" len="21"/>
          <note key="24" pan="0" pos="3348" vol="78" len="21"/>
          <note key="31" pan="0" pos="3372" vol="78" len="24"/>
          <note key="24" pan="0" pos="3372" vol="78" len="24"/>
          <note key="31" pan="0" pos="3396" vol="78" len="9"/>
          <note key="24" pan="0" pos="3396" vol="78" len="9"/>
          <note key="31" pan="0" pos="3408" vol="78" len="9"/>
          <note key="24" pan="0" pos="3408" vol="78" len="9"/>
          <note key="31" pan="0" pos="3420" vol="78" len="9"/>
          <note key="24" pan="0" pos="3420" vol="78" len="9"/>
          <note key="31" pan="0" pos="3432" vol="78" len="24"/>
          <note key="24" pan="0" pos="3432" vol="78" len="24"/>
          <note key="30" pan="0" pos="3456" vol="78" len="21"/>
          <note key="23" pan="0" pos="3456" vol="78" len="21"/>
          <note key="30" pan="0" pos="3480" vol="78" len="24"/>
          <note key="23" pan="0" pos="3480" vol="78" len="24"/>
          <note key="30" pan="0" pos="3504" vol="78" len="12"/>
          <note key="23" pan="0" pos="3504" vol="78" len="12"/>
          <note key="30" pan="0" pos="3516" vol="94" len="21"/>
          <note key="23" pan="0" pos="3516" vol="94" len="21"/>
          <note key="30" pan="0" pos="3540" vol="78" len="21"/>
          <note key="23" pan="0" pos="3540" vol="78" len="21"/>
          <note key="30" pan="0" pos="3564" vol="78" len="24"/>
          <note key="23" pan="0" pos="3564" vol="78" len="24"/>
          <note key="30" pan="0" pos="3588" vol="78" len="9"/>
          <note key="23" pan="0" pos="3588" vol="78" len="9"/>
          <note key="30" pan="0" pos="3600" vol="78" len="9"/>
          <note key="23" pan="0" pos="3600" vol="78" len="9"/>
          <note key="30" pan="0" pos="3612" vol="78" len="9"/>
          <note key="23" pan="0" pos="3612" vol="78" len="9"/>
          <note key="30" pan="0" pos="3624" vol="78" len="24"/>
          <note key="23" pan="0" pos="3624" vol="78" len="24"/>
          <note key="29" pan="0" pos="3648" vol="78" len="21"/>
          <note key="22" pan="0" pos="3648" vol="78" len="21"/>
          <note key="29" pan="0" pos="3672" vol="78" len="24"/>
          <note key="22" pan="0" pos="3672" vol="78" len="24"/>
          <note key="29" pan="0" pos="3696" vol="78" len="12"/>
          <note key="22" pan="0" pos="3696" vol="78" len="12"/>
          <note key="29" pan="0" pos="3708" vol="94" len="21"/>
          <note key="22" pan="0" pos="3708" vol="94" len="21"/>
          <note key="31" pan="0" pos="3732" vol="78" len="21"/>
          <note key="24" pan="0" pos="3732" vol="78" len="21"/>
          <note key="31" pan="0" pos="3756" vol="78" len="24"/>
          <note key="24" pan="0" pos="3756" vol="78" len="24"/>
          <note key="31" pan="0" pos="3780" vol="78" len="9"/>
          <note key="24" pan="0" pos="3780" vol="78" len="9"/>
          <note key="31" pan="0" pos="3792" vol="78" len="9"/>
          <note key="24" pan="0" pos="3792" vol="78" len="9"/>
          <note key="31" pan="0" pos="3804" vol="78" len="9"/>
          <note key="24" pan="0" pos="3804" vol="78" len="9"/>
          <note key="31" pan="0" pos="3816" vol="78" len="24"/>
          <note key="24" pan="0" pos="3816" vol="78" len="24"/>
          <note key="29" pan="0" pos="3840" vol="78" len="21"/>
          <note key="22" pan="0" pos="3840" vol="78" len="21"/>
          <note key="29" pan="0" pos="3864" vol="78" len="24"/>
          <note key="22" pan="0" pos="3864" vol="78" len="24"/>
          <note key="29" pan="0" pos="3888" vol="78" len="12"/>
          <note key="22" pan="0" pos="3888" vol="78" len="12"/>
          <note key="29" pan="0" pos="3900" vol="94" len="21"/>
          <note key="22" pan="0" pos="3900" vol="94" len="21"/>
          <note key="29" pan="0" pos="3924" vol="78" len="21"/>
          <note key="22" pan="0" pos="3924" vol="78" len="21"/>
          <note key="29" pan="0" pos="3948" vol="78" len="24"/>
          <note key="22" pan="0" pos="3948" vol="78" len="24"/>
          <note key="29" pan="0" pos="3972" vol="78" len="9"/>
          <note key="22" pan="0" pos="3972" vol="78" len="9"/>
          <note key="29" pan="0" pos="3984" vol="78" len="9"/>
          <note key="22" pan="0" pos="3984" vol="78" len="9"/>
          <note key="29" pan="0" pos="3996" vol="78" len="9"/>
          <note key="22" pan="0" pos="3996" vol="78" len="9"/>
          <note key="41" pan="0" pos="4008" vol="78" len="24"/>
          <note key="34" pan="0" pos="4008" vol="78" len="24"/>
          <note key="31" pan="0" pos="4032" vol="78" len="21"/>
          <note key="24" pan="0" pos="4032" vol="78" len="21"/>
          <note key="31" pan="0" pos="4056" vol="78" len="24"/>
          <note key="24" pan="0" pos="4056" vol="78" len="24"/>
          <note key="31" pan="0" pos="4080" vol="78" len="12"/>
          <note key="24" pan="0" pos="4080" vol="78" len="12"/>
          <note key="31" pan="0" pos="4092" vol="94" len="21"/>
          <note key="24" pan="0" pos="4092" vol="94" len="21"/>
          <note key="31" pan="0" pos="4116" vol="78" len="21"/>
          <note key="24" pan="0" pos="4116" vol="78" len="21"/>
          <note key="31" pan="0" pos="4140" vol="78" len="24"/>
          <note key="24" pan="0" pos="4140" vol="78" len="24"/>
          <note key="31" pan="0" pos="4164" vol="78" len="9"/>
          <note key="24" pan="0" pos="4164" vol="78" len="9"/>
          <note key="31" pan="0" pos="4176" vol="78" len="9"/>
          <note key="24" pan="0" pos="4176" vol="78" len="9"/>
          <note key="31" pan="0" pos="4188" vol="78" len="9"/>
          <note key="24" pan="0" pos="4188" vol="78" len="9"/>
          <note key="31" pan="0" pos="4200" vol="78" len="24"/>
          <note key="24" pan="0" pos="4200" vol="78" len="24"/>
          <note key="33" pan="0" pos="4224" vol="78" len="21"/>
          <note key="26" pan="0" pos="4224" vol="78" len="21"/>
          <note key="33" pan="0" pos="4248" vol="78" len="24"/>
          <note key="26" pan="0" pos="4248" vol="78" len="24"/>
          <note key="33" pan="0" pos="4272" vol="78" len="12"/>
          <note key="26" pan="0" pos="4272" vol="78" len="12"/>
          <note key="33" pan="0" pos="4284" vol="94" len="21"/>
          <note key="26" pan="0" pos="4284" vol="94" len="21"/>
          <note key="33" pan="0" pos="4308" vol="78" len="21"/>
          <note key="26" pan="0" pos="4308" vol="78" len="21"/>
          <note key="33" pan="0" pos="4332" vol="78" len="24"/>
          <note key="26" pan="0" pos="4332" vol="78" len="24"/>
          <note key="33" pan="0" pos="4356" vol="78" len="9"/>
          <note key="26" pan="0" pos="4356" vol="78" len="9"/>
          <note key="33" pan="0" pos="4368" vol="78" len="9"/>
          <note key="26" pan="0" pos="4368" vol="78" len="9"/>
          <note key="33" pan="0" pos="4380" vol="78" len="9"/>
          <note key="26" pan="0" pos="4380" vol="78" len="9"/>
          <note key="33" pan="0" pos="4392" vol="78" len="24"/>
          <note key="26" pan="0" pos="4392" vol="78" len="24"/>
          <note key="32" pan="0" pos="4416" vol="78" len="21"/>
          <note key="25" pan="0" pos="4416" vol="78" len="21"/>
          <note key="32" pan="0" pos="4440" vol="78" len="24"/>
          <note key="25" pan="0" pos="4440" vol="78" len="24"/>
          <note key="32" pan="0" pos="4464" vol="78" len="12"/>
          <note key="25" pan="0" pos="4464" vol="78" len="12"/>
          <note key="32" pan="0" pos="4476" vol="94" len="21"/>
          <note key="25" pan="0" pos="4476" vol="94" len="21"/>
          <note key="34" pan="0" pos="4500" vol="78" len="21"/>
          <note key="27" pan="0" pos="4500" vol="78" len="21"/>
          <note key="34" pan="0" pos="4524" vol="78" len="24"/>
          <note key="27" pan="0" pos="4524" vol="78" len="24"/>
          <note key="34" pan="0" pos="4548" vol="78" len="9"/>
          <note key="27" pan="0" pos="4548" vol="78" len="9"/>
          <note key="34" pan="0" pos="4560" vol="78" len="9"/>
          <note key="27" pan="0" pos="4560" vol="78" len="9"/>
          <note key="34" pan="0" pos="4572" vol="78" len="9"/>
          <note key="27" pan="0" pos="4572" vol="78" len="9"/>
          <note key="34" pan="0" pos="4584" vol="78" len="24"/>
          <note key="27" pan="0" pos="4584" vol="78" len="24"/>
          <note key="29" pan="0" pos="4608" vol="78" len="21"/>
          <note key="22" pan="0" pos="4608" vol="78" len="21"/>
          <note key="29" pan="0" pos="4632" vol="78" len="24"/>
          <note key="22" pan="0" pos="4632" vol="78" len="24"/>
          <note key="29" pan="0" pos="4656" vol="78" len="12"/>
          <note key="22" pan="0" pos="4656" vol="78" len="12"/>
          <note key="29" pan="0" pos="4668" vol="94" len="21"/>
          <note key="22" pan="0" pos="4668" vol="94" len="21"/>
          <note key="29" pan="0" pos="4692" vol="78" len="21"/>
          <note key="22" pan="0" pos="4692" vol="78" len="21"/>
          <note key="29" pan="0" pos="4716" vol="78" len="24"/>
          <note key="22" pan="0" pos="4716" vol="78" len="24"/>
          <note key="29" pan="0" pos="4740" vol="78" len="9"/>
          <note key="22" pan="0" pos="4740" vol="78" len="9"/>
          <note key="29" pan="0" pos="4752" vol="78" len="9"/>
          <note key="22" pan="0" pos="4752" vol="78" len="9"/>
          <note key="29" pan="0" pos="4764" vol="78" len="9"/>
          <note key="22" pan="0" pos="4764" vol="78" len="9"/>
          <note key="41" pan="0" pos="4776" vol="78" len="24"/>
          <note key="34" pan="0" pos="4776" vol="78" len="24"/>
          <note key="31" pan="0" pos="4800" vol="78" len="21"/>
          <note key="24" pan="0" pos="4800" vol="78" len="21"/>
          <note key="31" pan="0" pos="4824" vol="78" len="24"/>
          <note key="24" pan="0" pos="4824" vol="78" len="24"/>
          <note key="31" pan="0" pos="4848" vol="78" len="12"/>
          <note key="24" pan="0" pos="4848" vol="78" len="12"/>
          <note key="31" pan="0" pos="4860" vol="94" len="21"/>
          <note key="24" pan="0" pos="4860" vol="94" len="21"/>
          <note key="31" pan="0" pos="4884" vol="78" len="21"/>
          <note key="24" pan="0" pos="4884" vol="78" len="21"/>
          <note key="31" pan="0" pos="4908" vol="78" len="24"/>
          <note key="24" pan="0" pos="4908" vol="78" len="24"/>
          <note key="31" pan="0" pos="4932" vol="78" len="9"/>
          <note key="24" pan="0" pos="4932" vol="78" len="9"/>
          <note key="31" pan="0" pos="4944" vol="78" len="9"/>
          <note key="24" pan="0" pos="4944" vol="78" len="9"/>
          <note key="31" pan="0" pos="4956" vol="78" len="9"/>
          <note key="24" pan="0" pos="4956" vol="78" len="9"/>
          <note key="31" pan="0" pos="4968" vol="78" len="24"/>
          <note key="24" pan="0" pos="4968" vol="78" len="24"/>
          <note key="33" pan="0" pos="4992" vol="78" len="21"/>
          <note key="26" pan="0" pos="4992" vol="78" len="21"/>
          <note key="33" pan="0" pos="5016" vol="78" len="24"/>
          <note key="26" pan="0" pos="5016" vol="78" len="24"/>
          <note key="33" pan="0" pos="5040" vol="78" len="12"/>
          <note key="26" pan="0" pos="5040" vol="78" len="12"/>
          <note key="33" pan="0" pos="5052" vol="94" len="21"/>
          <note key="26" pan="0" pos="5052" vol="94" len="21"/>
          <note key="33" pan="0" pos="5076" vol="78" len="21"/>
          <note key="26" pan="0" pos="5076" vol="78" len="21"/>
          <note key="33" pan="0" pos="5100" vol="78" len="24"/>
          <note key="26" pan="0" pos="5100" vol="78" len="24"/>
          <note key="33" pan="0" pos="5124" vol="78" len="9"/>
          <note key="26" pan="0" pos="5124" vol="78" len="9"/>
          <note key="33" pan="0" pos="5136" vol="78" len="9"/>
          <note key="26" pan="0" pos="5136" vol="78" len="9"/>
          <note key="33" pan="0" pos="5148" vol="78" len="9"/>
          <note key="26" pan="0" pos="5148" vol="78" len="9"/>
          <note key="33" pan="0" pos="5160" vol="78" len="24"/>
          <note key="26" pan="0" pos="5160" vol="78" len="24"/>
          <note key="32" pan="0" pos="5184" vol="78" len="21"/>
          <note key="25" pan="0" pos="5184" vol="78" len="21"/>
          <note key="32" pan="0" pos="5208" vol="78" len="24"/>
          <note key="25" pan="0" pos="5208" vol="78" len="24"/>
          <note key="32" pan="0" pos="5232" vol="78" len="12"/>
          <note key="25" pan="0" pos="5232" vol="78" len="12"/>
          <note key="32" pan="0" pos="5244" vol="94" len="21"/>
          <note key="25" pan="0" pos="5244" vol="94" len="21"/>
          <note key="34" pan="0" pos="5268" vol="78" len="21"/>
          <note key="27" pan="0" pos="5268" vol="78" len="21"/>
          <note key="34" pan="0" pos="5292" vol="78" len="24"/>
          <note key="27" pan="0" pos="5292" vol="78" len="24"/>
          <note key="34" pan="0" pos="5316" vol="78" len="9"/>
          <note key="27" pan="0" pos="5316" vol="78" len="9"/>
          <note key="34" pan="0" pos="5328" vol="78" len="9"/>
          <note key="27" pan="0" pos="5328" vol="78" len="9"/>
          <note key="34" pan="0" pos="5340" vol="78" len="9"/>
          <note key="27" pan="0" pos="5340" vol="78" len="9"/>
          <note key="34" pan="0" pos="5352" vol="78" len="24"/>
          <note key="27" pan="0" pos="5352" vol="78" len="24"/>
          <note key="29" pan="0" pos="5376" vol="78" len="21"/>
          <note key="22" pan="0" pos="5376" vol="78" len="21"/>
          <note key="29" pan="0" pos="5400" vol="78" len="24"/>
          <note key="22" pan="0" pos="5400" vol="78" len="24"/>
          <note key="29" pan="0" pos="5424" vol="78" len="12"/>
          <note key="22" pan="0" pos="5424" vol="78" len="12"/>
          <note key="29" pan="0" pos="5436" vol="94" len="21"/>
          <note key="22" pan="0" pos="5436" vol="94" len="21"/>
          <note key="29" pan="0" pos="5460" vol="78" len="21"/>
          <note key="22" pan="0" pos="5460" vol="78" len="21"/>
          <note key="29" pan="0" pos="5484" vol="78" len="24"/>
          <note key="22" pan="0" pos="5484" vol="78" len="24"/>
          <note key="29" pan="0" pos="5508" vol="78" len="9"/>
          <note key="22" pan="0" pos="5508" vol="78" len="9"/>
          <note key="29" pan="0" pos="5520" vol="78" len="9"/>
          <note key="22" pan="0" pos="5520" vol="78" len="9"/>
          <note key="29" pan="0" pos="5532" vol="78" len="9"/>
          <note key="22" pan="0" pos="5532" vol="78" len="9"/>
          <note key="41" pan="0" pos="5544" vol="78" len="24"/>
          <note key="34" pan="0" pos="5544" vol="78" len="24"/>
          <note key="31" pan="0" pos="5568" vol="78" len="21"/>
          <note key="24" pan="0" pos="5568" vol="78" len="21"/>
          <note key="31" pan="0" pos="5592" vol="78" len="24"/>
          <note key="24" pan="0" pos="5592" vol="78" len="24"/>
          <note key="31" pan="0" pos="5616" vol="78" len="12"/>
          <note key="24" pan="0" pos="5616" vol="78" len="12"/>
          <note key="31" pan="0" pos="5628" vol="94" len="21"/>
          <note key="24" pan="0" pos="5628" vol="94" len="21"/>
          <note key="31" pan="0" pos="5652" vol="78" len="21"/>
          <note key="24" pan="0" pos="5652" vol="78" len="21"/>
          <note key="31" pan="0" pos="5676" vol="78" len="24"/>
          <note key="24" pan="0" pos="5676" vol="78" len="24"/>
          <note key="31" pan="0" pos="5700" vol="78" len="9"/>
          <note key="24" pan="0" pos="5700" vol="78" len="9"/>
          <note key="31" pan="0" pos="5712" vol="78" len="9"/>
          <note key="24" pan="0" pos="5712" vol="78" len="9"/>
          <note key="31" pan="0" pos="5724" vol="78" len="9"/>
          <note key="24" pan="0" pos="5724" vol="78" len="9"/>
          <note key="31" pan="0" pos="5736" vol="78" len="24"/>
          <note key="24" pan="0" pos="5736" vol="78" len="24"/>
          <note key="33" pan="0" pos="5760" vol="78" len="21"/>
          <note key="26" pan="0" pos="5760" vol="78" len="21"/>
          <note key="33" pan="0" pos="5784" vol="78" len="24"/>
          <note key="26" pan="0" pos="5784" vol="78" len="24"/>
          <note key="33" pan="0" pos="5808" vol="78" len="12"/>
          <note key="26" pan="0" pos="5808" vol="78" len="12"/>
          <note key="33" pan="0" pos="5820" vol="94" len="21"/>
          <note key="26" pan="0" pos="5820" vol="94" len="21"/>
          <note key="33" pan="0" pos="5844" vol="78" len="21"/>
          <note key="26" pan="0" pos="5844" vol="78" len="21"/>
          <note key="33" pan="0" pos="5868" vol="78" len="24"/>
          <note key="26" pan="0" pos="5868" vol="78" len="24"/>
          <note key="33" pan="0" pos="5892" vol="78" len="9"/>
          <note key="26" pan="0" pos="5892" vol="78" len="9"/>
          <note key="33" pan="0" pos="5904" vol="78" len="9"/>
          <note key="26" pan="0" pos="5904" vol="78" len="9"/>
          <note key="33" pan="0" pos="5916" vol="78" len="9"/>
          <note key="26" pan="0" pos="5916" vol="78" len="9"/>
          <note key="33" pan="0" pos="5928" vol="78" len="24"/>
          <note key="26" pan="0" pos="5928" vol="78" len="24"/>
          <note key="32" pan="0" pos="5952" vol="78" len="21"/>
          <note key="25" pan="0" pos="5952" vol="78" len="21"/>
          <note key="32" pan="0" pos="5976" vol="78" len="24"/>
          <note key="25" pan="0" pos="5976" vol="78" len="24"/>
          <note key="32" pan="0" pos="6000" vol="78" len="12"/>
          <note key="25" pan="0" pos="6000" vol="78" len="12"/>
          <note key="32" pan="0" pos="6012" vol="94" len="21"/>
          <note key="25" pan="0" pos="6012" vol="94" len="21"/>
          <note key="34" pan="0" pos="6036" vol="78" len="21"/>
          <note key="27" pan="0" pos="6036" vol="78" len="21"/>
          <note key="34" pan="0" pos="6060" vol="78" len="24"/>
          <note key="27" pan="0" pos="6060" vol="78" len="24"/>
          <note key="34" pan="0" pos="6084" vol="78" len="9"/>
          <note key="27" pan="0" pos="6084" vol="78" len="9"/>
          <note key="34" pan="0" pos="6096" vol="78" len="9"/>
          <note key="27" pan="0" pos="6096" vol="78" len="9"/>
          <note key="34" pan="0" pos="6108" vol="78" len="9"/>
          <note key="27" pan="0" pos="6108" vol="78" len="9"/>
          <note key="34" pan="0" pos="6120" vol="78" len="24"/>
          <note key="27" pan="0" pos="6120" vol="78" len="24"/>
          <note key="29" pan="0" pos="6144" vol="78" len="21"/>
          <note key="22" pan="0" pos="6144" vol="78" len="21"/>
          <note key="29" pan="0" pos="6168" vol="78" len="24"/>
          <note key="22" pan="0" pos="6168" vol="78" len="24"/>
          <note key="29" pan="0" pos="6192" vol="78" len="12"/>
          <note key="22" pan="0" pos="6192" vol="78" len="12"/>
          <note key="29" pan="0" pos="6204" vol="94" len="21"/>
          <note key="22" pan="0" pos="6204" vol="94" len="21"/>
          <note key="29" pan="0" pos="6228" vol="78" len="21"/>
          <note key="22" pan="0" pos="6228" vol="78" len="21"/>
          <note key="29" pan="0" pos="6252" vol="78" len="24"/>
          <note key="22" pan="0" pos="6252" vol="78" len="24"/>
          <note key="29" pan="0" pos="6276" vol="78" len="9"/>
          <note key="22" pan="0" pos="6276" vol="78" len="9"/>
          <note key="29" pan="0" pos="6288" vol="78" len="9"/>
          <note key="22" pan="0" pos="6288" vol="78" len="9"/>
          <note key="29" pan="0" pos="6300" vol="78" len="9"/>
          <note key="22" pan="0" pos="6300" vol="78" len="9"/>
          <note key="41" pan="0" pos="6312" vol="78" len="24"/>
          <note key="34" pan="0" pos="6312" vol="78" len="24"/>
          <note key="31" pan="0" pos="6336" vol="78" len="21"/>
          <note key="24" pan="0" pos="6336" vol="78" len="21"/>
          <note key="31" pan="0" pos="6360" vol="78" len="24"/>
          <note key="24" pan="0" pos="6360" vol="78" len="24"/>
          <note key="31" pan="0" pos="6384" vol="78" len="12"/>
          <note key="24" pan="0" pos="6384" vol="78" len="12"/>
          <note key="31" pan="0" pos="6396" vol="94" len="21"/>
          <note key="24" pan="0" pos="6396" vol="94" len="21"/>
          <note key="31" pan="0" pos="6420" vol="78" len="21"/>
          <note key="24" pan="0" pos="6420" vol="78" len="21"/>
          <note key="31" pan="0" pos="6444" vol="78" len="24"/>
          <note key="24" pan="0" pos="6444" vol="78" len="24"/>
          <note key="31" pan="0" pos="6468" vol="78" len="9"/>
          <note key="24" pan="0" pos="6468" vol="78" len="9"/>
          <note key="31" pan="0" pos="6480" vol="78" len="9"/>
          <note key="24" pan="0" pos="6480" vol="78" len="9"/>
          <note key="31" pan="0" pos="6492" vol="78" len="9"/>
          <note key="24" pan="0" pos="6492" vol="78" len="9"/>
          <note key="31" pan="0" pos="6504" vol="78" len="24"/>
          <note key="24" pan="0" pos="6504" vol="78" len="24"/>
          <note key="33" pan="0" pos="6528" vol="78" len="21"/>
          <note key="26" pan="0" pos="6528" vol="78" len="21"/>
          <note key="33" pan="0" pos="6552" vol="78" len="24"/>
          <note key="26" pan="0" pos="6552" vol="78" len="24"/>
          <note key="33" pan="0" pos="6576" vol="78" len="12"/>
          <note key="26" pan="0" pos="6576" vol="78" len="12"/>
          <note key="33" pan="0" pos="6588" vol="94" len="21"/>
          <note key="26" pan="0" pos="6588" vol="94" len="21"/>
          <note key="33" pan="0" pos="6612" vol="78" len="21"/>
          <note key="26" pan="0" pos="6612" vol="78" len="21"/>
          <note key="33" pan="0" pos="6636" vol="78" len="24"/>
          <note key="26" pan="0" pos="6636" vol="78" len="24"/>
          <note key="33" pan="0" pos="6660" vol="78" len="9"/>
          <note key="26" pan="0" pos="6660" vol="78" len="9"/>
          <note key="33" pan="0" pos="6672" vol="78" len="9"/>
          <note key="26" pan="0" pos="6672" vol="78" len="9"/>
          <note key="33" pan="0" pos="6684" vol="78" len="9"/>
          <note key="26" pan="0" pos="6684" vol="78" len="9"/>
          <note key="33" pan="0" pos="6696" vol="78" len="24"/>
          <note key="26" pan="0" pos="6696" vol="78" len="24"/>
          <note key="32" pan="0" pos="6720" vol="78" len="21"/>
          <note key="25" pan="0" pos="6720" vol="78" len="21"/>
          <note key="32" pan="0" pos="6744" vol="78" len="24"/>
          <note key="25" pan="0" pos="6744" vol="78" len="24"/>
          <note key="32" pan="0" pos="6768" vol="78" len="12"/>
          <note key="25" pan="0" pos="6768" vol="78" len="12"/>
          <note key="32" pan="0" pos="6780" vol="94" len="21"/>
          <note key="25" pan="0" pos="6780" vol="94" len="21"/>
          <note key="34" pan="0" pos="6804" vol="78" len="21"/>
          <note key="27" pan="0" pos="6804" vol="78" len="21"/>
          <note key="34" pan="0" pos="6828" vol="78" len="24"/>
          <note key="27" pan="0" pos="6828" vol="78" len="24"/>
          <note key="34" pan="0" pos="6852" vol="78" len="9"/>
          <note key="27" pan="0" pos="6852" vol="78" len="9"/>
          <note key="34" pan="0" pos="6864" vol="78" len="9"/>
          <note key="27" pan="0" pos="6864" vol="78" len="9"/>
          <note key="34" pan="0" pos="6876" vol="78" len="9"/>
          <note key="27" pan="0" pos="6876" vol="78" len="9"/>
          <note key="34" pan="0" pos="6888" vol="78" len="24"/>
          <note key="27" pan="0" pos="6888" vol="78" len="24"/>
          <note key="29" pan="0" pos="6912" vol="78" len="21"/>
          <note key="22" pan="0" pos="6912" vol="78" len="21"/>
          <note key="29" pan="0" pos="6936" vol="78" len="24"/>
          <note key="22" pan="0" pos="6936" vol="78" len="24"/>
          <note key="29" pan="0" pos="6960" vol="78" len="12"/>
          <note key="22" pan="0" pos="6960" vol="78" len="12"/>
          <note key="29" pan="0" pos="6972" vol="94" len="21"/>
          <note key="22" pan="0" pos="6972" vol="94" len="21"/>
          <note key="29" pan="0" pos="6996" vol="78" len="21"/>
          <note key="22" pan="0" pos="6996" vol="78" len="21"/>
          <note key="29" pan="0" pos="7020" vol="78" len="24"/>
          <note key="22" pan="0" pos="7020" vol="78" len="24"/>
          <note key="29" pan="0" pos="7044" vol="78" len="9"/>
          <note key="22" pan="0" pos="7044" vol="78" len="9"/>
          <note key="29" pan="0" pos="7056" vol="78" len="9"/>
          <note key="22" pan="0" pos="7056" vol="78" len="9"/>
          <note key="29" pan="0" pos="7068" vol="78" len="9"/>
          <note key="22" pan="0" pos="7068" vol="78" len="9"/>
          <note key="29" pan="0" pos="7080" vol="78" len="24"/>
          <note key="22" pan="0" pos="7080" vol="78" len="24"/>
          <note key="31" pan="0" pos="7104" vol="78" len="21"/>
          <note key="24" pan="0" pos="7104" vol="78" len="21"/>
          <note key="31" pan="0" pos="7128" vol="78" len="24"/>
          <note key="24" pan="0" pos="7128" vol="78" len="24"/>
          <note key="31" pan="0" pos="7152" vol="78" len="12"/>
          <note key="24" pan="0" pos="7152" vol="78" len="12"/>
          <note key="31" pan="0" pos="7164" vol="94" len="21"/>
          <note key="24" pan="0" pos="7164" vol="94" len="21"/>
          <note key="31" pan="0" pos="7188" vol="78" len="21"/>
          <note key="24" pan="0" pos="7188" vol="78" len="21"/>
          <note key="31" pan="0" pos="7212" vol="78" len="24"/>
          <note key="24" pan="0" pos="7212" vol="78" len="24"/>
          <note key="31" pan="0" pos="7236" vol="78" len="9"/>
          <note key="24" pan="0" pos="7236" vol="78" len="9"/>
          <note key="31" pan="0" pos="7248" vol="78" len="9"/>
          <note key="24" pan="0" pos="7248" vol="78" len="9"/>
          <note key="31" pan="0" pos="7260" vol="78" len="9"/>
          <note key="24" pan="0" pos="7260" vol="78" len="9"/>
          <note key="31" pan="0" pos="7272" vol="78" len="24"/>
          <note key="24" pan="0" pos="7272" vol="78" len="24"/>
          <note key="30" pan="0" pos="7296" vol="78" len="21"/>
          <note key="23" pan="0" pos="7296" vol="78" len="21"/>
          <note key="30" pan="0" pos="7320" vol="78" len="24"/>
          <note key="23" pan="0" pos="7320" vol="78" len="24"/>
          <note key="30" pan="0" pos="7344" vol="78" len="12"/>
          <note key="23" pan="0" pos="7344" vol="78" len="12"/>
          <note key="30" pan="0" pos="7356" vol="94" len="21"/>
          <note key="23" pan="0" pos="7356" vol="94" len="21"/>
          <note key="30" pan="0" pos="7380" vol="78" len="21"/>
          <note key="23" pan="0" pos="7380" vol="78" len="21"/>
          <note key="30" pan="0" pos="7404" vol="78" len="24"/>
          <note key="23" pan="0" pos="7404" vol="78" len="24"/>
          <note key="30" pan="0" pos="7428" vol="78" len="9"/>
          <note key="23" pan="0" pos="7428" vol="78" len="9"/>
          <note key="30" pan="0" pos="7440" vol="78" len="9"/>
          <note key="23" pan="0" pos="7440" vol="78" len="9"/>
          <note key="30" pan="0" pos="7452" vol="78" len="9"/>
          <note key="23" pan="0" pos="7452" vol="78" len="9"/>
          <note key="30" pan="0" pos="7464" vol="78" len="24"/>
          <note key="23" pan="0" pos="7464" vol="78" len="24"/>
          <note key="30" pan="0" pos="7488" vol="78" len="21"/>
          <note key="23" pan="0" pos="7488" vol="78" len="21"/>
          <note key="30" pan="0" pos="7512" vol="78" len="24"/>
          <note key="23" pan="0" pos="7512" vol="78" len="24"/>
          <note key="30" pan="0" pos="7536" vol="78" len="12"/>
          <note key="23" pan="0" pos="7536" vol="78" len="12"/>
          <note key="30" pan="0" pos="7548" vol="94" len="21"/>
          <note key="23" pan="0" pos="7548" vol="94" len="21"/>
          <note key="30" pan="0" pos="7572" vol="78" len="21"/>
          <note key="23" pan="0" pos="7572" vol="78" len="21"/>
          <note key="30" pan="0" pos="7596" vol="78" len="24"/>
          <note key="23" pan="0" pos="7596" vol="78" len="24"/>
          <note key="30" pan="0" pos="7620" vol="78" len="9"/>
          <note key="23" pan="0" pos="7620" vol="78" len="9"/>
          <note key="30" pan="0" pos="7632" vol="78" len="9"/>
          <note key="23" pan="0" pos="7632" vol="78" len="9"/>
          <note key="30" pan="0" pos="7644" vol="78" len="9"/>
          <note key="23" pan="0" pos="7644" vol="78" len="9"/>
          <note key="30" pan="0" pos="7656" vol="78" len="24"/>
          <note key="23" pan="0" pos="7656" vol="78" len="24"/>
          <note key="29" pan="0" pos="7680" vol="78" len="21"/>
          <note key="22" pan="0" pos="7680" vol="78" len="21"/>
          <note key="29" pan="0" pos="7704" vol="78" len="24"/>
          <note key="22" pan="0" pos="7704" vol="78" len="24"/>
          <note key="29" pan="0" pos="7728" vol="78" len="12"/>
          <note key="22" pan="0" pos="7728" vol="78" len="12"/>
          <note key="29" pan="0" pos="7740" vol="94" len="21"/>
          <note key="22" pan="0" pos="7740" vol="94" len="21"/>
          <note key="29" pan="0" pos="7764" vol="78" len="21"/>
          <note key="22" pan="0" pos="7764" vol="78" len="21"/>
          <note key="29" pan="0" pos="7788" vol="78" len="24"/>
          <note key="22" pan="0" pos="7788" vol="78" len="24"/>
          <note key="29" pan="0" pos="7812" vol="78" len="9"/>
          <note key="22" pan="0" pos="7812" vol="78" len="9"/>
          <note key="29" pan="0" pos="7824" vol="78" len="9"/>
          <note key="22" pan="0" pos="7824" vol="78" len="9"/>
          <note key="29" pan="0" pos="7836" vol="78" len="9"/>
          <note key="22" pan="0" pos="7836" vol="78" len="9"/>
          <note key="29" pan="0" pos="7848" vol="78" len="24"/>
          <note key="22" pan="0" pos="7848" vol="78" len="24"/>
          <note key="31" pan="0" pos="7872" vol="78" len="21"/>
          <note key="24" pan="0" pos="7872" vol="78" len="21"/>
          <note key="31" pan="0" pos="7896" vol="78" len="24"/>
          <note key="24" pan="0" pos="7896" vol="78" len="24"/>
          <note key="31" pan="0" pos="7920" vol="78" len="12"/>
          <note key="24" pan="0" pos="7920" vol="78" len="12"/>
          <note key="31" pan="0" pos="7932" vol="94" len="21"/>
          <note key="24" pan="0" pos="7932" vol="94" len="21"/>
          <note key="31" pan="0" pos="7956" vol="78" len="21"/>
          <note key="24" pan="0" pos="7956" vol="78" len="21"/>
          <note key="31" pan="0" pos="7980" vol="78" len="24"/>
          <note key="24" pan="0" pos="7980" vol="78" len="24"/>
          <note key="31" pan="0" pos="8004" vol="78" len="9"/>
          <note key="24" pan="0" pos="8004" vol="78" len="9"/>
          <note key="31" pan="0" pos="8016" vol="78" len="9"/>
          <note key="24" pan="0" pos="8016" vol="78" len="9"/>
          <note key="31" pan="0" pos="8028" vol="78" len="9"/>
          <note key="24" pan="0" pos="8028" vol="78" len="9"/>
          <note key="31" pan="0" pos="8040" vol="78" len="24"/>
          <note key="24" pan="0" pos="8040" vol="78" len="24"/>
          <note key="33" pan="0" pos="8064" vol="78" len="21"/>
          <note key="26" pan="0" pos="8064" vol="78" len="21"/>
          <note key="33" pan="0" pos="8088" vol="78" len="24"/>
          <note key="26" pan="0" pos="8088" vol="78" len="24"/>
          <note key="33" pan="0" pos="8112" vol="78" len="12"/>
          <note key="26" pan="0" pos="8112" vol="78" len="12"/>
          <note key="33" pan="0" pos="8124" vol="94" len="21"/>
          <note key="26" pan="0" pos="8124" vol="94" len="21"/>
          <note key="33" pan="0" pos="8148" vol="78" len="21"/>
          <note key="26" pan="0" pos="8148" vol="78" len="21"/>
          <note key="33" pan="0" pos="8172" vol="78" len="24"/>
          <note key="26" pan="0" pos="8172" vol="78" len="24"/>
          <note key="33" pan="0" pos="8196" vol="78" len="9"/>
          <note key="26" pan="0" pos="8196" vol="78" len="9"/>
          <note key="33" pan="0" pos="8208" vol="78" len="9"/>
          <note key="26" pan="0" pos="8208" vol="78" len="9"/>
          <note key="33" pan="0" pos="8220" vol="78" len="9"/>
          <note key="26" pan="0" pos="8220" vol="78" len="9"/>
          <note key="33" pan="0" pos="8232" vol="78" len="24"/>
          <note key="26" pan="0" pos="8232" vol="78" len="24"/>
          <note key="33" pan="0" pos="8256" vol="78" len="21"/>
          <note key="26" pan="0" pos="8256" vol="78" len="21"/>
          <note key="33" pan="0" pos="8280" vol="78" len="24"/>
          <note key="26" pan="0" pos="8280" vol="78" len="24"/>
          <note key="33" pan="0" pos="8304" vol="78" len="12"/>
          <note key="26" pan="0" pos="8304" vol="78" len="12"/>
          <note key="33" pan="0" pos="8316" vol="94" len="21"/>
          <note key="26" pan="0" pos="8316" vol="94" len="21"/>
          <note key="33" pan="0" pos="8340" vol="78" len="21"/>
          <note key="26" pan="0" pos="8340" vol="78" len="21"/>
          <note key="33" pan="0" pos="8364" vol="78" len="24"/>
          <note key="26" pan="0" pos="8364" vol="78" len="24"/>
          <note key="33" pan="0" pos="8388" vol="78" len="9"/>
          <note key="26" pan="0" pos="8388" vol="78" len="9"/>
          <note key="33" pan="0" pos="8400" vol="78" len="9"/>
          <note key="26" pan="0" pos="8400" vol="78" len="9"/>
          <note key="33" pan="0" pos="8412" vol="78" len="9"/>
          <note key="26" pan="0" pos="8412" vol="78" len="9"/>
          <note key="33" pan="0" pos="8424" vol="78" len="24"/>
          <note key="26" pan="0" pos="8424" vol="78" len="24"/>
          <note key="29" pan="0" pos="8448" vol="78" len="21"/>
          <note key="22" pan="0" pos="8448" vol="78" len="21"/>
          <note key="29" pan="0" pos="8472" vol="78" len="24"/>
          <note key="22" pan="0" pos="8472" vol="78" len="24"/>
          <note key="29" pan="0" pos="8496" vol="78" len="12"/>
          <note key="22" pan="0" pos="8496" vol="78" len="12"/>
          <note key="29" pan="0" pos="8508" vol="94" len="21"/>
          <note key="22" pan="0" pos="8508" vol="94" len="21"/>
          <note key="29" pan="0" pos="8532" vol="78" len="21"/>
          <note key="22" pan="0" pos="8532" vol="78" len="21"/>
          <note key="29" pan="0" pos="8556" vol="78" len="24"/>
          <note key="22" pan="0" pos="8556" vol="78" len="24"/>
          <note key="29" pan="0" pos="8580" vol="78" len="9"/>
          <note key="22" pan="0" pos="8580" vol="78" len="9"/>
          <note key="29" pan="0" pos="8592" vol="78" len="9"/>
          <note key="22" pan="0" pos="8592" vol="78" len="9"/>
          <note key="29" pan="0" pos="8604" vol="78" len="9"/>
          <note key="22" pan="0" pos="8604" vol="78" len="9"/>
          <note key="29" pan="0" pos="8616" vol="78" len="24"/>
          <note key="22" pan="0" pos="8616" vol="78" len="24"/>
          <note key="31" pan="0" pos="8640" vol="78" len="21"/>
          <note key="24" pan="0" pos="8640" vol="78" len="21"/>
          <note key="31" pan="0" pos="8664" vol="78" len="24"/>
          <note key="24" pan="0" pos="8664" vol="78" len="24"/>
          <note key="31" pan="0" pos="8688" vol="78" len="12"/>
          <note key="24" pan="0" pos="8688" vol="78" len="12"/>
          <note key="31" pan="0" pos="8700" vol="94" len="21"/>
          <note key="24" pan="0" pos="8700" vol="94" len="21"/>
          <note key="31" pan="0" pos="8724" vol="78" len="21"/>
          <note key="24" pan="0" pos="8724" vol="78" len="21"/>
          <note key="31" pan="0" pos="8748" vol="78" len="24"/>
          <note key="24" pan="0" pos="8748" vol="78" len="24"/>
          <note key="31" pan="0" pos="8772" vol="78" len="9"/>
          <note key="24" pan="0" pos="8772" vol="78" len="9"/>
          <note key="31" pan="0" pos="8784" vol="78" len="9"/>
          <note key="24" pan="0" pos="8784" vol="78" len="9"/>
          <note key="31" pan="0" pos="8796" vol="78" len="9"/>
          <note key="24" pan="0" pos="8796" vol="78" len="9"/>
          <note key="31" pan="0" pos="8808" vol="78" len="24"/>
          <note key="24" pan="0" pos="8808" vol="78" len="24"/>
          <note key="30" pan="0" pos="8832" vol="78" len="21"/>
          <note key="23" pan="0" pos="8832" vol="78" len="21"/>
          <note key="30" pan="0" pos="8856" vol="78" len="24"/>
          <note key="23" pan="0" pos="8856" vol="78" len="24"/>
          <note key="30" pan="0" pos="8880" vol="78" len="12"/>
          <note key="23" pan="0" pos="8880" vol="78" len="12"/>
          <note key="30" pan="0" pos="8892" vol="94" len="21"/>
          <note key="23" pan="0" pos="8892" vol="94" len="21"/>
          <note key="30" pan="0" pos="8916" vol="78" len="21"/>
          <note key="23" pan="0" pos="8916" vol="78" len="21"/>
          <note key="30" pan="0" pos="8940" vol="78" len="24"/>
          <note key="23" pan="0" pos="8940" vol="78" len="24"/>
          <note key="30" pan="0" pos="8964" vol="78" len="9"/>
          <note key="23" pan="0" pos="8964" vol="78" len="9"/>
          <note key="30" pan="0" pos="8976" vol="78" len="9"/>
          <note key="23" pan="0" pos="8976" vol="78" len="9"/>
          <note key="30" pan="0" pos="8988" vol="78" len="9"/>
          <note key="23" pan="0" pos="8988" vol="78" len="9"/>
          <note key="30" pan="0" pos="9000" vol="78" len="24"/>
          <note key="23" pan="0" pos="9000" vol="78" len="24"/>
          <note key="30" pan="0" pos="9024" vol="78" len="21"/>
          <note key="23" pan="0" pos="9024" vol="78" len="21"/>
          <note key="30" pan="0" pos="9048" vol="78" len="24"/>
          <note key="23" pan="0" pos="9048" vol="78" len="24"/>
          <note key="30" pan="0" pos="9072" vol="78" len="12"/>
          <note key="23" pan="0" pos="9072" vol="78" len="12"/>
          <note key="30" pan="0" pos="9084" vol="94" len="21"/>
          <note key="23" pan="0" pos="9084" vol="94" len="21"/>
          <note key="30" pan="0" pos="9108" vol="78" len="21"/>
          <note key="23" pan="0" pos="9108" vol="78" len="21"/>
          <note key="30" pan="0" pos="9132" vol="78" len="24"/>
          <note key="23" pan="0" pos="9132" vol="78" len="24"/>
          <note key="30" pan="0" pos="9156" vol="78" len="9"/>
          <note key="23" pan="0" pos="9156" vol="78" len="9"/>
          <note key="30" pan="0" pos="9168" vol="78" len="9"/>
          <note key="23" pan="0" pos="9168" vol="78" len="9"/>
          <note key="30" pan="0" pos="9180" vol="78" len="9"/>
          <note key="23" pan="0" pos="9180" vol="78" len="9"/>
          <note key="30" pan="0" pos="9192" vol="78" len="24"/>
          <note key="23" pan="0" pos="9192" vol="78" len="24"/>
          <note key="29" pan="0" pos="9216" vol="78" len="21"/>
          <note key="22" pan="0" pos="9216" vol="78" len="21"/>
          <note key="29" pan="0" pos="9240" vol="78" len="24"/>
          <note key="22" pan="0" pos="9240" vol="78" len="24"/>
          <note key="29" pan="0" pos="9264" vol="78" len="12"/>
          <note key="22" pan="0" pos="9264" vol="78" len="12"/>
          <note key="29" pan="0" pos="9276" vol="94" len="21"/>
          <note key="22" pan="0" pos="9276" vol="94" len="21"/>
          <note key="29" pan="0" pos="9300" vol="78" len="21"/>
          <note key="22" pan="0" pos="9300" vol="78" len="21"/>
          <note key="29" pan="0" pos="9324" vol="78" len="24"/>
          <note key="22" pan="0" pos="9324" vol="78" len="24"/>
          <note key="29" pan="0" pos="9348" vol="78" len="9"/>
          <note key="22" pan="0" pos="9348" vol="78" len="9"/>
          <note key="29" pan="0" pos="9360" vol="78" len="9"/>
          <note key="22" pan="0" pos="9360" vol="78" len="9"/>
          <note key="29" pan="0" pos="9372" vol="78" len="9"/>
          <note key="22" pan="0" pos="9372" vol="78" len="9"/>
          <note key="29" pan="0" pos="9384" vol="78" len="24"/>
          <note key="22" pan="0" pos="9384" vol="78" len="24"/>
          <note key="31" pan="0" pos="9408" vol="78" len="21"/>
          <note key="24" pan="0" pos="9408" vol="78" len="21"/>
          <note key="31" pan="0" pos="9432" vol="78" len="24"/>
          <note key="24" pan="0" pos="9432" vol="78" len="24"/>
          <note key="31" pan="0" pos="9456" vol="78" len="12"/>
          <note key="24" pan="0" pos="9456" vol="78" len="12"/>
          <note key="31" pan="0" pos="9468" vol="94" len="21"/>
          <note key="24" pan="0" pos="9468" vol="94" len="21"/>
          <note key="31" pan="0" pos="9492" vol="78" len="21"/>
          <note key="24" pan="0" pos="9492" vol="78" len="21"/>
          <note key="31" pan="0" pos="9516" vol="78" len="24"/>
          <note key="24" pan="0" pos="9516" vol="78" len="24"/>
          <note key="31" pan="0" pos="9540" vol="78" len="9"/>
          <note key="24" pan="0" pos="9540" vol="78" len="9"/>
          <note key="31" pan="0" pos="9552" vol="78" len="9"/>
          <note key="24" pan="0" pos="9552" vol="78" len="9"/>
          <note key="31" pan="0" pos="9564" vol="78" len="9"/>
          <note key="24" pan="0" pos="9564" vol="78" len="9"/>
          <note key="31" pan="0" pos="9576" vol="78" len="24"/>
          <note key="24" pan="0" pos="9576" vol="78" len="24"/>
          <note key="33" pan="0" pos="9600" vol="78" len="21"/>
          <note key="26" pan="0" pos="9600" vol="78" len="21"/>
          <note key="33" pan="0" pos="9624" vol="78" len="24"/>
          <note key="26" pan="0" pos="9624" vol="78" len="24"/>
          <note key="33" pan="0" pos="9648" vol="78" len="12"/>
          <note key="26" pan="0" pos="9648" vol="78" len="12"/>
          <note key="33" pan="0" pos="9660" vol="94" len="21"/>
          <note key="26" pan="0" pos="9660" vol="94" len="21"/>
          <note key="33" pan="0" pos="9684" vol="78" len="21"/>
          <note key="26" pan="0" pos="9684" vol="78" len="21"/>
          <note key="33" pan="0" pos="9708" vol="78" len="24"/>
          <note key="26" pan="0" pos="9708" vol="78" len="24"/>
          <note key="33" pan="0" pos="9732" vol="78" len="9"/>
          <note key="26" pan="0" pos="9732" vol="78" len="9"/>
          <note key="33" pan="0" pos="9744" vol="78" len="9"/>
          <note key="26" pan="0" pos="9744" vol="78" len="9"/>
          <note key="33" pan="0" pos="9756" vol="78" len="9"/>
          <note key="26" pan="0" pos="9756" vol="78" len="9"/>
          <note key="33" pan="0" pos="9768" vol="78" len="24"/>
          <note key="26" pan="0" pos="9768" vol="78" len="24"/>
          <note key="33" pan="0" pos="9792" vol="78" len="21"/>
          <note key="26" pan="0" pos="9792" vol="78" len="21"/>
          <note key="33" pan="0" pos="9816" vol="78" len="24"/>
          <note key="26" pan="0" pos="9816" vol="78" len="24"/>
          <note key="33" pan="0" pos="9840" vol="78" len="12"/>
          <note key="26" pan="0" pos="9840" vol="78" len="12"/>
          <note key="33" pan="0" pos="9852" vol="94" len="21"/>
          <note key="26" pan="0" pos="9852" vol="94" len="21"/>
          <note key="33" pan="0" pos="9876" vol="78" len="21"/>
          <note key="26" pan="0" pos="9876" vol="78" len="21"/>
          <note key="33" pan="0" pos="9900" vol="78" len="24"/>
          <note key="26" pan="0" pos="9900" vol="78" len="24"/>
          <note key="33" pan="0" pos="9924" vol="78" len="9"/>
          <note key="26" pan="0" pos="9924" vol="78" len="9"/>
          <note key="33" pan="0" pos="9936" vol="78" len="9"/>
          <note key="26" pan="0" pos="9936" vol="78" len="9"/>
          <note key="33" pan="0" pos="9948" vol="78" len="9"/>
          <note key="26" pan="0" pos="9948" vol="78" len="9"/>
          <note key="33" pan="0" pos="9960" vol="78" len="24"/>
          <note key="26" pan="0" pos="9960" vol="78" len="24"/>
          <note key="29" pan="0" pos="9984" vol="110" len="24"/>
          <note key="22" pan="0" pos="9984" vol="110" len="24"/>
          <note key="29" pan="0" pos="10008" vol="110" len="24"/>
          <note key="22" pan="0" pos="10008" vol="110" len="24"/>
          <note key="29" pan="0" pos="10032" vol="110" len="9"/>
          <note key="22" pan="0" pos="10032" vol="110" len="9"/>
          <note key="29" pan="0" pos="10044" vol="110" len="24"/>
          <note key="22" pan="0" pos="10044" vol="110" len="24"/>
          <note key="29" pan="0" pos="10068" vol="110" len="24"/>
          <note key="22" pan="0" pos="10068" vol="110" len="24"/>
          <note key="29" pan="0" pos="10092" vol="110" len="24"/>
          <note key="22" pan="0" pos="10092" vol="110" len="24"/>
          <note key="29" pan="0" pos="10116" vol="110" len="9"/>
          <note key="22" pan="0" pos="10116" vol="110" len="9"/>
          <note key="29" pan="0" pos="10128" vol="110" len="9"/>
          <note key="22" pan="0" pos="10128" vol="110" len="9"/>
          <note key="29" pan="0" pos="10140" vol="110" len="9"/>
          <note key="22" pan="0" pos="10140" vol="110" len="9"/>
          <note key="41" pan="0" pos="10152" vol="110" len="21"/>
          <note key="34" pan="0" pos="10152" vol="110" len="21"/>
          <note key="31" pan="0" pos="10176" vol="110" len="24"/>
          <note key="24" pan="0" pos="10176" vol="110" len="24"/>
          <note key="31" pan="0" pos="10200" vol="110" len="24"/>
          <note key="24" pan="0" pos="10200" vol="110" len="24"/>
          <note key="31" pan="0" pos="10224" vol="110" len="9"/>
          <note key="24" pan="0" pos="10224" vol="110" len="9"/>
          <note key="31" pan="0" pos="10236" vol="110" len="24"/>
          <note key="24" pan="0" pos="10236" vol="110" len="24"/>
          <note key="31" pan="0" pos="10260" vol="110" len="24"/>
          <note key="24" pan="0" pos="10260" vol="110" len="24"/>
          <note key="31" pan="0" pos="10284" vol="110" len="24"/>
          <note key="24" pan="0" pos="10284" vol="110" len="24"/>
          <note key="31" pan="0" pos="10308" vol="110" len="9"/>
          <note key="24" pan="0" pos="10308" vol="110" len="9"/>
          <note key="31" pan="0" pos="10320" vol="110" len="9"/>
          <note key="24" pan="0" pos="10320" vol="110" len="9"/>
          <note key="31" pan="0" pos="10332" vol="110" len="9"/>
          <note key="24" pan="0" pos="10332" vol="110" len="9"/>
          <note key="31" pan="0" pos="10344" vol="110" len="21"/>
          <note key="24" pan="0" pos="10344" vol="110" len="21"/>
          <note key="33" pan="0" pos="10368" vol="110" len="24"/>
          <note key="26" pan="0" pos="10368" vol="110" len="24"/>
          <note key="33" pan="0" pos="10392" vol="110" len="24"/>
          <note key="26" pan="0" pos="10392" vol="110" len="24"/>
          <note key="33" pan="0" pos="10416" vol="110" len="9"/>
          <note key="26" pan="0" pos="10416" vol="110" len="9"/>
          <note key="33" pan="0" pos="10428" vol="110" len="24"/>
          <note key="26" pan="0" pos="10428" vol="110" len="24"/>
          <note key="32" pan="0" pos="10452" vol="110" len="24"/>
          <note key="25" pan="0" pos="10452" vol="110" len="24"/>
          <note key="32" pan="0" pos="10476" vol="110" len="24"/>
          <note key="25" pan="0" pos="10476" vol="110" len="24"/>
          <note key="32" pan="0" pos="10500" vol="110" len="9"/>
          <note key="25" pan="0" pos="10500" vol="110" len="9"/>
          <note key="32" pan="0" pos="10512" vol="110" len="9"/>
          <note key="25" pan="0" pos="10512" vol="110" len="9"/>
          <note key="32" pan="0" pos="10524" vol="110" len="9"/>
          <note key="25" pan="0" pos="10524" vol="110" len="9"/>
          <note key="32" pan="0" pos="10536" vol="110" len="18"/>
          <note key="25" pan="0" pos="10536" vol="110" len="18"/>
          <note key="31" pan="0" pos="10560" vol="110" len="24"/>
          <note key="24" pan="0" pos="10560" vol="110" len="24"/>
          <note key="31" pan="0" pos="10584" vol="110" len="24"/>
          <note key="24" pan="0" pos="10584" vol="110" len="24"/>
          <note key="31" pan="0" pos="10608" vol="110" len="9"/>
          <note key="24" pan="0" pos="10608" vol="110" len="9"/>
          <note key="31" pan="0" pos="10620" vol="110" len="24"/>
          <note key="24" pan="0" pos="10620" vol="110" len="24"/>
          <note key="30" pan="0" pos="10644" vol="110" len="24"/>
          <note key="23" pan="0" pos="10644" vol="110" len="24"/>
          <note key="30" pan="0" pos="10668" vol="110" len="24"/>
          <note key="23" pan="0" pos="10668" vol="110" len="24"/>
          <note key="30" pan="0" pos="10692" vol="110" len="9"/>
          <note key="23" pan="0" pos="10692" vol="110" len="9"/>
          <note key="30" pan="0" pos="10704" vol="110" len="9"/>
          <note key="23" pan="0" pos="10704" vol="110" len="9"/>
          <note key="30" pan="0" pos="10716" vol="110" len="9"/>
          <note key="23" pan="0" pos="10716" vol="110" len="9"/>
          <note key="30" pan="0" pos="10728" vol="110" len="21"/>
          <note key="23" pan="0" pos="10728" vol="110" len="21"/>
          <note key="29" pan="0" pos="10752" vol="110" len="24"/>
          <note key="22" pan="0" pos="10752" vol="110" len="24"/>
          <note key="29" pan="0" pos="10776" vol="110" len="24"/>
          <note key="22" pan="0" pos="10776" vol="110" len="24"/>
          <note key="29" pan="0" pos="10800" vol="110" len="9"/>
          <note key="22" pan="0" pos="10800" vol="110" len="9"/>
          <note key="29" pan="0" pos="10812" vol="110" len="24"/>
          <note key="22" pan="0" pos="10812" vol="110" len="24"/>
          <note key="29" pan="0" pos="10836" vol="110" len="24"/>
          <note key="22" pan="0" pos="10836" vol="110" len="24"/>
          <note key="29" pan="0" pos="10860" vol="110" len="24"/>
          <note key="22" pan="0" pos="10860" vol="110" len="24"/>
          <note key="29" pan="0" pos="10884" vol="110" len="9"/>
          <note key="22" pan="0" pos="10884" vol="110" len="9"/>
          <note key="29" pan="0" pos="10896" vol="110" len="9"/>
          <note key="22" pan="0" pos="10896" vol="110" len="9"/>
          <note key="29" pan="0" pos="10908" vol="110" len="9"/>
          <note key="22" pan="0" pos="10908" vol="110" len="9"/>
          <note key="41" pan="0" pos="10920" vol="110" len="21"/>
          <note key="34" pan="0" pos="10920" vol="110" len="21"/>
          <note key="31" pan="0" pos="10944" vol="110" len="24"/>
          <note key="24" pan="0" pos="10944" vol="110" len="24"/>
          <note key="31" pan="0" pos="10968" vol="110" len="24"/>
          <note key="24" pan="0" pos="10968" vol="110" len="24"/>
          <note key="31" pan="0" pos="10992" vol="110" len="9"/>
          <note key="24" pan="0" pos="10992" vol="110" len="9"/>
          <note key="31" pan="0" pos="11004" vol="110" len="24"/>
          <note key="24" pan="0" pos="11004" vol="110" len="24"/>
          <note key="31" pan="0" pos="11028" vol="110" len="24"/>
          <note key="24" pan="0" pos="11028" vol="110" len="24"/>
          <note key="31" pan="0" pos="11052" vol="110" len="24"/>
          <note key="24" pan="0" pos="11052" vol="110" len="24"/>
          <note key="31" pan="0" pos="11076" vol="110" len="9"/>
          <note key="24" pan="0" pos="11076" vol="110" len="9"/>
          <note key="31" pan="0" pos="11088" vol="110" len="9"/>
          <note key="24" pan="0" pos="11088" vol="110" len="9"/>
          <note key="31" pan="0" pos="11100" vol="110" len="9"/>
          <note key="24" pan="0" pos="11100" vol="110" len="9"/>
          <note key="31" pan="0" pos="11112" vol="110" len="21"/>
          <note key="24" pan="0" pos="11112" vol="110" len="21"/>
          <note key="33" pan="0" pos="11136" vol="110" len="24"/>
          <note key="26" pan="0" pos="11136" vol="110" len="24"/>
          <note key="33" pan="0" pos="11160" vol="110" len="24"/>
          <note key="26" pan="0" pos="11160" vol="110" len="24"/>
          <note key="33" pan="0" pos="11184" vol="110" len="9"/>
          <note key="26" pan="0" pos="11184" vol="110" len="9"/>
          <note key="33" pan="0" pos="11196" vol="110" len="24"/>
          <note key="26" pan="0" pos="11196" vol="110" len="24"/>
          <note key="33" pan="0" pos="11220" vol="110" len="24"/>
          <note key="26" pan="0" pos="11220" vol="110" len="24"/>
          <note key="33" pan="0" pos="11244" vol="110" len="24"/>
          <note key="26" pan="0" pos="11244" vol="110" len="24"/>
          <note key="33" pan="0" pos="11268" vol="110" len="9"/>
          <note key="26" pan="0" pos="11268" vol="110" len="9"/>
          <note key="33" pan="0" pos="11280" vol="110" len="9"/>
          <note key="26" pan="0" pos="11280" vol="110" len="9"/>
          <note key="33" pan="0" pos="11292" vol="110" len="9"/>
          <note key="26" pan="0" pos="11292" vol="110" len="9"/>
          <note key="33" pan="0" pos="11304" vol="110" len="21"/>
          <note key="26" pan="0" pos="11304" vol="110" len="21"/>
          <note key="33" pan="0" pos="11328" vol="110" len="24"/>
          <note key="26" pan="0" pos="11328" vol="110" len="24"/>
          <note key="33" pan="0" pos="11352" vol="110" len="24"/>
          <note key="26" pan="0" pos="11352" vol="110" len="24"/>
          <note key="33" pan="0" pos="11376" vol="110" len="9"/>
          <note key="26" pan="0" pos="11376" vol="110" len="9"/>
          <note key="33" pan="0" pos="11388" vol="110" len="24"/>
          <note key="26" pan="0" pos="11388" vol="110" len="24"/>
          <note key="33" pan="0" pos="11412" vol="110" len="24"/>
          <note key="26" pan="0" pos="11412" vol="110" len="24"/>
          <note key="33" pan="0" pos="11436" vol="110" len="24"/>
          <note key="26" pan="0" pos="11436" vol="110" len="24"/>
          <note key="33" pan="0" pos="11460" vol="110" len="9"/>
          <note key="26" pan="0" pos="11460" vol="110" len="9"/>
          <note key="33" pan="0" pos="11472" vol="110" len="9"/>
          <note key="26" pan="0" pos="11472" vol="110" len="9"/>
          <note key="33" pan="0" pos="11484" vol="110" len="9"/>
          <note key="26" pan="0" pos="11484" vol="110" len="9"/>
          <note key="33" pan="0" pos="11496" vol="110" len="21"/>
          <note key="26" pan="0" pos="11496" vol="110" len="21"/>
          <note key="29" pan="0" pos="11520" vol="110" len="24"/>
          <note key="22" pan="0" pos="11520" vol="110" len="24"/>
          <note key="29" pan="0" pos="11544" vol="110" len="24"/>
          <note key="22" pan="0" pos="11544" vol="110" len="24"/>
          <note key="29" pan="0" pos="11568" vol="110" len="9"/>
          <note key="22" pan="0" pos="11568" vol="110" len="9"/>
          <note key="29" pan="0" pos="11580" vol="110" len="24"/>
          <note key="22" pan="0" pos="11580" vol="110" len="24"/>
          <note key="29" pan="0" pos="11604" vol="110" len="24"/>
          <note key="22" pan="0" pos="11604" vol="110" len="24"/>
          <note key="29" pan="0" pos="11628" vol="110" len="24"/>
          <note key="22" pan="0" pos="11628" vol="110" len="24"/>
          <note key="29" pan="0" pos="11652" vol="110" len="9"/>
          <note key="22" pan="0" pos="11652" vol="110" len="9"/>
          <note key="29" pan="0" pos="11664" vol="110" len="9"/>
          <note key="22" pan="0" pos="11664" vol="110" len="9"/>
          <note key="29" pan="0" pos="11676" vol="110" len="9"/>
          <note key="22" pan="0" pos="11676" vol="110" len="9"/>
          <note key="41" pan="0" pos="11688" vol="110" len="21"/>
          <note key="34" pan="0" pos="11688" vol="110" len="21"/>
          <note key="31" pan="0" pos="11712" vol="110" len="24"/>
          <note key="24" pan="0" pos="11712" vol="110" len="24"/>
          <note key="31" pan="0" pos="11736" vol="110" len="24"/>
          <note key="24" pan="0" pos="11736" vol="110" len="24"/>
          <note key="31" pan="0" pos="11760" vol="110" len="9"/>
          <note key="24" pan="0" pos="11760" vol="110" len="9"/>
          <note key="31" pan="0" pos="11772" vol="110" len="24"/>
          <note key="24" pan="0" pos="11772" vol="110" len="24"/>
          <note key="31" pan="0" pos="11796" vol="110" len="24"/>
          <note key="24" pan="0" pos="11796" vol="110" len="24"/>
          <note key="31" pan="0" pos="11820" vol="110" len="24"/>
          <note key="24" pan="0" pos="11820" vol="110" len="24"/>
          <note key="31" pan="0" pos="11844" vol="110" len="9"/>
          <note key="24" pan="0" pos="11844" vol="110" len="9"/>
          <note key="31" pan="0" pos="11856" vol="110" len="9"/>
          <note key="24" pan="0" pos="11856" vol="110" len="9"/>
          <note key="31" pan="0" pos="11868" vol="110" len="9"/>
          <note key="24" pan="0" pos="11868" vol="110" len="9"/>
          <note key="31" pan="0" pos="11880" vol="110" len="21"/>
          <note key="24" pan="0" pos="11880" vol="110" len="21"/>
          <note key="33" pan="0" pos="11904" vol="110" len="24"/>
          <note key="26" pan="0" pos="11904" vol="110" len="24"/>
          <note key="33" pan="0" pos="11928" vol="110" len="24"/>
          <note key="26" pan="0" pos="11928" vol="110" len="24"/>
          <note key="33" pan="0" pos="11952" vol="110" len="9"/>
          <note key="26" pan="0" pos="11952" vol="110" len="9"/>
          <note key="33" pan="0" pos="11964" vol="110" len="24"/>
          <note key="26" pan="0" pos="11964" vol="110" len="24"/>
          <note key="32" pan="0" pos="11988" vol="110" len="24"/>
          <note key="25" pan="0" pos="11988" vol="110" len="24"/>
          <note key="32" pan="0" pos="12012" vol="110" len="24"/>
          <note key="25" pan="0" pos="12012" vol="110" len="24"/>
          <note key="32" pan="0" pos="12036" vol="110" len="9"/>
          <note key="25" pan="0" pos="12036" vol="110" len="9"/>
          <note key="32" pan="0" pos="12048" vol="110" len="9"/>
          <note key="25" pan="0" pos="12048" vol="110" len="9"/>
          <note key="32" pan="0" pos="12060" vol="110" len="9"/>
          <note key="25" pan="0" pos="12060" vol="110" len="9"/>
          <note key="32" pan="0" pos="12072" vol="110" len="18"/>
          <note key="25" pan="0" pos="12072" vol="110" len="18"/>
          <note key="31" pan="0" pos="12096" vol="110" len="24"/>
          <note key="24" pan="0" pos="12096" vol="110" len="24"/>
          <note key="31" pan="0" pos="12120" vol="110" len="24"/>
          <note key="24" pan="0" pos="12120" vol="110" len="24"/>
          <note key="31" pan="0" pos="12144" vol="110" len="9"/>
          <note key="24" pan="0" pos="12144" vol="110" len="9"/>
          <note key="31" pan="0" pos="12156" vol="110" len="24"/>
          <note key="24" pan="0" pos="12156" vol="110" len="24"/>
          <note key="30" pan="0" pos="12180" vol="110" len="24"/>
          <note key="23" pan="0" pos="12180" vol="110" len="24"/>
          <note key="30" pan="0" pos="12204" vol="110" len="24"/>
          <note key="23" pan="0" pos="12204" vol="110" len="24"/>
          <note key="30" pan="0" pos="12228" vol="110" len="9"/>
          <note key="23" pan="0" pos="12228" vol="110" len="9"/>
          <note key="30" pan="0" pos="12240" vol="110" len="9"/>
          <note key="23" pan="0" pos="12240" vol="110" len="9"/>
          <note key="30" pan="0" pos="12252" vol="110" len="9"/>
          <note key="23" pan="0" pos="12252" vol="110" len="9"/>
          <note key="30" pan="0" pos="12264" vol="110" len="21"/>
          <note key="23" pan="0" pos="12264" vol="110" len="21"/>
          <note key="29" pan="0" pos="12288" vol="110" len="24"/>
          <note key="22" pan="0" pos="12288" vol="110" len="24"/>
          <note key="29" pan="0" pos="12312" vol="110" len="24"/>
          <note key="22" pan="0" pos="12312" vol="110" len="24"/>
          <note key="29" pan="0" pos="12336" vol="110" len="9"/>
          <note key="22" pan="0" pos="12336" vol="110" len="9"/>
          <note key="29" pan="0" pos="12348" vol="110" len="24"/>
          <note key="22" pan="0" pos="12348" vol="110" len="24"/>
          <note key="29" pan="0" pos="12372" vol="110" len="24"/>
          <note key="22" pan="0" pos="12372" vol="110" len="24"/>
          <note key="29" pan="0" pos="12396" vol="110" len="24"/>
          <note key="22" pan="0" pos="12396" vol="110" len="24"/>
          <note key="29" pan="0" pos="12420" vol="110" len="9"/>
          <note key="22" pan="0" pos="12420" vol="110" len="9"/>
          <note key="29" pan="0" pos="12432" vol="110" len="9"/>
          <note key="22" pan="0" pos="12432" vol="110" len="9"/>
          <note key="29" pan="0" pos="12444" vol="110" len="9"/>
          <note key="22" pan="0" pos="12444" vol="110" len="9"/>
          <note key="41" pan="0" pos="12456" vol="110" len="21"/>
          <note key="34" pan="0" pos="12456" vol="110" len="21"/>
          <note key="31" pan="0" pos="12480" vol="110" len="24"/>
          <note key="24" pan="0" pos="12480" vol="110" len="24"/>
          <note key="31" pan="0" pos="12504" vol="110" len="24"/>
          <note key="24" pan="0" pos="12504" vol="110" len="24"/>
          <note key="31" pan="0" pos="12528" vol="110" len="9"/>
          <note key="24" pan="0" pos="12528" vol="110" len="9"/>
          <note key="31" pan="0" pos="12540" vol="110" len="24"/>
          <note key="24" pan="0" pos="12540" vol="110" len="24"/>
          <note key="31" pan="0" pos="12564" vol="110" len="24"/>
          <note key="24" pan="0" pos="12564" vol="110" len="24"/>
          <note key="31" pan="0" pos="12588" vol="110" len="24"/>
          <note key="24" pan="0" pos="12588" vol="110" len="24"/>
          <note key="31" pan="0" pos="12612" vol="110" len="9"/>
          <note key="24" pan="0" pos="12612" vol="110" len="9"/>
          <note key="31" pan="0" pos="12624" vol="110" len="9"/>
          <note key="24" pan="0" pos="12624" vol="110" len="9"/>
          <note key="31" pan="0" pos="12636" vol="110" len="9"/>
          <note key="24" pan="0" pos="12636" vol="110" len="9"/>
          <note key="31" pan="0" pos="12648" vol="110" len="21"/>
          <note key="24" pan="0" pos="12648" vol="110" len="21"/>
          <note key="33" pan="0" pos="12672" vol="110" len="24"/>
          <note key="26" pan="0" pos="12672" vol="110" len="24"/>
          <note key="33" pan="0" pos="12696" vol="110" len="24"/>
          <note key="26" pan="0" pos="12696" vol="110" len="24"/>
          <note key="33" pan="0" pos="12720" vol="110" len="9"/>
          <note key="26" pan="0" pos="12720" vol="110" len="9"/>
          <note key="33" pan="0" pos="12732" vol="110" len="24"/>
          <note key="26" pan="0" pos="12732" vol="110" len="24"/>
          <note key="33" pan="0" pos="12756" vol="110" len="24"/>
          <note key="26" pan="0" pos="12756" vol="110" len="24"/>
          <note key="33" pan="0" pos="12780" vol="110" len="24"/>
          <note key="26" pan="0" pos="12780" vol="110" len="24"/>
          <note key="33" pan="0" pos="12804" vol="110" len="9"/>
          <note key="26" pan="0" pos="12804" vol="110" len="9"/>
          <note key="33" pan="0" pos="12816" vol="110" len="9"/>
          <note key="26" pan="0" pos="12816" vol="110" len="9"/>
          <note key="33" pan="0" pos="12828" vol="110" len="9"/>
          <note key="26" pan="0" pos="12828" vol="110" len="9"/>
          <note key="33" pan="0" pos="12840" vol="110" len="21"/>
          <note key="26" pan="0" pos="12840" vol="110" len="21"/>
          <note key="33" pan="0" pos="12864" vol="110" len="24"/>
          <note key="26" pan="0" pos="12864" vol="110" len="24"/>
          <note key="33" pan="0" pos="12888" vol="110" len="24"/>
          <note key="26" pan="0" pos="12888" vol="110" len="24"/>
          <note key="33" pan="0" pos="12912" vol="110" len="9"/>
          <note key="26" pan="0" pos="12912" vol="110" len="9"/>
          <note key="33" pan="0" pos="12924" vol="110" len="24"/>
          <note key="26" pan="0" pos="12924" vol="110" len="24"/>
          <note key="33" pan="0" pos="12948" vol="110" len="24"/>
          <note key="26" pan="0" pos="12948" vol="110" len="24"/>
          <note key="33" pan="0" pos="12972" vol="110" len="24"/>
          <note key="26" pan="0" pos="12972" vol="110" len="24"/>
          <note key="33" pan="0" pos="12996" vol="110" len="9"/>
          <note key="26" pan="0" pos="12996" vol="110" len="9"/>
          <note key="33" pan="0" pos="13008" vol="110" len="9"/>
          <note key="26" pan="0" pos="13008" vol="110" len="9"/>
          <note key="33" pan="0" pos="13020" vol="110" len="9"/>
          <note key="26" pan="0" pos="13020" vol="110" len="9"/>
          <note key="33" pan="0" pos="13032" vol="110" len="21"/>
          <note key="26" pan="0" pos="13032" vol="110" len="21"/>
        </pattern>
      </track>
      <track name="Untitled > Pitch" type="5" solo="0" muted="0">
        <automationtrack/>
        <automationpattern tens="1" mute="0" pos="960" name="Track 3>Pitch" prog="0" len="192">
          <time pos="0" value="-6.49414"/>
          <object id="29586"/>
        </automationpattern>
        <automationpattern tens="1" mute="0" pos="15936" name="Track 3>Pitch" prog="0" len="192">
          <time pos="0" value="-6.49414"/>
          <object id="29586"/>
        </automationpattern>
      </track>
      <track name="Track 4" type="0" solo="0" muted="0">
        <instrumenttrack fxch="0" basenote="57" pan="0" usemasterpitch="1" pitchrange="2">
          <vol scale_type="linear" id="10897" value="74.8031"/>
          <pitch scale_type="linear" id="4678" value="-6.49414"/>
          <instrument name="sf2player">
            <sf2player gain="1" src="C:/Users/cervi/Downloads/tmp/Layton_TC.sf2" reverbDamping="0" chorusOn="0" chorusSpeed="0.3" reverbOn="0" chorusNum="3" reverbLevel="0.9" chorusDepth="8" reverbWidth="0.5" bank="0" patch="26" reverbRoomSize="0.2" chorusLevel="2"/>
          </instrument>
          <eldata fwet="0" fres="0.5" fcut="14000" ftype="0">
            <elvol dec="0.5" lspd="0.1" hold="0.5" sustain="0.5" lshp="0" ctlenvamt="0" rel="0.1" userwavefile="" lamt="0" pdel="0" lspd_syncmode="0" lpdel="0" att="0" x100="0" lspd_numerator="4" lspd_denominator="4" amt="0" latt="0"/>
            <elcut dec="0.5" lspd="0.1" hold="0.5" sustain="0.5" lshp="0" ctlenvamt="0" rel="0.1" userwavefile="" lamt="0" pdel="0" lspd_syncmode="0" lpdel="0" att="0" x100="0" lspd_numerator="4" lspd_denominator="4" amt="0" latt="0"/>
            <elres dec="0.5" lspd="0.1" hold="0.5" sustain="0.5" lshp="0" ctlenvamt="0" rel="0.1" userwavefile="" lamt="0" pdel="0" lspd_syncmode="0" lpdel="0" att="0" x100="0" lspd_numerator="4" lspd_denominator="4" amt="0" latt="0"/>
          </eldata>
          <chordcreator chord="0" chordrange="1" chord-enabled="0"/>
          <arpeggiator arpcycle="0" arpgate="100" arp="0" arprange="1" arpdir="0" arp-enabled="0" arpskip="0" arptime_syncmode="0" arptime="200" arpmiss="0" arpmode="0" arptime_denominator="4" arptime_numerator="4"/>
          <midiport inputchannel="0" fixedoutputvelocity="-1" outputchannel="1" outputcontroller="0" writable="0" inputcontroller="0" fixedoutputnote="-1" outputprogram="1" basevelocity="63" fixedinputvelocity="-1" readable="0"/>
          <fxchain enabled="0" numofeffects="0"/>
        </instrumenttrack>
        <pattern steps="16" name="Track 4" pos="1728" type="1" muted="0">
          <note key="26" pan="0" pos="0" vol="157" len="12"/>
          <note key="26" pan="0" pos="24" vol="157" len="12"/>
          <note key="26" pan="0" pos="48" vol="157" len="12"/>
          <note key="26" pan="0" pos="60" vol="157" len="12"/>
          <note key="26" pan="0" pos="84" vol="157" len="12"/>
          <note key="26" pan="0" pos="108" vol="157" len="12"/>
          <note key="26" pan="0" pos="132" vol="157" len="12"/>
          <note key="26" pan="0" pos="144" vol="157" len="12"/>
          <note key="26" pan="0" pos="156" vol="157" len="12"/>
          <note key="26" pan="0" pos="168" vol="157" len="12"/>
          <note key="24" pan="0" pos="192" vol="157" len="12"/>
          <note key="24" pan="0" pos="216" vol="157" len="12"/>
          <note key="24" pan="0" pos="240" vol="157" len="12"/>
          <note key="24" pan="0" pos="252" vol="157" len="12"/>
          <note key="24" pan="0" pos="276" vol="157" len="12"/>
          <note key="24" pan="0" pos="300" vol="157" len="12"/>
          <note key="24" pan="0" pos="324" vol="157" len="12"/>
          <note key="24" pan="0" pos="336" vol="157" len="12"/>
          <note key="24" pan="0" pos="348" vol="157" len="12"/>
          <note key="24" pan="0" pos="360" vol="157" len="12"/>
          <note key="23" pan="0" pos="384" vol="157" len="12"/>
          <note key="23" pan="0" pos="408" vol="157" len="12"/>
          <note key="23" pan="0" pos="432" vol="157" len="12"/>
          <note key="23" pan="0" pos="444" vol="157" len="12"/>
          <note key="23" pan="0" pos="468" vol="157" len="12"/>
          <note key="23" pan="0" pos="492" vol="157" len="12"/>
          <note key="23" pan="0" pos="516" vol="157" len="12"/>
          <note key="23" pan="0" pos="528" vol="157" len="12"/>
          <note key="23" pan="0" pos="540" vol="157" len="12"/>
          <note key="23" pan="0" pos="552" vol="157" len="12"/>
          <note key="22" pan="0" pos="576" vol="157" len="12"/>
          <note key="22" pan="0" pos="600" vol="157" len="12"/>
          <note key="22" pan="0" pos="624" vol="157" len="12"/>
          <note key="22" pan="0" pos="636" vol="157" len="12"/>
          <note key="24" pan="0" pos="660" vol="157" len="12"/>
          <note key="24" pan="0" pos="684" vol="157" len="12"/>
          <note key="24" pan="0" pos="708" vol="157" len="12"/>
          <note key="24" pan="0" pos="720" vol="157" len="12"/>
          <note key="24" pan="0" pos="732" vol="157" len="12"/>
          <note key="24" pan="0" pos="744" vol="157" len="12"/>
          <note key="26" pan="0" pos="768" vol="157" len="12"/>
          <note key="26" pan="0" pos="792" vol="157" len="12"/>
          <note key="26" pan="0" pos="816" vol="157" len="12"/>
          <note key="26" pan="0" pos="828" vol="157" len="12"/>
          <note key="26" pan="0" pos="852" vol="157" len="12"/>
          <note key="26" pan="0" pos="876" vol="157" len="12"/>
          <note key="26" pan="0" pos="900" vol="157" len="12"/>
          <note key="26" pan="0" pos="912" vol="157" len="12"/>
          <note key="26" pan="0" pos="924" vol="157" len="12"/>
          <note key="26" pan="0" pos="936" vol="157" len="12"/>
          <note key="24" pan="0" pos="960" vol="157" len="12"/>
          <note key="24" pan="0" pos="984" vol="157" len="12"/>
          <note key="24" pan="0" pos="1008" vol="157" len="12"/>
          <note key="24" pan="0" pos="1020" vol="157" len="12"/>
          <note key="24" pan="0" pos="1044" vol="157" len="12"/>
          <note key="24" pan="0" pos="1068" vol="157" len="12"/>
          <note key="24" pan="0" pos="1092" vol="157" len="12"/>
          <note key="24" pan="0" pos="1104" vol="157" len="12"/>
          <note key="24" pan="0" pos="1116" vol="157" len="12"/>
          <note key="24" pan="0" pos="1128" vol="157" len="12"/>
          <note key="23" pan="0" pos="1152" vol="157" len="12"/>
          <note key="23" pan="0" pos="1176" vol="157" len="12"/>
          <note key="23" pan="0" pos="1200" vol="157" len="12"/>
          <note key="23" pan="0" pos="1212" vol="157" len="12"/>
          <note key="23" pan="0" pos="1236" vol="157" len="12"/>
          <note key="23" pan="0" pos="1260" vol="157" len="12"/>
          <note key="23" pan="0" pos="1284" vol="157" len="12"/>
          <note key="23" pan="0" pos="1296" vol="157" len="12"/>
          <note key="23" pan="0" pos="1308" vol="157" len="12"/>
          <note key="23" pan="0" pos="1320" vol="157" len="12"/>
          <note key="22" pan="0" pos="1344" vol="157" len="12"/>
          <note key="22" pan="0" pos="1368" vol="157" len="12"/>
          <note key="22" pan="0" pos="1392" vol="157" len="12"/>
          <note key="22" pan="0" pos="1404" vol="157" len="12"/>
          <note key="24" pan="0" pos="1428" vol="157" len="12"/>
          <note key="24" pan="0" pos="1452" vol="157" len="12"/>
          <note key="24" pan="0" pos="1476" vol="157" len="12"/>
          <note key="24" pan="0" pos="1488" vol="157" len="12"/>
          <note key="24" pan="0" pos="1500" vol="157" len="12"/>
          <note key="24" pan="0" pos="1512" vol="157" len="12"/>
          <note key="26" pan="0" pos="1536" vol="157" len="12"/>
          <note key="26" pan="0" pos="1560" vol="157" len="12"/>
          <note key="26" pan="0" pos="1584" vol="157" len="12"/>
          <note key="26" pan="0" pos="1596" vol="157" len="12"/>
          <note key="26" pan="0" pos="1620" vol="157" len="12"/>
          <note key="26" pan="0" pos="1644" vol="157" len="12"/>
          <note key="26" pan="0" pos="1668" vol="157" len="12"/>
          <note key="26" pan="0" pos="1680" vol="157" len="12"/>
          <note key="26" pan="0" pos="1692" vol="157" len="12"/>
          <note key="26" pan="0" pos="1704" vol="157" len="12"/>
          <note key="24" pan="0" pos="1728" vol="157" len="12"/>
          <note key="24" pan="0" pos="1752" vol="157" len="12"/>
          <note key="24" pan="0" pos="1776" vol="157" len="12"/>
          <note key="24" pan="0" pos="1788" vol="157" len="12"/>
          <note key="24" pan="0" pos="1812" vol="157" len="12"/>
          <note key="24" pan="0" pos="1836" vol="157" len="12"/>
          <note key="24" pan="0" pos="1860" vol="157" len="12"/>
          <note key="24" pan="0" pos="1872" vol="157" len="12"/>
          <note key="24" pan="0" pos="1884" vol="157" len="12"/>
          <note key="24" pan="0" pos="1896" vol="157" len="12"/>
          <note key="23" pan="0" pos="1920" vol="157" len="12"/>
          <note key="23" pan="0" pos="1944" vol="157" len="12"/>
          <note key="23" pan="0" pos="1968" vol="157" len="12"/>
          <note key="23" pan="0" pos="1980" vol="157" len="12"/>
          <note key="23" pan="0" pos="2004" vol="157" len="12"/>
          <note key="23" pan="0" pos="2028" vol="157" len="12"/>
          <note key="23" pan="0" pos="2052" vol="157" len="12"/>
          <note key="23" pan="0" pos="2064" vol="157" len="12"/>
          <note key="23" pan="0" pos="2076" vol="157" len="12"/>
          <note key="23" pan="0" pos="2088" vol="157" len="12"/>
          <note key="22" pan="0" pos="2112" vol="157" len="12"/>
          <note key="22" pan="0" pos="2136" vol="157" len="12"/>
          <note key="22" pan="0" pos="2160" vol="157" len="12"/>
          <note key="22" pan="0" pos="2172" vol="157" len="12"/>
          <note key="24" pan="0" pos="2196" vol="157" len="12"/>
          <note key="24" pan="0" pos="2220" vol="157" len="12"/>
          <note key="24" pan="0" pos="2244" vol="157" len="12"/>
          <note key="24" pan="0" pos="2256" vol="157" len="12"/>
          <note key="24" pan="0" pos="2268" vol="157" len="12"/>
          <note key="24" pan="0" pos="2280" vol="157" len="12"/>
          <note key="26" pan="0" pos="2304" vol="157" len="12"/>
          <note key="26" pan="0" pos="2328" vol="157" len="12"/>
          <note key="26" pan="0" pos="2352" vol="157" len="12"/>
          <note key="26" pan="0" pos="2364" vol="157" len="12"/>
          <note key="26" pan="0" pos="2388" vol="157" len="12"/>
          <note key="26" pan="0" pos="2412" vol="157" len="12"/>
          <note key="26" pan="0" pos="2436" vol="157" len="12"/>
          <note key="26" pan="0" pos="2448" vol="157" len="12"/>
          <note key="26" pan="0" pos="2460" vol="157" len="12"/>
          <note key="26" pan="0" pos="2472" vol="157" len="12"/>
          <note key="24" pan="0" pos="2496" vol="157" len="12"/>
          <note key="24" pan="0" pos="2520" vol="157" len="12"/>
          <note key="24" pan="0" pos="2544" vol="157" len="12"/>
          <note key="24" pan="0" pos="2556" vol="157" len="12"/>
          <note key="24" pan="0" pos="2580" vol="157" len="12"/>
          <note key="24" pan="0" pos="2604" vol="157" len="12"/>
          <note key="24" pan="0" pos="2628" vol="157" len="12"/>
          <note key="24" pan="0" pos="2640" vol="157" len="12"/>
          <note key="24" pan="0" pos="2652" vol="157" len="12"/>
          <note key="24" pan="0" pos="2664" vol="157" len="12"/>
          <note key="23" pan="0" pos="2688" vol="157" len="12"/>
          <note key="23" pan="0" pos="2712" vol="157" len="12"/>
          <note key="23" pan="0" pos="2736" vol="157" len="12"/>
          <note key="23" pan="0" pos="2748" vol="157" len="12"/>
          <note key="23" pan="0" pos="2772" vol="157" len="12"/>
          <note key="23" pan="0" pos="2796" vol="157" len="12"/>
          <note key="23" pan="0" pos="2820" vol="157" len="12"/>
          <note key="23" pan="0" pos="2832" vol="157" len="12"/>
          <note key="23" pan="0" pos="2844" vol="157" len="12"/>
          <note key="23" pan="0" pos="2856" vol="157" len="12"/>
          <note key="22" pan="0" pos="2880" vol="157" len="12"/>
          <note key="22" pan="0" pos="2904" vol="157" len="12"/>
          <note key="22" pan="0" pos="2928" vol="157" len="12"/>
          <note key="22" pan="0" pos="2940" vol="157" len="12"/>
          <note key="24" pan="0" pos="2964" vol="157" len="12"/>
          <note key="24" pan="0" pos="2988" vol="157" len="12"/>
          <note key="24" pan="0" pos="3012" vol="157" len="12"/>
          <note key="24" pan="0" pos="3024" vol="157" len="12"/>
          <note key="24" pan="0" pos="3036" vol="157" len="12"/>
          <note key="24" pan="0" pos="3048" vol="157" len="12"/>
          <note key="22" pan="0" pos="3072" vol="157" len="12"/>
          <note key="22" pan="0" pos="3096" vol="157" len="12"/>
          <note key="22" pan="0" pos="3120" vol="157" len="12"/>
          <note key="22" pan="0" pos="3132" vol="157" len="12"/>
          <note key="22" pan="0" pos="3156" vol="157" len="12"/>
          <note key="22" pan="0" pos="3180" vol="157" len="12"/>
          <note key="22" pan="0" pos="3204" vol="157" len="12"/>
          <note key="22" pan="0" pos="3216" vol="157" len="12"/>
          <note key="22" pan="0" pos="3228" vol="157" len="12"/>
          <note key="22" pan="0" pos="3240" vol="157" len="12"/>
          <note key="24" pan="0" pos="3264" vol="157" len="12"/>
          <note key="24" pan="0" pos="3288" vol="157" len="12"/>
          <note key="24" pan="0" pos="3312" vol="157" len="12"/>
          <note key="24" pan="0" pos="3324" vol="157" len="12"/>
          <note key="24" pan="0" pos="3348" vol="157" len="12"/>
          <note key="24" pan="0" pos="3372" vol="157" len="12"/>
          <note key="24" pan="0" pos="3396" vol="157" len="12"/>
          <note key="24" pan="0" pos="3408" vol="157" len="12"/>
          <note key="24" pan="0" pos="3420" vol="157" len="12"/>
          <note key="24" pan="0" pos="3432" vol="157" len="12"/>
          <note key="26" pan="0" pos="3456" vol="157" len="12"/>
          <note key="26" pan="0" pos="3480" vol="157" len="12"/>
          <note key="26" pan="0" pos="3504" vol="157" len="12"/>
          <note key="26" pan="0" pos="3516" vol="157" len="12"/>
          <note key="26" pan="0" pos="3540" vol="157" len="12"/>
          <note key="26" pan="0" pos="3564" vol="157" len="12"/>
          <note key="26" pan="0" pos="3588" vol="157" len="12"/>
          <note key="26" pan="0" pos="3600" vol="157" len="12"/>
          <note key="26" pan="0" pos="3612" vol="157" len="12"/>
          <note key="26" pan="0" pos="3624" vol="157" len="12"/>
          <note key="25" pan="0" pos="3648" vol="157" len="12"/>
          <note key="25" pan="0" pos="3672" vol="157" len="12"/>
          <note key="25" pan="0" pos="3696" vol="157" len="12"/>
          <note key="25" pan="0" pos="3708" vol="157" len="12"/>
          <note key="27" pan="0" pos="3732" vol="157" len="12"/>
          <note key="27" pan="0" pos="3756" vol="157" len="12"/>
          <note key="27" pan="0" pos="3780" vol="157" len="12"/>
          <note key="27" pan="0" pos="3792" vol="157" len="12"/>
          <note key="27" pan="0" pos="3804" vol="157" len="12"/>
          <note key="27" pan="0" pos="3816" vol="157" len="12"/>
          <note key="22" pan="0" pos="3840" vol="157" len="12"/>
          <note key="22" pan="0" pos="3864" vol="157" len="12"/>
          <note key="22" pan="0" pos="3888" vol="157" len="12"/>
          <note key="22" pan="0" pos="3900" vol="157" len="12"/>
          <note key="22" pan="0" pos="3924" vol="157" len="12"/>
          <note key="22" pan="0" pos="3948" vol="157" len="12"/>
          <note key="22" pan="0" pos="3972" vol="157" len="12"/>
          <note key="22" pan="0" pos="3984" vol="157" len="12"/>
          <note key="22" pan="0" pos="3996" vol="157" len="12"/>
          <note key="22" pan="0" pos="4008" vol="157" len="12"/>
          <note key="24" pan="0" pos="4032" vol="157" len="12"/>
          <note key="24" pan="0" pos="4056" vol="157" len="12"/>
          <note key="24" pan="0" pos="4080" vol="157" len="12"/>
          <note key="24" pan="0" pos="4092" vol="157" len="12"/>
          <note key="24" pan="0" pos="4116" vol="157" len="12"/>
          <note key="24" pan="0" pos="4140" vol="157" len="12"/>
          <note key="24" pan="0" pos="4164" vol="157" len="12"/>
          <note key="24" pan="0" pos="4176" vol="157" len="12"/>
          <note key="24" pan="0" pos="4188" vol="157" len="12"/>
          <note key="24" pan="0" pos="4200" vol="157" len="12"/>
          <note key="26" pan="0" pos="4224" vol="157" len="12"/>
          <note key="26" pan="0" pos="4248" vol="157" len="12"/>
          <note key="26" pan="0" pos="4272" vol="157" len="12"/>
          <note key="26" pan="0" pos="4284" vol="157" len="12"/>
          <note key="26" pan="0" pos="4308" vol="157" len="12"/>
          <note key="26" pan="0" pos="4332" vol="157" len="12"/>
          <note key="26" pan="0" pos="4356" vol="157" len="12"/>
          <note key="26" pan="0" pos="4368" vol="157" len="12"/>
          <note key="26" pan="0" pos="4380" vol="157" len="12"/>
          <note key="26" pan="0" pos="4392" vol="157" len="12"/>
          <note key="25" pan="0" pos="4416" vol="157" len="12"/>
          <note key="25" pan="0" pos="4440" vol="157" len="12"/>
          <note key="25" pan="0" pos="4464" vol="157" len="12"/>
          <note key="25" pan="0" pos="4476" vol="157" len="12"/>
          <note key="27" pan="0" pos="4500" vol="157" len="12"/>
          <note key="27" pan="0" pos="4524" vol="157" len="12"/>
          <note key="27" pan="0" pos="4548" vol="157" len="12"/>
          <note key="27" pan="0" pos="4560" vol="157" len="12"/>
          <note key="27" pan="0" pos="4572" vol="157" len="12"/>
          <note key="27" pan="0" pos="4584" vol="157" len="12"/>
          <note key="22" pan="0" pos="4608" vol="157" len="12"/>
          <note key="22" pan="0" pos="4632" vol="157" len="12"/>
          <note key="22" pan="0" pos="4656" vol="157" len="12"/>
          <note key="22" pan="0" pos="4668" vol="157" len="12"/>
          <note key="22" pan="0" pos="4692" vol="157" len="12"/>
          <note key="22" pan="0" pos="4716" vol="157" len="12"/>
          <note key="22" pan="0" pos="4740" vol="157" len="12"/>
          <note key="22" pan="0" pos="4752" vol="157" len="12"/>
          <note key="22" pan="0" pos="4764" vol="157" len="12"/>
          <note key="22" pan="0" pos="4776" vol="157" len="12"/>
          <note key="24" pan="0" pos="4800" vol="157" len="12"/>
          <note key="24" pan="0" pos="4824" vol="157" len="12"/>
          <note key="24" pan="0" pos="4848" vol="157" len="12"/>
          <note key="24" pan="0" pos="4860" vol="157" len="12"/>
          <note key="24" pan="0" pos="4884" vol="157" len="12"/>
          <note key="24" pan="0" pos="4908" vol="157" len="12"/>
          <note key="24" pan="0" pos="4932" vol="157" len="12"/>
          <note key="24" pan="0" pos="4944" vol="157" len="12"/>
          <note key="24" pan="0" pos="4956" vol="157" len="12"/>
          <note key="24" pan="0" pos="4968" vol="157" len="12"/>
          <note key="26" pan="0" pos="4992" vol="157" len="12"/>
          <note key="26" pan="0" pos="5016" vol="157" len="12"/>
          <note key="26" pan="0" pos="5040" vol="157" len="12"/>
          <note key="26" pan="0" pos="5052" vol="157" len="12"/>
          <note key="26" pan="0" pos="5076" vol="157" len="12"/>
          <note key="26" pan="0" pos="5100" vol="157" len="12"/>
          <note key="26" pan="0" pos="5124" vol="157" len="12"/>
          <note key="26" pan="0" pos="5136" vol="157" len="12"/>
          <note key="26" pan="0" pos="5148" vol="157" len="12"/>
          <note key="26" pan="0" pos="5160" vol="157" len="12"/>
          <note key="25" pan="0" pos="5184" vol="157" len="12"/>
          <note key="25" pan="0" pos="5208" vol="157" len="12"/>
          <note key="25" pan="0" pos="5232" vol="157" len="12"/>
          <note key="25" pan="0" pos="5244" vol="157" len="12"/>
          <note key="27" pan="0" pos="5268" vol="157" len="12"/>
          <note key="27" pan="0" pos="5292" vol="157" len="12"/>
          <note key="27" pan="0" pos="5316" vol="157" len="12"/>
          <note key="27" pan="0" pos="5328" vol="157" len="12"/>
          <note key="27" pan="0" pos="5340" vol="157" len="12"/>
          <note key="27" pan="0" pos="5352" vol="157" len="12"/>
          <note key="22" pan="0" pos="5376" vol="157" len="12"/>
          <note key="22" pan="0" pos="5400" vol="157" len="12"/>
          <note key="22" pan="0" pos="5424" vol="157" len="12"/>
          <note key="22" pan="0" pos="5436" vol="157" len="12"/>
          <note key="22" pan="0" pos="5460" vol="157" len="12"/>
          <note key="22" pan="0" pos="5484" vol="157" len="12"/>
          <note key="22" pan="0" pos="5508" vol="157" len="12"/>
          <note key="22" pan="0" pos="5520" vol="157" len="12"/>
          <note key="22" pan="0" pos="5532" vol="157" len="12"/>
          <note key="22" pan="0" pos="5544" vol="157" len="12"/>
          <note key="24" pan="0" pos="5568" vol="157" len="12"/>
          <note key="24" pan="0" pos="5592" vol="157" len="12"/>
          <note key="24" pan="0" pos="5616" vol="157" len="12"/>
          <note key="24" pan="0" pos="5628" vol="157" len="12"/>
          <note key="24" pan="0" pos="5652" vol="157" len="12"/>
          <note key="24" pan="0" pos="5676" vol="157" len="12"/>
          <note key="24" pan="0" pos="5700" vol="157" len="12"/>
          <note key="24" pan="0" pos="5712" vol="157" len="12"/>
          <note key="24" pan="0" pos="5724" vol="157" len="12"/>
          <note key="24" pan="0" pos="5736" vol="157" len="12"/>
          <note key="26" pan="0" pos="5760" vol="157" len="12"/>
          <note key="26" pan="0" pos="5784" vol="157" len="12"/>
          <note key="26" pan="0" pos="5808" vol="157" len="12"/>
          <note key="26" pan="0" pos="5820" vol="157" len="12"/>
          <note key="26" pan="0" pos="5844" vol="157" len="12"/>
          <note key="26" pan="0" pos="5868" vol="157" len="12"/>
          <note key="26" pan="0" pos="5892" vol="157" len="12"/>
          <note key="26" pan="0" pos="5904" vol="157" len="12"/>
          <note key="26" pan="0" pos="5916" vol="157" len="12"/>
          <note key="26" pan="0" pos="5928" vol="157" len="12"/>
          <note key="25" pan="0" pos="5952" vol="157" len="12"/>
          <note key="25" pan="0" pos="5976" vol="157" len="12"/>
          <note key="25" pan="0" pos="6000" vol="157" len="12"/>
          <note key="25" pan="0" pos="6012" vol="157" len="12"/>
          <note key="27" pan="0" pos="6036" vol="157" len="12"/>
          <note key="27" pan="0" pos="6060" vol="157" len="12"/>
          <note key="27" pan="0" pos="6084" vol="157" len="12"/>
          <note key="27" pan="0" pos="6096" vol="157" len="12"/>
          <note key="27" pan="0" pos="6108" vol="157" len="12"/>
          <note key="27" pan="0" pos="6120" vol="157" len="12"/>
          <note key="22" pan="0" pos="6144" vol="157" len="12"/>
          <note key="22" pan="0" pos="6168" vol="157" len="12"/>
          <note key="22" pan="0" pos="6192" vol="157" len="12"/>
          <note key="22" pan="0" pos="6204" vol="157" len="12"/>
          <note key="22" pan="0" pos="6228" vol="157" len="12"/>
          <note key="22" pan="0" pos="6252" vol="157" len="12"/>
          <note key="22" pan="0" pos="6276" vol="157" len="12"/>
          <note key="22" pan="0" pos="6288" vol="157" len="12"/>
          <note key="22" pan="0" pos="6300" vol="157" len="12"/>
          <note key="22" pan="0" pos="6312" vol="157" len="12"/>
          <note key="24" pan="0" pos="6336" vol="157" len="12"/>
          <note key="24" pan="0" pos="6360" vol="157" len="12"/>
          <note key="24" pan="0" pos="6384" vol="157" len="12"/>
          <note key="24" pan="0" pos="6396" vol="157" len="12"/>
          <note key="24" pan="0" pos="6420" vol="157" len="12"/>
          <note key="24" pan="0" pos="6444" vol="157" len="12"/>
          <note key="24" pan="0" pos="6468" vol="157" len="12"/>
          <note key="24" pan="0" pos="6480" vol="157" len="12"/>
          <note key="24" pan="0" pos="6492" vol="157" len="12"/>
          <note key="24" pan="0" pos="6504" vol="157" len="12"/>
          <note key="23" pan="0" pos="6528" vol="157" len="12"/>
          <note key="23" pan="0" pos="6552" vol="157" len="12"/>
          <note key="23" pan="0" pos="6576" vol="157" len="12"/>
          <note key="23" pan="0" pos="6588" vol="157" len="12"/>
          <note key="23" pan="0" pos="6612" vol="157" len="12"/>
          <note key="23" pan="0" pos="6636" vol="157" len="12"/>
          <note key="23" pan="0" pos="6660" vol="157" len="12"/>
          <note key="23" pan="0" pos="6672" vol="157" len="12"/>
          <note key="23" pan="0" pos="6684" vol="157" len="12"/>
          <note key="23" pan="0" pos="6696" vol="157" len="12"/>
          <note key="23" pan="0" pos="6720" vol="157" len="12"/>
          <note key="23" pan="0" pos="6744" vol="157" len="12"/>
          <note key="23" pan="0" pos="6768" vol="157" len="12"/>
          <note key="23" pan="0" pos="6780" vol="157" len="12"/>
          <note key="23" pan="0" pos="6804" vol="157" len="12"/>
          <note key="23" pan="0" pos="6828" vol="157" len="12"/>
          <note key="23" pan="0" pos="6852" vol="157" len="12"/>
          <note key="23" pan="0" pos="6864" vol="157" len="12"/>
          <note key="23" pan="0" pos="6876" vol="157" len="12"/>
          <note key="23" pan="0" pos="6888" vol="157" len="12"/>
          <note key="22" pan="0" pos="6912" vol="157" len="12"/>
          <note key="22" pan="0" pos="6936" vol="157" len="12"/>
          <note key="22" pan="0" pos="6960" vol="157" len="12"/>
          <note key="22" pan="0" pos="6972" vol="157" len="12"/>
          <note key="22" pan="0" pos="6996" vol="157" len="12"/>
          <note key="22" pan="0" pos="7020" vol="157" len="12"/>
          <note key="22" pan="0" pos="7044" vol="157" len="12"/>
          <note key="22" pan="0" pos="7056" vol="157" len="12"/>
          <note key="22" pan="0" pos="7068" vol="157" len="12"/>
          <note key="22" pan="0" pos="7080" vol="157" len="12"/>
          <note key="24" pan="0" pos="7104" vol="157" len="12"/>
          <note key="24" pan="0" pos="7128" vol="157" len="12"/>
          <note key="24" pan="0" pos="7152" vol="157" len="12"/>
          <note key="24" pan="0" pos="7164" vol="157" len="12"/>
          <note key="24" pan="0" pos="7188" vol="157" len="12"/>
          <note key="24" pan="0" pos="7212" vol="157" len="12"/>
          <note key="24" pan="0" pos="7236" vol="157" len="12"/>
          <note key="24" pan="0" pos="7248" vol="157" len="12"/>
          <note key="24" pan="0" pos="7260" vol="157" len="12"/>
          <note key="24" pan="0" pos="7272" vol="157" len="12"/>
          <note key="26" pan="0" pos="7296" vol="157" len="12"/>
          <note key="26" pan="0" pos="7320" vol="157" len="12"/>
          <note key="26" pan="0" pos="7344" vol="157" len="12"/>
          <note key="26" pan="0" pos="7356" vol="157" len="12"/>
          <note key="26" pan="0" pos="7380" vol="157" len="12"/>
          <note key="26" pan="0" pos="7404" vol="157" len="12"/>
          <note key="26" pan="0" pos="7428" vol="157" len="12"/>
          <note key="26" pan="0" pos="7440" vol="157" len="12"/>
          <note key="26" pan="0" pos="7452" vol="157" len="12"/>
          <note key="26" pan="0" pos="7464" vol="157" len="12"/>
          <note key="26" pan="0" pos="7488" vol="157" len="12"/>
          <note key="26" pan="0" pos="7512" vol="157" len="12"/>
          <note key="26" pan="0" pos="7536" vol="157" len="12"/>
          <note key="26" pan="0" pos="7548" vol="157" len="12"/>
          <note key="26" pan="0" pos="7572" vol="157" len="12"/>
          <note key="26" pan="0" pos="7596" vol="157" len="12"/>
          <note key="26" pan="0" pos="7620" vol="157" len="12"/>
          <note key="26" pan="0" pos="7632" vol="157" len="12"/>
          <note key="26" pan="0" pos="7644" vol="157" len="12"/>
          <note key="26" pan="0" pos="7656" vol="157" len="12"/>
          <note key="22" pan="0" pos="7680" vol="157" len="12"/>
          <note key="22" pan="0" pos="7704" vol="157" len="12"/>
          <note key="22" pan="0" pos="7728" vol="157" len="12"/>
          <note key="22" pan="0" pos="7740" vol="157" len="12"/>
          <note key="22" pan="0" pos="7764" vol="157" len="12"/>
          <note key="22" pan="0" pos="7788" vol="157" len="12"/>
          <note key="22" pan="0" pos="7812" vol="157" len="12"/>
          <note key="22" pan="0" pos="7824" vol="157" len="12"/>
          <note key="22" pan="0" pos="7836" vol="157" len="12"/>
          <note key="22" pan="0" pos="7848" vol="157" len="12"/>
          <note key="24" pan="0" pos="7872" vol="157" len="12"/>
          <note key="24" pan="0" pos="7896" vol="157" len="12"/>
          <note key="24" pan="0" pos="7920" vol="157" len="12"/>
          <note key="24" pan="0" pos="7932" vol="157" len="12"/>
          <note key="24" pan="0" pos="7956" vol="157" len="12"/>
          <note key="24" pan="0" pos="7980" vol="157" len="12"/>
          <note key="24" pan="0" pos="8004" vol="157" len="12"/>
          <note key="24" pan="0" pos="8016" vol="157" len="12"/>
          <note key="24" pan="0" pos="8028" vol="157" len="12"/>
          <note key="24" pan="0" pos="8040" vol="157" len="12"/>
          <note key="23" pan="0" pos="8064" vol="157" len="12"/>
          <note key="23" pan="0" pos="8088" vol="157" len="12"/>
          <note key="23" pan="0" pos="8112" vol="157" len="12"/>
          <note key="23" pan="0" pos="8124" vol="157" len="12"/>
          <note key="23" pan="0" pos="8148" vol="157" len="12"/>
          <note key="23" pan="0" pos="8172" vol="157" len="12"/>
          <note key="23" pan="0" pos="8196" vol="157" len="12"/>
          <note key="23" pan="0" pos="8208" vol="157" len="12"/>
          <note key="23" pan="0" pos="8220" vol="157" len="12"/>
          <note key="23" pan="0" pos="8232" vol="157" len="12"/>
          <note key="23" pan="0" pos="8256" vol="157" len="12"/>
          <note key="23" pan="0" pos="8280" vol="157" len="12"/>
          <note key="23" pan="0" pos="8304" vol="157" len="12"/>
          <note key="23" pan="0" pos="8316" vol="157" len="12"/>
          <note key="23" pan="0" pos="8340" vol="157" len="12"/>
          <note key="23" pan="0" pos="8364" vol="157" len="12"/>
          <note key="23" pan="0" pos="8388" vol="157" len="12"/>
          <note key="23" pan="0" pos="8400" vol="157" len="12"/>
          <note key="23" pan="0" pos="8412" vol="157" len="12"/>
          <note key="23" pan="0" pos="8424" vol="157" len="12"/>
          <note key="22" pan="0" pos="8448" vol="157" len="12"/>
          <note key="22" pan="0" pos="8472" vol="157" len="12"/>
          <note key="22" pan="0" pos="8496" vol="157" len="12"/>
          <note key="22" pan="0" pos="8508" vol="157" len="12"/>
          <note key="22" pan="0" pos="8532" vol="157" len="12"/>
          <note key="22" pan="0" pos="8556" vol="157" len="12"/>
          <note key="22" pan="0" pos="8580" vol="157" len="12"/>
          <note key="22" pan="0" pos="8592" vol="157" len="12"/>
          <note key="22" pan="0" pos="8604" vol="157" len="12"/>
          <note key="22" pan="0" pos="8616" vol="157" len="12"/>
          <note key="24" pan="0" pos="8640" vol="157" len="12"/>
          <note key="24" pan="0" pos="8664" vol="157" len="12"/>
          <note key="24" pan="0" pos="8688" vol="157" len="12"/>
          <note key="24" pan="0" pos="8700" vol="157" len="12"/>
          <note key="24" pan="0" pos="8724" vol="157" len="12"/>
          <note key="24" pan="0" pos="8748" vol="157" len="12"/>
          <note key="24" pan="0" pos="8772" vol="157" len="12"/>
          <note key="24" pan="0" pos="8784" vol="157" len="12"/>
          <note key="24" pan="0" pos="8796" vol="157" len="12"/>
          <note key="24" pan="0" pos="8808" vol="157" len="12"/>
          <note key="26" pan="0" pos="8832" vol="157" len="12"/>
          <note key="26" pan="0" pos="8856" vol="157" len="12"/>
          <note key="26" pan="0" pos="8880" vol="157" len="12"/>
          <note key="26" pan="0" pos="8892" vol="157" len="12"/>
          <note key="26" pan="0" pos="8916" vol="157" len="12"/>
          <note key="26" pan="0" pos="8940" vol="157" len="12"/>
          <note key="26" pan="0" pos="8964" vol="157" len="12"/>
          <note key="26" pan="0" pos="8976" vol="157" len="12"/>
          <note key="26" pan="0" pos="8988" vol="157" len="12"/>
          <note key="26" pan="0" pos="9000" vol="157" len="12"/>
          <note key="26" pan="0" pos="9024" vol="157" len="12"/>
          <note key="26" pan="0" pos="9048" vol="157" len="12"/>
          <note key="26" pan="0" pos="9072" vol="157" len="12"/>
          <note key="26" pan="0" pos="9084" vol="157" len="12"/>
          <note key="26" pan="0" pos="9108" vol="157" len="12"/>
          <note key="26" pan="0" pos="9132" vol="157" len="12"/>
          <note key="26" pan="0" pos="9156" vol="157" len="12"/>
          <note key="26" pan="0" pos="9168" vol="157" len="12"/>
          <note key="26" pan="0" pos="9180" vol="157" len="12"/>
          <note key="26" pan="0" pos="9192" vol="157" len="12"/>
          <note key="22" pan="0" pos="9216" vol="157" len="12"/>
          <note key="22" pan="0" pos="9240" vol="157" len="12"/>
          <note key="22" pan="0" pos="9264" vol="157" len="12"/>
          <note key="22" pan="0" pos="9276" vol="157" len="12"/>
          <note key="22" pan="0" pos="9300" vol="157" len="12"/>
          <note key="22" pan="0" pos="9324" vol="157" len="12"/>
          <note key="22" pan="0" pos="9348" vol="157" len="12"/>
          <note key="22" pan="0" pos="9360" vol="157" len="12"/>
          <note key="22" pan="0" pos="9372" vol="157" len="12"/>
          <note key="22" pan="0" pos="9384" vol="157" len="12"/>
          <note key="24" pan="0" pos="9408" vol="157" len="12"/>
          <note key="24" pan="0" pos="9432" vol="157" len="12"/>
          <note key="24" pan="0" pos="9456" vol="157" len="12"/>
          <note key="24" pan="0" pos="9468" vol="157" len="12"/>
          <note key="24" pan="0" pos="9492" vol="157" len="12"/>
          <note key="24" pan="0" pos="9516" vol="157" len="12"/>
          <note key="24" pan="0" pos="9540" vol="157" len="12"/>
          <note key="24" pan="0" pos="9552" vol="157" len="12"/>
          <note key="24" pan="0" pos="9564" vol="157" len="12"/>
          <note key="24" pan="0" pos="9576" vol="157" len="12"/>
          <note key="26" pan="0" pos="9600" vol="157" len="12"/>
          <note key="26" pan="0" pos="9624" vol="157" len="12"/>
          <note key="26" pan="0" pos="9648" vol="157" len="12"/>
          <note key="26" pan="0" pos="9660" vol="157" len="12"/>
          <note key="25" pan="0" pos="9684" vol="157" len="12"/>
          <note key="25" pan="0" pos="9708" vol="157" len="12"/>
          <note key="25" pan="0" pos="9732" vol="157" len="12"/>
          <note key="25" pan="0" pos="9744" vol="157" len="12"/>
          <note key="25" pan="0" pos="9756" vol="157" len="12"/>
          <note key="25" pan="0" pos="9768" vol="157" len="12"/>
          <note key="24" pan="0" pos="9792" vol="157" len="12"/>
          <note key="24" pan="0" pos="9816" vol="157" len="12"/>
          <note key="24" pan="0" pos="9840" vol="157" len="12"/>
          <note key="24" pan="0" pos="9852" vol="157" len="12"/>
          <note key="23" pan="0" pos="9876" vol="157" len="12"/>
          <note key="23" pan="0" pos="9900" vol="157" len="12"/>
          <note key="23" pan="0" pos="9924" vol="157" len="12"/>
          <note key="23" pan="0" pos="9936" vol="157" len="12"/>
          <note key="23" pan="0" pos="9948" vol="157" len="12"/>
          <note key="23" pan="0" pos="9960" vol="157" len="12"/>
          <note key="22" pan="0" pos="9984" vol="157" len="12"/>
          <note key="22" pan="0" pos="10008" vol="157" len="12"/>
          <note key="22" pan="0" pos="10032" vol="157" len="12"/>
          <note key="22" pan="0" pos="10044" vol="157" len="12"/>
          <note key="22" pan="0" pos="10068" vol="157" len="12"/>
          <note key="22" pan="0" pos="10092" vol="157" len="12"/>
          <note key="22" pan="0" pos="10116" vol="157" len="12"/>
          <note key="22" pan="0" pos="10128" vol="157" len="12"/>
          <note key="22" pan="0" pos="10140" vol="157" len="12"/>
          <note key="22" pan="0" pos="10152" vol="157" len="12"/>
          <note key="24" pan="0" pos="10176" vol="157" len="12"/>
          <note key="24" pan="0" pos="10200" vol="157" len="12"/>
          <note key="24" pan="0" pos="10224" vol="157" len="12"/>
          <note key="24" pan="0" pos="10236" vol="157" len="12"/>
          <note key="24" pan="0" pos="10260" vol="157" len="12"/>
          <note key="24" pan="0" pos="10284" vol="157" len="12"/>
          <note key="24" pan="0" pos="10308" vol="157" len="12"/>
          <note key="24" pan="0" pos="10320" vol="157" len="12"/>
          <note key="24" pan="0" pos="10332" vol="157" len="12"/>
          <note key="24" pan="0" pos="10344" vol="157" len="12"/>
          <note key="26" pan="0" pos="10368" vol="157" len="12"/>
          <note key="26" pan="0" pos="10392" vol="157" len="12"/>
          <note key="26" pan="0" pos="10416" vol="157" len="12"/>
          <note key="26" pan="0" pos="10428" vol="157" len="12"/>
          <note key="26" pan="0" pos="10452" vol="157" len="12"/>
          <note key="26" pan="0" pos="10476" vol="157" len="12"/>
          <note key="26" pan="0" pos="10500" vol="157" len="12"/>
          <note key="26" pan="0" pos="10512" vol="157" len="12"/>
          <note key="26" pan="0" pos="10524" vol="157" len="12"/>
          <note key="26" pan="0" pos="10536" vol="157" len="12"/>
          <note key="26" pan="0" pos="10560" vol="157" len="12"/>
          <note key="26" pan="0" pos="10584" vol="157" len="12"/>
          <note key="26" pan="0" pos="10608" vol="157" len="12"/>
          <note key="26" pan="0" pos="10620" vol="157" len="12"/>
          <note key="26" pan="0" pos="10644" vol="157" len="12"/>
          <note key="26" pan="0" pos="10668" vol="157" len="12"/>
          <note key="26" pan="0" pos="10692" vol="157" len="12"/>
          <note key="26" pan="0" pos="10704" vol="157" len="12"/>
          <note key="26" pan="0" pos="10716" vol="157" len="12"/>
          <note key="26" pan="0" pos="10728" vol="157" len="12"/>
          <note key="22" pan="0" pos="10752" vol="157" len="12"/>
          <note key="22" pan="0" pos="10776" vol="157" len="12"/>
          <note key="22" pan="0" pos="10800" vol="157" len="12"/>
          <note key="22" pan="0" pos="10812" vol="157" len="12"/>
          <note key="22" pan="0" pos="10836" vol="157" len="12"/>
          <note key="22" pan="0" pos="10860" vol="157" len="12"/>
          <note key="22" pan="0" pos="10884" vol="157" len="12"/>
          <note key="22" pan="0" pos="10896" vol="157" len="12"/>
          <note key="22" pan="0" pos="10908" vol="157" len="12"/>
          <note key="22" pan="0" pos="10920" vol="157" len="12"/>
          <note key="24" pan="0" pos="10944" vol="157" len="12"/>
          <note key="24" pan="0" pos="10968" vol="157" len="12"/>
          <note key="24" pan="0" pos="10992" vol="157" len="12"/>
          <note key="24" pan="0" pos="11004" vol="157" len="12"/>
          <note key="24" pan="0" pos="11028" vol="157" len="12"/>
          <note key="24" pan="0" pos="11052" vol="157" len="12"/>
          <note key="24" pan="0" pos="11076" vol="157" len="12"/>
          <note key="24" pan="0" pos="11088" vol="157" len="12"/>
          <note key="24" pan="0" pos="11100" vol="157" len="12"/>
          <note key="24" pan="0" pos="11112" vol="157" len="12"/>
          <note key="26" pan="0" pos="11136" vol="157" len="12"/>
          <note key="26" pan="0" pos="11160" vol="157" len="12"/>
          <note key="26" pan="0" pos="11184" vol="157" len="12"/>
          <note key="26" pan="0" pos="11196" vol="157" len="12"/>
          <note key="25" pan="0" pos="11220" vol="157" len="12"/>
          <note key="25" pan="0" pos="11244" vol="157" len="12"/>
          <note key="25" pan="0" pos="11268" vol="157" len="12"/>
          <note key="25" pan="0" pos="11280" vol="157" len="12"/>
          <note key="25" pan="0" pos="11292" vol="157" len="12"/>
          <note key="25" pan="0" pos="11304" vol="157" len="12"/>
          <note key="24" pan="0" pos="11328" vol="157" len="12"/>
          <note key="24" pan="0" pos="11352" vol="157" len="12"/>
          <note key="24" pan="0" pos="11376" vol="157" len="12"/>
          <note key="24" pan="0" pos="11388" vol="157" len="12"/>
          <note key="23" pan="0" pos="11412" vol="157" len="12"/>
          <note key="23" pan="0" pos="11436" vol="157" len="12"/>
          <note key="23" pan="0" pos="11460" vol="157" len="12"/>
          <note key="23" pan="0" pos="11472" vol="157" len="12"/>
          <note key="23" pan="0" pos="11484" vol="157" len="12"/>
          <note key="23" pan="0" pos="11496" vol="157" len="12"/>
          <note key="22" pan="0" pos="11520" vol="157" len="12"/>
          <note key="22" pan="0" pos="11544" vol="157" len="12"/>
          <note key="22" pan="0" pos="11568" vol="157" len="12"/>
          <note key="22" pan="0" pos="11580" vol="157" len="12"/>
          <note key="22" pan="0" pos="11604" vol="157" len="12"/>
          <note key="22" pan="0" pos="11628" vol="157" len="12"/>
          <note key="22" pan="0" pos="11652" vol="157" len="12"/>
          <note key="22" pan="0" pos="11664" vol="157" len="12"/>
          <note key="22" pan="0" pos="11676" vol="157" len="12"/>
          <note key="22" pan="0" pos="11688" vol="157" len="12"/>
          <note key="24" pan="0" pos="11712" vol="157" len="12"/>
          <note key="24" pan="0" pos="11736" vol="157" len="12"/>
          <note key="24" pan="0" pos="11760" vol="157" len="12"/>
          <note key="24" pan="0" pos="11772" vol="157" len="12"/>
          <note key="24" pan="0" pos="11796" vol="157" len="12"/>
          <note key="24" pan="0" pos="11820" vol="157" len="12"/>
          <note key="24" pan="0" pos="11844" vol="157" len="12"/>
          <note key="24" pan="0" pos="11856" vol="157" len="12"/>
          <note key="24" pan="0" pos="11868" vol="157" len="12"/>
          <note key="24" pan="0" pos="11880" vol="157" len="12"/>
          <note key="26" pan="0" pos="11904" vol="157" len="12"/>
          <note key="26" pan="0" pos="11928" vol="157" len="12"/>
          <note key="26" pan="0" pos="11952" vol="157" len="12"/>
          <note key="26" pan="0" pos="11964" vol="157" len="12"/>
          <note key="26" pan="0" pos="11988" vol="157" len="12"/>
          <note key="26" pan="0" pos="12012" vol="157" len="12"/>
          <note key="26" pan="0" pos="12036" vol="157" len="12"/>
          <note key="26" pan="0" pos="12048" vol="157" len="12"/>
          <note key="26" pan="0" pos="12060" vol="157" len="12"/>
          <note key="26" pan="0" pos="12072" vol="157" len="12"/>
          <note key="26" pan="0" pos="12096" vol="157" len="12"/>
          <note key="26" pan="0" pos="12120" vol="157" len="12"/>
          <note key="26" pan="0" pos="12144" vol="157" len="12"/>
          <note key="26" pan="0" pos="12156" vol="157" len="12"/>
          <note key="26" pan="0" pos="12180" vol="157" len="12"/>
          <note key="26" pan="0" pos="12204" vol="157" len="12"/>
          <note key="26" pan="0" pos="12228" vol="157" len="12"/>
          <note key="26" pan="0" pos="12240" vol="157" len="12"/>
          <note key="26" pan="0" pos="12252" vol="157" len="12"/>
          <note key="26" pan="0" pos="12264" vol="157" len="12"/>
        </pattern>
        <pattern steps="16" name="Track 4" pos="16704" type="1" muted="0">
          <note key="26" pan="0" pos="0" vol="157" len="12"/>
          <note key="26" pan="0" pos="24" vol="157" len="12"/>
          <note key="26" pan="0" pos="48" vol="157" len="12"/>
          <note key="26" pan="0" pos="60" vol="157" len="12"/>
          <note key="26" pan="0" pos="84" vol="157" len="12"/>
          <note key="26" pan="0" pos="108" vol="157" len="12"/>
          <note key="26" pan="0" pos="132" vol="157" len="12"/>
          <note key="26" pan="0" pos="144" vol="157" len="12"/>
          <note key="26" pan="0" pos="156" vol="157" len="12"/>
          <note key="26" pan="0" pos="168" vol="157" len="12"/>
          <note key="24" pan="0" pos="192" vol="157" len="12"/>
          <note key="24" pan="0" pos="216" vol="157" len="12"/>
          <note key="24" pan="0" pos="240" vol="157" len="12"/>
          <note key="24" pan="0" pos="252" vol="157" len="12"/>
          <note key="24" pan="0" pos="276" vol="157" len="12"/>
          <note key="24" pan="0" pos="300" vol="157" len="12"/>
          <note key="24" pan="0" pos="324" vol="157" len="12"/>
          <note key="24" pan="0" pos="336" vol="157" len="12"/>
          <note key="24" pan="0" pos="348" vol="157" len="12"/>
          <note key="24" pan="0" pos="360" vol="157" len="12"/>
          <note key="23" pan="0" pos="384" vol="157" len="12"/>
          <note key="23" pan="0" pos="408" vol="157" len="12"/>
          <note key="23" pan="0" pos="432" vol="157" len="12"/>
          <note key="23" pan="0" pos="444" vol="157" len="12"/>
          <note key="23" pan="0" pos="468" vol="157" len="12"/>
          <note key="23" pan="0" pos="492" vol="157" len="12"/>
          <note key="23" pan="0" pos="516" vol="157" len="12"/>
          <note key="23" pan="0" pos="528" vol="157" len="12"/>
          <note key="23" pan="0" pos="540" vol="157" len="12"/>
          <note key="23" pan="0" pos="552" vol="157" len="12"/>
          <note key="22" pan="0" pos="576" vol="157" len="12"/>
          <note key="22" pan="0" pos="600" vol="157" len="12"/>
          <note key="22" pan="0" pos="624" vol="157" len="12"/>
          <note key="22" pan="0" pos="636" vol="157" len="12"/>
          <note key="24" pan="0" pos="660" vol="157" len="12"/>
          <note key="24" pan="0" pos="684" vol="157" len="12"/>
          <note key="24" pan="0" pos="708" vol="157" len="12"/>
          <note key="24" pan="0" pos="720" vol="157" len="12"/>
          <note key="24" pan="0" pos="732" vol="157" len="12"/>
          <note key="24" pan="0" pos="744" vol="157" len="12"/>
          <note key="26" pan="0" pos="768" vol="157" len="12"/>
          <note key="26" pan="0" pos="792" vol="157" len="12"/>
          <note key="26" pan="0" pos="816" vol="157" len="12"/>
          <note key="26" pan="0" pos="828" vol="157" len="12"/>
          <note key="26" pan="0" pos="852" vol="157" len="12"/>
          <note key="26" pan="0" pos="876" vol="157" len="12"/>
          <note key="26" pan="0" pos="900" vol="157" len="12"/>
          <note key="26" pan="0" pos="912" vol="157" len="12"/>
          <note key="26" pan="0" pos="924" vol="157" len="12"/>
          <note key="26" pan="0" pos="936" vol="157" len="12"/>
          <note key="24" pan="0" pos="960" vol="157" len="12"/>
          <note key="24" pan="0" pos="984" vol="157" len="12"/>
          <note key="24" pan="0" pos="1008" vol="157" len="12"/>
          <note key="24" pan="0" pos="1020" vol="157" len="12"/>
          <note key="24" pan="0" pos="1044" vol="157" len="12"/>
          <note key="24" pan="0" pos="1068" vol="157" len="12"/>
          <note key="24" pan="0" pos="1092" vol="157" len="12"/>
          <note key="24" pan="0" pos="1104" vol="157" len="12"/>
          <note key="24" pan="0" pos="1116" vol="157" len="12"/>
          <note key="24" pan="0" pos="1128" vol="157" len="12"/>
          <note key="23" pan="0" pos="1152" vol="157" len="12"/>
          <note key="23" pan="0" pos="1176" vol="157" len="12"/>
          <note key="23" pan="0" pos="1200" vol="157" len="12"/>
          <note key="23" pan="0" pos="1212" vol="157" len="12"/>
          <note key="23" pan="0" pos="1236" vol="157" len="12"/>
          <note key="23" pan="0" pos="1260" vol="157" len="12"/>
          <note key="23" pan="0" pos="1284" vol="157" len="12"/>
          <note key="23" pan="0" pos="1296" vol="157" len="12"/>
          <note key="23" pan="0" pos="1308" vol="157" len="12"/>
          <note key="23" pan="0" pos="1320" vol="157" len="12"/>
          <note key="22" pan="0" pos="1344" vol="157" len="12"/>
          <note key="22" pan="0" pos="1368" vol="157" len="12"/>
          <note key="22" pan="0" pos="1392" vol="157" len="12"/>
          <note key="22" pan="0" pos="1404" vol="157" len="12"/>
          <note key="24" pan="0" pos="1428" vol="157" len="12"/>
          <note key="24" pan="0" pos="1452" vol="157" len="12"/>
          <note key="24" pan="0" pos="1476" vol="157" len="12"/>
          <note key="24" pan="0" pos="1488" vol="157" len="12"/>
          <note key="24" pan="0" pos="1500" vol="157" len="12"/>
          <note key="24" pan="0" pos="1512" vol="157" len="12"/>
          <note key="26" pan="0" pos="1536" vol="157" len="12"/>
          <note key="26" pan="0" pos="1560" vol="157" len="12"/>
          <note key="26" pan="0" pos="1584" vol="157" len="12"/>
          <note key="26" pan="0" pos="1596" vol="157" len="12"/>
          <note key="26" pan="0" pos="1620" vol="157" len="12"/>
          <note key="26" pan="0" pos="1644" vol="157" len="12"/>
          <note key="26" pan="0" pos="1668" vol="157" len="12"/>
          <note key="26" pan="0" pos="1680" vol="157" len="12"/>
          <note key="26" pan="0" pos="1692" vol="157" len="12"/>
          <note key="26" pan="0" pos="1704" vol="157" len="12"/>
          <note key="24" pan="0" pos="1728" vol="157" len="12"/>
          <note key="24" pan="0" pos="1752" vol="157" len="12"/>
          <note key="24" pan="0" pos="1776" vol="157" len="12"/>
          <note key="24" pan="0" pos="1788" vol="157" len="12"/>
          <note key="24" pan="0" pos="1812" vol="157" len="12"/>
          <note key="24" pan="0" pos="1836" vol="157" len="12"/>
          <note key="24" pan="0" pos="1860" vol="157" len="12"/>
          <note key="24" pan="0" pos="1872" vol="157" len="12"/>
          <note key="24" pan="0" pos="1884" vol="157" len="12"/>
          <note key="24" pan="0" pos="1896" vol="157" len="12"/>
          <note key="23" pan="0" pos="1920" vol="157" len="12"/>
          <note key="23" pan="0" pos="1944" vol="157" len="12"/>
          <note key="23" pan="0" pos="1968" vol="157" len="12"/>
          <note key="23" pan="0" pos="1980" vol="157" len="12"/>
          <note key="23" pan="0" pos="2004" vol="157" len="12"/>
          <note key="23" pan="0" pos="2028" vol="157" len="12"/>
          <note key="23" pan="0" pos="2052" vol="157" len="12"/>
          <note key="23" pan="0" pos="2064" vol="157" len="12"/>
          <note key="23" pan="0" pos="2076" vol="157" len="12"/>
          <note key="23" pan="0" pos="2088" vol="157" len="12"/>
          <note key="22" pan="0" pos="2112" vol="157" len="12"/>
          <note key="22" pan="0" pos="2136" vol="157" len="12"/>
          <note key="22" pan="0" pos="2160" vol="157" len="12"/>
          <note key="22" pan="0" pos="2172" vol="157" len="12"/>
          <note key="24" pan="0" pos="2196" vol="157" len="12"/>
          <note key="24" pan="0" pos="2220" vol="157" len="12"/>
          <note key="24" pan="0" pos="2244" vol="157" len="12"/>
          <note key="24" pan="0" pos="2256" vol="157" len="12"/>
          <note key="24" pan="0" pos="2268" vol="157" len="12"/>
          <note key="24" pan="0" pos="2280" vol="157" len="12"/>
          <note key="26" pan="0" pos="2304" vol="157" len="12"/>
          <note key="26" pan="0" pos="2328" vol="157" len="12"/>
          <note key="26" pan="0" pos="2352" vol="157" len="12"/>
          <note key="26" pan="0" pos="2364" vol="157" len="12"/>
          <note key="26" pan="0" pos="2388" vol="157" len="12"/>
          <note key="26" pan="0" pos="2412" vol="157" len="12"/>
          <note key="26" pan="0" pos="2436" vol="157" len="12"/>
          <note key="26" pan="0" pos="2448" vol="157" len="12"/>
          <note key="26" pan="0" pos="2460" vol="157" len="12"/>
          <note key="26" pan="0" pos="2472" vol="157" len="12"/>
          <note key="24" pan="0" pos="2496" vol="157" len="12"/>
          <note key="24" pan="0" pos="2520" vol="157" len="12"/>
          <note key="24" pan="0" pos="2544" vol="157" len="12"/>
          <note key="24" pan="0" pos="2556" vol="157" len="12"/>
          <note key="24" pan="0" pos="2580" vol="157" len="12"/>
          <note key="24" pan="0" pos="2604" vol="157" len="12"/>
          <note key="24" pan="0" pos="2628" vol="157" len="12"/>
          <note key="24" pan="0" pos="2640" vol="157" len="12"/>
          <note key="24" pan="0" pos="2652" vol="157" len="12"/>
          <note key="24" pan="0" pos="2664" vol="157" len="12"/>
          <note key="23" pan="0" pos="2688" vol="157" len="12"/>
          <note key="23" pan="0" pos="2712" vol="157" len="12"/>
          <note key="23" pan="0" pos="2736" vol="157" len="12"/>
          <note key="23" pan="0" pos="2748" vol="157" len="12"/>
          <note key="23" pan="0" pos="2772" vol="157" len="12"/>
          <note key="23" pan="0" pos="2796" vol="157" len="12"/>
          <note key="23" pan="0" pos="2820" vol="157" len="12"/>
          <note key="23" pan="0" pos="2832" vol="157" len="12"/>
          <note key="23" pan="0" pos="2844" vol="157" len="12"/>
          <note key="23" pan="0" pos="2856" vol="157" len="12"/>
          <note key="22" pan="0" pos="2880" vol="157" len="12"/>
          <note key="22" pan="0" pos="2904" vol="157" len="12"/>
          <note key="22" pan="0" pos="2928" vol="157" len="12"/>
          <note key="22" pan="0" pos="2940" vol="157" len="12"/>
          <note key="24" pan="0" pos="2964" vol="157" len="12"/>
          <note key="24" pan="0" pos="2988" vol="157" len="12"/>
          <note key="24" pan="0" pos="3012" vol="157" len="12"/>
          <note key="24" pan="0" pos="3024" vol="157" len="12"/>
          <note key="24" pan="0" pos="3036" vol="157" len="12"/>
          <note key="24" pan="0" pos="3048" vol="157" len="12"/>
          <note key="22" pan="0" pos="3072" vol="157" len="12"/>
          <note key="22" pan="0" pos="3096" vol="157" len="12"/>
          <note key="22" pan="0" pos="3120" vol="157" len="12"/>
          <note key="22" pan="0" pos="3132" vol="157" len="12"/>
          <note key="22" pan="0" pos="3156" vol="157" len="12"/>
          <note key="22" pan="0" pos="3180" vol="157" len="12"/>
          <note key="22" pan="0" pos="3204" vol="157" len="12"/>
          <note key="22" pan="0" pos="3216" vol="157" len="12"/>
          <note key="22" pan="0" pos="3228" vol="157" len="12"/>
          <note key="22" pan="0" pos="3240" vol="157" len="12"/>
          <note key="24" pan="0" pos="3264" vol="157" len="12"/>
          <note key="24" pan="0" pos="3288" vol="157" len="12"/>
          <note key="24" pan="0" pos="3312" vol="157" len="12"/>
          <note key="24" pan="0" pos="3324" vol="157" len="12"/>
          <note key="24" pan="0" pos="3348" vol="157" len="12"/>
          <note key="24" pan="0" pos="3372" vol="157" len="12"/>
          <note key="24" pan="0" pos="3396" vol="157" len="12"/>
          <note key="24" pan="0" pos="3408" vol="157" len="12"/>
          <note key="24" pan="0" pos="3420" vol="157" len="12"/>
          <note key="24" pan="0" pos="3432" vol="157" len="12"/>
          <note key="26" pan="0" pos="3456" vol="157" len="12"/>
          <note key="26" pan="0" pos="3480" vol="157" len="12"/>
          <note key="26" pan="0" pos="3504" vol="157" len="12"/>
          <note key="26" pan="0" pos="3516" vol="157" len="12"/>
          <note key="26" pan="0" pos="3540" vol="157" len="12"/>
          <note key="26" pan="0" pos="3564" vol="157" len="12"/>
          <note key="26" pan="0" pos="3588" vol="157" len="12"/>
          <note key="26" pan="0" pos="3600" vol="157" len="12"/>
          <note key="26" pan="0" pos="3612" vol="157" len="12"/>
          <note key="26" pan="0" pos="3624" vol="157" len="12"/>
          <note key="25" pan="0" pos="3648" vol="157" len="12"/>
          <note key="25" pan="0" pos="3672" vol="157" len="12"/>
          <note key="25" pan="0" pos="3696" vol="157" len="12"/>
          <note key="25" pan="0" pos="3708" vol="157" len="12"/>
          <note key="27" pan="0" pos="3732" vol="157" len="12"/>
          <note key="27" pan="0" pos="3756" vol="157" len="12"/>
          <note key="27" pan="0" pos="3780" vol="157" len="12"/>
          <note key="27" pan="0" pos="3792" vol="157" len="12"/>
          <note key="27" pan="0" pos="3804" vol="157" len="12"/>
          <note key="27" pan="0" pos="3816" vol="157" len="12"/>
          <note key="22" pan="0" pos="3840" vol="157" len="12"/>
          <note key="22" pan="0" pos="3864" vol="157" len="12"/>
          <note key="22" pan="0" pos="3888" vol="157" len="12"/>
          <note key="22" pan="0" pos="3900" vol="157" len="12"/>
          <note key="22" pan="0" pos="3924" vol="157" len="12"/>
          <note key="22" pan="0" pos="3948" vol="157" len="12"/>
          <note key="22" pan="0" pos="3972" vol="157" len="12"/>
          <note key="22" pan="0" pos="3984" vol="157" len="12"/>
          <note key="22" pan="0" pos="3996" vol="157" len="12"/>
          <note key="22" pan="0" pos="4008" vol="157" len="12"/>
          <note key="24" pan="0" pos="4032" vol="157" len="12"/>
          <note key="24" pan="0" pos="4056" vol="157" len="12"/>
          <note key="24" pan="0" pos="4080" vol="157" len="12"/>
          <note key="24" pan="0" pos="4092" vol="157" len="12"/>
          <note key="24" pan="0" pos="4116" vol="157" len="12"/>
          <note key="24" pan="0" pos="4140" vol="157" len="12"/>
          <note key="24" pan="0" pos="4164" vol="157" len="12"/>
          <note key="24" pan="0" pos="4176" vol="157" len="12"/>
          <note key="24" pan="0" pos="4188" vol="157" len="12"/>
          <note key="24" pan="0" pos="4200" vol="157" len="12"/>
          <note key="26" pan="0" pos="4224" vol="157" len="12"/>
          <note key="26" pan="0" pos="4248" vol="157" len="12"/>
          <note key="26" pan="0" pos="4272" vol="157" len="12"/>
          <note key="26" pan="0" pos="4284" vol="157" len="12"/>
          <note key="26" pan="0" pos="4308" vol="157" len="12"/>
          <note key="26" pan="0" pos="4332" vol="157" len="12"/>
          <note key="26" pan="0" pos="4356" vol="157" len="12"/>
          <note key="26" pan="0" pos="4368" vol="157" len="12"/>
          <note key="26" pan="0" pos="4380" vol="157" len="12"/>
          <note key="26" pan="0" pos="4392" vol="157" len="12"/>
          <note key="25" pan="0" pos="4416" vol="157" len="12"/>
          <note key="25" pan="0" pos="4440" vol="157" len="12"/>
          <note key="25" pan="0" pos="4464" vol="157" len="12"/>
          <note key="25" pan="0" pos="4476" vol="157" len="12"/>
          <note key="27" pan="0" pos="4500" vol="157" len="12"/>
          <note key="27" pan="0" pos="4524" vol="157" len="12"/>
          <note key="27" pan="0" pos="4548" vol="157" len="12"/>
          <note key="27" pan="0" pos="4560" vol="157" len="12"/>
          <note key="27" pan="0" pos="4572" vol="157" len="12"/>
          <note key="27" pan="0" pos="4584" vol="157" len="12"/>
          <note key="22" pan="0" pos="4608" vol="157" len="12"/>
          <note key="22" pan="0" pos="4632" vol="157" len="12"/>
          <note key="22" pan="0" pos="4656" vol="157" len="12"/>
          <note key="22" pan="0" pos="4668" vol="157" len="12"/>
          <note key="22" pan="0" pos="4692" vol="157" len="12"/>
          <note key="22" pan="0" pos="4716" vol="157" len="12"/>
          <note key="22" pan="0" pos="4740" vol="157" len="12"/>
          <note key="22" pan="0" pos="4752" vol="157" len="12"/>
          <note key="22" pan="0" pos="4764" vol="157" len="12"/>
          <note key="22" pan="0" pos="4776" vol="157" len="12"/>
          <note key="24" pan="0" pos="4800" vol="157" len="12"/>
          <note key="24" pan="0" pos="4824" vol="157" len="12"/>
          <note key="24" pan="0" pos="4848" vol="157" len="12"/>
          <note key="24" pan="0" pos="4860" vol="157" len="12"/>
          <note key="24" pan="0" pos="4884" vol="157" len="12"/>
          <note key="24" pan="0" pos="4908" vol="157" len="12"/>
          <note key="24" pan="0" pos="4932" vol="157" len="12"/>
          <note key="24" pan="0" pos="4944" vol="157" len="12"/>
          <note key="24" pan="0" pos="4956" vol="157" len="12"/>
          <note key="24" pan="0" pos="4968" vol="157" len="12"/>
          <note key="26" pan="0" pos="4992" vol="157" len="12"/>
          <note key="26" pan="0" pos="5016" vol="157" len="12"/>
          <note key="26" pan="0" pos="5040" vol="157" len="12"/>
          <note key="26" pan="0" pos="5052" vol="157" len="12"/>
          <note key="26" pan="0" pos="5076" vol="157" len="12"/>
          <note key="26" pan="0" pos="5100" vol="157" len="12"/>
          <note key="26" pan="0" pos="5124" vol="157" len="12"/>
          <note key="26" pan="0" pos="5136" vol="157" len="12"/>
          <note key="26" pan="0" pos="5148" vol="157" len="12"/>
          <note key="26" pan="0" pos="5160" vol="157" len="12"/>
          <note key="25" pan="0" pos="5184" vol="157" len="12"/>
          <note key="25" pan="0" pos="5208" vol="157" len="12"/>
          <note key="25" pan="0" pos="5232" vol="157" len="12"/>
          <note key="25" pan="0" pos="5244" vol="157" len="12"/>
          <note key="27" pan="0" pos="5268" vol="157" len="12"/>
          <note key="27" pan="0" pos="5292" vol="157" len="12"/>
          <note key="27" pan="0" pos="5316" vol="157" len="12"/>
          <note key="27" pan="0" pos="5328" vol="157" len="12"/>
          <note key="27" pan="0" pos="5340" vol="157" len="12"/>
          <note key="27" pan="0" pos="5352" vol="157" len="12"/>
          <note key="22" pan="0" pos="5376" vol="157" len="12"/>
          <note key="22" pan="0" pos="5400" vol="157" len="12"/>
          <note key="22" pan="0" pos="5424" vol="157" len="12"/>
          <note key="22" pan="0" pos="5436" vol="157" len="12"/>
          <note key="22" pan="0" pos="5460" vol="157" len="12"/>
          <note key="22" pan="0" pos="5484" vol="157" len="12"/>
          <note key="22" pan="0" pos="5508" vol="157" len="12"/>
          <note key="22" pan="0" pos="5520" vol="157" len="12"/>
          <note key="22" pan="0" pos="5532" vol="157" len="12"/>
          <note key="22" pan="0" pos="5544" vol="157" len="12"/>
          <note key="24" pan="0" pos="5568" vol="157" len="12"/>
          <note key="24" pan="0" pos="5592" vol="157" len="12"/>
          <note key="24" pan="0" pos="5616" vol="157" len="12"/>
          <note key="24" pan="0" pos="5628" vol="157" len="12"/>
          <note key="24" pan="0" pos="5652" vol="157" len="12"/>
          <note key="24" pan="0" pos="5676" vol="157" len="12"/>
          <note key="24" pan="0" pos="5700" vol="157" len="12"/>
          <note key="24" pan="0" pos="5712" vol="157" len="12"/>
          <note key="24" pan="0" pos="5724" vol="157" len="12"/>
          <note key="24" pan="0" pos="5736" vol="157" len="12"/>
          <note key="26" pan="0" pos="5760" vol="157" len="12"/>
          <note key="26" pan="0" pos="5784" vol="157" len="12"/>
          <note key="26" pan="0" pos="5808" vol="157" len="12"/>
          <note key="26" pan="0" pos="5820" vol="157" len="12"/>
          <note key="26" pan="0" pos="5844" vol="157" len="12"/>
          <note key="26" pan="0" pos="5868" vol="157" len="12"/>
          <note key="26" pan="0" pos="5892" vol="157" len="12"/>
          <note key="26" pan="0" pos="5904" vol="157" len="12"/>
          <note key="26" pan="0" pos="5916" vol="157" len="12"/>
          <note key="26" pan="0" pos="5928" vol="157" len="12"/>
          <note key="25" pan="0" pos="5952" vol="157" len="12"/>
          <note key="25" pan="0" pos="5976" vol="157" len="12"/>
          <note key="25" pan="0" pos="6000" vol="157" len="12"/>
          <note key="25" pan="0" pos="6012" vol="157" len="12"/>
          <note key="27" pan="0" pos="6036" vol="157" len="12"/>
          <note key="27" pan="0" pos="6060" vol="157" len="12"/>
          <note key="27" pan="0" pos="6084" vol="157" len="12"/>
          <note key="27" pan="0" pos="6096" vol="157" len="12"/>
          <note key="27" pan="0" pos="6108" vol="157" len="12"/>
          <note key="27" pan="0" pos="6120" vol="157" len="12"/>
          <note key="22" pan="0" pos="6144" vol="157" len="12"/>
          <note key="22" pan="0" pos="6168" vol="157" len="12"/>
          <note key="22" pan="0" pos="6192" vol="157" len="12"/>
          <note key="22" pan="0" pos="6204" vol="157" len="12"/>
          <note key="22" pan="0" pos="6228" vol="157" len="12"/>
          <note key="22" pan="0" pos="6252" vol="157" len="12"/>
          <note key="22" pan="0" pos="6276" vol="157" len="12"/>
          <note key="22" pan="0" pos="6288" vol="157" len="12"/>
          <note key="22" pan="0" pos="6300" vol="157" len="12"/>
          <note key="22" pan="0" pos="6312" vol="157" len="12"/>
          <note key="24" pan="0" pos="6336" vol="157" len="12"/>
          <note key="24" pan="0" pos="6360" vol="157" len="12"/>
          <note key="24" pan="0" pos="6384" vol="157" len="12"/>
          <note key="24" pan="0" pos="6396" vol="157" len="12"/>
          <note key="24" pan="0" pos="6420" vol="157" len="12"/>
          <note key="24" pan="0" pos="6444" vol="157" len="12"/>
          <note key="24" pan="0" pos="6468" vol="157" len="12"/>
          <note key="24" pan="0" pos="6480" vol="157" len="12"/>
          <note key="24" pan="0" pos="6492" vol="157" len="12"/>
          <note key="24" pan="0" pos="6504" vol="157" len="12"/>
          <note key="23" pan="0" pos="6528" vol="157" len="12"/>
          <note key="23" pan="0" pos="6552" vol="157" len="12"/>
          <note key="23" pan="0" pos="6576" vol="157" len="12"/>
          <note key="23" pan="0" pos="6588" vol="157" len="12"/>
          <note key="23" pan="0" pos="6612" vol="157" len="12"/>
          <note key="23" pan="0" pos="6636" vol="157" len="12"/>
          <note key="23" pan="0" pos="6660" vol="157" len="12"/>
          <note key="23" pan="0" pos="6672" vol="157" len="12"/>
          <note key="23" pan="0" pos="6684" vol="157" len="12"/>
          <note key="23" pan="0" pos="6696" vol="157" len="12"/>
          <note key="23" pan="0" pos="6720" vol="157" len="12"/>
          <note key="23" pan="0" pos="6744" vol="157" len="12"/>
          <note key="23" pan="0" pos="6768" vol="157" len="12"/>
          <note key="23" pan="0" pos="6780" vol="157" len="12"/>
          <note key="23" pan="0" pos="6804" vol="157" len="12"/>
          <note key="23" pan="0" pos="6828" vol="157" len="12"/>
          <note key="23" pan="0" pos="6852" vol="157" len="12"/>
          <note key="23" pan="0" pos="6864" vol="157" len="12"/>
          <note key="23" pan="0" pos="6876" vol="157" len="12"/>
          <note key="23" pan="0" pos="6888" vol="157" len="12"/>
          <note key="22" pan="0" pos="6912" vol="157" len="12"/>
          <note key="22" pan="0" pos="6936" vol="157" len="12"/>
          <note key="22" pan="0" pos="6960" vol="157" len="12"/>
          <note key="22" pan="0" pos="6972" vol="157" len="12"/>
          <note key="22" pan="0" pos="6996" vol="157" len="12"/>
          <note key="22" pan="0" pos="7020" vol="157" len="12"/>
          <note key="22" pan="0" pos="7044" vol="157" len="12"/>
          <note key="22" pan="0" pos="7056" vol="157" len="12"/>
          <note key="22" pan="0" pos="7068" vol="157" len="12"/>
          <note key="22" pan="0" pos="7080" vol="157" len="12"/>
          <note key="24" pan="0" pos="7104" vol="157" len="12"/>
          <note key="24" pan="0" pos="7128" vol="157" len="12"/>
          <note key="24" pan="0" pos="7152" vol="157" len="12"/>
          <note key="24" pan="0" pos="7164" vol="157" len="12"/>
          <note key="24" pan="0" pos="7188" vol="157" len="12"/>
          <note key="24" pan="0" pos="7212" vol="157" len="12"/>
          <note key="24" pan="0" pos="7236" vol="157" len="12"/>
          <note key="24" pan="0" pos="7248" vol="157" len="12"/>
          <note key="24" pan="0" pos="7260" vol="157" len="12"/>
          <note key="24" pan="0" pos="7272" vol="157" len="12"/>
          <note key="26" pan="0" pos="7296" vol="157" len="12"/>
          <note key="26" pan="0" pos="7320" vol="157" len="12"/>
          <note key="26" pan="0" pos="7344" vol="157" len="12"/>
          <note key="26" pan="0" pos="7356" vol="157" len="12"/>
          <note key="26" pan="0" pos="7380" vol="157" len="12"/>
          <note key="26" pan="0" pos="7404" vol="157" len="12"/>
          <note key="26" pan="0" pos="7428" vol="157" len="12"/>
          <note key="26" pan="0" pos="7440" vol="157" len="12"/>
          <note key="26" pan="0" pos="7452" vol="157" len="12"/>
          <note key="26" pan="0" pos="7464" vol="157" len="12"/>
          <note key="26" pan="0" pos="7488" vol="157" len="12"/>
          <note key="26" pan="0" pos="7512" vol="157" len="12"/>
          <note key="26" pan="0" pos="7536" vol="157" len="12"/>
          <note key="26" pan="0" pos="7548" vol="157" len="12"/>
          <note key="26" pan="0" pos="7572" vol="157" len="12"/>
          <note key="26" pan="0" pos="7596" vol="157" len="12"/>
          <note key="26" pan="0" pos="7620" vol="157" len="12"/>
          <note key="26" pan="0" pos="7632" vol="157" len="12"/>
          <note key="26" pan="0" pos="7644" vol="157" len="12"/>
          <note key="26" pan="0" pos="7656" vol="157" len="12"/>
          <note key="22" pan="0" pos="7680" vol="157" len="12"/>
          <note key="22" pan="0" pos="7704" vol="157" len="12"/>
          <note key="22" pan="0" pos="7728" vol="157" len="12"/>
          <note key="22" pan="0" pos="7740" vol="157" len="12"/>
          <note key="22" pan="0" pos="7764" vol="157" len="12"/>
          <note key="22" pan="0" pos="7788" vol="157" len="12"/>
          <note key="22" pan="0" pos="7812" vol="157" len="12"/>
          <note key="22" pan="0" pos="7824" vol="157" len="12"/>
          <note key="22" pan="0" pos="7836" vol="157" len="12"/>
          <note key="22" pan="0" pos="7848" vol="157" len="12"/>
          <note key="24" pan="0" pos="7872" vol="157" len="12"/>
          <note key="24" pan="0" pos="7896" vol="157" len="12"/>
          <note key="24" pan="0" pos="7920" vol="157" len="12"/>
          <note key="24" pan="0" pos="7932" vol="157" len="12"/>
          <note key="24" pan="0" pos="7956" vol="157" len="12"/>
          <note key="24" pan="0" pos="7980" vol="157" len="12"/>
          <note key="24" pan="0" pos="8004" vol="157" len="12"/>
          <note key="24" pan="0" pos="8016" vol="157" len="12"/>
          <note key="24" pan="0" pos="8028" vol="157" len="12"/>
          <note key="24" pan="0" pos="8040" vol="157" len="12"/>
          <note key="23" pan="0" pos="8064" vol="157" len="12"/>
          <note key="23" pan="0" pos="8088" vol="157" len="12"/>
          <note key="23" pan="0" pos="8112" vol="157" len="12"/>
          <note key="23" pan="0" pos="8124" vol="157" len="12"/>
          <note key="23" pan="0" pos="8148" vol="157" len="12"/>
          <note key="23" pan="0" pos="8172" vol="157" len="12"/>
          <note key="23" pan="0" pos="8196" vol="157" len="12"/>
          <note key="23" pan="0" pos="8208" vol="157" len="12"/>
          <note key="23" pan="0" pos="8220" vol="157" len="12"/>
          <note key="23" pan="0" pos="8232" vol="157" len="12"/>
          <note key="23" pan="0" pos="8256" vol="157" len="12"/>
          <note key="23" pan="0" pos="8280" vol="157" len="12"/>
          <note key="23" pan="0" pos="8304" vol="157" len="12"/>
          <note key="23" pan="0" pos="8316" vol="157" len="12"/>
          <note key="23" pan="0" pos="8340" vol="157" len="12"/>
          <note key="23" pan="0" pos="8364" vol="157" len="12"/>
          <note key="23" pan="0" pos="8388" vol="157" len="12"/>
          <note key="23" pan="0" pos="8400" vol="157" len="12"/>
          <note key="23" pan="0" pos="8412" vol="157" len="12"/>
          <note key="23" pan="0" pos="8424" vol="157" len="12"/>
          <note key="22" pan="0" pos="8448" vol="157" len="12"/>
          <note key="22" pan="0" pos="8472" vol="157" len="12"/>
          <note key="22" pan="0" pos="8496" vol="157" len="12"/>
          <note key="22" pan="0" pos="8508" vol="157" len="12"/>
          <note key="22" pan="0" pos="8532" vol="157" len="12"/>
          <note key="22" pan="0" pos="8556" vol="157" len="12"/>
          <note key="22" pan="0" pos="8580" vol="157" len="12"/>
          <note key="22" pan="0" pos="8592" vol="157" len="12"/>
          <note key="22" pan="0" pos="8604" vol="157" len="12"/>
          <note key="22" pan="0" pos="8616" vol="157" len="12"/>
          <note key="24" pan="0" pos="8640" vol="157" len="12"/>
          <note key="24" pan="0" pos="8664" vol="157" len="12"/>
          <note key="24" pan="0" pos="8688" vol="157" len="12"/>
          <note key="24" pan="0" pos="8700" vol="157" len="12"/>
          <note key="24" pan="0" pos="8724" vol="157" len="12"/>
          <note key="24" pan="0" pos="8748" vol="157" len="12"/>
          <note key="24" pan="0" pos="8772" vol="157" len="12"/>
          <note key="24" pan="0" pos="8784" vol="157" len="12"/>
          <note key="24" pan="0" pos="8796" vol="157" len="12"/>
          <note key="24" pan="0" pos="8808" vol="157" len="12"/>
          <note key="26" pan="0" pos="8832" vol="157" len="12"/>
          <note key="26" pan="0" pos="8856" vol="157" len="12"/>
          <note key="26" pan="0" pos="8880" vol="157" len="12"/>
          <note key="26" pan="0" pos="8892" vol="157" len="12"/>
          <note key="26" pan="0" pos="8916" vol="157" len="12"/>
          <note key="26" pan="0" pos="8940" vol="157" len="12"/>
          <note key="26" pan="0" pos="8964" vol="157" len="12"/>
          <note key="26" pan="0" pos="8976" vol="157" len="12"/>
          <note key="26" pan="0" pos="8988" vol="157" len="12"/>
          <note key="26" pan="0" pos="9000" vol="157" len="12"/>
          <note key="26" pan="0" pos="9024" vol="157" len="12"/>
          <note key="26" pan="0" pos="9048" vol="157" len="12"/>
          <note key="26" pan="0" pos="9072" vol="157" len="12"/>
          <note key="26" pan="0" pos="9084" vol="157" len="12"/>
          <note key="26" pan="0" pos="9108" vol="157" len="12"/>
          <note key="26" pan="0" pos="9132" vol="157" len="12"/>
          <note key="26" pan="0" pos="9156" vol="157" len="12"/>
          <note key="26" pan="0" pos="9168" vol="157" len="12"/>
          <note key="26" pan="0" pos="9180" vol="157" len="12"/>
          <note key="26" pan="0" pos="9192" vol="157" len="12"/>
          <note key="22" pan="0" pos="9216" vol="157" len="12"/>
          <note key="22" pan="0" pos="9240" vol="157" len="12"/>
          <note key="22" pan="0" pos="9264" vol="157" len="12"/>
          <note key="22" pan="0" pos="9276" vol="157" len="12"/>
          <note key="22" pan="0" pos="9300" vol="157" len="12"/>
          <note key="22" pan="0" pos="9324" vol="157" len="12"/>
          <note key="22" pan="0" pos="9348" vol="157" len="12"/>
          <note key="22" pan="0" pos="9360" vol="157" len="12"/>
          <note key="22" pan="0" pos="9372" vol="157" len="12"/>
          <note key="22" pan="0" pos="9384" vol="157" len="12"/>
          <note key="24" pan="0" pos="9408" vol="157" len="12"/>
          <note key="24" pan="0" pos="9432" vol="157" len="12"/>
          <note key="24" pan="0" pos="9456" vol="157" len="12"/>
          <note key="24" pan="0" pos="9468" vol="157" len="12"/>
          <note key="24" pan="0" pos="9492" vol="157" len="12"/>
          <note key="24" pan="0" pos="9516" vol="157" len="12"/>
          <note key="24" pan="0" pos="9540" vol="157" len="12"/>
          <note key="24" pan="0" pos="9552" vol="157" len="12"/>
          <note key="24" pan="0" pos="9564" vol="157" len="12"/>
          <note key="24" pan="0" pos="9576" vol="157" len="12"/>
          <note key="26" pan="0" pos="9600" vol="157" len="12"/>
          <note key="26" pan="0" pos="9624" vol="157" len="12"/>
          <note key="26" pan="0" pos="9648" vol="157" len="12"/>
          <note key="26" pan="0" pos="9660" vol="157" len="12"/>
          <note key="25" pan="0" pos="9684" vol="157" len="12"/>
          <note key="25" pan="0" pos="9708" vol="157" len="12"/>
          <note key="25" pan="0" pos="9732" vol="157" len="12"/>
          <note key="25" pan="0" pos="9744" vol="157" len="12"/>
          <note key="25" pan="0" pos="9756" vol="157" len="12"/>
          <note key="25" pan="0" pos="9768" vol="157" len="12"/>
          <note key="24" pan="0" pos="9792" vol="157" len="12"/>
          <note key="24" pan="0" pos="9816" vol="157" len="12"/>
          <note key="24" pan="0" pos="9840" vol="157" len="12"/>
          <note key="24" pan="0" pos="9852" vol="157" len="12"/>
          <note key="23" pan="0" pos="9876" vol="157" len="12"/>
          <note key="23" pan="0" pos="9900" vol="157" len="12"/>
          <note key="23" pan="0" pos="9924" vol="157" len="12"/>
          <note key="23" pan="0" pos="9936" vol="157" len="12"/>
          <note key="23" pan="0" pos="9948" vol="157" len="12"/>
          <note key="23" pan="0" pos="9960" vol="157" len="12"/>
          <note key="22" pan="0" pos="9984" vol="157" len="12"/>
          <note key="22" pan="0" pos="10008" vol="157" len="12"/>
          <note key="22" pan="0" pos="10032" vol="157" len="12"/>
          <note key="22" pan="0" pos="10044" vol="157" len="12"/>
          <note key="22" pan="0" pos="10068" vol="157" len="12"/>
          <note key="22" pan="0" pos="10092" vol="157" len="12"/>
          <note key="22" pan="0" pos="10116" vol="157" len="12"/>
          <note key="22" pan="0" pos="10128" vol="157" len="12"/>
          <note key="22" pan="0" pos="10140" vol="157" len="12"/>
          <note key="22" pan="0" pos="10152" vol="157" len="12"/>
          <note key="24" pan="0" pos="10176" vol="157" len="12"/>
          <note key="24" pan="0" pos="10200" vol="157" len="12"/>
          <note key="24" pan="0" pos="10224" vol="157" len="12"/>
          <note key="24" pan="0" pos="10236" vol="157" len="12"/>
          <note key="24" pan="0" pos="10260" vol="157" len="12"/>
          <note key="24" pan="0" pos="10284" vol="157" len="12"/>
          <note key="24" pan="0" pos="10308" vol="157" len="12"/>
          <note key="24" pan="0" pos="10320" vol="157" len="12"/>
          <note key="24" pan="0" pos="10332" vol="157" len="12"/>
          <note key="24" pan="0" pos="10344" vol="157" len="12"/>
          <note key="26" pan="0" pos="10368" vol="157" len="12"/>
          <note key="26" pan="0" pos="10392" vol="157" len="12"/>
          <note key="26" pan="0" pos="10416" vol="157" len="12"/>
          <note key="26" pan="0" pos="10428" vol="157" len="12"/>
          <note key="26" pan="0" pos="10452" vol="157" len="12"/>
          <note key="26" pan="0" pos="10476" vol="157" len="12"/>
          <note key="26" pan="0" pos="10500" vol="157" len="12"/>
          <note key="26" pan="0" pos="10512" vol="157" len="12"/>
          <note key="26" pan="0" pos="10524" vol="157" len="12"/>
          <note key="26" pan="0" pos="10536" vol="157" len="12"/>
          <note key="26" pan="0" pos="10560" vol="157" len="12"/>
          <note key="26" pan="0" pos="10584" vol="157" len="12"/>
          <note key="26" pan="0" pos="10608" vol="157" len="12"/>
          <note key="26" pan="0" pos="10620" vol="157" len="12"/>
          <note key="26" pan="0" pos="10644" vol="157" len="12"/>
          <note key="26" pan="0" pos="10668" vol="157" len="12"/>
          <note key="26" pan="0" pos="10692" vol="157" len="12"/>
          <note key="26" pan="0" pos="10704" vol="157" len="12"/>
          <note key="26" pan="0" pos="10716" vol="157" len="12"/>
          <note key="26" pan="0" pos="10728" vol="157" len="12"/>
          <note key="22" pan="0" pos="10752" vol="157" len="12"/>
          <note key="22" pan="0" pos="10776" vol="157" len="12"/>
          <note key="22" pan="0" pos="10800" vol="157" len="12"/>
          <note key="22" pan="0" pos="10812" vol="157" len="12"/>
          <note key="22" pan="0" pos="10836" vol="157" len="12"/>
          <note key="22" pan="0" pos="10860" vol="157" len="12"/>
          <note key="22" pan="0" pos="10884" vol="157" len="12"/>
          <note key="22" pan="0" pos="10896" vol="157" len="12"/>
          <note key="22" pan="0" pos="10908" vol="157" len="12"/>
          <note key="22" pan="0" pos="10920" vol="157" len="12"/>
          <note key="24" pan="0" pos="10944" vol="157" len="12"/>
          <note key="24" pan="0" pos="10968" vol="157" len="12"/>
          <note key="24" pan="0" pos="10992" vol="157" len="12"/>
          <note key="24" pan="0" pos="11004" vol="157" len="12"/>
          <note key="24" pan="0" pos="11028" vol="157" len="12"/>
          <note key="24" pan="0" pos="11052" vol="157" len="12"/>
          <note key="24" pan="0" pos="11076" vol="157" len="12"/>
          <note key="24" pan="0" pos="11088" vol="157" len="12"/>
          <note key="24" pan="0" pos="11100" vol="157" len="12"/>
          <note key="24" pan="0" pos="11112" vol="157" len="12"/>
          <note key="26" pan="0" pos="11136" vol="157" len="12"/>
          <note key="26" pan="0" pos="11160" vol="157" len="12"/>
          <note key="26" pan="0" pos="11184" vol="157" len="12"/>
          <note key="26" pan="0" pos="11196" vol="157" len="12"/>
          <note key="25" pan="0" pos="11220" vol="157" len="12"/>
          <note key="25" pan="0" pos="11244" vol="157" len="12"/>
          <note key="25" pan="0" pos="11268" vol="157" len="12"/>
          <note key="25" pan="0" pos="11280" vol="157" len="12"/>
          <note key="25" pan="0" pos="11292" vol="157" len="12"/>
          <note key="25" pan="0" pos="11304" vol="157" len="12"/>
          <note key="24" pan="0" pos="11328" vol="157" len="12"/>
          <note key="24" pan="0" pos="11352" vol="157" len="12"/>
          <note key="24" pan="0" pos="11376" vol="157" len="12"/>
          <note key="24" pan="0" pos="11388" vol="157" len="12"/>
          <note key="23" pan="0" pos="11412" vol="157" len="12"/>
          <note key="23" pan="0" pos="11436" vol="157" len="12"/>
          <note key="23" pan="0" pos="11460" vol="157" len="12"/>
          <note key="23" pan="0" pos="11472" vol="157" len="12"/>
          <note key="23" pan="0" pos="11484" vol="157" len="12"/>
          <note key="23" pan="0" pos="11496" vol="157" len="12"/>
          <note key="22" pan="0" pos="11520" vol="157" len="12"/>
          <note key="22" pan="0" pos="11544" vol="157" len="12"/>
          <note key="22" pan="0" pos="11568" vol="157" len="12"/>
          <note key="22" pan="0" pos="11580" vol="157" len="12"/>
          <note key="22" pan="0" pos="11604" vol="157" len="12"/>
          <note key="22" pan="0" pos="11628" vol="157" len="12"/>
          <note key="22" pan="0" pos="11652" vol="157" len="12"/>
          <note key="22" pan="0" pos="11664" vol="157" len="12"/>
          <note key="22" pan="0" pos="11676" vol="157" len="12"/>
          <note key="22" pan="0" pos="11688" vol="157" len="12"/>
          <note key="24" pan="0" pos="11712" vol="157" len="12"/>
          <note key="24" pan="0" pos="11736" vol="157" len="12"/>
          <note key="24" pan="0" pos="11760" vol="157" len="12"/>
          <note key="24" pan="0" pos="11772" vol="157" len="12"/>
          <note key="24" pan="0" pos="11796" vol="157" len="12"/>
          <note key="24" pan="0" pos="11820" vol="157" len="12"/>
          <note key="24" pan="0" pos="11844" vol="157" len="12"/>
          <note key="24" pan="0" pos="11856" vol="157" len="12"/>
          <note key="24" pan="0" pos="11868" vol="157" len="12"/>
          <note key="24" pan="0" pos="11880" vol="157" len="12"/>
          <note key="26" pan="0" pos="11904" vol="157" len="12"/>
          <note key="26" pan="0" pos="11928" vol="157" len="12"/>
          <note key="26" pan="0" pos="11952" vol="157" len="12"/>
          <note key="26" pan="0" pos="11964" vol="157" len="12"/>
          <note key="26" pan="0" pos="11988" vol="157" len="12"/>
          <note key="26" pan="0" pos="12012" vol="157" len="12"/>
          <note key="26" pan="0" pos="12036" vol="157" len="12"/>
          <note key="26" pan="0" pos="12048" vol="157" len="12"/>
          <note key="26" pan="0" pos="12060" vol="157" len="12"/>
          <note key="26" pan="0" pos="12072" vol="157" len="12"/>
          <note key="26" pan="0" pos="12096" vol="157" len="12"/>
          <note key="26" pan="0" pos="12120" vol="157" len="12"/>
          <note key="26" pan="0" pos="12144" vol="157" len="12"/>
          <note key="26" pan="0" pos="12156" vol="157" len="12"/>
          <note key="26" pan="0" pos="12180" vol="157" len="12"/>
          <note key="26" pan="0" pos="12204" vol="157" len="12"/>
          <note key="26" pan="0" pos="12228" vol="157" len="12"/>
          <note key="26" pan="0" pos="12240" vol="157" len="12"/>
          <note key="26" pan="0" pos="12252" vol="157" len="12"/>
          <note key="26" pan="0" pos="12264" vol="157" len="12"/>
        </pattern>
      </track>
      <track name="Untitled > Pitch" type="5" solo="0" muted="0">
        <automationtrack/>
        <automationpattern tens="1" mute="0" pos="1728" name="Track 4>Pitch" prog="0" len="192">
          <time pos="0" value="-6.49414"/>
          <object id="4678"/>
        </automationpattern>
        <automationpattern tens="1" mute="0" pos="16704" name="Track 4>Pitch" prog="0" len="192">
          <time pos="0" value="-6.49414"/>
          <object id="4678"/>
        </automationpattern>
      </track>
      <track name="Untitled > Volume" type="5" solo="0" muted="0">
        <automationtrack/>
        <automationpattern tens="1" mute="0" pos="1728" name="Track 4>Volume" prog="0" len="192">
          <time pos="0" value="74.8031"/>
          <object id="10897"/>
        </automationpattern>
        <automationpattern tens="1" mute="0" pos="16704" name="Track 4>Volume" prog="0" len="192">
          <time pos="0" value="74.8031"/>
          <object id="10897"/>
        </automationpattern>
      </track>
      <track name="Track 5" type="0" solo="0" muted="0">
        <instrumenttrack fxch="0" basenote="57" usemasterpitch="1" pitchrange="2">
          <vol scale_type="linear" id="6465" value="74.8031"/>
          <pan scale_type="linear" id="9263" value="-19.685"/>
          <pitch scale_type="linear" id="2550" value="-6.49414"/>
          <instrument name="sf2player">
            <sf2player gain="1" src="C:/Users/cervi/Downloads/tmp/Layton_TC.sf2" reverbDamping="0" chorusOn="0" chorusSpeed="0.3" reverbOn="0" chorusNum="3" reverbLevel="0.9" chorusDepth="8" reverbWidth="0.5" bank="0" patch="122" reverbRoomSize="0.2" chorusLevel="2"/>
          </instrument>
          <eldata fwet="0" fres="0.5" fcut="14000" ftype="0">
            <elvol dec="0.5" lspd="0.1" hold="0.5" sustain="0.5" lshp="0" ctlenvamt="0" rel="0.1" userwavefile="" lamt="0" pdel="0" lspd_syncmode="0" lpdel="0" att="0" x100="0" lspd_numerator="4" lspd_denominator="4" amt="0" latt="0"/>
            <elcut dec="0.5" lspd="0.1" hold="0.5" sustain="0.5" lshp="0" ctlenvamt="0" rel="0.1" userwavefile="" lamt="0" pdel="0" lspd_syncmode="0" lpdel="0" att="0" x100="0" lspd_numerator="4" lspd_denominator="4" amt="0" latt="0"/>
            <elres dec="0.5" lspd="0.1" hold="0.5" sustain="0.5" lshp="0" ctlenvamt="0" rel="0.1" userwavefile="" lamt="0" pdel="0" lspd_syncmode="0" lpdel="0" att="0" x100="0" lspd_numerator="4" lspd_denominator="4" amt="0" latt="0"/>
          </eldata>
          <chordcreator chord="0" chordrange="1" chord-enabled="0"/>
          <arpeggiator arpcycle="0" arpgate="100" arp="0" arprange="1" arpdir="0" arp-enabled="0" arpskip="0" arptime_syncmode="0" arptime="200" arpmiss="0" arpmode="0" arptime_denominator="4" arptime_numerator="4"/>
          <midiport inputchannel="0" fixedoutputvelocity="-1" outputchannel="1" outputcontroller="0" writable="0" inputcontroller="0" fixedoutputnote="-1" outputprogram="1" basevelocity="63" fixedinputvelocity="-1" readable="0"/>
          <fxchain enabled="0" numofeffects="0"/>
        </instrumenttrack>
        <pattern steps="16" name="Track 5" pos="960" type="1" muted="0">
          <note key="62" pan="0" pos="0" vol="78" len="192"/>
          <note key="50" pan="0" pos="0" vol="78" len="192"/>
          <note key="60" pan="0" pos="192" vol="78" len="192"/>
          <note key="48" pan="0" pos="192" vol="78" len="192"/>
          <note key="59" pan="0" pos="384" vol="78" len="192"/>
          <note key="47" pan="0" pos="384" vol="78" len="192"/>
          <note key="58" pan="0" pos="576" vol="78" len="84"/>
          <note key="46" pan="0" pos="576" vol="78" len="84"/>
          <note key="60" pan="0" pos="660" vol="78" len="108"/>
          <note key="48" pan="0" pos="660" vol="78" len="108"/>
          <note key="62" pan="0" pos="768" vol="78" len="192"/>
          <note key="50" pan="0" pos="768" vol="78" len="192"/>
          <note key="60" pan="0" pos="960" vol="78" len="192"/>
          <note key="48" pan="0" pos="960" vol="78" len="192"/>
          <note key="59" pan="0" pos="1152" vol="78" len="192"/>
          <note key="47" pan="0" pos="1152" vol="78" len="192"/>
          <note key="58" pan="0" pos="1344" vol="78" len="84"/>
          <note key="46" pan="0" pos="1344" vol="78" len="84"/>
          <note key="60" pan="0" pos="1428" vol="78" len="108"/>
          <note key="48" pan="0" pos="1428" vol="78" len="108"/>
          <note key="62" pan="0" pos="1536" vol="78" len="192"/>
          <note key="50" pan="0" pos="1536" vol="78" len="192"/>
          <note key="60" pan="0" pos="1728" vol="78" len="192"/>
          <note key="48" pan="0" pos="1728" vol="78" len="192"/>
          <note key="59" pan="0" pos="1920" vol="78" len="192"/>
          <note key="47" pan="0" pos="1920" vol="78" len="192"/>
          <note key="58" pan="0" pos="2112" vol="78" len="84"/>
          <note key="46" pan="0" pos="2112" vol="78" len="84"/>
          <note key="60" pan="0" pos="2196" vol="78" len="108"/>
          <note key="48" pan="0" pos="2196" vol="78" len="108"/>
        </pattern>
        <pattern steps="16" name="Track 5" pos="4032" type="1" muted="0">
          <note key="62" pan="0" pos="0" vol="78" len="192"/>
          <note key="50" pan="0" pos="0" vol="78" len="192"/>
          <note key="60" pan="0" pos="192" vol="78" len="192"/>
          <note key="48" pan="0" pos="192" vol="78" len="192"/>
          <note key="59" pan="0" pos="384" vol="78" len="192"/>
          <note key="47" pan="0" pos="384" vol="78" len="192"/>
          <note key="58" pan="0" pos="576" vol="78" len="84"/>
          <note key="46" pan="0" pos="576" vol="78" len="84"/>
          <note key="60" pan="0" pos="660" vol="78" len="108"/>
          <note key="48" pan="0" pos="660" vol="78" len="108"/>
          <note key="58" pan="0" pos="768" vol="78" len="192"/>
          <note key="46" pan="0" pos="768" vol="78" len="192"/>
          <note key="60" pan="0" pos="960" vol="78" len="192"/>
          <note key="48" pan="0" pos="960" vol="78" len="192"/>
          <note key="62" pan="0" pos="1152" vol="78" len="192"/>
          <note key="50" pan="0" pos="1152" vol="78" len="192"/>
          <note key="61" pan="0" pos="1344" vol="78" len="84"/>
          <note key="49" pan="0" pos="1344" vol="78" len="84"/>
          <note key="63" pan="0" pos="1428" vol="78" len="108"/>
          <note key="51" pan="0" pos="1428" vol="78" len="108"/>
          <note key="58" pan="0" pos="1536" vol="78" len="192"/>
          <note key="46" pan="0" pos="1536" vol="78" len="192"/>
          <note key="60" pan="0" pos="1728" vol="78" len="192"/>
          <note key="48" pan="0" pos="1728" vol="78" len="192"/>
          <note key="62" pan="0" pos="1920" vol="78" len="192"/>
          <note key="50" pan="0" pos="1920" vol="78" len="192"/>
          <note key="61" pan="0" pos="2112" vol="78" len="84"/>
          <note key="49" pan="0" pos="2112" vol="78" len="84"/>
          <note key="63" pan="0" pos="2196" vol="78" len="108"/>
          <note key="51" pan="0" pos="2196" vol="78" len="108"/>
          <note key="58" pan="0" pos="2304" vol="78" len="192"/>
          <note key="46" pan="0" pos="2304" vol="78" len="192"/>
          <note key="60" pan="0" pos="2496" vol="78" len="192"/>
          <note key="48" pan="0" pos="2496" vol="78" len="192"/>
          <note key="62" pan="0" pos="2688" vol="78" len="192"/>
          <note key="50" pan="0" pos="2688" vol="78" len="192"/>
          <note key="61" pan="0" pos="2880" vol="78" len="84"/>
          <note key="49" pan="0" pos="2880" vol="78" len="84"/>
          <note key="63" pan="0" pos="2964" vol="78" len="108"/>
          <note key="51" pan="0" pos="2964" vol="78" len="108"/>
          <note key="58" pan="0" pos="3072" vol="78" len="192"/>
          <note key="46" pan="0" pos="3072" vol="78" len="192"/>
          <note key="60" pan="0" pos="3264" vol="78" len="192"/>
          <note key="48" pan="0" pos="3264" vol="78" len="192"/>
          <note key="62" pan="0" pos="3456" vol="78" len="192"/>
          <note key="50" pan="0" pos="3456" vol="78" len="192"/>
          <note key="61" pan="0" pos="3648" vol="78" len="84"/>
          <note key="49" pan="0" pos="3648" vol="78" len="84"/>
          <note key="63" pan="0" pos="3732" vol="78" len="108"/>
          <note key="51" pan="0" pos="3732" vol="78" len="108"/>
        </pattern>
        <pattern steps="16" name="Track 5" pos="15936" type="1" muted="0">
          <note key="62" pan="0" pos="0" vol="78" len="192"/>
          <note key="50" pan="0" pos="0" vol="78" len="192"/>
          <note key="60" pan="0" pos="192" vol="78" len="192"/>
          <note key="48" pan="0" pos="192" vol="78" len="192"/>
          <note key="59" pan="0" pos="384" vol="78" len="192"/>
          <note key="47" pan="0" pos="384" vol="78" len="192"/>
          <note key="58" pan="0" pos="576" vol="78" len="84"/>
          <note key="46" pan="0" pos="576" vol="78" len="84"/>
          <note key="60" pan="0" pos="660" vol="78" len="108"/>
          <note key="48" pan="0" pos="660" vol="78" len="108"/>
          <note key="62" pan="0" pos="768" vol="78" len="192"/>
          <note key="50" pan="0" pos="768" vol="78" len="192"/>
          <note key="60" pan="0" pos="960" vol="78" len="192"/>
          <note key="48" pan="0" pos="960" vol="78" len="192"/>
          <note key="59" pan="0" pos="1152" vol="78" len="192"/>
          <note key="47" pan="0" pos="1152" vol="78" len="192"/>
          <note key="58" pan="0" pos="1344" vol="78" len="84"/>
          <note key="46" pan="0" pos="1344" vol="78" len="84"/>
          <note key="60" pan="0" pos="1428" vol="78" len="108"/>
          <note key="48" pan="0" pos="1428" vol="78" len="108"/>
          <note key="62" pan="0" pos="1536" vol="78" len="192"/>
          <note key="50" pan="0" pos="1536" vol="78" len="192"/>
          <note key="60" pan="0" pos="1728" vol="78" len="192"/>
          <note key="48" pan="0" pos="1728" vol="78" len="192"/>
          <note key="59" pan="0" pos="1920" vol="78" len="192"/>
          <note key="47" pan="0" pos="1920" vol="78" len="192"/>
          <note key="58" pan="0" pos="2112" vol="78" len="84"/>
          <note key="46" pan="0" pos="2112" vol="78" len="84"/>
          <note key="60" pan="0" pos="2196" vol="78" len="108"/>
          <note key="48" pan="0" pos="2196" vol="78" len="108"/>
        </pattern>
        <pattern steps="16" name="Track 5" pos="19008" type="1" muted="0">
          <note key="62" pan="0" pos="0" vol="78" len="192"/>
          <note key="50" pan="0" pos="0" vol="78" len="192"/>
          <note key="60" pan="0" pos="192" vol="78" len="192"/>
          <note key="48" pan="0" pos="192" vol="78" len="192"/>
          <note key="59" pan="0" pos="384" vol="78" len="192"/>
          <note key="47" pan="0" pos="384" vol="78" len="192"/>
          <note key="58" pan="0" pos="576" vol="78" len="84"/>
          <note key="46" pan="0" pos="576" vol="78" len="84"/>
          <note key="60" pan="0" pos="660" vol="78" len="108"/>
          <note key="48" pan="0" pos="660" vol="78" len="108"/>
          <note key="58" pan="0" pos="768" vol="78" len="192"/>
          <note key="46" pan="0" pos="768" vol="78" len="192"/>
          <note key="60" pan="0" pos="960" vol="78" len="192"/>
          <note key="48" pan="0" pos="960" vol="78" len="192"/>
          <note key="62" pan="0" pos="1152" vol="78" len="192"/>
          <note key="50" pan="0" pos="1152" vol="78" len="192"/>
          <note key="61" pan="0" pos="1344" vol="78" len="84"/>
          <note key="49" pan="0" pos="1344" vol="78" len="84"/>
          <note key="63" pan="0" pos="1428" vol="78" len="108"/>
          <note key="51" pan="0" pos="1428" vol="78" len="108"/>
          <note key="58" pan="0" pos="1536" vol="78" len="192"/>
          <note key="46" pan="0" pos="1536" vol="78" len="192"/>
          <note key="60" pan="0" pos="1728" vol="78" len="192"/>
          <note key="48" pan="0" pos="1728" vol="78" len="192"/>
          <note key="62" pan="0" pos="1920" vol="78" len="192"/>
          <note key="50" pan="0" pos="1920" vol="78" len="192"/>
          <note key="61" pan="0" pos="2112" vol="78" len="84"/>
          <note key="49" pan="0" pos="2112" vol="78" len="84"/>
          <note key="63" pan="0" pos="2196" vol="78" len="108"/>
          <note key="51" pan="0" pos="2196" vol="78" len="108"/>
          <note key="58" pan="0" pos="2304" vol="78" len="192"/>
          <note key="46" pan="0" pos="2304" vol="78" len="192"/>
          <note key="60" pan="0" pos="2496" vol="78" len="192"/>
          <note key="48" pan="0" pos="2496" vol="78" len="192"/>
          <note key="62" pan="0" pos="2688" vol="78" len="192"/>
          <note key="50" pan="0" pos="2688" vol="78" len="192"/>
          <note key="61" pan="0" pos="2880" vol="78" len="84"/>
          <note key="49" pan="0" pos="2880" vol="78" len="84"/>
          <note key="63" pan="0" pos="2964" vol="78" len="108"/>
          <note key="51" pan="0" pos="2964" vol="78" len="108"/>
          <note key="58" pan="0" pos="3072" vol="78" len="192"/>
          <note key="46" pan="0" pos="3072" vol="78" len="192"/>
          <note key="60" pan="0" pos="3264" vol="78" len="192"/>
          <note key="48" pan="0" pos="3264" vol="78" len="192"/>
          <note key="62" pan="0" pos="3456" vol="78" len="192"/>
          <note key="50" pan="0" pos="3456" vol="78" len="192"/>
          <note key="61" pan="0" pos="3648" vol="78" len="84"/>
          <note key="49" pan="0" pos="3648" vol="78" len="84"/>
          <note key="63" pan="0" pos="3732" vol="78" len="108"/>
          <note key="51" pan="0" pos="3732" vol="78" len="108"/>
        </pattern>
      </track>
      <track name="Untitled > Pitch" type="5" solo="0" muted="0">
        <automationtrack/>
        <automationpattern tens="1" mute="0" pos="960" name="Track 5>Pitch" prog="0" len="192">
          <time pos="0" value="-6.49414"/>
          <object id="2550"/>
        </automationpattern>
        <automationpattern tens="1" mute="0" pos="15936" name="Track 5>Pitch" prog="0" len="192">
          <time pos="0" value="-6.49414"/>
          <object id="2550"/>
        </automationpattern>
      </track>
      <track name="Untitled > Volume" type="5" solo="0" muted="0">
        <automationtrack/>
        <automationpattern tens="1" mute="0" pos="960" name="Track 5>Volume" prog="0" len="192">
          <time pos="0" value="74.8031"/>
          <object id="6465"/>
        </automationpattern>
        <automationpattern tens="1" mute="0" pos="15936" name="Track 5>Volume" prog="0" len="192">
          <time pos="0" value="74.8031"/>
          <object id="6465"/>
        </automationpattern>
      </track>
      <track name="Untitled > Panning" type="5" solo="0" muted="0">
        <automationtrack/>
        <automationpattern tens="1" mute="0" pos="1728" name="Track 5>Panning" prog="0" len="192">
          <time pos="0" value="-19.685"/>
          <object id="9263"/>
        </automationpattern>
        <automationpattern tens="1" mute="0" pos="4032" name="Track 5>Panning" prog="0" len="192">
          <time pos="0" value="-19.685"/>
          <object id="9263"/>
        </automationpattern>
        <automationpattern tens="1" mute="0" pos="16704" name="Track 5>Panning" prog="0" len="192">
          <time pos="0" value="-19.685"/>
          <object id="9263"/>
        </automationpattern>
        <automationpattern tens="1" mute="0" pos="19008" name="Track 5>Panning" prog="0" len="192">
          <time pos="0" value="-19.685"/>
          <object id="9263"/>
        </automationpattern>
      </track>
      <track name="Track 6" type="0" solo="0" muted="0">
        <instrumenttrack fxch="0" basenote="57" usemasterpitch="1" pitchrange="2">
          <vol scale_type="linear" id="2358" value="74.8031"/>
          <pan scale_type="linear" id="2465" value="27.5591"/>
          <pitch scale_type="linear" id="1645" value="-0.98877"/>
          <instrument name="sf2player">
            <sf2player gain="1" src="C:/Users/cervi/Downloads/tmp/Layton_TC.sf2" reverbDamping="0" chorusOn="0" chorusSpeed="0.3" reverbOn="0" chorusNum="3" reverbLevel="0.9" chorusDepth="8" reverbWidth="0.5" bank="0" patch="53" reverbRoomSize="0.2" chorusLevel="2"/>
          </instrument>
          <eldata fwet="0" fres="0.5" fcut="14000" ftype="0">
            <elvol dec="0.5" lspd="0.1" hold="0.5" sustain="0.5" lshp="0" ctlenvamt="0" rel="0.1" userwavefile="" lamt="0" pdel="0" lspd_syncmode="0" lpdel="0" att="0" x100="0" lspd_numerator="4" lspd_denominator="4" amt="0" latt="0"/>
            <elcut dec="0.5" lspd="0.1" hold="0.5" sustain="0.5" lshp="0" ctlenvamt="0" rel="0.1" userwavefile="" lamt="0" pdel="0" lspd_syncmode="0" lpdel="0" att="0" x100="0" lspd_numerator="4" lspd_denominator="4" amt="0" latt="0"/>
            <elres dec="0.5" lspd="0.1" hold="0.5" sustain="0.5" lshp="0" ctlenvamt="0" rel="0.1" userwavefile="" lamt="0" pdel="0" lspd_syncmode="0" lpdel="0" att="0" x100="0" lspd_numerator="4" lspd_denominator="4" amt="0" latt="0"/>
          </eldata>
          <chordcreator chord="0" chordrange="1" chord-enabled="0"/>
          <arpeggiator arpcycle="0" arpgate="100" arp="0" arprange="1" arpdir="0" arp-enabled="0" arpskip="0" arptime_syncmode="0" arptime="200" arpmiss="0" arpmode="0" arptime_denominator="4" arptime_numerator="4"/>
          <midiport inputchannel="0" fixedoutputvelocity="-1" outputchannel="1" outputcontroller="0" writable="0" inputcontroller="0" fixedoutputnote="-1" outputprogram="1" basevelocity="63" fixedinputvelocity="-1" readable="0"/>
          <fxchain enabled="0" numofeffects="0"/>
        </instrumenttrack>
        <pattern steps="16" name="Track 6" pos="1728" type="1" muted="0">
          <note key="62" pan="0" pos="0" vol="94" len="192"/>
          <note key="57" pan="0" pos="0" vol="94" len="192"/>
          <note key="50" pan="0" pos="0" vol="94" len="192"/>
          <note key="60" pan="0" pos="192" vol="94" len="192"/>
          <note key="55" pan="0" pos="192" vol="94" len="192"/>
          <note key="48" pan="0" pos="192" vol="94" len="192"/>
          <note key="59" pan="0" pos="384" vol="94" len="192"/>
          <note key="54" pan="0" pos="384" vol="94" len="192"/>
          <note key="47" pan="0" pos="384" vol="94" len="192"/>
          <note key="58" pan="0" pos="576" vol="94" len="84"/>
          <note key="53" pan="0" pos="576" vol="94" len="84"/>
          <note key="46" pan="0" pos="576" vol="94" len="84"/>
          <note key="60" pan="0" pos="660" vol="94" len="108"/>
          <note key="55" pan="0" pos="660" vol="94" len="108"/>
          <note key="48" pan="0" pos="660" vol="94" len="108"/>
          <note key="62" pan="0" pos="768" vol="94" len="192"/>
          <note key="57" pan="0" pos="768" vol="94" len="192"/>
          <note key="50" pan="0" pos="768" vol="94" len="192"/>
          <note key="60" pan="0" pos="960" vol="94" len="192"/>
          <note key="55" pan="0" pos="960" vol="94" len="192"/>
          <note key="48" pan="0" pos="960" vol="94" len="192"/>
          <note key="59" pan="0" pos="1152" vol="94" len="192"/>
          <note key="54" pan="0" pos="1152" vol="94" len="192"/>
          <note key="47" pan="0" pos="1152" vol="94" len="192"/>
          <note key="58" pan="0" pos="1344" vol="94" len="84"/>
          <note key="53" pan="0" pos="1344" vol="94" len="84"/>
          <note key="46" pan="0" pos="1344" vol="94" len="84"/>
          <note key="60" pan="0" pos="1428" vol="94" len="108"/>
          <note key="55" pan="0" pos="1428" vol="94" len="108"/>
          <note key="48" pan="0" pos="1428" vol="94" len="108"/>
        </pattern>
        <pattern steps="16" name="Track 6" pos="4032" type="1" muted="0">
          <note key="69" pan="0" pos="0" vol="94" len="192"/>
          <note key="62" pan="0" pos="0" vol="94" len="192"/>
          <note key="57" pan="0" pos="0" vol="94" len="192"/>
          <note key="67" pan="0" pos="192" vol="94" len="192"/>
          <note key="60" pan="0" pos="192" vol="94" len="192"/>
          <note key="55" pan="0" pos="192" vol="94" len="192"/>
          <note key="66" pan="0" pos="384" vol="94" len="192"/>
          <note key="59" pan="0" pos="384" vol="94" len="192"/>
          <note key="54" pan="0" pos="384" vol="94" len="192"/>
          <note key="65" pan="0" pos="576" vol="94" len="84"/>
          <note key="58" pan="0" pos="576" vol="94" len="84"/>
          <note key="53" pan="0" pos="576" vol="94" len="84"/>
          <note key="67" pan="0" pos="660" vol="94" len="108"/>
          <note key="60" pan="0" pos="660" vol="94" len="108"/>
          <note key="55" pan="0" pos="660" vol="94" len="108"/>
          <note key="65" pan="0" pos="768" vol="94" len="192"/>
          <note key="58" pan="0" pos="768" vol="94" len="192"/>
          <note key="53" pan="0" pos="768" vol="94" len="192"/>
          <note key="67" pan="0" pos="960" vol="94" len="192"/>
          <note key="60" pan="0" pos="960" vol="94" len="192"/>
          <note key="55" pan="0" pos="960" vol="94" len="192"/>
          <note key="69" pan="0" pos="1152" vol="94" len="192"/>
          <note key="62" pan="0" pos="1152" vol="94" len="192"/>
          <note key="57" pan="0" pos="1152" vol="94" len="192"/>
          <note key="68" pan="0" pos="1344" vol="94" len="84"/>
          <note key="61" pan="0" pos="1344" vol="94" len="84"/>
          <note key="56" pan="0" pos="1344" vol="94" len="84"/>
          <note key="70" pan="0" pos="1428" vol="94" len="108"/>
          <note key="63" pan="0" pos="1428" vol="94" len="108"/>
          <note key="58" pan="0" pos="1428" vol="94" len="108"/>
          <note key="65" pan="0" pos="1536" vol="94" len="192"/>
          <note key="58" pan="0" pos="1536" vol="94" len="192"/>
          <note key="53" pan="0" pos="1536" vol="94" len="192"/>
          <note key="67" pan="0" pos="1728" vol="94" len="192"/>
          <note key="60" pan="0" pos="1728" vol="94" len="192"/>
          <note key="55" pan="0" pos="1728" vol="94" len="192"/>
          <note key="69" pan="0" pos="1920" vol="94" len="192"/>
          <note key="62" pan="0" pos="1920" vol="94" len="192"/>
          <note key="57" pan="0" pos="1920" vol="94" len="192"/>
          <note key="68" pan="0" pos="2112" vol="94" len="84"/>
          <note key="61" pan="0" pos="2112" vol="94" len="84"/>
          <note key="56" pan="0" pos="2112" vol="94" len="84"/>
          <note key="70" pan="0" pos="2196" vol="94" len="108"/>
          <note key="63" pan="0" pos="2196" vol="94" len="108"/>
          <note key="58" pan="0" pos="2196" vol="94" len="108"/>
          <note key="65" pan="0" pos="2304" vol="94" len="192"/>
          <note key="58" pan="0" pos="2304" vol="94" len="192"/>
          <note key="53" pan="0" pos="2304" vol="94" len="192"/>
          <note key="67" pan="0" pos="2496" vol="94" len="192"/>
          <note key="60" pan="0" pos="2496" vol="94" len="192"/>
          <note key="55" pan="0" pos="2496" vol="94" len="192"/>
          <note key="69" pan="0" pos="2688" vol="94" len="192"/>
          <note key="62" pan="0" pos="2688" vol="94" len="192"/>
          <note key="57" pan="0" pos="2688" vol="94" len="192"/>
          <note key="68" pan="0" pos="2880" vol="94" len="84"/>
          <note key="61" pan="0" pos="2880" vol="94" len="84"/>
          <note key="56" pan="0" pos="2880" vol="94" len="84"/>
          <note key="70" pan="0" pos="2964" vol="94" len="108"/>
          <note key="63" pan="0" pos="2964" vol="94" len="108"/>
          <note key="58" pan="0" pos="2964" vol="94" len="108"/>
          <note key="65" pan="0" pos="3072" vol="94" len="192"/>
          <note key="58" pan="0" pos="3072" vol="94" len="192"/>
          <note key="53" pan="0" pos="3072" vol="94" len="192"/>
          <note key="67" pan="0" pos="3264" vol="94" len="192"/>
          <note key="60" pan="0" pos="3264" vol="94" len="192"/>
          <note key="55" pan="0" pos="3264" vol="94" len="192"/>
          <note key="69" pan="0" pos="3456" vol="94" len="192"/>
          <note key="62" pan="0" pos="3456" vol="94" len="192"/>
          <note key="57" pan="0" pos="3456" vol="94" len="192"/>
          <note key="68" pan="0" pos="3648" vol="94" len="84"/>
          <note key="61" pan="0" pos="3648" vol="94" len="84"/>
          <note key="56" pan="0" pos="3648" vol="94" len="84"/>
          <note key="70" pan="0" pos="3732" vol="94" len="108"/>
          <note key="63" pan="0" pos="3732" vol="94" len="108"/>
          <note key="58" pan="0" pos="3732" vol="94" len="108"/>
          <note key="34" pan="0" pos="3840" vol="157" len="168"/>
          <note key="41" pan="0" pos="3984" vol="157" len="48"/>
          <note key="40" pan="0" pos="4032" vol="157" len="96"/>
          <note key="38" pan="0" pos="4128" vol="157" len="96"/>
          <note key="41" pan="0" pos="4224" vol="157" len="384"/>
          <note key="34" pan="0" pos="4608" vol="157" len="168"/>
          <note key="41" pan="0" pos="4752" vol="157" len="48"/>
          <note key="40" pan="0" pos="4800" vol="157" len="96"/>
          <note key="38" pan="0" pos="4896" vol="157" len="96"/>
          <note key="38" pan="0" pos="4992" vol="157" len="384"/>
          <note key="34" pan="0" pos="5376" vol="157" len="168"/>
          <note key="41" pan="0" pos="5520" vol="157" len="48"/>
          <note key="40" pan="0" pos="5568" vol="157" len="96"/>
          <note key="38" pan="0" pos="5664" vol="157" len="96"/>
          <note key="41" pan="0" pos="5760" vol="157" len="384"/>
          <note key="34" pan="0" pos="6144" vol="157" len="168"/>
          <note key="41" pan="0" pos="6288" vol="157" len="48"/>
          <note key="40" pan="0" pos="6336" vol="157" len="96"/>
          <note key="38" pan="0" pos="6432" vol="157" len="96"/>
          <note key="38" pan="0" pos="6528" vol="157" len="384"/>
        </pattern>
        <pattern steps="16" name="Track 6" pos="16704" type="1" muted="0">
          <note key="62" pan="0" pos="0" vol="94" len="192"/>
          <note key="57" pan="0" pos="0" vol="94" len="192"/>
          <note key="50" pan="0" pos="0" vol="94" len="192"/>
          <note key="60" pan="0" pos="192" vol="94" len="192"/>
          <note key="55" pan="0" pos="192" vol="94" len="192"/>
          <note key="48" pan="0" pos="192" vol="94" len="192"/>
          <note key="59" pan="0" pos="384" vol="94" len="192"/>
          <note key="54" pan="0" pos="384" vol="94" len="192"/>
          <note key="47" pan="0" pos="384" vol="94" len="192"/>
          <note key="58" pan="0" pos="576" vol="94" len="84"/>
          <note key="53" pan="0" pos="576" vol="94" len="84"/>
          <note key="46" pan="0" pos="576" vol="94" len="84"/>
          <note key="60" pan="0" pos="660" vol="94" len="108"/>
          <note key="55" pan="0" pos="660" vol="94" len="108"/>
          <note key="48" pan="0" pos="660" vol="94" len="108"/>
          <note key="62" pan="0" pos="768" vol="94" len="192"/>
          <note key="57" pan="0" pos="768" vol="94" len="192"/>
          <note key="50" pan="0" pos="768" vol="94" len="192"/>
          <note key="60" pan="0" pos="960" vol="94" len="192"/>
          <note key="55" pan="0" pos="960" vol="94" len="192"/>
          <note key="48" pan="0" pos="960" vol="94" len="192"/>
          <note key="59" pan="0" pos="1152" vol="94" len="192"/>
          <note key="54" pan="0" pos="1152" vol="94" len="192"/>
          <note key="47" pan="0" pos="1152" vol="94" len="192"/>
          <note key="58" pan="0" pos="1344" vol="94" len="84"/>
          <note key="53" pan="0" pos="1344" vol="94" len="84"/>
          <note key="46" pan="0" pos="1344" vol="94" len="84"/>
          <note key="60" pan="0" pos="1428" vol="94" len="108"/>
          <note key="55" pan="0" pos="1428" vol="94" len="108"/>
          <note key="48" pan="0" pos="1428" vol="94" len="108"/>
        </pattern>
        <pattern steps="16" name="Track 6" pos="19008" type="1" muted="0">
          <note key="69" pan="0" pos="0" vol="94" len="192"/>
          <note key="62" pan="0" pos="0" vol="94" len="192"/>
          <note key="57" pan="0" pos="0" vol="94" len="192"/>
          <note key="67" pan="0" pos="192" vol="94" len="192"/>
          <note key="60" pan="0" pos="192" vol="94" len="192"/>
          <note key="55" pan="0" pos="192" vol="94" len="192"/>
          <note key="66" pan="0" pos="384" vol="94" len="192"/>
          <note key="59" pan="0" pos="384" vol="94" len="192"/>
          <note key="54" pan="0" pos="384" vol="94" len="192"/>
          <note key="65" pan="0" pos="576" vol="94" len="84"/>
          <note key="58" pan="0" pos="576" vol="94" len="84"/>
          <note key="53" pan="0" pos="576" vol="94" len="84"/>
          <note key="67" pan="0" pos="660" vol="94" len="108"/>
          <note key="60" pan="0" pos="660" vol="94" len="108"/>
          <note key="55" pan="0" pos="660" vol="94" len="108"/>
          <note key="65" pan="0" pos="768" vol="94" len="192"/>
          <note key="58" pan="0" pos="768" vol="94" len="192"/>
          <note key="53" pan="0" pos="768" vol="94" len="192"/>
          <note key="67" pan="0" pos="960" vol="94" len="192"/>
          <note key="60" pan="0" pos="960" vol="94" len="192"/>
          <note key="55" pan="0" pos="960" vol="94" len="192"/>
          <note key="69" pan="0" pos="1152" vol="94" len="192"/>
          <note key="62" pan="0" pos="1152" vol="94" len="192"/>
          <note key="57" pan="0" pos="1152" vol="94" len="192"/>
          <note key="68" pan="0" pos="1344" vol="94" len="84"/>
          <note key="61" pan="0" pos="1344" vol="94" len="84"/>
          <note key="56" pan="0" pos="1344" vol="94" len="84"/>
          <note key="70" pan="0" pos="1428" vol="94" len="108"/>
          <note key="63" pan="0" pos="1428" vol="94" len="108"/>
          <note key="58" pan="0" pos="1428" vol="94" len="108"/>
          <note key="65" pan="0" pos="1536" vol="94" len="192"/>
          <note key="58" pan="0" pos="1536" vol="94" len="192"/>
          <note key="53" pan="0" pos="1536" vol="94" len="192"/>
          <note key="67" pan="0" pos="1728" vol="94" len="192"/>
          <note key="60" pan="0" pos="1728" vol="94" len="192"/>
          <note key="55" pan="0" pos="1728" vol="94" len="192"/>
          <note key="69" pan="0" pos="1920" vol="94" len="192"/>
          <note key="62" pan="0" pos="1920" vol="94" len="192"/>
          <note key="57" pan="0" pos="1920" vol="94" len="192"/>
          <note key="68" pan="0" pos="2112" vol="94" len="84"/>
          <note key="61" pan="0" pos="2112" vol="94" len="84"/>
          <note key="56" pan="0" pos="2112" vol="94" len="84"/>
          <note key="70" pan="0" pos="2196" vol="94" len="108"/>
          <note key="63" pan="0" pos="2196" vol="94" len="108"/>
          <note key="58" pan="0" pos="2196" vol="94" len="108"/>
          <note key="65" pan="0" pos="2304" vol="94" len="192"/>
          <note key="58" pan="0" pos="2304" vol="94" len="192"/>
          <note key="53" pan="0" pos="2304" vol="94" len="192"/>
          <note key="67" pan="0" pos="2496" vol="94" len="192"/>
          <note key="60" pan="0" pos="2496" vol="94" len="192"/>
          <note key="55" pan="0" pos="2496" vol="94" len="192"/>
          <note key="69" pan="0" pos="2688" vol="94" len="192"/>
          <note key="62" pan="0" pos="2688" vol="94" len="192"/>
          <note key="57" pan="0" pos="2688" vol="94" len="192"/>
          <note key="68" pan="0" pos="2880" vol="94" len="84"/>
          <note key="61" pan="0" pos="2880" vol="94" len="84"/>
          <note key="56" pan="0" pos="2880" vol="94" len="84"/>
          <note key="70" pan="0" pos="2964" vol="94" len="108"/>
          <note key="63" pan="0" pos="2964" vol="94" len="108"/>
          <note key="58" pan="0" pos="2964" vol="94" len="108"/>
          <note key="65" pan="0" pos="3072" vol="94" len="192"/>
          <note key="58" pan="0" pos="3072" vol="94" len="192"/>
          <note key="53" pan="0" pos="3072" vol="94" len="192"/>
          <note key="67" pan="0" pos="3264" vol="94" len="192"/>
          <note key="60" pan="0" pos="3264" vol="94" len="192"/>
          <note key="55" pan="0" pos="3264" vol="94" len="192"/>
          <note key="69" pan="0" pos="3456" vol="94" len="192"/>
          <note key="62" pan="0" pos="3456" vol="94" len="192"/>
          <note key="57" pan="0" pos="3456" vol="94" len="192"/>
          <note key="68" pan="0" pos="3648" vol="94" len="84"/>
          <note key="61" pan="0" pos="3648" vol="94" len="84"/>
          <note key="56" pan="0" pos="3648" vol="94" len="84"/>
          <note key="70" pan="0" pos="3732" vol="94" len="108"/>
          <note key="63" pan="0" pos="3732" vol="94" len="108"/>
          <note key="58" pan="0" pos="3732" vol="94" len="108"/>
          <note key="34" pan="0" pos="3840" vol="157" len="168"/>
          <note key="41" pan="0" pos="3984" vol="157" len="48"/>
          <note key="40" pan="0" pos="4032" vol="157" len="96"/>
          <note key="38" pan="0" pos="4128" vol="157" len="96"/>
          <note key="41" pan="0" pos="4224" vol="157" len="384"/>
          <note key="34" pan="0" pos="4608" vol="157" len="168"/>
          <note key="41" pan="0" pos="4752" vol="157" len="48"/>
          <note key="40" pan="0" pos="4800" vol="157" len="96"/>
          <note key="38" pan="0" pos="4896" vol="157" len="96"/>
          <note key="38" pan="0" pos="4992" vol="157" len="384"/>
          <note key="34" pan="0" pos="5376" vol="157" len="168"/>
          <note key="41" pan="0" pos="5520" vol="157" len="48"/>
          <note key="40" pan="0" pos="5568" vol="157" len="96"/>
          <note key="38" pan="0" pos="5664" vol="157" len="96"/>
          <note key="41" pan="0" pos="5760" vol="157" len="384"/>
          <note key="34" pan="0" pos="6144" vol="157" len="168"/>
          <note key="41" pan="0" pos="6288" vol="157" len="48"/>
          <note key="40" pan="0" pos="6336" vol="157" len="96"/>
          <note key="38" pan="0" pos="6432" vol="157" len="96"/>
          <note key="38" pan="0" pos="6528" vol="157" len="384"/>
        </pattern>
      </track>
      <track name="Untitled > Panning" type="5" solo="0" muted="0">
        <automationtrack/>
        <automationpattern tens="1" mute="0" pos="1728" name="Track 6>Panning" prog="0" len="192">
          <time pos="0" value="27.5591"/>
          <object id="2465"/>
        </automationpattern>
        <automationpattern tens="1" mute="0" pos="16704" name="Track 6>Panning" prog="0" len="192">
          <time pos="0" value="27.5591"/>
          <object id="2465"/>
        </automationpattern>
      </track>
      <track name="Untitled > Pitch" type="5" solo="0" muted="0">
        <automationtrack/>
        <automationpattern tens="1" mute="0" pos="1728" name="Track 6>Pitch" prog="0" len="192">
          <time pos="0" value="-0.98877"/>
          <object id="1645"/>
        </automationpattern>
        <automationpattern tens="1" mute="0" pos="9024" name="Track 6>Pitch" prog="0" len="576">
          <time pos="0" value="0"/>
          <time pos="120" value="0.78125"/>
          <time pos="124" value="-0.793457"/>
          <time pos="128" value="-2.36816"/>
          <time pos="132" value="-3.94287"/>
          <time pos="136" value="-5.51758"/>
          <time pos="140" value="-7.09229"/>
          <time pos="144" value="-8.66699"/>
          <time pos="148" value="-10.2417"/>
          <time pos="153" value="-11.8164"/>
          <time pos="157" value="-13.3911"/>
          <time pos="161" value="-14.9658"/>
          <time pos="165" value="-16.5405"/>
          <time pos="169" value="-18.1152"/>
          <time pos="173" value="-19.6899"/>
          <time pos="177" value="-21.2646"/>
          <time pos="181" value="-22.8394"/>
          <time pos="186" value="-24.4141"/>
          <time pos="190" value="-25.9888"/>
          <time pos="194" value="-27.5635"/>
          <time pos="198" value="-29.1382"/>
          <time pos="202" value="-30.7129"/>
          <time pos="206" value="-32.2876"/>
          <time pos="210" value="-33.8623"/>
          <time pos="214" value="-35.437"/>
          <time pos="219" value="-37.0117"/>
          <time pos="223" value="-38.5864"/>
          <time pos="227" value="-40.1611"/>
          <time pos="231" value="-41.7358"/>
          <time pos="235" value="-43.3105"/>
          <time pos="239" value="-44.8853"/>
          <time pos="243" value="-46.46"/>
          <time pos="247" value="-48.0347"/>
          <time pos="252" value="-49.6094"/>
          <time pos="256" value="-51.1841"/>
          <time pos="260" value="-52.7588"/>
          <time pos="264" value="-54.3335"/>
          <time pos="268" value="-55.9082"/>
          <time pos="272" value="-57.4829"/>
          <time pos="276" value="-59.0576"/>
          <time pos="280" value="-60.6323"/>
          <time pos="285" value="-62.207"/>
          <time pos="289" value="-63.7817"/>
          <time pos="293" value="-65.3564"/>
          <time pos="297" value="-66.9312"/>
          <time pos="301" value="-68.5059"/>
          <time pos="305" value="-70.0806"/>
          <time pos="309" value="-71.6553"/>
          <time pos="313" value="-73.23"/>
          <time pos="318" value="-74.8047"/>
          <time pos="322" value="-76.3794"/>
          <time pos="326" value="-77.9541"/>
          <time pos="330" value="-79.5288"/>
          <time pos="334" value="-81.1035"/>
          <time pos="338" value="-82.6782"/>
          <time pos="342" value="-84.2529"/>
          <time pos="346" value="-85.8276"/>
          <time pos="351" value="-87.4023"/>
          <time pos="355" value="-88.9771"/>
          <time pos="359" value="-90.5518"/>
          <time pos="363" value="-92.1265"/>
          <time pos="367" value="-93.7012"/>
          <time pos="371" value="-95.2759"/>
          <time pos="375" value="-96.8506"/>
          <time pos="379" value="-98.4253"/>
          <time pos="384" value="-0.98877"/>
          <object id="1645"/>
        </automationpattern>
        <automationpattern tens="1" mute="0" pos="10560" name="Track 6>Pitch" prog="0" len="576">
          <time pos="0" value="0"/>
          <time pos="120" value="0.78125"/>
          <time pos="124" value="-0.793457"/>
          <time pos="128" value="-2.36816"/>
          <time pos="132" value="-3.94287"/>
          <time pos="136" value="-5.51758"/>
          <time pos="140" value="-7.09229"/>
          <time pos="144" value="-8.66699"/>
          <time pos="148" value="-10.2417"/>
          <time pos="153" value="-11.8164"/>
          <time pos="157" value="-13.3911"/>
          <time pos="161" value="-14.9658"/>
          <time pos="165" value="-16.5405"/>
          <time pos="169" value="-18.1152"/>
          <time pos="173" value="-19.6899"/>
          <time pos="177" value="-21.2646"/>
          <time pos="181" value="-22.8394"/>
          <time pos="186" value="-24.4141"/>
          <time pos="190" value="-25.9888"/>
          <time pos="194" value="-27.5635"/>
          <time pos="198" value="-29.1382"/>
          <time pos="202" value="-30.7129"/>
          <time pos="206" value="-32.2876"/>
          <time pos="210" value="-33.8623"/>
          <time pos="214" value="-35.437"/>
          <time pos="219" value="-37.0117"/>
          <time pos="223" value="-38.5864"/>
          <time pos="227" value="-40.1611"/>
          <time pos="231" value="-41.7358"/>
          <time pos="235" value="-43.3105"/>
          <time pos="239" value="-44.8853"/>
          <time pos="243" value="-46.46"/>
          <time pos="247" value="-48.0347"/>
          <time pos="252" value="-49.6094"/>
          <time pos="256" value="-51.1841"/>
          <time pos="260" value="-52.7588"/>
          <time pos="264" value="-54.3335"/>
          <time pos="268" value="-55.9082"/>
          <time pos="272" value="-57.4829"/>
          <time pos="276" value="-59.0576"/>
          <time pos="280" value="-60.6323"/>
          <time pos="285" value="-62.207"/>
          <time pos="289" value="-63.7817"/>
          <time pos="293" value="-65.3564"/>
          <time pos="297" value="-66.9312"/>
          <time pos="301" value="-68.5059"/>
          <time pos="305" value="-70.0806"/>
          <time pos="309" value="-71.6553"/>
          <time pos="313" value="-73.23"/>
          <time pos="318" value="-74.8047"/>
          <time pos="322" value="-76.3794"/>
          <time pos="326" value="-77.9541"/>
          <time pos="330" value="-79.5288"/>
          <time pos="334" value="-81.1035"/>
          <time pos="338" value="-82.6782"/>
          <time pos="342" value="-84.2529"/>
          <time pos="346" value="-85.8276"/>
          <time pos="351" value="-87.4023"/>
          <time pos="355" value="-88.9771"/>
          <time pos="359" value="-90.5518"/>
          <time pos="363" value="-92.1265"/>
          <time pos="367" value="-93.7012"/>
          <time pos="371" value="-95.2759"/>
          <time pos="375" value="-96.8506"/>
          <time pos="379" value="-98.4253"/>
          <time pos="384" value="-0.98877"/>
          <object id="1645"/>
        </automationpattern>
        <automationpattern tens="1" mute="0" pos="16704" name="Track 6>Pitch" prog="0" len="192">
          <time pos="0" value="-0.98877"/>
          <object id="1645"/>
        </automationpattern>
        <automationpattern tens="1" mute="0" pos="24000" name="Track 6>Pitch" prog="0" len="576">
          <time pos="0" value="0"/>
          <time pos="120" value="0.78125"/>
          <time pos="124" value="-0.793457"/>
          <time pos="128" value="-2.36816"/>
          <time pos="132" value="-3.94287"/>
          <time pos="136" value="-5.51758"/>
          <time pos="140" value="-7.09229"/>
          <time pos="144" value="-8.66699"/>
          <time pos="148" value="-10.2417"/>
          <time pos="153" value="-11.8164"/>
          <time pos="157" value="-13.3911"/>
          <time pos="161" value="-14.9658"/>
          <time pos="165" value="-16.5405"/>
          <time pos="169" value="-18.1152"/>
          <time pos="173" value="-19.6899"/>
          <time pos="177" value="-21.2646"/>
          <time pos="181" value="-22.8394"/>
          <time pos="186" value="-24.4141"/>
          <time pos="190" value="-25.9888"/>
          <time pos="194" value="-27.5635"/>
          <time pos="198" value="-29.1382"/>
          <time pos="202" value="-30.7129"/>
          <time pos="206" value="-32.2876"/>
          <time pos="210" value="-33.8623"/>
          <time pos="214" value="-35.437"/>
          <time pos="219" value="-37.0117"/>
          <time pos="223" value="-38.5864"/>
          <time pos="227" value="-40.1611"/>
          <time pos="231" value="-41.7358"/>
          <time pos="235" value="-43.3105"/>
          <time pos="239" value="-44.8853"/>
          <time pos="243" value="-46.46"/>
          <time pos="247" value="-48.0347"/>
          <time pos="252" value="-49.6094"/>
          <time pos="256" value="-51.1841"/>
          <time pos="260" value="-52.7588"/>
          <time pos="264" value="-54.3335"/>
          <time pos="268" value="-55.9082"/>
          <time pos="272" value="-57.4829"/>
          <time pos="276" value="-59.0576"/>
          <time pos="280" value="-60.6323"/>
          <time pos="285" value="-62.207"/>
          <time pos="289" value="-63.7817"/>
          <time pos="293" value="-65.3564"/>
          <time pos="297" value="-66.9312"/>
          <time pos="301" value="-68.5059"/>
          <time pos="305" value="-70.0806"/>
          <time pos="309" value="-71.6553"/>
          <time pos="313" value="-73.23"/>
          <time pos="318" value="-74.8047"/>
          <time pos="322" value="-76.3794"/>
          <time pos="326" value="-77.9541"/>
          <time pos="330" value="-79.5288"/>
          <time pos="334" value="-81.1035"/>
          <time pos="338" value="-82.6782"/>
          <time pos="342" value="-84.2529"/>
          <time pos="346" value="-85.8276"/>
          <time pos="351" value="-87.4023"/>
          <time pos="355" value="-88.9771"/>
          <time pos="359" value="-90.5518"/>
          <time pos="363" value="-92.1265"/>
          <time pos="367" value="-93.7012"/>
          <time pos="371" value="-95.2759"/>
          <time pos="375" value="-96.8506"/>
          <time pos="379" value="-98.4253"/>
          <time pos="384" value="-0.98877"/>
          <object id="1645"/>
        </automationpattern>
        <automationpattern tens="1" mute="0" pos="25536" name="Track 6>Pitch" prog="0" len="576">
          <time pos="0" value="0"/>
          <time pos="120" value="0.78125"/>
          <time pos="124" value="-0.793457"/>
          <time pos="128" value="-2.36816"/>
          <time pos="132" value="-3.94287"/>
          <time pos="136" value="-5.51758"/>
          <time pos="140" value="-7.09229"/>
          <time pos="144" value="-8.66699"/>
          <time pos="148" value="-10.2417"/>
          <time pos="153" value="-11.8164"/>
          <time pos="157" value="-13.3911"/>
          <time pos="161" value="-14.9658"/>
          <time pos="165" value="-16.5405"/>
          <time pos="169" value="-18.1152"/>
          <time pos="173" value="-19.6899"/>
          <time pos="177" value="-21.2646"/>
          <time pos="181" value="-22.8394"/>
          <time pos="186" value="-24.4141"/>
          <time pos="190" value="-25.9888"/>
          <time pos="194" value="-27.5635"/>
          <time pos="198" value="-29.1382"/>
          <time pos="202" value="-30.7129"/>
          <time pos="206" value="-32.2876"/>
          <time pos="210" value="-33.8623"/>
          <time pos="214" value="-35.437"/>
          <time pos="219" value="-37.0117"/>
          <time pos="223" value="-38.5864"/>
          <time pos="227" value="-40.1611"/>
          <time pos="231" value="-41.7358"/>
          <time pos="235" value="-43.3105"/>
          <time pos="239" value="-44.8853"/>
          <time pos="243" value="-46.46"/>
          <time pos="247" value="-48.0347"/>
          <time pos="252" value="-49.6094"/>
          <time pos="256" value="-51.1841"/>
          <time pos="260" value="-52.7588"/>
          <time pos="264" value="-54.3335"/>
          <time pos="268" value="-55.9082"/>
          <time pos="272" value="-57.4829"/>
          <time pos="276" value="-59.0576"/>
          <time pos="280" value="-60.6323"/>
          <time pos="285" value="-62.207"/>
          <time pos="289" value="-63.7817"/>
          <time pos="293" value="-65.3564"/>
          <time pos="297" value="-66.9312"/>
          <time pos="301" value="-68.5059"/>
          <time pos="305" value="-70.0806"/>
          <time pos="309" value="-71.6553"/>
          <time pos="313" value="-73.23"/>
          <time pos="318" value="-74.8047"/>
          <time pos="322" value="-76.3794"/>
          <time pos="326" value="-77.9541"/>
          <time pos="330" value="-79.5288"/>
          <time pos="334" value="-81.1035"/>
          <time pos="338" value="-82.6782"/>
          <time pos="342" value="-84.2529"/>
          <time pos="346" value="-85.8276"/>
          <time pos="351" value="-87.4023"/>
          <time pos="355" value="-88.9771"/>
          <time pos="359" value="-90.5518"/>
          <time pos="363" value="-92.1265"/>
          <time pos="367" value="-93.7012"/>
          <time pos="371" value="-95.2759"/>
          <time pos="375" value="-96.8506"/>
          <time pos="379" value="-98.4253"/>
          <time pos="384" value="-0.98877"/>
          <object id="1645"/>
        </automationpattern>
      </track>
      <track name="Untitled > Volume" type="5" solo="0" muted="0">
        <automationtrack/>
        <automationpattern tens="1" mute="0" pos="1728" name="Track 6>Volume" prog="0" len="192">
          <time pos="0" value="74.8031"/>
          <object id="2358"/>
        </automationpattern>
        <automationpattern tens="1" mute="0" pos="7872" name="Track 6>Volume" prog="0" len="192">
          <time pos="0" value="100"/>
          <object id="2358"/>
        </automationpattern>
        <automationpattern tens="1" mute="0" pos="8448" name="Track 6>Volume" prog="0" len="384">
          <time pos="0" value="100"/>
          <time pos="97" value="99.2126"/>
          <time pos="99" value="98.4252"/>
          <time pos="100" value="97.6378"/>
          <time pos="102" value="96.8504"/>
          <time pos="103" value="96.063"/>
          <time pos="105" value="95.2756"/>
          <time pos="106" value="94.4882"/>
          <time pos="108" value="93.7008"/>
          <time pos="109" value="92.9134"/>
          <time pos="111" value="92.126"/>
          <time pos="112" value="91.3386"/>
          <time pos="114" value="90.5512"/>
          <time pos="115" value="89.7638"/>
          <time pos="117" value="88.9764"/>
          <time pos="118" value="88.189"/>
          <time pos="120" value="87.4016"/>
          <time pos="121" value="86.6142"/>
          <time pos="123" value="85.8268"/>
          <time pos="124" value="85.0394"/>
          <time pos="126" value="84.252"/>
          <time pos="127" value="83.4646"/>
          <time pos="129" value="82.6772"/>
          <time pos="130" value="81.8898"/>
          <time pos="132" value="81.1024"/>
          <time pos="133" value="80.315"/>
          <time pos="135" value="79.5276"/>
          <time pos="136" value="78.7402"/>
          <time pos="138" value="77.9528"/>
          <time pos="139" value="77.1654"/>
          <time pos="141" value="76.378"/>
          <time pos="142" value="75.5906"/>
          <time pos="144" value="74.8031"/>
          <time pos="145" value="74.0157"/>
          <time pos="147" value="73.2283"/>
          <time pos="148" value="72.4409"/>
          <time pos="150" value="71.6535"/>
          <time pos="151" value="70.8661"/>
          <time pos="153" value="70.0787"/>
          <time pos="154" value="69.2913"/>
          <time pos="156" value="68.5039"/>
          <time pos="157" value="67.7165"/>
          <time pos="159" value="66.9291"/>
          <time pos="160" value="66.1417"/>
          <time pos="162" value="65.3543"/>
          <time pos="163" value="64.5669"/>
          <time pos="165" value="63.7795"/>
          <time pos="166" value="62.9921"/>
          <time pos="168" value="62.2047"/>
          <time pos="169" value="61.4173"/>
          <time pos="171" value="60.6299"/>
          <time pos="172" value="59.8425"/>
          <time pos="174" value="59.0551"/>
          <time pos="175" value="58.2677"/>
          <time pos="177" value="57.4803"/>
          <time pos="178" value="56.6929"/>
          <time pos="180" value="55.9055"/>
          <time pos="181" value="55.1181"/>
          <time pos="183" value="54.3307"/>
          <time pos="184" value="53.5433"/>
          <time pos="186" value="52.7559"/>
          <time pos="187" value="51.9685"/>
          <time pos="189" value="51.1811"/>
          <time pos="190" value="50.3937"/>
          <time pos="192" value="100"/>
          <object id="2358"/>
        </automationpattern>
        <automationpattern tens="1" mute="0" pos="9216" name="Track 6>Volume" prog="0" len="384">
          <time pos="0" value="100"/>
          <time pos="97" value="99.2126"/>
          <time pos="99" value="98.4252"/>
          <time pos="100" value="97.6378"/>
          <time pos="102" value="96.8504"/>
          <time pos="103" value="96.063"/>
          <time pos="105" value="95.2756"/>
          <time pos="106" value="94.4882"/>
          <time pos="108" value="93.7008"/>
          <time pos="109" value="92.9134"/>
          <time pos="111" value="92.126"/>
          <time pos="112" value="91.3386"/>
          <time pos="114" value="90.5512"/>
          <time pos="115" value="89.7638"/>
          <time pos="117" value="88.9764"/>
          <time pos="118" value="88.189"/>
          <time pos="120" value="87.4016"/>
          <time pos="121" value="86.6142"/>
          <time pos="123" value="85.8268"/>
          <time pos="124" value="85.0394"/>
          <time pos="126" value="84.252"/>
          <time pos="127" value="83.4646"/>
          <time pos="129" value="82.6772"/>
          <time pos="130" value="81.8898"/>
          <time pos="132" value="81.1024"/>
          <time pos="133" value="80.315"/>
          <time pos="135" value="79.5276"/>
          <time pos="136" value="78.7402"/>
          <time pos="138" value="77.9528"/>
          <time pos="139" value="77.1654"/>
          <time pos="141" value="76.378"/>
          <time pos="142" value="75.5906"/>
          <time pos="144" value="74.8031"/>
          <time pos="145" value="74.0157"/>
          <time pos="147" value="73.2283"/>
          <time pos="148" value="72.4409"/>
          <time pos="150" value="71.6535"/>
          <time pos="151" value="70.8661"/>
          <time pos="153" value="70.0787"/>
          <time pos="154" value="69.2913"/>
          <time pos="156" value="68.5039"/>
          <time pos="157" value="67.7165"/>
          <time pos="159" value="66.9291"/>
          <time pos="160" value="66.1417"/>
          <time pos="162" value="65.3543"/>
          <time pos="163" value="64.5669"/>
          <time pos="165" value="63.7795"/>
          <time pos="166" value="62.9921"/>
          <time pos="168" value="62.2047"/>
          <time pos="169" value="61.4173"/>
          <time pos="171" value="60.6299"/>
          <time pos="172" value="59.8425"/>
          <time pos="174" value="59.0551"/>
          <time pos="175" value="58.2677"/>
          <time pos="177" value="57.4803"/>
          <time pos="178" value="56.6929"/>
          <time pos="180" value="55.9055"/>
          <time pos="181" value="55.1181"/>
          <time pos="183" value="54.3307"/>
          <time pos="184" value="53.5433"/>
          <time pos="186" value="52.7559"/>
          <time pos="187" value="51.9685"/>
          <time pos="189" value="51.1811"/>
          <time pos="190" value="50.3937"/>
          <time pos="192" value="99.2126"/>
          <object id="2358"/>
        </automationpattern>
        <automationpattern tens="1" mute="0" pos="9984" name="Track 6>Volume" prog="0" len="384">
          <time pos="0" value="100"/>
          <time pos="97" value="99.2126"/>
          <time pos="99" value="98.4252"/>
          <time pos="100" value="97.6378"/>
          <time pos="102" value="96.8504"/>
          <time pos="103" value="96.063"/>
          <time pos="105" value="95.2756"/>
          <time pos="106" value="94.4882"/>
          <time pos="108" value="93.7008"/>
          <time pos="109" value="92.9134"/>
          <time pos="111" value="92.126"/>
          <time pos="112" value="91.3386"/>
          <time pos="114" value="90.5512"/>
          <time pos="115" value="89.7638"/>
          <time pos="117" value="88.9764"/>
          <time pos="118" value="88.189"/>
          <time pos="120" value="87.4016"/>
          <time pos="121" value="86.6142"/>
          <time pos="123" value="85.8268"/>
          <time pos="125" value="85.0394"/>
          <time pos="126" value="84.252"/>
          <time pos="128" value="83.4646"/>
          <time pos="129" value="82.6772"/>
          <time pos="131" value="81.8898"/>
          <time pos="132" value="81.1024"/>
          <time pos="134" value="80.315"/>
          <time pos="135" value="79.5276"/>
          <time pos="137" value="78.7402"/>
          <time pos="138" value="77.9528"/>
          <time pos="140" value="77.1654"/>
          <time pos="141" value="76.378"/>
          <time pos="143" value="75.5906"/>
          <time pos="144" value="74.8031"/>
          <time pos="146" value="74.0157"/>
          <time pos="147" value="73.2283"/>
          <time pos="149" value="72.4409"/>
          <time pos="150" value="71.6535"/>
          <time pos="152" value="70.8661"/>
          <time pos="153" value="70.0787"/>
          <time pos="155" value="69.2913"/>
          <time pos="157" value="68.5039"/>
          <time pos="158" value="67.7165"/>
          <time pos="160" value="66.9291"/>
          <time pos="161" value="66.1417"/>
          <time pos="163" value="65.3543"/>
          <time pos="164" value="64.5669"/>
          <time pos="166" value="63.7795"/>
          <time pos="167" value="62.9921"/>
          <time pos="169" value="62.2047"/>
          <time pos="170" value="61.4173"/>
          <time pos="172" value="60.6299"/>
          <time pos="173" value="59.8425"/>
          <time pos="175" value="59.0551"/>
          <time pos="176" value="58.2677"/>
          <time pos="178" value="57.4803"/>
          <time pos="179" value="56.6929"/>
          <time pos="181" value="55.9055"/>
          <time pos="182" value="55.1181"/>
          <time pos="184" value="54.3307"/>
          <time pos="185" value="53.5433"/>
          <time pos="187" value="52.7559"/>
          <time pos="189" value="51.9685"/>
          <time pos="190" value="51.1811"/>
          <time pos="192" value="99.2126"/>
          <object id="2358"/>
        </automationpattern>
        <automationpattern tens="1" mute="0" pos="10752" name="Track 6>Volume" prog="0" len="384">
          <time pos="0" value="100"/>
          <time pos="97" value="99.2126"/>
          <time pos="99" value="98.4252"/>
          <time pos="100" value="97.6378"/>
          <time pos="102" value="96.8504"/>
          <time pos="103" value="96.063"/>
          <time pos="105" value="95.2756"/>
          <time pos="106" value="94.4882"/>
          <time pos="108" value="93.7008"/>
          <time pos="109" value="92.9134"/>
          <time pos="111" value="92.126"/>
          <time pos="112" value="91.3386"/>
          <time pos="114" value="90.5512"/>
          <time pos="115" value="89.7638"/>
          <time pos="117" value="88.9764"/>
          <time pos="118" value="88.189"/>
          <time pos="120" value="87.4016"/>
          <time pos="121" value="86.6142"/>
          <time pos="123" value="85.8268"/>
          <time pos="124" value="85.0394"/>
          <time pos="126" value="84.252"/>
          <time pos="127" value="83.4646"/>
          <time pos="129" value="82.6772"/>
          <time pos="130" value="81.8898"/>
          <time pos="132" value="81.1024"/>
          <time pos="133" value="80.315"/>
          <time pos="135" value="79.5276"/>
          <time pos="136" value="78.7402"/>
          <time pos="138" value="77.9528"/>
          <time pos="139" value="77.1654"/>
          <time pos="141" value="76.378"/>
          <time pos="142" value="75.5906"/>
          <time pos="144" value="74.8031"/>
          <time pos="145" value="74.0157"/>
          <time pos="147" value="73.2283"/>
          <time pos="148" value="72.4409"/>
          <time pos="150" value="71.6535"/>
          <time pos="151" value="70.8661"/>
          <time pos="153" value="70.0787"/>
          <time pos="154" value="69.2913"/>
          <time pos="156" value="68.5039"/>
          <time pos="157" value="67.7165"/>
          <time pos="159" value="66.9291"/>
          <time pos="160" value="66.1417"/>
          <time pos="162" value="65.3543"/>
          <time pos="163" value="64.5669"/>
          <time pos="165" value="63.7795"/>
          <time pos="166" value="62.9921"/>
          <time pos="168" value="62.2047"/>
          <time pos="169" value="61.4173"/>
          <time pos="171" value="60.6299"/>
          <time pos="172" value="59.8425"/>
          <time pos="174" value="59.0551"/>
          <time pos="175" value="58.2677"/>
          <time pos="177" value="57.4803"/>
          <time pos="178" value="56.6929"/>
          <time pos="180" value="55.9055"/>
          <time pos="181" value="55.1181"/>
          <time pos="183" value="54.3307"/>
          <time pos="184" value="53.5433"/>
          <time pos="186" value="52.7559"/>
          <time pos="187" value="51.9685"/>
          <time pos="189" value="51.1811"/>
          <time pos="190" value="50.3937"/>
          <time pos="192" value="99.2126"/>
          <object id="2358"/>
        </automationpattern>
        <automationpattern tens="1" mute="0" pos="16704" name="Track 6>Volume" prog="0" len="192">
          <time pos="0" value="74.8031"/>
          <object id="2358"/>
        </automationpattern>
        <automationpattern tens="1" mute="0" pos="22848" name="Track 6>Volume" prog="0" len="192">
          <time pos="0" value="100"/>
          <object id="2358"/>
        </automationpattern>
        <automationpattern tens="1" mute="0" pos="23424" name="Track 6>Volume" prog="0" len="384">
          <time pos="0" value="100"/>
          <time pos="97" value="99.2126"/>
          <time pos="99" value="98.4252"/>
          <time pos="100" value="97.6378"/>
          <time pos="102" value="96.8504"/>
          <time pos="103" value="96.063"/>
          <time pos="105" value="95.2756"/>
          <time pos="106" value="94.4882"/>
          <time pos="108" value="93.7008"/>
          <time pos="109" value="92.9134"/>
          <time pos="111" value="92.126"/>
          <time pos="112" value="91.3386"/>
          <time pos="114" value="90.5512"/>
          <time pos="115" value="89.7638"/>
          <time pos="117" value="88.9764"/>
          <time pos="118" value="88.189"/>
          <time pos="120" value="87.4016"/>
          <time pos="121" value="86.6142"/>
          <time pos="123" value="85.8268"/>
          <time pos="124" value="85.0394"/>
          <time pos="126" value="84.252"/>
          <time pos="127" value="83.4646"/>
          <time pos="129" value="82.6772"/>
          <time pos="130" value="81.8898"/>
          <time pos="132" value="81.1024"/>
          <time pos="133" value="80.315"/>
          <time pos="135" value="79.5276"/>
          <time pos="136" value="78.7402"/>
          <time pos="138" value="77.9528"/>
          <time pos="139" value="77.1654"/>
          <time pos="141" value="76.378"/>
          <time pos="142" value="75.5906"/>
          <time pos="144" value="74.8031"/>
          <time pos="145" value="74.0157"/>
          <time pos="147" value="73.2283"/>
          <time pos="148" value="72.4409"/>
          <time pos="150" value="71.6535"/>
          <time pos="151" value="70.8661"/>
          <time pos="153" value="70.0787"/>
          <time pos="154" value="69.2913"/>
          <time pos="156" value="68.5039"/>
          <time pos="157" value="67.7165"/>
          <time pos="159" value="66.9291"/>
          <time pos="160" value="66.1417"/>
          <time pos="162" value="65.3543"/>
          <time pos="163" value="64.5669"/>
          <time pos="165" value="63.7795"/>
          <time pos="166" value="62.9921"/>
          <time pos="168" value="62.2047"/>
          <time pos="169" value="61.4173"/>
          <time pos="171" value="60.6299"/>
          <time pos="172" value="59.8425"/>
          <time pos="174" value="59.0551"/>
          <time pos="175" value="58.2677"/>
          <time pos="177" value="57.4803"/>
          <time pos="178" value="56.6929"/>
          <time pos="180" value="55.9055"/>
          <time pos="181" value="55.1181"/>
          <time pos="183" value="54.3307"/>
          <time pos="184" value="53.5433"/>
          <time pos="186" value="52.7559"/>
          <time pos="187" value="51.9685"/>
          <time pos="189" value="51.1811"/>
          <time pos="190" value="50.3937"/>
          <time pos="192" value="100"/>
          <object id="2358"/>
        </automationpattern>
        <automationpattern tens="1" mute="0" pos="24192" name="Track 6>Volume" prog="0" len="384">
          <time pos="0" value="100"/>
          <time pos="97" value="99.2126"/>
          <time pos="99" value="98.4252"/>
          <time pos="100" value="97.6378"/>
          <time pos="102" value="96.8504"/>
          <time pos="103" value="96.063"/>
          <time pos="105" value="95.2756"/>
          <time pos="106" value="94.4882"/>
          <time pos="108" value="93.7008"/>
          <time pos="109" value="92.9134"/>
          <time pos="111" value="92.126"/>
          <time pos="112" value="91.3386"/>
          <time pos="114" value="90.5512"/>
          <time pos="115" value="89.7638"/>
          <time pos="117" value="88.9764"/>
          <time pos="118" value="88.189"/>
          <time pos="120" value="87.4016"/>
          <time pos="121" value="86.6142"/>
          <time pos="123" value="85.8268"/>
          <time pos="124" value="85.0394"/>
          <time pos="126" value="84.252"/>
          <time pos="127" value="83.4646"/>
          <time pos="129" value="82.6772"/>
          <time pos="130" value="81.8898"/>
          <time pos="132" value="81.1024"/>
          <time pos="133" value="80.315"/>
          <time pos="135" value="79.5276"/>
          <time pos="136" value="78.7402"/>
          <time pos="138" value="77.9528"/>
          <time pos="139" value="77.1654"/>
          <time pos="141" value="76.378"/>
          <time pos="142" value="75.5906"/>
          <time pos="144" value="74.8031"/>
          <time pos="145" value="74.0157"/>
          <time pos="147" value="73.2283"/>
          <time pos="148" value="72.4409"/>
          <time pos="150" value="71.6535"/>
          <time pos="151" value="70.8661"/>
          <time pos="153" value="70.0787"/>
          <time pos="154" value="69.2913"/>
          <time pos="156" value="68.5039"/>
          <time pos="157" value="67.7165"/>
          <time pos="159" value="66.9291"/>
          <time pos="160" value="66.1417"/>
          <time pos="162" value="65.3543"/>
          <time pos="163" value="64.5669"/>
          <time pos="165" value="63.7795"/>
          <time pos="166" value="62.9921"/>
          <time pos="168" value="62.2047"/>
          <time pos="169" value="61.4173"/>
          <time pos="171" value="60.6299"/>
          <time pos="172" value="59.8425"/>
          <time pos="174" value="59.0551"/>
          <time pos="175" value="58.2677"/>
          <time pos="177" value="57.4803"/>
          <time pos="178" value="56.6929"/>
          <time pos="180" value="55.9055"/>
          <time pos="181" value="55.1181"/>
          <time pos="183" value="54.3307"/>
          <time pos="184" value="53.5433"/>
          <time pos="186" value="52.7559"/>
          <time pos="187" value="51.9685"/>
          <time pos="189" value="51.1811"/>
          <time pos="190" value="50.3937"/>
          <time pos="192" value="99.2126"/>
          <object id="2358"/>
        </automationpattern>
        <automationpattern tens="1" mute="0" pos="24960" name="Track 6>Volume" prog="0" len="384">
          <time pos="0" value="100"/>
          <time pos="97" value="99.2126"/>
          <time pos="99" value="98.4252"/>
          <time pos="100" value="97.6378"/>
          <time pos="102" value="96.8504"/>
          <time pos="103" value="96.063"/>
          <time pos="105" value="95.2756"/>
          <time pos="106" value="94.4882"/>
          <time pos="108" value="93.7008"/>
          <time pos="109" value="92.9134"/>
          <time pos="111" value="92.126"/>
          <time pos="112" value="91.3386"/>
          <time pos="114" value="90.5512"/>
          <time pos="115" value="89.7638"/>
          <time pos="117" value="88.9764"/>
          <time pos="118" value="88.189"/>
          <time pos="120" value="87.4016"/>
          <time pos="121" value="86.6142"/>
          <time pos="123" value="85.8268"/>
          <time pos="125" value="85.0394"/>
          <time pos="126" value="84.252"/>
          <time pos="128" value="83.4646"/>
          <time pos="129" value="82.6772"/>
          <time pos="131" value="81.8898"/>
          <time pos="132" value="81.1024"/>
          <time pos="134" value="80.315"/>
          <time pos="135" value="79.5276"/>
          <time pos="137" value="78.7402"/>
          <time pos="138" value="77.9528"/>
          <time pos="140" value="77.1654"/>
          <time pos="141" value="76.378"/>
          <time pos="143" value="75.5906"/>
          <time pos="144" value="74.8031"/>
          <time pos="146" value="74.0157"/>
          <time pos="147" value="73.2283"/>
          <time pos="149" value="72.4409"/>
          <time pos="150" value="71.6535"/>
          <time pos="152" value="70.8661"/>
          <time pos="153" value="70.0787"/>
          <time pos="155" value="69.2913"/>
          <time pos="157" value="68.5039"/>
          <time pos="158" value="67.7165"/>
          <time pos="160" value="66.9291"/>
          <time pos="161" value="66.1417"/>
          <time pos="163" value="65.3543"/>
          <time pos="164" value="64.5669"/>
          <time pos="166" value="63.7795"/>
          <time pos="167" value="62.9921"/>
          <time pos="169" value="62.2047"/>
          <time pos="170" value="61.4173"/>
          <time pos="172" value="60.6299"/>
          <time pos="173" value="59.8425"/>
          <time pos="175" value="59.0551"/>
          <time pos="176" value="58.2677"/>
          <time pos="178" value="57.4803"/>
          <time pos="179" value="56.6929"/>
          <time pos="181" value="55.9055"/>
          <time pos="182" value="55.1181"/>
          <time pos="184" value="54.3307"/>
          <time pos="185" value="53.5433"/>
          <time pos="187" value="52.7559"/>
          <time pos="189" value="51.9685"/>
          <time pos="190" value="51.1811"/>
          <time pos="192" value="99.2126"/>
          <object id="2358"/>
        </automationpattern>
        <automationpattern tens="1" mute="0" pos="25728" name="Track 6>Volume" prog="0" len="384">
          <time pos="0" value="100"/>
          <time pos="97" value="99.2126"/>
          <time pos="99" value="98.4252"/>
          <time pos="100" value="97.6378"/>
          <time pos="102" value="96.8504"/>
          <time pos="103" value="96.063"/>
          <time pos="105" value="95.2756"/>
          <time pos="106" value="94.4882"/>
          <time pos="108" value="93.7008"/>
          <time pos="109" value="92.9134"/>
          <time pos="111" value="92.126"/>
          <time pos="112" value="91.3386"/>
          <time pos="114" value="90.5512"/>
          <time pos="115" value="89.7638"/>
          <time pos="117" value="88.9764"/>
          <time pos="118" value="88.189"/>
          <time pos="120" value="87.4016"/>
          <time pos="121" value="86.6142"/>
          <time pos="123" value="85.8268"/>
          <time pos="124" value="85.0394"/>
          <time pos="126" value="84.252"/>
          <time pos="127" value="83.4646"/>
          <time pos="129" value="82.6772"/>
          <time pos="130" value="81.8898"/>
          <time pos="132" value="81.1024"/>
          <time pos="133" value="80.315"/>
          <time pos="135" value="79.5276"/>
          <time pos="136" value="78.7402"/>
          <time pos="138" value="77.9528"/>
          <time pos="139" value="77.1654"/>
          <time pos="141" value="76.378"/>
          <time pos="142" value="75.5906"/>
          <time pos="144" value="74.8031"/>
          <time pos="145" value="74.0157"/>
          <time pos="147" value="73.2283"/>
          <time pos="148" value="72.4409"/>
          <time pos="150" value="71.6535"/>
          <time pos="151" value="70.8661"/>
          <time pos="153" value="70.0787"/>
          <time pos="154" value="69.2913"/>
          <time pos="156" value="68.5039"/>
          <time pos="157" value="67.7165"/>
          <time pos="159" value="66.9291"/>
          <time pos="160" value="66.1417"/>
          <time pos="162" value="65.3543"/>
          <time pos="163" value="64.5669"/>
          <time pos="165" value="63.7795"/>
          <time pos="166" value="62.9921"/>
          <time pos="168" value="62.2047"/>
          <time pos="169" value="61.4173"/>
          <time pos="171" value="60.6299"/>
          <time pos="172" value="59.8425"/>
          <time pos="174" value="59.0551"/>
          <time pos="175" value="58.2677"/>
          <time pos="177" value="57.4803"/>
          <time pos="178" value="56.6929"/>
          <time pos="180" value="55.9055"/>
          <time pos="181" value="55.1181"/>
          <time pos="183" value="54.3307"/>
          <time pos="184" value="53.5433"/>
          <time pos="186" value="52.7559"/>
          <time pos="187" value="51.9685"/>
          <time pos="189" value="51.1811"/>
          <time pos="190" value="50.3937"/>
          <time pos="192" value="99.2126"/>
          <object id="2358"/>
        </automationpattern>
      </track>
      <track name="Track 7" type="0" solo="0" muted="0">
        <instrumenttrack pitch="0" fxch="0" basenote="57" pan="0" vol="100" usemasterpitch="1" pitchrange="2">
          <instrument name="sf2player">
            <sf2player gain="1" src="C:/Users/cervi/Downloads/tmp/Layton_TC.sf2" reverbDamping="0" chorusOn="0" chorusSpeed="0.3" reverbOn="0" chorusNum="3" reverbLevel="0.9" chorusDepth="8" reverbWidth="0.5" bank="128" patch="0" reverbRoomSize="0.2" chorusLevel="2"/>
          </instrument>
          <eldata fwet="0" fres="0.5" fcut="14000" ftype="0">
            <elvol dec="0.5" lspd="0.1" hold="0.5" sustain="0.5" lshp="0" ctlenvamt="0" rel="0.1" userwavefile="" lamt="0" pdel="0" lspd_syncmode="0" lpdel="0" att="0" x100="0" lspd_numerator="4" lspd_denominator="4" amt="0" latt="0"/>
            <elcut dec="0.5" lspd="0.1" hold="0.5" sustain="0.5" lshp="0" ctlenvamt="0" rel="0.1" userwavefile="" lamt="0" pdel="0" lspd_syncmode="0" lpdel="0" att="0" x100="0" lspd_numerator="4" lspd_denominator="4" amt="0" latt="0"/>
            <elres dec="0.5" lspd="0.1" hold="0.5" sustain="0.5" lshp="0" ctlenvamt="0" rel="0.1" userwavefile="" lamt="0" pdel="0" lspd_syncmode="0" lpdel="0" att="0" x100="0" lspd_numerator="4" lspd_denominator="4" amt="0" latt="0"/>
          </eldata>
          <chordcreator chord="0" chordrange="1" chord-enabled="0"/>
          <arpeggiator arpcycle="0" arpgate="100" arp="0" arprange="1" arpdir="0" arp-enabled="0" arpskip="0" arptime_syncmode="0" arptime="200" arpmiss="0" arpmode="0" arptime_denominator="4" arptime_numerator="4"/>
          <midiport inputchannel="0" fixedoutputvelocity="-1" outputchannel="1" outputcontroller="0" writable="0" inputcontroller="0" fixedoutputnote="-1" outputprogram="1" basevelocity="63" fixedinputvelocity="-1" readable="0"/>
          <fxchain enabled="0" numofeffects="0"/>
        </instrumenttrack>
        <pattern steps="16" name="Track 7" pos="1536" type="1" muted="0">
          <note key="34" pan="0" pos="108" vol="94" len="1"/>
          <note key="34" pan="0" pos="132" vol="94" len="1"/>
          <note key="34" pan="0" pos="156" vol="157" len="1"/>
          <note key="34" pan="0" pos="168" vol="173" len="1"/>
          <note key="34" pan="0" pos="192" vol="125" len="1"/>
          <note key="24" pan="0" pos="192" vol="94" len="1"/>
          <note key="34" pan="0" pos="204" vol="125" len="1"/>
          <note key="34" pan="0" pos="216" vol="125" len="1"/>
          <note key="28" pan="0" pos="216" vol="125" len="1"/>
          <note key="34" pan="0" pos="240" vol="125" len="1"/>
          <note key="24" pan="0" pos="240" vol="94" len="1"/>
          <note key="34" pan="0" pos="252" vol="125" len="1"/>
          <note key="24" pan="0" pos="252" vol="94" len="1"/>
          <note key="34" pan="0" pos="264" vol="125" len="1"/>
          <note key="28" pan="0" pos="264" vol="125" len="1"/>
          <note key="24" pan="0" pos="276" vol="94" len="1"/>
          <note key="34" pan="0" pos="300" vol="125" len="1"/>
          <note key="24" pan="0" pos="300" vol="94" len="1"/>
          <note key="28" pan="0" pos="312" vol="125" len="1"/>
          <note key="34" pan="0" pos="324" vol="125" len="1"/>
          <note key="24" pan="0" pos="324" vol="94" len="1"/>
          <note key="32" pan="0" pos="336" vol="125" len="1"/>
          <note key="24" pan="0" pos="336" vol="94" len="1"/>
          <note key="24" pan="0" pos="348" vol="94" len="1"/>
          <note key="34" pan="0" pos="360" vol="125" len="1"/>
          <note key="28" pan="0" pos="360" vol="125" len="1"/>
          <note key="34" pan="0" pos="384" vol="125" len="1"/>
          <note key="24" pan="0" pos="384" vol="94" len="1"/>
          <note key="34" pan="0" pos="396" vol="125" len="1"/>
          <note key="34" pan="0" pos="408" vol="125" len="1"/>
          <note key="28" pan="0" pos="408" vol="125" len="1"/>
          <note key="34" pan="0" pos="432" vol="125" len="1"/>
          <note key="24" pan="0" pos="432" vol="94" len="1"/>
          <note key="34" pan="0" pos="444" vol="125" len="1"/>
          <note key="24" pan="0" pos="444" vol="94" len="1"/>
          <note key="34" pan="0" pos="456" vol="125" len="1"/>
          <note key="28" pan="0" pos="456" vol="125" len="1"/>
          <note key="24" pan="0" pos="468" vol="94" len="1"/>
          <note key="34" pan="0" pos="492" vol="125" len="1"/>
          <note key="24" pan="0" pos="492" vol="94" len="1"/>
          <note key="28" pan="0" pos="504" vol="125" len="1"/>
          <note key="34" pan="0" pos="516" vol="125" len="1"/>
          <note key="24" pan="0" pos="516" vol="94" len="1"/>
          <note key="32" pan="0" pos="528" vol="125" len="1"/>
          <note key="24" pan="0" pos="528" vol="94" len="1"/>
          <note key="24" pan="0" pos="540" vol="94" len="1"/>
          <note key="34" pan="0" pos="552" vol="125" len="1"/>
          <note key="28" pan="0" pos="552" vol="125" len="1"/>
          <note key="34" pan="0" pos="576" vol="125" len="1"/>
          <note key="24" pan="0" pos="576" vol="94" len="1"/>
          <note key="34" pan="0" pos="588" vol="125" len="1"/>
          <note key="34" pan="0" pos="600" vol="125" len="1"/>
          <note key="28" pan="0" pos="600" vol="125" len="1"/>
          <note key="34" pan="0" pos="624" vol="125" len="1"/>
          <note key="24" pan="0" pos="624" vol="94" len="1"/>
          <note key="34" pan="0" pos="636" vol="125" len="1"/>
          <note key="24" pan="0" pos="636" vol="94" len="1"/>
          <note key="34" pan="0" pos="648" vol="125" len="1"/>
          <note key="28" pan="0" pos="648" vol="125" len="1"/>
          <note key="24" pan="0" pos="660" vol="94" len="1"/>
          <note key="34" pan="0" pos="684" vol="125" len="1"/>
          <note key="24" pan="0" pos="684" vol="94" len="1"/>
          <note key="28" pan="0" pos="696" vol="125" len="1"/>
          <note key="34" pan="0" pos="708" vol="125" len="1"/>
          <note key="24" pan="0" pos="708" vol="94" len="1"/>
          <note key="32" pan="0" pos="720" vol="125" len="1"/>
          <note key="24" pan="0" pos="720" vol="94" len="1"/>
          <note key="24" pan="0" pos="732" vol="94" len="1"/>
          <note key="34" pan="0" pos="744" vol="125" len="1"/>
          <note key="28" pan="0" pos="744" vol="125" len="1"/>
          <note key="34" pan="0" pos="768" vol="125" len="1"/>
          <note key="24" pan="0" pos="768" vol="94" len="1"/>
          <note key="34" pan="0" pos="780" vol="125" len="1"/>
          <note key="34" pan="0" pos="792" vol="125" len="1"/>
          <note key="28" pan="0" pos="792" vol="125" len="1"/>
          <note key="34" pan="0" pos="816" vol="125" len="1"/>
          <note key="24" pan="0" pos="816" vol="94" len="1"/>
          <note key="34" pan="0" pos="828" vol="125" len="1"/>
          <note key="24" pan="0" pos="828" vol="94" len="1"/>
          <note key="34" pan="0" pos="840" vol="125" len="1"/>
          <note key="28" pan="0" pos="840" vol="125" len="1"/>
          <note key="24" pan="0" pos="852" vol="94" len="1"/>
          <note key="45" pan="0" pos="864" vol="125" len="1"/>
          <note key="28" pan="0" pos="864" vol="125" len="1"/>
          <note key="24" pan="0" pos="876" vol="94" len="1"/>
          <note key="28" pan="0" pos="888" vol="110" len="1"/>
          <note key="45" pan="0" pos="900" vol="125" len="1"/>
          <note key="28" pan="0" pos="900" vol="125" len="1"/>
          <note key="24" pan="0" pos="912" vol="94" len="1"/>
          <note key="28" pan="0" pos="924" vol="110" len="1"/>
          <note key="45" pan="0" pos="936" vol="125" len="1"/>
          <note key="28" pan="0" pos="936" vol="125" len="1"/>
          <note key="24" pan="0" pos="948" vol="94" len="1"/>
          <note key="45" pan="0" pos="960" vol="125" len="1"/>
          <note key="34" pan="0" pos="960" vol="125" len="1"/>
          <note key="24" pan="0" pos="960" vol="94" len="1"/>
          <note key="34" pan="0" pos="972" vol="125" len="1"/>
          <note key="34" pan="0" pos="984" vol="125" len="1"/>
          <note key="28" pan="0" pos="984" vol="125" len="1"/>
          <note key="34" pan="0" pos="1008" vol="125" len="1"/>
          <note key="24" pan="0" pos="1008" vol="94" len="1"/>
          <note key="34" pan="0" pos="1020" vol="125" len="1"/>
          <note key="24" pan="0" pos="1020" vol="94" len="1"/>
          <note key="34" pan="0" pos="1032" vol="125" len="1"/>
          <note key="28" pan="0" pos="1032" vol="125" len="1"/>
          <note key="24" pan="0" pos="1044" vol="94" len="1"/>
          <note key="34" pan="0" pos="1068" vol="125" len="1"/>
          <note key="24" pan="0" pos="1068" vol="94" len="1"/>
          <note key="28" pan="0" pos="1080" vol="125" len="1"/>
          <note key="34" pan="0" pos="1092" vol="125" len="1"/>
          <note key="24" pan="0" pos="1092" vol="94" len="1"/>
          <note key="32" pan="0" pos="1104" vol="125" len="1"/>
          <note key="24" pan="0" pos="1104" vol="94" len="1"/>
          <note key="24" pan="0" pos="1116" vol="94" len="1"/>
          <note key="34" pan="0" pos="1128" vol="125" len="1"/>
          <note key="28" pan="0" pos="1128" vol="125" len="1"/>
          <note key="34" pan="0" pos="1152" vol="125" len="1"/>
          <note key="24" pan="0" pos="1152" vol="94" len="1"/>
          <note key="34" pan="0" pos="1164" vol="125" len="1"/>
          <note key="34" pan="0" pos="1176" vol="125" len="1"/>
          <note key="28" pan="0" pos="1176" vol="125" len="1"/>
          <note key="34" pan="0" pos="1200" vol="125" len="1"/>
          <note key="24" pan="0" pos="1200" vol="94" len="1"/>
          <note key="34" pan="0" pos="1212" vol="125" len="1"/>
          <note key="24" pan="0" pos="1212" vol="94" len="1"/>
          <note key="34" pan="0" pos="1224" vol="125" len="1"/>
          <note key="28" pan="0" pos="1224" vol="125" len="1"/>
          <note key="24" pan="0" pos="1236" vol="94" len="1"/>
          <note key="34" pan="0" pos="1260" vol="125" len="1"/>
          <note key="24" pan="0" pos="1260" vol="94" len="1"/>
          <note key="28" pan="0" pos="1272" vol="125" len="1"/>
          <note key="34" pan="0" pos="1284" vol="125" len="1"/>
          <note key="24" pan="0" pos="1284" vol="94" len="1"/>
          <note key="32" pan="0" pos="1296" vol="125" len="1"/>
          <note key="24" pan="0" pos="1296" vol="94" len="1"/>
          <note key="24" pan="0" pos="1308" vol="94" len="1"/>
          <note key="34" pan="0" pos="1320" vol="125" len="1"/>
          <note key="28" pan="0" pos="1320" vol="125" len="1"/>
          <note key="34" pan="0" pos="1344" vol="125" len="1"/>
          <note key="24" pan="0" pos="1344" vol="94" len="1"/>
          <note key="34" pan="0" pos="1356" vol="125" len="1"/>
          <note key="34" pan="0" pos="1368" vol="125" len="1"/>
          <note key="28" pan="0" pos="1368" vol="125" len="1"/>
          <note key="34" pan="0" pos="1392" vol="125" len="1"/>
          <note key="24" pan="0" pos="1392" vol="94" len="1"/>
          <note key="34" pan="0" pos="1404" vol="125" len="1"/>
          <note key="24" pan="0" pos="1404" vol="94" len="1"/>
          <note key="34" pan="0" pos="1416" vol="125" len="1"/>
          <note key="28" pan="0" pos="1416" vol="125" len="1"/>
          <note key="24" pan="0" pos="1428" vol="94" len="1"/>
          <note key="34" pan="0" pos="1452" vol="125" len="1"/>
          <note key="24" pan="0" pos="1452" vol="94" len="1"/>
          <note key="28" pan="0" pos="1464" vol="125" len="1"/>
          <note key="34" pan="0" pos="1476" vol="125" len="1"/>
          <note key="24" pan="0" pos="1476" vol="94" len="1"/>
          <note key="32" pan="0" pos="1488" vol="125" len="1"/>
          <note key="24" pan="0" pos="1488" vol="94" len="1"/>
          <note key="24" pan="0" pos="1500" vol="94" len="1"/>
          <note key="34" pan="0" pos="1512" vol="125" len="1"/>
          <note key="28" pan="0" pos="1512" vol="125" len="1"/>
          <note key="34" pan="0" pos="1536" vol="125" len="1"/>
          <note key="24" pan="0" pos="1536" vol="94" len="1"/>
          <note key="34" pan="0" pos="1548" vol="125" len="1"/>
          <note key="34" pan="0" pos="1560" vol="125" len="1"/>
          <note key="28" pan="0" pos="1560" vol="125" len="1"/>
          <note key="34" pan="0" pos="1584" vol="125" len="1"/>
          <note key="24" pan="0" pos="1584" vol="94" len="1"/>
          <note key="34" pan="0" pos="1596" vol="125" len="1"/>
          <note key="24" pan="0" pos="1596" vol="94" len="1"/>
          <note key="34" pan="0" pos="1608" vol="125" len="1"/>
          <note key="28" pan="0" pos="1608" vol="125" len="1"/>
          <note key="24" pan="0" pos="1620" vol="94" len="1"/>
          <note key="45" pan="0" pos="1632" vol="125" len="1"/>
          <note key="28" pan="0" pos="1632" vol="125" len="1"/>
          <note key="24" pan="0" pos="1644" vol="94" len="1"/>
          <note key="28" pan="0" pos="1656" vol="110" len="1"/>
          <note key="45" pan="0" pos="1668" vol="125" len="1"/>
          <note key="28" pan="0" pos="1668" vol="125" len="1"/>
          <note key="24" pan="0" pos="1680" vol="94" len="1"/>
          <note key="28" pan="0" pos="1692" vol="110" len="1"/>
          <note key="45" pan="0" pos="1704" vol="125" len="1"/>
          <note key="28" pan="0" pos="1704" vol="125" len="1"/>
          <note key="24" pan="0" pos="1716" vol="94" len="1"/>
          <note key="45" pan="0" pos="1728" vol="125" len="1"/>
          <note key="30" pan="0" pos="1728" vol="110" len="1"/>
          <note key="24" pan="0" pos="1728" vol="94" len="1"/>
          <note key="30" pan="0" pos="1752" vol="94" len="1"/>
          <note key="28" pan="0" pos="1752" vol="125" len="1"/>
          <note key="30" pan="0" pos="1764" vol="94" len="1"/>
          <note key="30" pan="0" pos="1776" vol="110" len="1"/>
          <note key="24" pan="0" pos="1776" vol="94" len="1"/>
          <note key="24" pan="0" pos="1788" vol="94" len="1"/>
          <note key="30" pan="0" pos="1800" vol="94" len="1"/>
          <note key="28" pan="0" pos="1800" vol="125" len="1"/>
          <note key="30" pan="0" pos="1812" vol="94" len="1"/>
          <note key="24" pan="0" pos="1812" vol="94" len="1"/>
          <note key="30" pan="0" pos="1824" vol="110" len="1"/>
          <note key="24" pan="0" pos="1836" vol="94" len="1"/>
          <note key="30" pan="0" pos="1848" vol="94" len="1"/>
          <note key="28" pan="0" pos="1848" vol="125" len="1"/>
          <note key="30" pan="0" pos="1860" vol="94" len="1"/>
          <note key="24" pan="0" pos="1860" vol="94" len="1"/>
          <note key="30" pan="0" pos="1872" vol="110" len="1"/>
          <note key="24" pan="0" pos="1872" vol="94" len="1"/>
          <note key="24" pan="0" pos="1884" vol="94" len="1"/>
          <note key="30" pan="0" pos="1896" vol="94" len="1"/>
          <note key="28" pan="0" pos="1896" vol="125" len="1"/>
          <note key="30" pan="0" pos="1908" vol="94" len="1"/>
          <note key="30" pan="0" pos="1920" vol="110" len="1"/>
          <note key="24" pan="0" pos="1920" vol="94" len="1"/>
          <note key="30" pan="0" pos="1944" vol="94" len="1"/>
          <note key="28" pan="0" pos="1944" vol="125" len="1"/>
          <note key="30" pan="0" pos="1956" vol="94" len="1"/>
          <note key="30" pan="0" pos="1968" vol="110" len="1"/>
          <note key="24" pan="0" pos="1968" vol="94" len="1"/>
          <note key="24" pan="0" pos="1980" vol="94" len="1"/>
          <note key="30" pan="0" pos="1992" vol="94" len="1"/>
          <note key="28" pan="0" pos="1992" vol="125" len="1"/>
          <note key="30" pan="0" pos="2004" vol="94" len="1"/>
          <note key="24" pan="0" pos="2004" vol="94" len="1"/>
          <note key="30" pan="0" pos="2016" vol="110" len="1"/>
          <note key="24" pan="0" pos="2028" vol="94" len="1"/>
          <note key="30" pan="0" pos="2040" vol="94" len="1"/>
          <note key="28" pan="0" pos="2040" vol="125" len="1"/>
          <note key="30" pan="0" pos="2052" vol="94" len="1"/>
          <note key="24" pan="0" pos="2052" vol="94" len="1"/>
          <note key="30" pan="0" pos="2064" vol="110" len="1"/>
          <note key="24" pan="0" pos="2064" vol="94" len="1"/>
          <note key="24" pan="0" pos="2076" vol="94" len="1"/>
          <note key="30" pan="0" pos="2088" vol="94" len="1"/>
          <note key="28" pan="0" pos="2088" vol="125" len="1"/>
          <note key="30" pan="0" pos="2100" vol="94" len="1"/>
          <note key="30" pan="0" pos="2112" vol="110" len="1"/>
          <note key="24" pan="0" pos="2112" vol="94" len="1"/>
          <note key="30" pan="0" pos="2136" vol="94" len="1"/>
          <note key="28" pan="0" pos="2136" vol="125" len="1"/>
          <note key="30" pan="0" pos="2148" vol="94" len="1"/>
          <note key="30" pan="0" pos="2160" vol="110" len="1"/>
          <note key="24" pan="0" pos="2160" vol="94" len="1"/>
          <note key="24" pan="0" pos="2172" vol="94" len="1"/>
          <note key="30" pan="0" pos="2184" vol="94" len="1"/>
          <note key="28" pan="0" pos="2184" vol="125" len="1"/>
          <note key="30" pan="0" pos="2196" vol="94" len="1"/>
          <note key="24" pan="0" pos="2196" vol="94" len="1"/>
          <note key="30" pan="0" pos="2208" vol="110" len="1"/>
          <note key="24" pan="0" pos="2220" vol="94" len="1"/>
          <note key="30" pan="0" pos="2232" vol="94" len="1"/>
          <note key="28" pan="0" pos="2232" vol="125" len="1"/>
          <note key="30" pan="0" pos="2244" vol="94" len="1"/>
          <note key="24" pan="0" pos="2244" vol="94" len="1"/>
          <note key="30" pan="0" pos="2256" vol="110" len="1"/>
          <note key="24" pan="0" pos="2256" vol="94" len="1"/>
          <note key="24" pan="0" pos="2268" vol="94" len="1"/>
          <note key="30" pan="0" pos="2280" vol="94" len="1"/>
          <note key="28" pan="0" pos="2280" vol="125" len="1"/>
          <note key="30" pan="0" pos="2292" vol="94" len="1"/>
          <note key="34" pan="0" pos="2304" vol="125" len="1"/>
          <note key="24" pan="0" pos="2304" vol="94" len="1"/>
          <note key="30" pan="0" pos="2328" vol="94" len="1"/>
          <note key="28" pan="0" pos="2328" vol="125" len="1"/>
          <note key="30" pan="0" pos="2340" vol="94" len="1"/>
          <note key="30" pan="0" pos="2352" vol="110" len="1"/>
          <note key="24" pan="0" pos="2352" vol="94" len="1"/>
          <note key="24" pan="0" pos="2364" vol="94" len="1"/>
          <note key="30" pan="0" pos="2376" vol="94" len="1"/>
          <note key="28" pan="0" pos="2376" vol="125" len="1"/>
          <note key="30" pan="0" pos="2388" vol="94" len="1"/>
          <note key="24" pan="0" pos="2388" vol="94" len="1"/>
          <note key="45" pan="0" pos="2400" vol="125" len="1"/>
          <note key="28" pan="0" pos="2400" vol="125" len="1"/>
          <note key="24" pan="0" pos="2412" vol="94" len="1"/>
          <note key="28" pan="0" pos="2424" vol="110" len="1"/>
          <note key="45" pan="0" pos="2436" vol="125" len="1"/>
          <note key="28" pan="0" pos="2436" vol="125" len="1"/>
          <note key="24" pan="0" pos="2448" vol="94" len="1"/>
          <note key="28" pan="0" pos="2460" vol="110" len="1"/>
          <note key="45" pan="0" pos="2472" vol="125" len="1"/>
          <note key="28" pan="0" pos="2472" vol="125" len="1"/>
          <note key="24" pan="0" pos="2484" vol="94" len="1"/>
          <note key="45" pan="0" pos="2496" vol="125" len="1"/>
          <note key="34" pan="0" pos="2496" vol="125" len="1"/>
          <note key="24" pan="0" pos="2496" vol="94" len="1"/>
          <note key="34" pan="0" pos="2508" vol="125" len="1"/>
          <note key="34" pan="0" pos="2520" vol="125" len="1"/>
          <note key="28" pan="0" pos="2520" vol="125" len="1"/>
          <note key="34" pan="0" pos="2544" vol="125" len="1"/>
          <note key="24" pan="0" pos="2544" vol="94" len="1"/>
          <note key="34" pan="0" pos="2556" vol="125" len="1"/>
          <note key="24" pan="0" pos="2556" vol="94" len="1"/>
          <note key="34" pan="0" pos="2568" vol="125" len="1"/>
          <note key="28" pan="0" pos="2568" vol="125" len="1"/>
          <note key="24" pan="0" pos="2580" vol="94" len="1"/>
          <note key="34" pan="0" pos="2604" vol="125" len="1"/>
          <note key="24" pan="0" pos="2604" vol="94" len="1"/>
          <note key="28" pan="0" pos="2616" vol="125" len="1"/>
          <note key="34" pan="0" pos="2628" vol="125" len="1"/>
          <note key="24" pan="0" pos="2628" vol="94" len="1"/>
          <note key="32" pan="0" pos="2640" vol="125" len="1"/>
          <note key="24" pan="0" pos="2640" vol="94" len="1"/>
          <note key="24" pan="0" pos="2652" vol="94" len="1"/>
          <note key="34" pan="0" pos="2664" vol="125" len="1"/>
          <note key="28" pan="0" pos="2664" vol="125" len="1"/>
          <note key="34" pan="0" pos="2688" vol="125" len="1"/>
          <note key="24" pan="0" pos="2688" vol="94" len="1"/>
          <note key="34" pan="0" pos="2700" vol="125" len="1"/>
          <note key="34" pan="0" pos="2712" vol="125" len="1"/>
          <note key="28" pan="0" pos="2712" vol="125" len="1"/>
          <note key="34" pan="0" pos="2736" vol="125" len="1"/>
          <note key="24" pan="0" pos="2736" vol="94" len="1"/>
          <note key="34" pan="0" pos="2748" vol="125" len="1"/>
          <note key="24" pan="0" pos="2748" vol="94" len="1"/>
          <note key="34" pan="0" pos="2760" vol="125" len="1"/>
          <note key="28" pan="0" pos="2760" vol="125" len="1"/>
          <note key="24" pan="0" pos="2772" vol="94" len="1"/>
          <note key="34" pan="0" pos="2796" vol="125" len="1"/>
          <note key="24" pan="0" pos="2796" vol="94" len="1"/>
          <note key="28" pan="0" pos="2808" vol="125" len="1"/>
          <note key="34" pan="0" pos="2820" vol="125" len="1"/>
          <note key="24" pan="0" pos="2820" vol="94" len="1"/>
          <note key="32" pan="0" pos="2832" vol="125" len="1"/>
          <note key="24" pan="0" pos="2832" vol="94" len="1"/>
          <note key="24" pan="0" pos="2844" vol="94" len="1"/>
          <note key="34" pan="0" pos="2856" vol="125" len="1"/>
          <note key="28" pan="0" pos="2856" vol="125" len="1"/>
          <note key="34" pan="0" pos="2880" vol="125" len="1"/>
          <note key="24" pan="0" pos="2880" vol="94" len="1"/>
          <note key="34" pan="0" pos="2892" vol="125" len="1"/>
          <note key="34" pan="0" pos="2904" vol="125" len="1"/>
          <note key="28" pan="0" pos="2904" vol="125" len="1"/>
          <note key="34" pan="0" pos="2928" vol="125" len="1"/>
          <note key="24" pan="0" pos="2928" vol="94" len="1"/>
          <note key="34" pan="0" pos="2940" vol="125" len="1"/>
          <note key="24" pan="0" pos="2940" vol="94" len="1"/>
          <note key="34" pan="0" pos="2952" vol="125" len="1"/>
          <note key="28" pan="0" pos="2952" vol="125" len="1"/>
          <note key="24" pan="0" pos="2964" vol="94" len="1"/>
          <note key="34" pan="0" pos="2988" vol="125" len="1"/>
          <note key="24" pan="0" pos="2988" vol="94" len="1"/>
          <note key="28" pan="0" pos="3000" vol="125" len="1"/>
          <note key="34" pan="0" pos="3012" vol="125" len="1"/>
          <note key="24" pan="0" pos="3012" vol="94" len="1"/>
          <note key="32" pan="0" pos="3024" vol="125" len="1"/>
          <note key="24" pan="0" pos="3024" vol="94" len="1"/>
          <note key="24" pan="0" pos="3036" vol="94" len="1"/>
          <note key="34" pan="0" pos="3048" vol="125" len="1"/>
          <note key="28" pan="0" pos="3048" vol="125" len="1"/>
          <note key="34" pan="0" pos="3072" vol="125" len="1"/>
          <note key="24" pan="0" pos="3072" vol="94" len="1"/>
          <note key="34" pan="0" pos="3084" vol="125" len="1"/>
          <note key="34" pan="0" pos="3096" vol="125" len="1"/>
          <note key="28" pan="0" pos="3096" vol="125" len="1"/>
          <note key="34" pan="0" pos="3120" vol="125" len="1"/>
          <note key="24" pan="0" pos="3120" vol="94" len="1"/>
          <note key="34" pan="0" pos="3132" vol="125" len="1"/>
          <note key="24" pan="0" pos="3132" vol="94" len="1"/>
          <note key="34" pan="0" pos="3144" vol="125" len="1"/>
          <note key="28" pan="0" pos="3144" vol="125" len="1"/>
          <note key="24" pan="0" pos="3156" vol="94" len="1"/>
          <note key="45" pan="0" pos="3168" vol="125" len="1"/>
          <note key="28" pan="0" pos="3168" vol="125" len="1"/>
          <note key="24" pan="0" pos="3180" vol="94" len="1"/>
          <note key="28" pan="0" pos="3192" vol="110" len="1"/>
          <note key="45" pan="0" pos="3204" vol="125" len="1"/>
          <note key="28" pan="0" pos="3204" vol="125" len="1"/>
          <note key="24" pan="0" pos="3216" vol="94" len="1"/>
          <note key="28" pan="0" pos="3228" vol="110" len="1"/>
          <note key="45" pan="0" pos="3240" vol="125" len="1"/>
          <note key="28" pan="0" pos="3240" vol="125" len="1"/>
          <note key="24" pan="0" pos="3252" vol="94" len="1"/>
          <note key="34" pan="0" pos="3264" vol="125" len="1"/>
          <note key="24" pan="0" pos="3264" vol="94" len="1"/>
          <note key="34" pan="0" pos="3288" vol="125" len="1"/>
          <note key="28" pan="0" pos="3288" vol="125" len="1"/>
          <note key="34" pan="0" pos="3312" vol="125" len="1"/>
          <note key="24" pan="0" pos="3312" vol="94" len="1"/>
          <note key="24" pan="0" pos="3324" vol="94" len="1"/>
          <note key="34" pan="0" pos="3336" vol="125" len="1"/>
          <note key="28" pan="0" pos="3336" vol="125" len="1"/>
          <note key="24" pan="0" pos="3348" vol="94" len="1"/>
          <note key="34" pan="0" pos="3360" vol="125" len="1"/>
          <note key="24" pan="0" pos="3372" vol="94" len="1"/>
          <note key="34" pan="0" pos="3384" vol="125" len="1"/>
          <note key="28" pan="0" pos="3384" vol="125" len="1"/>
          <note key="24" pan="0" pos="3396" vol="94" len="1"/>
          <note key="34" pan="0" pos="3408" vol="125" len="1"/>
          <note key="24" pan="0" pos="3408" vol="94" len="1"/>
          <note key="24" pan="0" pos="3420" vol="94" len="1"/>
          <note key="34" pan="0" pos="3432" vol="125" len="1"/>
          <note key="28" pan="0" pos="3432" vol="125" len="1"/>
          <note key="34" pan="0" pos="3456" vol="125" len="1"/>
          <note key="24" pan="0" pos="3456" vol="94" len="1"/>
          <note key="34" pan="0" pos="3480" vol="125" len="1"/>
          <note key="28" pan="0" pos="3480" vol="125" len="1"/>
          <note key="34" pan="0" pos="3504" vol="125" len="1"/>
          <note key="24" pan="0" pos="3504" vol="94" len="1"/>
          <note key="24" pan="0" pos="3516" vol="94" len="1"/>
          <note key="34" pan="0" pos="3528" vol="125" len="1"/>
          <note key="28" pan="0" pos="3528" vol="125" len="1"/>
          <note key="24" pan="0" pos="3540" vol="94" len="1"/>
          <note key="34" pan="0" pos="3552" vol="125" len="1"/>
          <note key="24" pan="0" pos="3564" vol="94" len="1"/>
          <note key="34" pan="0" pos="3576" vol="125" len="1"/>
          <note key="28" pan="0" pos="3576" vol="125" len="1"/>
          <note key="24" pan="0" pos="3588" vol="94" len="1"/>
          <note key="34" pan="0" pos="3600" vol="125" len="1"/>
          <note key="24" pan="0" pos="3600" vol="94" len="1"/>
          <note key="24" pan="0" pos="3612" vol="94" len="1"/>
          <note key="34" pan="0" pos="3624" vol="125" len="1"/>
          <note key="28" pan="0" pos="3624" vol="125" len="1"/>
          <note key="34" pan="0" pos="3648" vol="125" len="1"/>
          <note key="24" pan="0" pos="3648" vol="94" len="1"/>
          <note key="34" pan="0" pos="3672" vol="125" len="1"/>
          <note key="28" pan="0" pos="3672" vol="125" len="1"/>
          <note key="34" pan="0" pos="3696" vol="125" len="1"/>
          <note key="24" pan="0" pos="3696" vol="94" len="1"/>
          <note key="24" pan="0" pos="3708" vol="94" len="1"/>
          <note key="34" pan="0" pos="3720" vol="125" len="1"/>
          <note key="28" pan="0" pos="3720" vol="125" len="1"/>
          <note key="24" pan="0" pos="3732" vol="94" len="1"/>
          <note key="34" pan="0" pos="3744" vol="125" len="1"/>
          <note key="24" pan="0" pos="3756" vol="94" len="1"/>
          <note key="34" pan="0" pos="3768" vol="125" len="1"/>
          <note key="28" pan="0" pos="3768" vol="125" len="1"/>
          <note key="24" pan="0" pos="3780" vol="94" len="1"/>
          <note key="34" pan="0" pos="3792" vol="125" len="1"/>
          <note key="24" pan="0" pos="3792" vol="94" len="1"/>
          <note key="24" pan="0" pos="3804" vol="94" len="1"/>
          <note key="34" pan="0" pos="3816" vol="125" len="1"/>
          <note key="28" pan="0" pos="3816" vol="125" len="1"/>
          <note key="34" pan="0" pos="3840" vol="125" len="1"/>
          <note key="24" pan="0" pos="3840" vol="94" len="1"/>
          <note key="34" pan="0" pos="3852" vol="125" len="1"/>
          <note key="34" pan="0" pos="3864" vol="125" len="1"/>
          <note key="28" pan="0" pos="3864" vol="125" len="1"/>
          <note key="34" pan="0" pos="3888" vol="125" len="1"/>
          <note key="24" pan="0" pos="3888" vol="94" len="1"/>
          <note key="34" pan="0" pos="3900" vol="125" len="1"/>
          <note key="24" pan="0" pos="3900" vol="94" len="1"/>
          <note key="34" pan="0" pos="3912" vol="125" len="1"/>
          <note key="28" pan="0" pos="3912" vol="125" len="1"/>
          <note key="24" pan="0" pos="3924" vol="94" len="1"/>
          <note key="45" pan="0" pos="3936" vol="125" len="1"/>
          <note key="28" pan="0" pos="3936" vol="125" len="1"/>
          <note key="24" pan="0" pos="3948" vol="94" len="1"/>
          <note key="28" pan="0" pos="3960" vol="110" len="1"/>
          <note key="45" pan="0" pos="3972" vol="125" len="1"/>
          <note key="28" pan="0" pos="3972" vol="125" len="1"/>
          <note key="24" pan="0" pos="3984" vol="94" len="1"/>
          <note key="28" pan="0" pos="3996" vol="110" len="1"/>
          <note key="45" pan="0" pos="4008" vol="125" len="1"/>
          <note key="28" pan="0" pos="4008" vol="125" len="1"/>
          <note key="24" pan="0" pos="4020" vol="94" len="1"/>
          <note key="45" pan="0" pos="4032" vol="125" len="1"/>
          <note key="34" pan="0" pos="4032" vol="125" len="1"/>
          <note key="24" pan="0" pos="4032" vol="94" len="1"/>
          <note key="34" pan="0" pos="4056" vol="125" len="1"/>
          <note key="28" pan="0" pos="4056" vol="125" len="1"/>
          <note key="34" pan="0" pos="4080" vol="125" len="1"/>
          <note key="24" pan="0" pos="4080" vol="94" len="1"/>
          <note key="24" pan="0" pos="4092" vol="94" len="1"/>
          <note key="34" pan="0" pos="4104" vol="125" len="1"/>
          <note key="28" pan="0" pos="4104" vol="125" len="1"/>
          <note key="24" pan="0" pos="4116" vol="94" len="1"/>
          <note key="34" pan="0" pos="4128" vol="125" len="1"/>
          <note key="24" pan="0" pos="4140" vol="94" len="1"/>
          <note key="34" pan="0" pos="4152" vol="125" len="1"/>
          <note key="28" pan="0" pos="4152" vol="125" len="1"/>
          <note key="24" pan="0" pos="4164" vol="94" len="1"/>
          <note key="34" pan="0" pos="4176" vol="125" len="1"/>
          <note key="24" pan="0" pos="4176" vol="94" len="1"/>
          <note key="24" pan="0" pos="4188" vol="94" len="1"/>
          <note key="34" pan="0" pos="4200" vol="125" len="1"/>
          <note key="28" pan="0" pos="4200" vol="125" len="1"/>
          <note key="34" pan="0" pos="4224" vol="125" len="1"/>
          <note key="24" pan="0" pos="4224" vol="94" len="1"/>
          <note key="34" pan="0" pos="4248" vol="125" len="1"/>
          <note key="28" pan="0" pos="4248" vol="125" len="1"/>
          <note key="34" pan="0" pos="4272" vol="125" len="1"/>
          <note key="24" pan="0" pos="4272" vol="94" len="1"/>
          <note key="24" pan="0" pos="4284" vol="94" len="1"/>
          <note key="34" pan="0" pos="4296" vol="125" len="1"/>
          <note key="28" pan="0" pos="4296" vol="125" len="1"/>
          <note key="24" pan="0" pos="4308" vol="94" len="1"/>
          <note key="34" pan="0" pos="4320" vol="125" len="1"/>
          <note key="24" pan="0" pos="4332" vol="94" len="1"/>
          <note key="34" pan="0" pos="4344" vol="125" len="1"/>
          <note key="28" pan="0" pos="4344" vol="125" len="1"/>
          <note key="24" pan="0" pos="4356" vol="94" len="1"/>
          <note key="34" pan="0" pos="4368" vol="125" len="1"/>
          <note key="24" pan="0" pos="4368" vol="94" len="1"/>
          <note key="24" pan="0" pos="4380" vol="94" len="1"/>
          <note key="34" pan="0" pos="4392" vol="125" len="1"/>
          <note key="28" pan="0" pos="4392" vol="125" len="1"/>
          <note key="34" pan="0" pos="4416" vol="125" len="1"/>
          <note key="24" pan="0" pos="4416" vol="94" len="1"/>
          <note key="34" pan="0" pos="4440" vol="125" len="1"/>
          <note key="28" pan="0" pos="4440" vol="125" len="1"/>
          <note key="34" pan="0" pos="4464" vol="125" len="1"/>
          <note key="24" pan="0" pos="4464" vol="94" len="1"/>
          <note key="24" pan="0" pos="4476" vol="94" len="1"/>
          <note key="34" pan="0" pos="4488" vol="125" len="1"/>
          <note key="28" pan="0" pos="4488" vol="125" len="1"/>
          <note key="24" pan="0" pos="4500" vol="94" len="1"/>
          <note key="34" pan="0" pos="4512" vol="125" len="1"/>
          <note key="24" pan="0" pos="4524" vol="94" len="1"/>
          <note key="34" pan="0" pos="4536" vol="125" len="1"/>
          <note key="28" pan="0" pos="4536" vol="125" len="1"/>
          <note key="24" pan="0" pos="4548" vol="94" len="1"/>
          <note key="34" pan="0" pos="4560" vol="125" len="1"/>
          <note key="24" pan="0" pos="4560" vol="94" len="1"/>
          <note key="24" pan="0" pos="4572" vol="94" len="1"/>
          <note key="34" pan="0" pos="4584" vol="125" len="1"/>
          <note key="28" pan="0" pos="4584" vol="125" len="1"/>
          <note key="34" pan="0" pos="4608" vol="125" len="1"/>
          <note key="24" pan="0" pos="4608" vol="94" len="1"/>
          <note key="34" pan="0" pos="4620" vol="125" len="1"/>
          <note key="34" pan="0" pos="4632" vol="125" len="1"/>
          <note key="28" pan="0" pos="4632" vol="125" len="1"/>
          <note key="34" pan="0" pos="4656" vol="125" len="1"/>
          <note key="24" pan="0" pos="4656" vol="94" len="1"/>
          <note key="34" pan="0" pos="4668" vol="125" len="1"/>
          <note key="24" pan="0" pos="4668" vol="94" len="1"/>
          <note key="34" pan="0" pos="4680" vol="125" len="1"/>
          <note key="28" pan="0" pos="4680" vol="125" len="1"/>
          <note key="24" pan="0" pos="4692" vol="94" len="1"/>
          <note key="45" pan="0" pos="4704" vol="125" len="1"/>
          <note key="28" pan="0" pos="4704" vol="125" len="1"/>
          <note key="24" pan="0" pos="4716" vol="94" len="1"/>
          <note key="28" pan="0" pos="4728" vol="110" len="1"/>
          <note key="45" pan="0" pos="4740" vol="125" len="1"/>
          <note key="28" pan="0" pos="4740" vol="125" len="1"/>
          <note key="24" pan="0" pos="4752" vol="94" len="1"/>
          <note key="28" pan="0" pos="4764" vol="110" len="1"/>
          <note key="45" pan="0" pos="4776" vol="125" len="1"/>
          <note key="28" pan="0" pos="4776" vol="125" len="1"/>
          <note key="24" pan="0" pos="4788" vol="94" len="1"/>
          <note key="34" pan="0" pos="4800" vol="125" len="1"/>
          <note key="24" pan="0" pos="4800" vol="94" len="1"/>
          <note key="34" pan="0" pos="4824" vol="125" len="1"/>
          <note key="28" pan="0" pos="4824" vol="125" len="1"/>
          <note key="34" pan="0" pos="4848" vol="125" len="1"/>
          <note key="24" pan="0" pos="4848" vol="94" len="1"/>
          <note key="24" pan="0" pos="4860" vol="94" len="1"/>
          <note key="34" pan="0" pos="4872" vol="125" len="1"/>
          <note key="28" pan="0" pos="4872" vol="125" len="1"/>
          <note key="24" pan="0" pos="4884" vol="94" len="1"/>
          <note key="34" pan="0" pos="4896" vol="125" len="1"/>
          <note key="24" pan="0" pos="4908" vol="94" len="1"/>
          <note key="34" pan="0" pos="4920" vol="125" len="1"/>
          <note key="28" pan="0" pos="4920" vol="125" len="1"/>
          <note key="24" pan="0" pos="4932" vol="94" len="1"/>
          <note key="34" pan="0" pos="4944" vol="125" len="1"/>
          <note key="24" pan="0" pos="4944" vol="94" len="1"/>
          <note key="24" pan="0" pos="4956" vol="94" len="1"/>
          <note key="34" pan="0" pos="4968" vol="125" len="1"/>
          <note key="28" pan="0" pos="4968" vol="125" len="1"/>
          <note key="34" pan="0" pos="4992" vol="125" len="1"/>
          <note key="24" pan="0" pos="4992" vol="94" len="1"/>
          <note key="34" pan="0" pos="5016" vol="125" len="1"/>
          <note key="28" pan="0" pos="5016" vol="125" len="1"/>
          <note key="34" pan="0" pos="5040" vol="125" len="1"/>
          <note key="24" pan="0" pos="5040" vol="94" len="1"/>
          <note key="24" pan="0" pos="5052" vol="94" len="1"/>
          <note key="34" pan="0" pos="5064" vol="125" len="1"/>
          <note key="28" pan="0" pos="5064" vol="125" len="1"/>
          <note key="24" pan="0" pos="5076" vol="94" len="1"/>
          <note key="34" pan="0" pos="5088" vol="125" len="1"/>
          <note key="24" pan="0" pos="5100" vol="94" len="1"/>
          <note key="34" pan="0" pos="5112" vol="125" len="1"/>
          <note key="28" pan="0" pos="5112" vol="125" len="1"/>
          <note key="24" pan="0" pos="5124" vol="94" len="1"/>
          <note key="34" pan="0" pos="5136" vol="125" len="1"/>
          <note key="24" pan="0" pos="5136" vol="94" len="1"/>
          <note key="24" pan="0" pos="5148" vol="94" len="1"/>
          <note key="34" pan="0" pos="5160" vol="125" len="1"/>
          <note key="28" pan="0" pos="5160" vol="125" len="1"/>
          <note key="34" pan="0" pos="5184" vol="125" len="1"/>
          <note key="24" pan="0" pos="5184" vol="94" len="1"/>
          <note key="34" pan="0" pos="5208" vol="125" len="1"/>
          <note key="28" pan="0" pos="5208" vol="125" len="1"/>
          <note key="34" pan="0" pos="5232" vol="125" len="1"/>
          <note key="24" pan="0" pos="5232" vol="94" len="1"/>
          <note key="24" pan="0" pos="5244" vol="94" len="1"/>
          <note key="34" pan="0" pos="5256" vol="125" len="1"/>
          <note key="28" pan="0" pos="5256" vol="125" len="1"/>
          <note key="24" pan="0" pos="5268" vol="94" len="1"/>
          <note key="34" pan="0" pos="5280" vol="125" len="1"/>
          <note key="24" pan="0" pos="5292" vol="94" len="1"/>
          <note key="34" pan="0" pos="5304" vol="125" len="1"/>
          <note key="28" pan="0" pos="5304" vol="125" len="1"/>
          <note key="24" pan="0" pos="5316" vol="94" len="1"/>
          <note key="34" pan="0" pos="5328" vol="125" len="1"/>
          <note key="24" pan="0" pos="5328" vol="94" len="1"/>
          <note key="24" pan="0" pos="5340" vol="94" len="1"/>
          <note key="34" pan="0" pos="5352" vol="125" len="1"/>
          <note key="28" pan="0" pos="5352" vol="125" len="1"/>
          <note key="34" pan="0" pos="5376" vol="125" len="1"/>
          <note key="24" pan="0" pos="5376" vol="94" len="1"/>
          <note key="34" pan="0" pos="5388" vol="125" len="1"/>
          <note key="34" pan="0" pos="5400" vol="125" len="1"/>
          <note key="28" pan="0" pos="5400" vol="125" len="1"/>
          <note key="34" pan="0" pos="5424" vol="125" len="1"/>
          <note key="24" pan="0" pos="5424" vol="94" len="1"/>
          <note key="34" pan="0" pos="5436" vol="125" len="1"/>
          <note key="24" pan="0" pos="5436" vol="94" len="1"/>
          <note key="34" pan="0" pos="5448" vol="125" len="1"/>
          <note key="28" pan="0" pos="5448" vol="125" len="1"/>
          <note key="24" pan="0" pos="5460" vol="94" len="1"/>
          <note key="45" pan="0" pos="5472" vol="125" len="1"/>
          <note key="28" pan="0" pos="5472" vol="125" len="1"/>
          <note key="24" pan="0" pos="5484" vol="94" len="1"/>
          <note key="28" pan="0" pos="5496" vol="110" len="1"/>
          <note key="45" pan="0" pos="5508" vol="125" len="1"/>
          <note key="28" pan="0" pos="5508" vol="125" len="1"/>
          <note key="24" pan="0" pos="5520" vol="94" len="1"/>
          <note key="28" pan="0" pos="5532" vol="110" len="1"/>
          <note key="45" pan="0" pos="5544" vol="125" len="1"/>
          <note key="28" pan="0" pos="5544" vol="125" len="1"/>
          <note key="24" pan="0" pos="5556" vol="94" len="1"/>
          <note key="34" pan="0" pos="5568" vol="125" len="1"/>
          <note key="24" pan="0" pos="5568" vol="94" len="1"/>
          <note key="34" pan="0" pos="5592" vol="125" len="1"/>
          <note key="28" pan="0" pos="5592" vol="125" len="1"/>
          <note key="34" pan="0" pos="5616" vol="125" len="1"/>
          <note key="24" pan="0" pos="5616" vol="94" len="1"/>
          <note key="24" pan="0" pos="5628" vol="94" len="1"/>
          <note key="34" pan="0" pos="5640" vol="125" len="1"/>
          <note key="28" pan="0" pos="5640" vol="125" len="1"/>
          <note key="24" pan="0" pos="5652" vol="94" len="1"/>
          <note key="34" pan="0" pos="5664" vol="125" len="1"/>
          <note key="24" pan="0" pos="5676" vol="94" len="1"/>
          <note key="34" pan="0" pos="5688" vol="125" len="1"/>
          <note key="28" pan="0" pos="5688" vol="125" len="1"/>
          <note key="24" pan="0" pos="5700" vol="94" len="1"/>
          <note key="34" pan="0" pos="5712" vol="125" len="1"/>
          <note key="24" pan="0" pos="5712" vol="94" len="1"/>
          <note key="24" pan="0" pos="5724" vol="94" len="1"/>
          <note key="34" pan="0" pos="5736" vol="125" len="1"/>
          <note key="28" pan="0" pos="5736" vol="125" len="1"/>
          <note key="34" pan="0" pos="5760" vol="125" len="1"/>
          <note key="24" pan="0" pos="5760" vol="94" len="1"/>
          <note key="34" pan="0" pos="5784" vol="125" len="1"/>
          <note key="28" pan="0" pos="5784" vol="125" len="1"/>
          <note key="34" pan="0" pos="5808" vol="125" len="1"/>
          <note key="24" pan="0" pos="5808" vol="94" len="1"/>
          <note key="24" pan="0" pos="5820" vol="94" len="1"/>
          <note key="34" pan="0" pos="5832" vol="125" len="1"/>
          <note key="28" pan="0" pos="5832" vol="125" len="1"/>
          <note key="24" pan="0" pos="5844" vol="94" len="1"/>
          <note key="34" pan="0" pos="5856" vol="125" len="1"/>
          <note key="24" pan="0" pos="5868" vol="94" len="1"/>
          <note key="34" pan="0" pos="5880" vol="125" len="1"/>
          <note key="28" pan="0" pos="5880" vol="125" len="1"/>
          <note key="24" pan="0" pos="5892" vol="94" len="1"/>
          <note key="34" pan="0" pos="5904" vol="125" len="1"/>
          <note key="24" pan="0" pos="5904" vol="94" len="1"/>
          <note key="24" pan="0" pos="5916" vol="94" len="1"/>
          <note key="34" pan="0" pos="5928" vol="125" len="1"/>
          <note key="28" pan="0" pos="5928" vol="125" len="1"/>
          <note key="34" pan="0" pos="5952" vol="125" len="1"/>
          <note key="24" pan="0" pos="5952" vol="94" len="1"/>
          <note key="34" pan="0" pos="5976" vol="125" len="1"/>
          <note key="28" pan="0" pos="5976" vol="125" len="1"/>
          <note key="34" pan="0" pos="6000" vol="125" len="1"/>
          <note key="24" pan="0" pos="6000" vol="94" len="1"/>
          <note key="24" pan="0" pos="6012" vol="94" len="1"/>
          <note key="34" pan="0" pos="6024" vol="125" len="1"/>
          <note key="28" pan="0" pos="6024" vol="125" len="1"/>
          <note key="24" pan="0" pos="6036" vol="94" len="1"/>
          <note key="34" pan="0" pos="6048" vol="125" len="1"/>
          <note key="24" pan="0" pos="6060" vol="94" len="1"/>
          <note key="34" pan="0" pos="6072" vol="125" len="1"/>
          <note key="28" pan="0" pos="6072" vol="125" len="1"/>
          <note key="24" pan="0" pos="6084" vol="94" len="1"/>
          <note key="34" pan="0" pos="6096" vol="125" len="1"/>
          <note key="24" pan="0" pos="6096" vol="94" len="1"/>
          <note key="24" pan="0" pos="6108" vol="94" len="1"/>
          <note key="34" pan="0" pos="6120" vol="125" len="1"/>
          <note key="28" pan="0" pos="6120" vol="125" len="1"/>
          <note key="34" pan="0" pos="6144" vol="125" len="1"/>
          <note key="24" pan="0" pos="6144" vol="94" len="1"/>
          <note key="34" pan="0" pos="6156" vol="125" len="1"/>
          <note key="34" pan="0" pos="6168" vol="125" len="1"/>
          <note key="28" pan="0" pos="6168" vol="125" len="1"/>
          <note key="34" pan="0" pos="6192" vol="125" len="1"/>
          <note key="24" pan="0" pos="6192" vol="94" len="1"/>
          <note key="34" pan="0" pos="6204" vol="125" len="1"/>
          <note key="24" pan="0" pos="6204" vol="94" len="1"/>
          <note key="34" pan="0" pos="6216" vol="125" len="1"/>
          <note key="28" pan="0" pos="6216" vol="125" len="1"/>
          <note key="24" pan="0" pos="6228" vol="94" len="1"/>
          <note key="45" pan="0" pos="6240" vol="125" len="1"/>
          <note key="28" pan="0" pos="6240" vol="125" len="1"/>
          <note key="24" pan="0" pos="6252" vol="94" len="1"/>
          <note key="28" pan="0" pos="6264" vol="110" len="1"/>
          <note key="45" pan="0" pos="6276" vol="125" len="1"/>
          <note key="28" pan="0" pos="6276" vol="125" len="1"/>
          <note key="24" pan="0" pos="6288" vol="94" len="1"/>
          <note key="28" pan="0" pos="6300" vol="110" len="1"/>
          <note key="45" pan="0" pos="6312" vol="125" len="1"/>
          <note key="28" pan="0" pos="6312" vol="125" len="1"/>
          <note key="24" pan="0" pos="6324" vol="94" len="1"/>
          <note key="45" pan="0" pos="6336" vol="125" len="1"/>
          <note key="34" pan="0" pos="6336" vol="125" len="1"/>
          <note key="24" pan="0" pos="6336" vol="94" len="1"/>
          <note key="32" pan="0" pos="6360" vol="157" len="1"/>
          <note key="34" pan="0" pos="6384" vol="125" len="1"/>
          <note key="28" pan="0" pos="6384" vol="125" len="1"/>
          <note key="24" pan="0" pos="6396" vol="94" len="1"/>
          <note key="32" pan="0" pos="6408" vol="157" len="1"/>
          <note key="24" pan="0" pos="6420" vol="94" len="1"/>
          <note key="34" pan="0" pos="6432" vol="125" len="1"/>
          <note key="28" pan="0" pos="6444" vol="94" len="1"/>
          <note key="32" pan="0" pos="6456" vol="157" len="1"/>
          <note key="24" pan="0" pos="6468" vol="94" len="1"/>
          <note key="34" pan="0" pos="6480" vol="125" len="1"/>
          <note key="24" pan="0" pos="6480" vol="94" len="1"/>
          <note key="24" pan="0" pos="6492" vol="94" len="1"/>
          <note key="28" pan="0" pos="6504" vol="94" len="1"/>
          <note key="34" pan="0" pos="6528" vol="125" len="1"/>
          <note key="24" pan="0" pos="6528" vol="94" len="1"/>
          <note key="32" pan="0" pos="6552" vol="157" len="1"/>
          <note key="34" pan="0" pos="6576" vol="125" len="1"/>
          <note key="28" pan="0" pos="6576" vol="125" len="1"/>
          <note key="24" pan="0" pos="6588" vol="94" len="1"/>
          <note key="32" pan="0" pos="6600" vol="157" len="1"/>
          <note key="24" pan="0" pos="6612" vol="94" len="1"/>
          <note key="34" pan="0" pos="6624" vol="125" len="1"/>
          <note key="28" pan="0" pos="6636" vol="94" len="1"/>
          <note key="32" pan="0" pos="6648" vol="157" len="1"/>
          <note key="24" pan="0" pos="6660" vol="94" len="1"/>
          <note key="34" pan="0" pos="6672" vol="125" len="1"/>
          <note key="24" pan="0" pos="6672" vol="94" len="1"/>
          <note key="24" pan="0" pos="6684" vol="94" len="1"/>
          <note key="32" pan="0" pos="6696" vol="157" len="1"/>
          <note key="28" pan="0" pos="6696" vol="94" len="1"/>
          <note key="34" pan="0" pos="6720" vol="125" len="1"/>
          <note key="24" pan="0" pos="6720" vol="94" len="1"/>
          <note key="32" pan="0" pos="6744" vol="157" len="1"/>
          <note key="34" pan="0" pos="6768" vol="125" len="1"/>
          <note key="28" pan="0" pos="6768" vol="125" len="1"/>
          <note key="24" pan="0" pos="6780" vol="94" len="1"/>
          <note key="32" pan="0" pos="6792" vol="157" len="1"/>
          <note key="24" pan="0" pos="6804" vol="94" len="1"/>
          <note key="34" pan="0" pos="6816" vol="125" len="1"/>
          <note key="28" pan="0" pos="6828" vol="94" len="1"/>
          <note key="32" pan="0" pos="6840" vol="157" len="1"/>
          <note key="24" pan="0" pos="6852" vol="94" len="1"/>
          <note key="34" pan="0" pos="6864" vol="125" len="1"/>
          <note key="24" pan="0" pos="6864" vol="94" len="1"/>
          <note key="24" pan="0" pos="6876" vol="94" len="1"/>
          <note key="28" pan="0" pos="6888" vol="94" len="1"/>
          <note key="34" pan="0" pos="6912" vol="125" len="1"/>
          <note key="24" pan="0" pos="6912" vol="94" len="1"/>
          <note key="32" pan="0" pos="6936" vol="157" len="1"/>
          <note key="34" pan="0" pos="6960" vol="125" len="1"/>
          <note key="28" pan="0" pos="6960" vol="125" len="1"/>
          <note key="24" pan="0" pos="6972" vol="94" len="1"/>
          <note key="32" pan="0" pos="6984" vol="157" len="1"/>
          <note key="24" pan="0" pos="6996" vol="94" len="1"/>
          <note key="34" pan="0" pos="7008" vol="125" len="1"/>
          <note key="28" pan="0" pos="7020" vol="94" len="1"/>
          <note key="32" pan="0" pos="7032" vol="157" len="1"/>
          <note key="24" pan="0" pos="7044" vol="94" len="1"/>
          <note key="34" pan="0" pos="7056" vol="125" len="1"/>
          <note key="24" pan="0" pos="7056" vol="94" len="1"/>
          <note key="24" pan="0" pos="7068" vol="94" len="1"/>
          <note key="32" pan="0" pos="7080" vol="157" len="1"/>
          <note key="28" pan="0" pos="7080" vol="94" len="1"/>
          <note key="34" pan="0" pos="7104" vol="125" len="1"/>
          <note key="24" pan="0" pos="7104" vol="94" len="1"/>
          <note key="32" pan="0" pos="7128" vol="157" len="1"/>
          <note key="34" pan="0" pos="7152" vol="125" len="1"/>
          <note key="28" pan="0" pos="7152" vol="125" len="1"/>
          <note key="35" pan="0" pos="7164" vol="110" len="1"/>
          <note key="24" pan="0" pos="7164" vol="94" len="1"/>
          <note key="32" pan="0" pos="7176" vol="157" len="1"/>
          <note key="24" pan="0" pos="7188" vol="94" len="1"/>
          <note key="34" pan="0" pos="7200" vol="125" len="1"/>
          <note key="28" pan="0" pos="7212" vol="94" len="1"/>
          <note key="32" pan="0" pos="7224" vol="157" len="1"/>
          <note key="24" pan="0" pos="7236" vol="94" len="1"/>
          <note key="34" pan="0" pos="7248" vol="125" len="1"/>
          <note key="24" pan="0" pos="7248" vol="94" len="1"/>
          <note key="24" pan="0" pos="7260" vol="94" len="1"/>
          <note key="28" pan="0" pos="7272" vol="94" len="1"/>
          <note key="31" pan="0" pos="7284" vol="78" len="1"/>
          <note key="34" pan="0" pos="7296" vol="125" len="1"/>
          <note key="24" pan="0" pos="7296" vol="94" len="1"/>
          <note key="32" pan="0" pos="7320" vol="157" len="1"/>
          <note key="34" pan="0" pos="7344" vol="125" len="1"/>
          <note key="28" pan="0" pos="7344" vol="125" len="1"/>
          <note key="35" pan="0" pos="7356" vol="110" len="1"/>
          <note key="24" pan="0" pos="7356" vol="94" len="1"/>
          <note key="32" pan="0" pos="7368" vol="157" len="1"/>
          <note key="24" pan="0" pos="7380" vol="94" len="1"/>
          <note key="34" pan="0" pos="7392" vol="125" len="1"/>
          <note key="28" pan="0" pos="7404" vol="94" len="1"/>
          <note key="32" pan="0" pos="7416" vol="157" len="1"/>
          <note key="24" pan="0" pos="7428" vol="94" len="1"/>
          <note key="34" pan="0" pos="7440" vol="125" len="1"/>
          <note key="24" pan="0" pos="7440" vol="94" len="1"/>
          <note key="24" pan="0" pos="7452" vol="94" len="1"/>
          <note key="32" pan="0" pos="7464" vol="157" len="1"/>
          <note key="28" pan="0" pos="7464" vol="94" len="1"/>
          <note key="31" pan="0" pos="7476" vol="78" len="1"/>
          <note key="34" pan="0" pos="7488" vol="125" len="1"/>
          <note key="24" pan="0" pos="7488" vol="94" len="1"/>
          <note key="32" pan="0" pos="7512" vol="157" len="1"/>
          <note key="34" pan="0" pos="7536" vol="125" len="1"/>
          <note key="28" pan="0" pos="7536" vol="125" len="1"/>
          <note key="35" pan="0" pos="7548" vol="110" len="1"/>
          <note key="24" pan="0" pos="7548" vol="94" len="1"/>
          <note key="32" pan="0" pos="7560" vol="157" len="1"/>
          <note key="24" pan="0" pos="7572" vol="94" len="1"/>
          <note key="34" pan="0" pos="7584" vol="125" len="1"/>
          <note key="28" pan="0" pos="7596" vol="94" len="1"/>
          <note key="32" pan="0" pos="7608" vol="157" len="1"/>
          <note key="24" pan="0" pos="7620" vol="94" len="1"/>
          <note key="34" pan="0" pos="7632" vol="125" len="1"/>
          <note key="24" pan="0" pos="7632" vol="94" len="1"/>
          <note key="24" pan="0" pos="7644" vol="94" len="1"/>
          <note key="28" pan="0" pos="7656" vol="94" len="1"/>
          <note key="31" pan="0" pos="7668" vol="78" len="1"/>
          <note key="34" pan="0" pos="7680" vol="125" len="1"/>
          <note key="24" pan="0" pos="7680" vol="94" len="1"/>
          <note key="32" pan="0" pos="7704" vol="157" len="1"/>
          <note key="34" pan="0" pos="7728" vol="125" len="1"/>
          <note key="28" pan="0" pos="7728" vol="125" len="1"/>
          <note key="35" pan="0" pos="7740" vol="110" len="1"/>
          <note key="24" pan="0" pos="7740" vol="94" len="1"/>
          <note key="32" pan="0" pos="7752" vol="157" len="1"/>
          <note key="24" pan="0" pos="7764" vol="94" len="1"/>
          <note key="34" pan="0" pos="7776" vol="125" len="1"/>
          <note key="28" pan="0" pos="7788" vol="94" len="1"/>
          <note key="32" pan="0" pos="7800" vol="157" len="1"/>
          <note key="24" pan="0" pos="7812" vol="94" len="1"/>
          <note key="34" pan="0" pos="7824" vol="125" len="1"/>
          <note key="24" pan="0" pos="7824" vol="94" len="1"/>
          <note key="24" pan="0" pos="7836" vol="94" len="1"/>
          <note key="32" pan="0" pos="7848" vol="157" len="1"/>
          <note key="28" pan="0" pos="7848" vol="94" len="1"/>
          <note key="31" pan="0" pos="7860" vol="78" len="1"/>
          <note key="34" pan="0" pos="7872" vol="125" len="1"/>
          <note key="24" pan="0" pos="7872" vol="94" len="1"/>
          <note key="32" pan="0" pos="7896" vol="157" len="1"/>
          <note key="34" pan="0" pos="7920" vol="125" len="1"/>
          <note key="28" pan="0" pos="7920" vol="125" len="1"/>
          <note key="35" pan="0" pos="7932" vol="110" len="1"/>
          <note key="24" pan="0" pos="7932" vol="94" len="1"/>
          <note key="32" pan="0" pos="7944" vol="157" len="1"/>
          <note key="24" pan="0" pos="7956" vol="94" len="1"/>
          <note key="34" pan="0" pos="7968" vol="125" len="1"/>
          <note key="28" pan="0" pos="7980" vol="94" len="1"/>
          <note key="32" pan="0" pos="7992" vol="157" len="1"/>
          <note key="24" pan="0" pos="8004" vol="94" len="1"/>
          <note key="34" pan="0" pos="8016" vol="125" len="1"/>
          <note key="24" pan="0" pos="8016" vol="94" len="1"/>
          <note key="24" pan="0" pos="8028" vol="94" len="1"/>
          <note key="28" pan="0" pos="8040" vol="94" len="1"/>
          <note key="31" pan="0" pos="8052" vol="78" len="1"/>
          <note key="34" pan="0" pos="8064" vol="125" len="1"/>
          <note key="24" pan="0" pos="8064" vol="94" len="1"/>
          <note key="32" pan="0" pos="8088" vol="157" len="1"/>
          <note key="34" pan="0" pos="8112" vol="125" len="1"/>
          <note key="28" pan="0" pos="8112" vol="125" len="1"/>
          <note key="35" pan="0" pos="8124" vol="110" len="1"/>
          <note key="24" pan="0" pos="8124" vol="94" len="1"/>
          <note key="32" pan="0" pos="8136" vol="157" len="1"/>
          <note key="24" pan="0" pos="8148" vol="94" len="1"/>
          <note key="34" pan="0" pos="8160" vol="125" len="1"/>
          <note key="28" pan="0" pos="8172" vol="94" len="1"/>
          <note key="32" pan="0" pos="8184" vol="157" len="1"/>
          <note key="24" pan="0" pos="8196" vol="94" len="1"/>
          <note key="34" pan="0" pos="8208" vol="125" len="1"/>
          <note key="24" pan="0" pos="8208" vol="94" len="1"/>
          <note key="24" pan="0" pos="8220" vol="94" len="1"/>
          <note key="32" pan="0" pos="8232" vol="157" len="1"/>
          <note key="28" pan="0" pos="8232" vol="94" len="1"/>
          <note key="31" pan="0" pos="8244" vol="78" len="1"/>
          <note key="34" pan="0" pos="8256" vol="125" len="1"/>
          <note key="24" pan="0" pos="8256" vol="94" len="1"/>
          <note key="32" pan="0" pos="8280" vol="157" len="1"/>
          <note key="34" pan="0" pos="8304" vol="125" len="1"/>
          <note key="28" pan="0" pos="8304" vol="125" len="1"/>
          <note key="35" pan="0" pos="8316" vol="110" len="1"/>
          <note key="24" pan="0" pos="8316" vol="94" len="1"/>
          <note key="32" pan="0" pos="8328" vol="157" len="1"/>
          <note key="24" pan="0" pos="8340" vol="94" len="1"/>
          <note key="34" pan="0" pos="8352" vol="125" len="1"/>
          <note key="28" pan="0" pos="8364" vol="94" len="1"/>
          <note key="32" pan="0" pos="8376" vol="157" len="1"/>
          <note key="24" pan="0" pos="8388" vol="94" len="1"/>
          <note key="34" pan="0" pos="8400" vol="125" len="1"/>
          <note key="24" pan="0" pos="8400" vol="94" len="1"/>
          <note key="24" pan="0" pos="8412" vol="94" len="1"/>
          <note key="28" pan="0" pos="8424" vol="94" len="1"/>
          <note key="31" pan="0" pos="8436" vol="78" len="1"/>
          <note key="34" pan="0" pos="8448" vol="125" len="1"/>
          <note key="24" pan="0" pos="8448" vol="94" len="1"/>
          <note key="32" pan="0" pos="8472" vol="157" len="1"/>
          <note key="34" pan="0" pos="8496" vol="125" len="1"/>
          <note key="28" pan="0" pos="8496" vol="125" len="1"/>
          <note key="35" pan="0" pos="8508" vol="110" len="1"/>
          <note key="24" pan="0" pos="8508" vol="94" len="1"/>
          <note key="32" pan="0" pos="8520" vol="157" len="1"/>
          <note key="24" pan="0" pos="8532" vol="94" len="1"/>
          <note key="34" pan="0" pos="8544" vol="125" len="1"/>
          <note key="28" pan="0" pos="8556" vol="94" len="1"/>
          <note key="32" pan="0" pos="8568" vol="157" len="1"/>
          <note key="24" pan="0" pos="8580" vol="94" len="1"/>
          <note key="34" pan="0" pos="8592" vol="125" len="1"/>
          <note key="24" pan="0" pos="8592" vol="94" len="1"/>
          <note key="24" pan="0" pos="8604" vol="94" len="1"/>
          <note key="32" pan="0" pos="8616" vol="157" len="1"/>
          <note key="28" pan="0" pos="8616" vol="94" len="1"/>
          <note key="31" pan="0" pos="8628" vol="78" len="1"/>
          <note key="34" pan="0" pos="8640" vol="125" len="1"/>
          <note key="24" pan="0" pos="8640" vol="94" len="1"/>
          <note key="32" pan="0" pos="8664" vol="157" len="1"/>
          <note key="34" pan="0" pos="8688" vol="125" len="1"/>
          <note key="28" pan="0" pos="8688" vol="125" len="1"/>
          <note key="35" pan="0" pos="8700" vol="110" len="1"/>
          <note key="24" pan="0" pos="8700" vol="94" len="1"/>
          <note key="32" pan="0" pos="8712" vol="157" len="1"/>
          <note key="24" pan="0" pos="8724" vol="94" len="1"/>
          <note key="34" pan="0" pos="8736" vol="125" len="1"/>
          <note key="28" pan="0" pos="8748" vol="94" len="1"/>
          <note key="32" pan="0" pos="8760" vol="157" len="1"/>
          <note key="24" pan="0" pos="8772" vol="94" len="1"/>
          <note key="34" pan="0" pos="8784" vol="125" len="1"/>
          <note key="24" pan="0" pos="8784" vol="94" len="1"/>
          <note key="24" pan="0" pos="8796" vol="94" len="1"/>
          <note key="28" pan="0" pos="8808" vol="94" len="1"/>
          <note key="31" pan="0" pos="8820" vol="78" len="1"/>
          <note key="34" pan="0" pos="8832" vol="125" len="1"/>
          <note key="24" pan="0" pos="8832" vol="94" len="1"/>
          <note key="32" pan="0" pos="8856" vol="157" len="1"/>
          <note key="34" pan="0" pos="8880" vol="125" len="1"/>
          <note key="28" pan="0" pos="8880" vol="125" len="1"/>
          <note key="35" pan="0" pos="8892" vol="110" len="1"/>
          <note key="24" pan="0" pos="8892" vol="94" len="1"/>
          <note key="32" pan="0" pos="8904" vol="157" len="1"/>
          <note key="24" pan="0" pos="8916" vol="94" len="1"/>
          <note key="34" pan="0" pos="8928" vol="125" len="1"/>
          <note key="28" pan="0" pos="8940" vol="94" len="1"/>
          <note key="32" pan="0" pos="8952" vol="157" len="1"/>
          <note key="24" pan="0" pos="8964" vol="94" len="1"/>
          <note key="34" pan="0" pos="8976" vol="125" len="1"/>
          <note key="24" pan="0" pos="8976" vol="94" len="1"/>
          <note key="24" pan="0" pos="8988" vol="94" len="1"/>
          <note key="32" pan="0" pos="9000" vol="157" len="1"/>
          <note key="28" pan="0" pos="9000" vol="94" len="1"/>
          <note key="31" pan="0" pos="9012" vol="78" len="1"/>
        </pattern>
        <pattern steps="16" name="Track 7" pos="10752" type="1" muted="0">
          <note key="45" pan="0" pos="96" vol="125" len="1"/>
          <note key="28" pan="0" pos="96" vol="125" len="1"/>
          <note key="24" pan="0" pos="108" vol="94" len="1"/>
          <note key="28" pan="0" pos="120" vol="110" len="1"/>
          <note key="45" pan="0" pos="132" vol="125" len="1"/>
          <note key="28" pan="0" pos="132" vol="125" len="1"/>
          <note key="24" pan="0" pos="144" vol="94" len="1"/>
          <note key="28" pan="0" pos="156" vol="110" len="1"/>
          <note key="45" pan="0" pos="168" vol="125" len="1"/>
          <note key="28" pan="0" pos="168" vol="125" len="1"/>
          <note key="24" pan="0" pos="180" vol="94" len="1"/>
          <note key="45" pan="0" pos="192" vol="125" len="1"/>
          <note key="34" pan="0" pos="192" vol="125" len="1"/>
          <note key="24" pan="0" pos="192" vol="94" len="1"/>
          <note key="34" pan="0" pos="204" vol="125" len="1"/>
          <note key="34" pan="0" pos="216" vol="125" len="1"/>
          <note key="28" pan="0" pos="216" vol="125" len="1"/>
          <note key="34" pan="0" pos="240" vol="125" len="1"/>
          <note key="24" pan="0" pos="240" vol="94" len="1"/>
          <note key="34" pan="0" pos="252" vol="125" len="1"/>
          <note key="24" pan="0" pos="252" vol="94" len="1"/>
          <note key="34" pan="0" pos="264" vol="125" len="1"/>
          <note key="28" pan="0" pos="264" vol="125" len="1"/>
          <note key="24" pan="0" pos="276" vol="94" len="1"/>
          <note key="34" pan="0" pos="300" vol="125" len="1"/>
          <note key="24" pan="0" pos="300" vol="94" len="1"/>
          <note key="28" pan="0" pos="312" vol="125" len="1"/>
          <note key="34" pan="0" pos="324" vol="125" len="1"/>
          <note key="24" pan="0" pos="324" vol="94" len="1"/>
          <note key="32" pan="0" pos="336" vol="125" len="1"/>
          <note key="24" pan="0" pos="336" vol="94" len="1"/>
          <note key="24" pan="0" pos="348" vol="94" len="1"/>
          <note key="34" pan="0" pos="360" vol="125" len="1"/>
          <note key="28" pan="0" pos="360" vol="125" len="1"/>
          <note key="34" pan="0" pos="384" vol="125" len="1"/>
          <note key="24" pan="0" pos="384" vol="94" len="1"/>
          <note key="34" pan="0" pos="396" vol="125" len="1"/>
          <note key="34" pan="0" pos="408" vol="125" len="1"/>
          <note key="28" pan="0" pos="408" vol="125" len="1"/>
          <note key="34" pan="0" pos="432" vol="125" len="1"/>
          <note key="24" pan="0" pos="432" vol="94" len="1"/>
          <note key="34" pan="0" pos="444" vol="125" len="1"/>
          <note key="24" pan="0" pos="444" vol="94" len="1"/>
          <note key="34" pan="0" pos="456" vol="125" len="1"/>
          <note key="28" pan="0" pos="456" vol="125" len="1"/>
          <note key="24" pan="0" pos="468" vol="94" len="1"/>
          <note key="34" pan="0" pos="492" vol="125" len="1"/>
          <note key="24" pan="0" pos="492" vol="94" len="1"/>
          <note key="28" pan="0" pos="504" vol="125" len="1"/>
          <note key="34" pan="0" pos="516" vol="125" len="1"/>
          <note key="24" pan="0" pos="516" vol="94" len="1"/>
          <note key="32" pan="0" pos="528" vol="125" len="1"/>
          <note key="24" pan="0" pos="528" vol="94" len="1"/>
          <note key="24" pan="0" pos="540" vol="94" len="1"/>
          <note key="34" pan="0" pos="552" vol="125" len="1"/>
          <note key="28" pan="0" pos="552" vol="125" len="1"/>
          <note key="34" pan="0" pos="576" vol="125" len="1"/>
          <note key="24" pan="0" pos="576" vol="94" len="1"/>
          <note key="34" pan="0" pos="588" vol="125" len="1"/>
          <note key="34" pan="0" pos="600" vol="125" len="1"/>
          <note key="28" pan="0" pos="600" vol="125" len="1"/>
          <note key="34" pan="0" pos="624" vol="125" len="1"/>
          <note key="24" pan="0" pos="624" vol="94" len="1"/>
          <note key="34" pan="0" pos="636" vol="125" len="1"/>
          <note key="24" pan="0" pos="636" vol="94" len="1"/>
          <note key="34" pan="0" pos="648" vol="125" len="1"/>
          <note key="28" pan="0" pos="648" vol="125" len="1"/>
          <note key="24" pan="0" pos="660" vol="94" len="1"/>
          <note key="34" pan="0" pos="684" vol="125" len="1"/>
          <note key="24" pan="0" pos="684" vol="94" len="1"/>
          <note key="28" pan="0" pos="696" vol="125" len="1"/>
          <note key="34" pan="0" pos="708" vol="125" len="1"/>
          <note key="24" pan="0" pos="708" vol="94" len="1"/>
          <note key="32" pan="0" pos="720" vol="125" len="1"/>
          <note key="24" pan="0" pos="720" vol="94" len="1"/>
          <note key="24" pan="0" pos="732" vol="94" len="1"/>
          <note key="34" pan="0" pos="744" vol="125" len="1"/>
          <note key="28" pan="0" pos="744" vol="125" len="1"/>
          <note key="34" pan="0" pos="768" vol="125" len="1"/>
          <note key="24" pan="0" pos="768" vol="94" len="1"/>
          <note key="34" pan="0" pos="780" vol="125" len="1"/>
          <note key="34" pan="0" pos="792" vol="125" len="1"/>
          <note key="28" pan="0" pos="792" vol="125" len="1"/>
          <note key="34" pan="0" pos="816" vol="125" len="1"/>
          <note key="24" pan="0" pos="816" vol="94" len="1"/>
          <note key="34" pan="0" pos="828" vol="125" len="1"/>
          <note key="24" pan="0" pos="828" vol="94" len="1"/>
          <note key="34" pan="0" pos="840" vol="125" len="1"/>
          <note key="28" pan="0" pos="840" vol="125" len="1"/>
          <note key="24" pan="0" pos="852" vol="94" len="1"/>
          <note key="34" pan="0" pos="876" vol="125" len="1"/>
          <note key="24" pan="0" pos="876" vol="94" len="1"/>
          <note key="28" pan="0" pos="888" vol="125" len="1"/>
          <note key="34" pan="0" pos="900" vol="125" len="1"/>
          <note key="24" pan="0" pos="900" vol="94" len="1"/>
          <note key="32" pan="0" pos="912" vol="125" len="1"/>
          <note key="24" pan="0" pos="912" vol="94" len="1"/>
          <note key="24" pan="0" pos="924" vol="94" len="1"/>
          <note key="34" pan="0" pos="936" vol="125" len="1"/>
          <note key="28" pan="0" pos="936" vol="125" len="1"/>
          <note key="34" pan="0" pos="960" vol="125" len="1"/>
          <note key="24" pan="0" pos="960" vol="94" len="1"/>
          <note key="34" pan="0" pos="972" vol="125" len="1"/>
          <note key="34" pan="0" pos="984" vol="125" len="1"/>
          <note key="28" pan="0" pos="984" vol="125" len="1"/>
          <note key="34" pan="0" pos="1008" vol="125" len="1"/>
          <note key="24" pan="0" pos="1008" vol="94" len="1"/>
          <note key="34" pan="0" pos="1020" vol="125" len="1"/>
          <note key="24" pan="0" pos="1020" vol="94" len="1"/>
          <note key="34" pan="0" pos="1032" vol="125" len="1"/>
          <note key="28" pan="0" pos="1032" vol="125" len="1"/>
          <note key="24" pan="0" pos="1044" vol="94" len="1"/>
          <note key="34" pan="0" pos="1068" vol="125" len="1"/>
          <note key="24" pan="0" pos="1068" vol="94" len="1"/>
          <note key="28" pan="0" pos="1080" vol="125" len="1"/>
          <note key="34" pan="0" pos="1092" vol="125" len="1"/>
          <note key="24" pan="0" pos="1092" vol="94" len="1"/>
          <note key="32" pan="0" pos="1104" vol="125" len="1"/>
          <note key="24" pan="0" pos="1104" vol="94" len="1"/>
          <note key="24" pan="0" pos="1116" vol="94" len="1"/>
          <note key="34" pan="0" pos="1128" vol="125" len="1"/>
          <note key="28" pan="0" pos="1128" vol="125" len="1"/>
          <note key="34" pan="0" pos="1152" vol="125" len="1"/>
          <note key="24" pan="0" pos="1152" vol="94" len="1"/>
          <note key="34" pan="0" pos="1164" vol="125" len="1"/>
          <note key="34" pan="0" pos="1176" vol="125" len="1"/>
          <note key="28" pan="0" pos="1176" vol="125" len="1"/>
          <note key="34" pan="0" pos="1200" vol="125" len="1"/>
          <note key="24" pan="0" pos="1200" vol="94" len="1"/>
          <note key="34" pan="0" pos="1212" vol="125" len="1"/>
          <note key="24" pan="0" pos="1212" vol="94" len="1"/>
          <note key="34" pan="0" pos="1224" vol="125" len="1"/>
          <note key="28" pan="0" pos="1224" vol="125" len="1"/>
          <note key="24" pan="0" pos="1236" vol="94" len="1"/>
          <note key="34" pan="0" pos="1260" vol="125" len="1"/>
          <note key="24" pan="0" pos="1260" vol="94" len="1"/>
          <note key="28" pan="0" pos="1272" vol="125" len="1"/>
          <note key="34" pan="0" pos="1284" vol="125" len="1"/>
          <note key="24" pan="0" pos="1284" vol="94" len="1"/>
          <note key="32" pan="0" pos="1296" vol="125" len="1"/>
          <note key="24" pan="0" pos="1296" vol="94" len="1"/>
          <note key="24" pan="0" pos="1308" vol="94" len="1"/>
          <note key="34" pan="0" pos="1320" vol="125" len="1"/>
          <note key="28" pan="0" pos="1320" vol="125" len="1"/>
          <note key="34" pan="0" pos="1344" vol="125" len="1"/>
          <note key="24" pan="0" pos="1344" vol="94" len="1"/>
          <note key="34" pan="0" pos="1356" vol="125" len="1"/>
          <note key="34" pan="0" pos="1368" vol="125" len="1"/>
          <note key="28" pan="0" pos="1368" vol="125" len="1"/>
          <note key="34" pan="0" pos="1392" vol="125" len="1"/>
          <note key="24" pan="0" pos="1392" vol="94" len="1"/>
          <note key="34" pan="0" pos="1404" vol="125" len="1"/>
          <note key="24" pan="0" pos="1404" vol="94" len="1"/>
          <note key="34" pan="0" pos="1416" vol="125" len="1"/>
          <note key="28" pan="0" pos="1416" vol="125" len="1"/>
          <note key="24" pan="0" pos="1428" vol="94" len="1"/>
          <note key="34" pan="0" pos="1452" vol="125" len="1"/>
          <note key="24" pan="0" pos="1452" vol="94" len="1"/>
          <note key="28" pan="0" pos="1464" vol="125" len="1"/>
          <note key="34" pan="0" pos="1476" vol="125" len="1"/>
          <note key="24" pan="0" pos="1476" vol="94" len="1"/>
          <note key="32" pan="0" pos="1488" vol="125" len="1"/>
          <note key="24" pan="0" pos="1488" vol="94" len="1"/>
          <note key="24" pan="0" pos="1500" vol="94" len="1"/>
          <note key="34" pan="0" pos="1512" vol="125" len="1"/>
          <note key="28" pan="0" pos="1512" vol="125" len="1"/>
          <note key="34" pan="0" pos="1536" vol="125" len="1"/>
          <note key="24" pan="0" pos="1536" vol="94" len="1"/>
          <note key="34" pan="0" pos="1548" vol="125" len="1"/>
          <note key="34" pan="0" pos="1560" vol="125" len="1"/>
          <note key="28" pan="0" pos="1560" vol="125" len="1"/>
          <note key="34" pan="0" pos="1584" vol="125" len="1"/>
          <note key="24" pan="0" pos="1584" vol="94" len="1"/>
          <note key="34" pan="0" pos="1596" vol="125" len="1"/>
          <note key="24" pan="0" pos="1596" vol="94" len="1"/>
          <note key="34" pan="0" pos="1608" vol="125" len="1"/>
          <note key="28" pan="0" pos="1608" vol="125" len="1"/>
          <note key="24" pan="0" pos="1620" vol="94" len="1"/>
          <note key="34" pan="0" pos="1644" vol="125" len="1"/>
          <note key="24" pan="0" pos="1644" vol="94" len="1"/>
          <note key="28" pan="0" pos="1656" vol="125" len="1"/>
          <note key="34" pan="0" pos="1668" vol="125" len="1"/>
          <note key="24" pan="0" pos="1668" vol="94" len="1"/>
          <note key="32" pan="0" pos="1680" vol="125" len="1"/>
          <note key="24" pan="0" pos="1680" vol="94" len="1"/>
          <note key="24" pan="0" pos="1692" vol="94" len="1"/>
          <note key="34" pan="0" pos="1704" vol="125" len="1"/>
          <note key="28" pan="0" pos="1704" vol="125" len="1"/>
          <note key="34" pan="0" pos="1728" vol="125" len="1"/>
          <note key="24" pan="0" pos="1728" vol="94" len="1"/>
          <note key="34" pan="0" pos="1740" vol="125" len="1"/>
          <note key="34" pan="0" pos="1752" vol="125" len="1"/>
          <note key="28" pan="0" pos="1752" vol="125" len="1"/>
          <note key="34" pan="0" pos="1776" vol="125" len="1"/>
          <note key="24" pan="0" pos="1776" vol="94" len="1"/>
          <note key="34" pan="0" pos="1788" vol="125" len="1"/>
          <note key="24" pan="0" pos="1788" vol="94" len="1"/>
          <note key="34" pan="0" pos="1800" vol="125" len="1"/>
          <note key="28" pan="0" pos="1800" vol="125" len="1"/>
          <note key="24" pan="0" pos="1812" vol="94" len="1"/>
          <note key="34" pan="0" pos="1836" vol="125" len="1"/>
          <note key="24" pan="0" pos="1836" vol="94" len="1"/>
          <note key="28" pan="0" pos="1848" vol="125" len="1"/>
          <note key="34" pan="0" pos="1860" vol="125" len="1"/>
          <note key="24" pan="0" pos="1860" vol="94" len="1"/>
          <note key="32" pan="0" pos="1872" vol="125" len="1"/>
          <note key="24" pan="0" pos="1872" vol="94" len="1"/>
          <note key="24" pan="0" pos="1884" vol="94" len="1"/>
          <note key="34" pan="0" pos="1896" vol="125" len="1"/>
          <note key="28" pan="0" pos="1896" vol="125" len="1"/>
          <note key="34" pan="0" pos="1920" vol="125" len="1"/>
          <note key="24" pan="0" pos="1920" vol="94" len="1"/>
          <note key="34" pan="0" pos="1932" vol="125" len="1"/>
          <note key="34" pan="0" pos="1944" vol="125" len="1"/>
          <note key="28" pan="0" pos="1944" vol="125" len="1"/>
          <note key="34" pan="0" pos="1968" vol="125" len="1"/>
          <note key="24" pan="0" pos="1968" vol="94" len="1"/>
          <note key="34" pan="0" pos="1980" vol="125" len="1"/>
          <note key="24" pan="0" pos="1980" vol="94" len="1"/>
          <note key="34" pan="0" pos="1992" vol="125" len="1"/>
          <note key="28" pan="0" pos="1992" vol="125" len="1"/>
          <note key="24" pan="0" pos="2004" vol="94" len="1"/>
          <note key="34" pan="0" pos="2028" vol="125" len="1"/>
          <note key="24" pan="0" pos="2028" vol="94" len="1"/>
          <note key="28" pan="0" pos="2040" vol="125" len="1"/>
          <note key="34" pan="0" pos="2052" vol="125" len="1"/>
          <note key="24" pan="0" pos="2052" vol="94" len="1"/>
          <note key="32" pan="0" pos="2064" vol="125" len="1"/>
          <note key="24" pan="0" pos="2064" vol="94" len="1"/>
          <note key="24" pan="0" pos="2076" vol="94" len="1"/>
          <note key="34" pan="0" pos="2088" vol="125" len="1"/>
          <note key="28" pan="0" pos="2088" vol="125" len="1"/>
          <note key="34" pan="0" pos="2112" vol="125" len="1"/>
          <note key="24" pan="0" pos="2112" vol="94" len="1"/>
          <note key="34" pan="0" pos="2124" vol="125" len="1"/>
          <note key="34" pan="0" pos="2136" vol="125" len="1"/>
          <note key="28" pan="0" pos="2136" vol="125" len="1"/>
          <note key="34" pan="0" pos="2160" vol="125" len="1"/>
          <note key="24" pan="0" pos="2160" vol="94" len="1"/>
          <note key="34" pan="0" pos="2172" vol="125" len="1"/>
          <note key="24" pan="0" pos="2172" vol="94" len="1"/>
          <note key="34" pan="0" pos="2184" vol="125" len="1"/>
          <note key="28" pan="0" pos="2184" vol="125" len="1"/>
          <note key="24" pan="0" pos="2196" vol="94" len="1"/>
          <note key="34" pan="0" pos="2220" vol="125" len="1"/>
          <note key="24" pan="0" pos="2220" vol="94" len="1"/>
          <note key="28" pan="0" pos="2232" vol="125" len="1"/>
          <note key="34" pan="0" pos="2244" vol="125" len="1"/>
          <note key="24" pan="0" pos="2244" vol="94" len="1"/>
          <note key="32" pan="0" pos="2256" vol="125" len="1"/>
          <note key="24" pan="0" pos="2256" vol="94" len="1"/>
          <note key="24" pan="0" pos="2268" vol="94" len="1"/>
          <note key="34" pan="0" pos="2280" vol="125" len="1"/>
          <note key="28" pan="0" pos="2280" vol="125" len="1"/>
          <note key="34" pan="0" pos="2304" vol="125" len="1"/>
          <note key="24" pan="0" pos="2304" vol="94" len="1"/>
          <note key="34" pan="0" pos="2316" vol="125" len="1"/>
          <note key="34" pan="0" pos="2328" vol="125" len="1"/>
          <note key="28" pan="0" pos="2328" vol="125" len="1"/>
          <note key="34" pan="0" pos="2352" vol="125" len="1"/>
          <note key="24" pan="0" pos="2352" vol="94" len="1"/>
          <note key="34" pan="0" pos="2364" vol="125" len="1"/>
          <note key="24" pan="0" pos="2364" vol="94" len="1"/>
          <note key="34" pan="0" pos="2376" vol="125" len="1"/>
          <note key="28" pan="0" pos="2376" vol="125" len="1"/>
          <note key="24" pan="0" pos="2388" vol="94" len="1"/>
          <note key="34" pan="0" pos="2412" vol="125" len="1"/>
          <note key="24" pan="0" pos="2412" vol="94" len="1"/>
          <note key="28" pan="0" pos="2424" vol="125" len="1"/>
          <note key="34" pan="0" pos="2436" vol="125" len="1"/>
          <note key="24" pan="0" pos="2436" vol="94" len="1"/>
          <note key="32" pan="0" pos="2448" vol="125" len="1"/>
          <note key="24" pan="0" pos="2448" vol="94" len="1"/>
          <note key="24" pan="0" pos="2460" vol="94" len="1"/>
          <note key="34" pan="0" pos="2472" vol="125" len="1"/>
          <note key="28" pan="0" pos="2472" vol="125" len="1"/>
          <note key="34" pan="0" pos="2496" vol="125" len="1"/>
          <note key="24" pan="0" pos="2496" vol="94" len="1"/>
          <note key="34" pan="0" pos="2508" vol="125" len="1"/>
          <note key="34" pan="0" pos="2520" vol="125" len="1"/>
          <note key="28" pan="0" pos="2520" vol="125" len="1"/>
          <note key="34" pan="0" pos="2544" vol="125" len="1"/>
          <note key="24" pan="0" pos="2544" vol="94" len="1"/>
          <note key="34" pan="0" pos="2556" vol="125" len="1"/>
          <note key="24" pan="0" pos="2556" vol="94" len="1"/>
          <note key="34" pan="0" pos="2568" vol="125" len="1"/>
          <note key="28" pan="0" pos="2568" vol="125" len="1"/>
          <note key="24" pan="0" pos="2580" vol="94" len="1"/>
          <note key="34" pan="0" pos="2604" vol="125" len="1"/>
          <note key="24" pan="0" pos="2604" vol="94" len="1"/>
          <note key="28" pan="0" pos="2616" vol="125" len="1"/>
          <note key="34" pan="0" pos="2628" vol="125" len="1"/>
          <note key="24" pan="0" pos="2628" vol="94" len="1"/>
          <note key="32" pan="0" pos="2640" vol="125" len="1"/>
          <note key="24" pan="0" pos="2640" vol="94" len="1"/>
          <note key="24" pan="0" pos="2652" vol="94" len="1"/>
          <note key="34" pan="0" pos="2664" vol="125" len="1"/>
          <note key="28" pan="0" pos="2664" vol="125" len="1"/>
          <note key="34" pan="0" pos="2688" vol="125" len="1"/>
          <note key="24" pan="0" pos="2688" vol="94" len="1"/>
          <note key="34" pan="0" pos="2700" vol="125" len="1"/>
          <note key="34" pan="0" pos="2712" vol="125" len="1"/>
          <note key="28" pan="0" pos="2712" vol="125" len="1"/>
          <note key="34" pan="0" pos="2736" vol="125" len="1"/>
          <note key="24" pan="0" pos="2736" vol="94" len="1"/>
          <note key="34" pan="0" pos="2748" vol="125" len="1"/>
          <note key="24" pan="0" pos="2748" vol="94" len="1"/>
          <note key="34" pan="0" pos="2760" vol="125" len="1"/>
          <note key="28" pan="0" pos="2760" vol="125" len="1"/>
          <note key="24" pan="0" pos="2772" vol="94" len="1"/>
          <note key="34" pan="0" pos="2796" vol="125" len="1"/>
          <note key="24" pan="0" pos="2796" vol="94" len="1"/>
          <note key="28" pan="0" pos="2808" vol="125" len="1"/>
          <note key="34" pan="0" pos="2820" vol="125" len="1"/>
          <note key="24" pan="0" pos="2820" vol="94" len="1"/>
          <note key="32" pan="0" pos="2832" vol="125" len="1"/>
          <note key="24" pan="0" pos="2832" vol="94" len="1"/>
          <note key="24" pan="0" pos="2844" vol="94" len="1"/>
          <note key="34" pan="0" pos="2856" vol="125" len="1"/>
          <note key="28" pan="0" pos="2856" vol="125" len="1"/>
          <note key="34" pan="0" pos="2880" vol="125" len="1"/>
          <note key="24" pan="0" pos="2880" vol="94" len="1"/>
          <note key="34" pan="0" pos="2892" vol="125" len="1"/>
          <note key="34" pan="0" pos="2904" vol="125" len="1"/>
          <note key="28" pan="0" pos="2904" vol="125" len="1"/>
          <note key="34" pan="0" pos="2928" vol="125" len="1"/>
          <note key="24" pan="0" pos="2928" vol="94" len="1"/>
          <note key="34" pan="0" pos="2940" vol="125" len="1"/>
          <note key="24" pan="0" pos="2940" vol="94" len="1"/>
          <note key="34" pan="0" pos="2952" vol="125" len="1"/>
          <note key="28" pan="0" pos="2952" vol="125" len="1"/>
          <note key="24" pan="0" pos="2964" vol="94" len="1"/>
          <note key="34" pan="0" pos="2988" vol="125" len="1"/>
          <note key="24" pan="0" pos="2988" vol="94" len="1"/>
          <note key="28" pan="0" pos="3000" vol="125" len="1"/>
          <note key="34" pan="0" pos="3012" vol="125" len="1"/>
          <note key="24" pan="0" pos="3012" vol="94" len="1"/>
          <note key="32" pan="0" pos="3024" vol="125" len="1"/>
          <note key="24" pan="0" pos="3024" vol="94" len="1"/>
          <note key="24" pan="0" pos="3036" vol="94" len="1"/>
          <note key="34" pan="0" pos="3048" vol="125" len="1"/>
          <note key="28" pan="0" pos="3048" vol="125" len="1"/>
          <note key="34" pan="0" pos="3072" vol="125" len="1"/>
          <note key="24" pan="0" pos="3072" vol="94" len="1"/>
          <note key="34" pan="0" pos="3084" vol="125" len="1"/>
          <note key="34" pan="0" pos="3096" vol="125" len="1"/>
          <note key="28" pan="0" pos="3096" vol="125" len="1"/>
          <note key="34" pan="0" pos="3120" vol="125" len="1"/>
          <note key="24" pan="0" pos="3120" vol="94" len="1"/>
          <note key="34" pan="0" pos="3132" vol="125" len="1"/>
          <note key="24" pan="0" pos="3132" vol="94" len="1"/>
          <note key="34" pan="0" pos="3144" vol="125" len="1"/>
          <note key="28" pan="0" pos="3144" vol="125" len="1"/>
          <note key="24" pan="0" pos="3156" vol="94" len="1"/>
          <note key="34" pan="0" pos="3180" vol="125" len="1"/>
          <note key="24" pan="0" pos="3180" vol="94" len="1"/>
          <note key="28" pan="0" pos="3192" vol="125" len="1"/>
          <note key="34" pan="0" pos="3204" vol="125" len="1"/>
          <note key="24" pan="0" pos="3204" vol="94" len="1"/>
          <note key="32" pan="0" pos="3216" vol="125" len="1"/>
          <note key="24" pan="0" pos="3216" vol="94" len="1"/>
          <note key="24" pan="0" pos="3228" vol="94" len="1"/>
          <note key="34" pan="0" pos="3240" vol="125" len="1"/>
          <note key="28" pan="0" pos="3240" vol="125" len="1"/>
        </pattern>
        <pattern steps="16" name="Track 7" pos="16512" type="1" muted="0">
          <note key="34" pan="0" pos="108" vol="94" len="1"/>
          <note key="34" pan="0" pos="132" vol="94" len="1"/>
          <note key="34" pan="0" pos="156" vol="157" len="1"/>
          <note key="34" pan="0" pos="168" vol="173" len="1"/>
          <note key="34" pan="0" pos="192" vol="125" len="1"/>
          <note key="24" pan="0" pos="192" vol="94" len="1"/>
          <note key="34" pan="0" pos="204" vol="125" len="1"/>
          <note key="34" pan="0" pos="216" vol="125" len="1"/>
          <note key="28" pan="0" pos="216" vol="125" len="1"/>
          <note key="34" pan="0" pos="240" vol="125" len="1"/>
          <note key="24" pan="0" pos="240" vol="94" len="1"/>
          <note key="34" pan="0" pos="252" vol="125" len="1"/>
          <note key="24" pan="0" pos="252" vol="94" len="1"/>
          <note key="34" pan="0" pos="264" vol="125" len="1"/>
          <note key="28" pan="0" pos="264" vol="125" len="1"/>
          <note key="24" pan="0" pos="276" vol="94" len="1"/>
          <note key="34" pan="0" pos="300" vol="125" len="1"/>
          <note key="24" pan="0" pos="300" vol="94" len="1"/>
          <note key="28" pan="0" pos="312" vol="125" len="1"/>
          <note key="34" pan="0" pos="324" vol="125" len="1"/>
          <note key="24" pan="0" pos="324" vol="94" len="1"/>
          <note key="32" pan="0" pos="336" vol="125" len="1"/>
          <note key="24" pan="0" pos="336" vol="94" len="1"/>
          <note key="24" pan="0" pos="348" vol="94" len="1"/>
          <note key="34" pan="0" pos="360" vol="125" len="1"/>
          <note key="28" pan="0" pos="360" vol="125" len="1"/>
          <note key="34" pan="0" pos="384" vol="125" len="1"/>
          <note key="24" pan="0" pos="384" vol="94" len="1"/>
          <note key="34" pan="0" pos="396" vol="125" len="1"/>
          <note key="34" pan="0" pos="408" vol="125" len="1"/>
          <note key="28" pan="0" pos="408" vol="125" len="1"/>
          <note key="34" pan="0" pos="432" vol="125" len="1"/>
          <note key="24" pan="0" pos="432" vol="94" len="1"/>
          <note key="34" pan="0" pos="444" vol="125" len="1"/>
          <note key="24" pan="0" pos="444" vol="94" len="1"/>
          <note key="34" pan="0" pos="456" vol="125" len="1"/>
          <note key="28" pan="0" pos="456" vol="125" len="1"/>
          <note key="24" pan="0" pos="468" vol="94" len="1"/>
          <note key="34" pan="0" pos="492" vol="125" len="1"/>
          <note key="24" pan="0" pos="492" vol="94" len="1"/>
          <note key="28" pan="0" pos="504" vol="125" len="1"/>
          <note key="34" pan="0" pos="516" vol="125" len="1"/>
          <note key="24" pan="0" pos="516" vol="94" len="1"/>
          <note key="32" pan="0" pos="528" vol="125" len="1"/>
          <note key="24" pan="0" pos="528" vol="94" len="1"/>
          <note key="24" pan="0" pos="540" vol="94" len="1"/>
          <note key="34" pan="0" pos="552" vol="125" len="1"/>
          <note key="28" pan="0" pos="552" vol="125" len="1"/>
          <note key="34" pan="0" pos="576" vol="125" len="1"/>
          <note key="24" pan="0" pos="576" vol="94" len="1"/>
          <note key="34" pan="0" pos="588" vol="125" len="1"/>
          <note key="34" pan="0" pos="600" vol="125" len="1"/>
          <note key="28" pan="0" pos="600" vol="125" len="1"/>
          <note key="34" pan="0" pos="624" vol="125" len="1"/>
          <note key="24" pan="0" pos="624" vol="94" len="1"/>
          <note key="34" pan="0" pos="636" vol="125" len="1"/>
          <note key="24" pan="0" pos="636" vol="94" len="1"/>
          <note key="34" pan="0" pos="648" vol="125" len="1"/>
          <note key="28" pan="0" pos="648" vol="125" len="1"/>
          <note key="24" pan="0" pos="660" vol="94" len="1"/>
          <note key="34" pan="0" pos="684" vol="125" len="1"/>
          <note key="24" pan="0" pos="684" vol="94" len="1"/>
          <note key="28" pan="0" pos="696" vol="125" len="1"/>
          <note key="34" pan="0" pos="708" vol="125" len="1"/>
          <note key="24" pan="0" pos="708" vol="94" len="1"/>
          <note key="32" pan="0" pos="720" vol="125" len="1"/>
          <note key="24" pan="0" pos="720" vol="94" len="1"/>
          <note key="24" pan="0" pos="732" vol="94" len="1"/>
          <note key="34" pan="0" pos="744" vol="125" len="1"/>
          <note key="28" pan="0" pos="744" vol="125" len="1"/>
          <note key="34" pan="0" pos="768" vol="125" len="1"/>
          <note key="24" pan="0" pos="768" vol="94" len="1"/>
          <note key="34" pan="0" pos="780" vol="125" len="1"/>
          <note key="34" pan="0" pos="792" vol="125" len="1"/>
          <note key="28" pan="0" pos="792" vol="125" len="1"/>
          <note key="34" pan="0" pos="816" vol="125" len="1"/>
          <note key="24" pan="0" pos="816" vol="94" len="1"/>
          <note key="34" pan="0" pos="828" vol="125" len="1"/>
          <note key="24" pan="0" pos="828" vol="94" len="1"/>
          <note key="34" pan="0" pos="840" vol="125" len="1"/>
          <note key="28" pan="0" pos="840" vol="125" len="1"/>
          <note key="24" pan="0" pos="852" vol="94" len="1"/>
          <note key="45" pan="0" pos="864" vol="125" len="1"/>
          <note key="28" pan="0" pos="864" vol="125" len="1"/>
          <note key="24" pan="0" pos="876" vol="94" len="1"/>
          <note key="28" pan="0" pos="888" vol="110" len="1"/>
          <note key="45" pan="0" pos="900" vol="125" len="1"/>
          <note key="28" pan="0" pos="900" vol="125" len="1"/>
          <note key="24" pan="0" pos="912" vol="94" len="1"/>
          <note key="28" pan="0" pos="924" vol="110" len="1"/>
          <note key="45" pan="0" pos="936" vol="125" len="1"/>
          <note key="28" pan="0" pos="936" vol="125" len="1"/>
          <note key="24" pan="0" pos="948" vol="94" len="1"/>
          <note key="45" pan="0" pos="960" vol="125" len="1"/>
          <note key="34" pan="0" pos="960" vol="125" len="1"/>
          <note key="24" pan="0" pos="960" vol="94" len="1"/>
          <note key="34" pan="0" pos="972" vol="125" len="1"/>
          <note key="34" pan="0" pos="984" vol="125" len="1"/>
          <note key="28" pan="0" pos="984" vol="125" len="1"/>
          <note key="34" pan="0" pos="1008" vol="125" len="1"/>
          <note key="24" pan="0" pos="1008" vol="94" len="1"/>
          <note key="34" pan="0" pos="1020" vol="125" len="1"/>
          <note key="24" pan="0" pos="1020" vol="94" len="1"/>
          <note key="34" pan="0" pos="1032" vol="125" len="1"/>
          <note key="28" pan="0" pos="1032" vol="125" len="1"/>
          <note key="24" pan="0" pos="1044" vol="94" len="1"/>
          <note key="34" pan="0" pos="1068" vol="125" len="1"/>
          <note key="24" pan="0" pos="1068" vol="94" len="1"/>
          <note key="28" pan="0" pos="1080" vol="125" len="1"/>
          <note key="34" pan="0" pos="1092" vol="125" len="1"/>
          <note key="24" pan="0" pos="1092" vol="94" len="1"/>
          <note key="32" pan="0" pos="1104" vol="125" len="1"/>
          <note key="24" pan="0" pos="1104" vol="94" len="1"/>
          <note key="24" pan="0" pos="1116" vol="94" len="1"/>
          <note key="34" pan="0" pos="1128" vol="125" len="1"/>
          <note key="28" pan="0" pos="1128" vol="125" len="1"/>
          <note key="34" pan="0" pos="1152" vol="125" len="1"/>
          <note key="24" pan="0" pos="1152" vol="94" len="1"/>
          <note key="34" pan="0" pos="1164" vol="125" len="1"/>
          <note key="34" pan="0" pos="1176" vol="125" len="1"/>
          <note key="28" pan="0" pos="1176" vol="125" len="1"/>
          <note key="34" pan="0" pos="1200" vol="125" len="1"/>
          <note key="24" pan="0" pos="1200" vol="94" len="1"/>
          <note key="34" pan="0" pos="1212" vol="125" len="1"/>
          <note key="24" pan="0" pos="1212" vol="94" len="1"/>
          <note key="34" pan="0" pos="1224" vol="125" len="1"/>
          <note key="28" pan="0" pos="1224" vol="125" len="1"/>
          <note key="24" pan="0" pos="1236" vol="94" len="1"/>
          <note key="34" pan="0" pos="1260" vol="125" len="1"/>
          <note key="24" pan="0" pos="1260" vol="94" len="1"/>
          <note key="28" pan="0" pos="1272" vol="125" len="1"/>
          <note key="34" pan="0" pos="1284" vol="125" len="1"/>
          <note key="24" pan="0" pos="1284" vol="94" len="1"/>
          <note key="32" pan="0" pos="1296" vol="125" len="1"/>
          <note key="24" pan="0" pos="1296" vol="94" len="1"/>
          <note key="24" pan="0" pos="1308" vol="94" len="1"/>
          <note key="34" pan="0" pos="1320" vol="125" len="1"/>
          <note key="28" pan="0" pos="1320" vol="125" len="1"/>
          <note key="34" pan="0" pos="1344" vol="125" len="1"/>
          <note key="24" pan="0" pos="1344" vol="94" len="1"/>
          <note key="34" pan="0" pos="1356" vol="125" len="1"/>
          <note key="34" pan="0" pos="1368" vol="125" len="1"/>
          <note key="28" pan="0" pos="1368" vol="125" len="1"/>
          <note key="34" pan="0" pos="1392" vol="125" len="1"/>
          <note key="24" pan="0" pos="1392" vol="94" len="1"/>
          <note key="34" pan="0" pos="1404" vol="125" len="1"/>
          <note key="24" pan="0" pos="1404" vol="94" len="1"/>
          <note key="34" pan="0" pos="1416" vol="125" len="1"/>
          <note key="28" pan="0" pos="1416" vol="125" len="1"/>
          <note key="24" pan="0" pos="1428" vol="94" len="1"/>
          <note key="34" pan="0" pos="1452" vol="125" len="1"/>
          <note key="24" pan="0" pos="1452" vol="94" len="1"/>
          <note key="28" pan="0" pos="1464" vol="125" len="1"/>
          <note key="34" pan="0" pos="1476" vol="125" len="1"/>
          <note key="24" pan="0" pos="1476" vol="94" len="1"/>
          <note key="32" pan="0" pos="1488" vol="125" len="1"/>
          <note key="24" pan="0" pos="1488" vol="94" len="1"/>
          <note key="24" pan="0" pos="1500" vol="94" len="1"/>
          <note key="34" pan="0" pos="1512" vol="125" len="1"/>
          <note key="28" pan="0" pos="1512" vol="125" len="1"/>
          <note key="34" pan="0" pos="1536" vol="125" len="1"/>
          <note key="24" pan="0" pos="1536" vol="94" len="1"/>
          <note key="34" pan="0" pos="1548" vol="125" len="1"/>
          <note key="34" pan="0" pos="1560" vol="125" len="1"/>
          <note key="28" pan="0" pos="1560" vol="125" len="1"/>
          <note key="34" pan="0" pos="1584" vol="125" len="1"/>
          <note key="24" pan="0" pos="1584" vol="94" len="1"/>
          <note key="34" pan="0" pos="1596" vol="125" len="1"/>
          <note key="24" pan="0" pos="1596" vol="94" len="1"/>
          <note key="34" pan="0" pos="1608" vol="125" len="1"/>
          <note key="28" pan="0" pos="1608" vol="125" len="1"/>
          <note key="24" pan="0" pos="1620" vol="94" len="1"/>
          <note key="45" pan="0" pos="1632" vol="125" len="1"/>
          <note key="28" pan="0" pos="1632" vol="125" len="1"/>
          <note key="24" pan="0" pos="1644" vol="94" len="1"/>
          <note key="28" pan="0" pos="1656" vol="110" len="1"/>
          <note key="45" pan="0" pos="1668" vol="125" len="1"/>
          <note key="28" pan="0" pos="1668" vol="125" len="1"/>
          <note key="24" pan="0" pos="1680" vol="94" len="1"/>
          <note key="28" pan="0" pos="1692" vol="110" len="1"/>
          <note key="45" pan="0" pos="1704" vol="125" len="1"/>
          <note key="28" pan="0" pos="1704" vol="125" len="1"/>
          <note key="24" pan="0" pos="1716" vol="94" len="1"/>
          <note key="45" pan="0" pos="1728" vol="125" len="1"/>
          <note key="30" pan="0" pos="1728" vol="110" len="1"/>
          <note key="24" pan="0" pos="1728" vol="94" len="1"/>
          <note key="30" pan="0" pos="1752" vol="94" len="1"/>
          <note key="28" pan="0" pos="1752" vol="125" len="1"/>
          <note key="30" pan="0" pos="1764" vol="94" len="1"/>
          <note key="30" pan="0" pos="1776" vol="110" len="1"/>
          <note key="24" pan="0" pos="1776" vol="94" len="1"/>
          <note key="24" pan="0" pos="1788" vol="94" len="1"/>
          <note key="30" pan="0" pos="1800" vol="94" len="1"/>
          <note key="28" pan="0" pos="1800" vol="125" len="1"/>
          <note key="30" pan="0" pos="1812" vol="94" len="1"/>
          <note key="24" pan="0" pos="1812" vol="94" len="1"/>
          <note key="30" pan="0" pos="1824" vol="110" len="1"/>
          <note key="24" pan="0" pos="1836" vol="94" len="1"/>
          <note key="30" pan="0" pos="1848" vol="94" len="1"/>
          <note key="28" pan="0" pos="1848" vol="125" len="1"/>
          <note key="30" pan="0" pos="1860" vol="94" len="1"/>
          <note key="24" pan="0" pos="1860" vol="94" len="1"/>
          <note key="30" pan="0" pos="1872" vol="110" len="1"/>
          <note key="24" pan="0" pos="1872" vol="94" len="1"/>
          <note key="24" pan="0" pos="1884" vol="94" len="1"/>
          <note key="30" pan="0" pos="1896" vol="94" len="1"/>
          <note key="28" pan="0" pos="1896" vol="125" len="1"/>
          <note key="30" pan="0" pos="1908" vol="94" len="1"/>
          <note key="30" pan="0" pos="1920" vol="110" len="1"/>
          <note key="24" pan="0" pos="1920" vol="94" len="1"/>
          <note key="30" pan="0" pos="1944" vol="94" len="1"/>
          <note key="28" pan="0" pos="1944" vol="125" len="1"/>
          <note key="30" pan="0" pos="1956" vol="94" len="1"/>
          <note key="30" pan="0" pos="1968" vol="110" len="1"/>
          <note key="24" pan="0" pos="1968" vol="94" len="1"/>
          <note key="24" pan="0" pos="1980" vol="94" len="1"/>
          <note key="30" pan="0" pos="1992" vol="94" len="1"/>
          <note key="28" pan="0" pos="1992" vol="125" len="1"/>
          <note key="30" pan="0" pos="2004" vol="94" len="1"/>
          <note key="24" pan="0" pos="2004" vol="94" len="1"/>
          <note key="30" pan="0" pos="2016" vol="110" len="1"/>
          <note key="24" pan="0" pos="2028" vol="94" len="1"/>
          <note key="30" pan="0" pos="2040" vol="94" len="1"/>
          <note key="28" pan="0" pos="2040" vol="125" len="1"/>
          <note key="30" pan="0" pos="2052" vol="94" len="1"/>
          <note key="24" pan="0" pos="2052" vol="94" len="1"/>
          <note key="30" pan="0" pos="2064" vol="110" len="1"/>
          <note key="24" pan="0" pos="2064" vol="94" len="1"/>
          <note key="24" pan="0" pos="2076" vol="94" len="1"/>
          <note key="30" pan="0" pos="2088" vol="94" len="1"/>
          <note key="28" pan="0" pos="2088" vol="125" len="1"/>
          <note key="30" pan="0" pos="2100" vol="94" len="1"/>
          <note key="30" pan="0" pos="2112" vol="110" len="1"/>
          <note key="24" pan="0" pos="2112" vol="94" len="1"/>
          <note key="30" pan="0" pos="2136" vol="94" len="1"/>
          <note key="28" pan="0" pos="2136" vol="125" len="1"/>
          <note key="30" pan="0" pos="2148" vol="94" len="1"/>
          <note key="30" pan="0" pos="2160" vol="110" len="1"/>
          <note key="24" pan="0" pos="2160" vol="94" len="1"/>
          <note key="24" pan="0" pos="2172" vol="94" len="1"/>
          <note key="30" pan="0" pos="2184" vol="94" len="1"/>
          <note key="28" pan="0" pos="2184" vol="125" len="1"/>
          <note key="30" pan="0" pos="2196" vol="94" len="1"/>
          <note key="24" pan="0" pos="2196" vol="94" len="1"/>
          <note key="30" pan="0" pos="2208" vol="110" len="1"/>
          <note key="24" pan="0" pos="2220" vol="94" len="1"/>
          <note key="30" pan="0" pos="2232" vol="94" len="1"/>
          <note key="28" pan="0" pos="2232" vol="125" len="1"/>
          <note key="30" pan="0" pos="2244" vol="94" len="1"/>
          <note key="24" pan="0" pos="2244" vol="94" len="1"/>
          <note key="30" pan="0" pos="2256" vol="110" len="1"/>
          <note key="24" pan="0" pos="2256" vol="94" len="1"/>
          <note key="24" pan="0" pos="2268" vol="94" len="1"/>
          <note key="30" pan="0" pos="2280" vol="94" len="1"/>
          <note key="28" pan="0" pos="2280" vol="125" len="1"/>
          <note key="30" pan="0" pos="2292" vol="94" len="1"/>
          <note key="34" pan="0" pos="2304" vol="125" len="1"/>
          <note key="24" pan="0" pos="2304" vol="94" len="1"/>
          <note key="30" pan="0" pos="2328" vol="94" len="1"/>
          <note key="28" pan="0" pos="2328" vol="125" len="1"/>
          <note key="30" pan="0" pos="2340" vol="94" len="1"/>
          <note key="30" pan="0" pos="2352" vol="110" len="1"/>
          <note key="24" pan="0" pos="2352" vol="94" len="1"/>
          <note key="24" pan="0" pos="2364" vol="94" len="1"/>
          <note key="30" pan="0" pos="2376" vol="94" len="1"/>
          <note key="28" pan="0" pos="2376" vol="125" len="1"/>
          <note key="30" pan="0" pos="2388" vol="94" len="1"/>
          <note key="24" pan="0" pos="2388" vol="94" len="1"/>
          <note key="45" pan="0" pos="2400" vol="125" len="1"/>
          <note key="28" pan="0" pos="2400" vol="125" len="1"/>
          <note key="24" pan="0" pos="2412" vol="94" len="1"/>
          <note key="28" pan="0" pos="2424" vol="110" len="1"/>
          <note key="45" pan="0" pos="2436" vol="125" len="1"/>
          <note key="28" pan="0" pos="2436" vol="125" len="1"/>
          <note key="24" pan="0" pos="2448" vol="94" len="1"/>
          <note key="28" pan="0" pos="2460" vol="110" len="1"/>
          <note key="45" pan="0" pos="2472" vol="125" len="1"/>
          <note key="28" pan="0" pos="2472" vol="125" len="1"/>
          <note key="24" pan="0" pos="2484" vol="94" len="1"/>
          <note key="45" pan="0" pos="2496" vol="125" len="1"/>
          <note key="34" pan="0" pos="2496" vol="125" len="1"/>
          <note key="24" pan="0" pos="2496" vol="94" len="1"/>
          <note key="34" pan="0" pos="2508" vol="125" len="1"/>
          <note key="34" pan="0" pos="2520" vol="125" len="1"/>
          <note key="28" pan="0" pos="2520" vol="125" len="1"/>
          <note key="34" pan="0" pos="2544" vol="125" len="1"/>
          <note key="24" pan="0" pos="2544" vol="94" len="1"/>
          <note key="34" pan="0" pos="2556" vol="125" len="1"/>
          <note key="24" pan="0" pos="2556" vol="94" len="1"/>
          <note key="34" pan="0" pos="2568" vol="125" len="1"/>
          <note key="28" pan="0" pos="2568" vol="125" len="1"/>
          <note key="24" pan="0" pos="2580" vol="94" len="1"/>
          <note key="34" pan="0" pos="2604" vol="125" len="1"/>
          <note key="24" pan="0" pos="2604" vol="94" len="1"/>
          <note key="28" pan="0" pos="2616" vol="125" len="1"/>
          <note key="34" pan="0" pos="2628" vol="125" len="1"/>
          <note key="24" pan="0" pos="2628" vol="94" len="1"/>
          <note key="32" pan="0" pos="2640" vol="125" len="1"/>
          <note key="24" pan="0" pos="2640" vol="94" len="1"/>
          <note key="24" pan="0" pos="2652" vol="94" len="1"/>
          <note key="34" pan="0" pos="2664" vol="125" len="1"/>
          <note key="28" pan="0" pos="2664" vol="125" len="1"/>
          <note key="34" pan="0" pos="2688" vol="125" len="1"/>
          <note key="24" pan="0" pos="2688" vol="94" len="1"/>
          <note key="34" pan="0" pos="2700" vol="125" len="1"/>
          <note key="34" pan="0" pos="2712" vol="125" len="1"/>
          <note key="28" pan="0" pos="2712" vol="125" len="1"/>
          <note key="34" pan="0" pos="2736" vol="125" len="1"/>
          <note key="24" pan="0" pos="2736" vol="94" len="1"/>
          <note key="34" pan="0" pos="2748" vol="125" len="1"/>
          <note key="24" pan="0" pos="2748" vol="94" len="1"/>
          <note key="34" pan="0" pos="2760" vol="125" len="1"/>
          <note key="28" pan="0" pos="2760" vol="125" len="1"/>
          <note key="24" pan="0" pos="2772" vol="94" len="1"/>
          <note key="34" pan="0" pos="2796" vol="125" len="1"/>
          <note key="24" pan="0" pos="2796" vol="94" len="1"/>
          <note key="28" pan="0" pos="2808" vol="125" len="1"/>
          <note key="34" pan="0" pos="2820" vol="125" len="1"/>
          <note key="24" pan="0" pos="2820" vol="94" len="1"/>
          <note key="32" pan="0" pos="2832" vol="125" len="1"/>
          <note key="24" pan="0" pos="2832" vol="94" len="1"/>
          <note key="24" pan="0" pos="2844" vol="94" len="1"/>
          <note key="34" pan="0" pos="2856" vol="125" len="1"/>
          <note key="28" pan="0" pos="2856" vol="125" len="1"/>
          <note key="34" pan="0" pos="2880" vol="125" len="1"/>
          <note key="24" pan="0" pos="2880" vol="94" len="1"/>
          <note key="34" pan="0" pos="2892" vol="125" len="1"/>
          <note key="34" pan="0" pos="2904" vol="125" len="1"/>
          <note key="28" pan="0" pos="2904" vol="125" len="1"/>
          <note key="34" pan="0" pos="2928" vol="125" len="1"/>
          <note key="24" pan="0" pos="2928" vol="94" len="1"/>
          <note key="34" pan="0" pos="2940" vol="125" len="1"/>
          <note key="24" pan="0" pos="2940" vol="94" len="1"/>
          <note key="34" pan="0" pos="2952" vol="125" len="1"/>
          <note key="28" pan="0" pos="2952" vol="125" len="1"/>
          <note key="24" pan="0" pos="2964" vol="94" len="1"/>
          <note key="34" pan="0" pos="2988" vol="125" len="1"/>
          <note key="24" pan="0" pos="2988" vol="94" len="1"/>
          <note key="28" pan="0" pos="3000" vol="125" len="1"/>
          <note key="34" pan="0" pos="3012" vol="125" len="1"/>
          <note key="24" pan="0" pos="3012" vol="94" len="1"/>
          <note key="32" pan="0" pos="3024" vol="125" len="1"/>
          <note key="24" pan="0" pos="3024" vol="94" len="1"/>
          <note key="24" pan="0" pos="3036" vol="94" len="1"/>
          <note key="34" pan="0" pos="3048" vol="125" len="1"/>
          <note key="28" pan="0" pos="3048" vol="125" len="1"/>
          <note key="34" pan="0" pos="3072" vol="125" len="1"/>
          <note key="24" pan="0" pos="3072" vol="94" len="1"/>
          <note key="34" pan="0" pos="3084" vol="125" len="1"/>
          <note key="34" pan="0" pos="3096" vol="125" len="1"/>
          <note key="28" pan="0" pos="3096" vol="125" len="1"/>
          <note key="34" pan="0" pos="3120" vol="125" len="1"/>
          <note key="24" pan="0" pos="3120" vol="94" len="1"/>
          <note key="34" pan="0" pos="3132" vol="125" len="1"/>
          <note key="24" pan="0" pos="3132" vol="94" len="1"/>
          <note key="34" pan="0" pos="3144" vol="125" len="1"/>
          <note key="28" pan="0" pos="3144" vol="125" len="1"/>
          <note key="24" pan="0" pos="3156" vol="94" len="1"/>
          <note key="45" pan="0" pos="3168" vol="125" len="1"/>
          <note key="28" pan="0" pos="3168" vol="125" len="1"/>
          <note key="24" pan="0" pos="3180" vol="94" len="1"/>
          <note key="28" pan="0" pos="3192" vol="110" len="1"/>
          <note key="45" pan="0" pos="3204" vol="125" len="1"/>
          <note key="28" pan="0" pos="3204" vol="125" len="1"/>
          <note key="24" pan="0" pos="3216" vol="94" len="1"/>
          <note key="28" pan="0" pos="3228" vol="110" len="1"/>
          <note key="45" pan="0" pos="3240" vol="125" len="1"/>
          <note key="28" pan="0" pos="3240" vol="125" len="1"/>
          <note key="24" pan="0" pos="3252" vol="94" len="1"/>
          <note key="34" pan="0" pos="3264" vol="125" len="1"/>
          <note key="24" pan="0" pos="3264" vol="94" len="1"/>
          <note key="34" pan="0" pos="3288" vol="125" len="1"/>
          <note key="28" pan="0" pos="3288" vol="125" len="1"/>
          <note key="34" pan="0" pos="3312" vol="125" len="1"/>
          <note key="24" pan="0" pos="3312" vol="94" len="1"/>
          <note key="24" pan="0" pos="3324" vol="94" len="1"/>
          <note key="34" pan="0" pos="3336" vol="125" len="1"/>
          <note key="28" pan="0" pos="3336" vol="125" len="1"/>
          <note key="24" pan="0" pos="3348" vol="94" len="1"/>
          <note key="34" pan="0" pos="3360" vol="125" len="1"/>
          <note key="24" pan="0" pos="3372" vol="94" len="1"/>
          <note key="34" pan="0" pos="3384" vol="125" len="1"/>
          <note key="28" pan="0" pos="3384" vol="125" len="1"/>
          <note key="24" pan="0" pos="3396" vol="94" len="1"/>
          <note key="34" pan="0" pos="3408" vol="125" len="1"/>
          <note key="24" pan="0" pos="3408" vol="94" len="1"/>
          <note key="24" pan="0" pos="3420" vol="94" len="1"/>
          <note key="34" pan="0" pos="3432" vol="125" len="1"/>
          <note key="28" pan="0" pos="3432" vol="125" len="1"/>
          <note key="34" pan="0" pos="3456" vol="125" len="1"/>
          <note key="24" pan="0" pos="3456" vol="94" len="1"/>
          <note key="34" pan="0" pos="3480" vol="125" len="1"/>
          <note key="28" pan="0" pos="3480" vol="125" len="1"/>
          <note key="34" pan="0" pos="3504" vol="125" len="1"/>
          <note key="24" pan="0" pos="3504" vol="94" len="1"/>
          <note key="24" pan="0" pos="3516" vol="94" len="1"/>
          <note key="34" pan="0" pos="3528" vol="125" len="1"/>
          <note key="28" pan="0" pos="3528" vol="125" len="1"/>
          <note key="24" pan="0" pos="3540" vol="94" len="1"/>
          <note key="34" pan="0" pos="3552" vol="125" len="1"/>
          <note key="24" pan="0" pos="3564" vol="94" len="1"/>
          <note key="34" pan="0" pos="3576" vol="125" len="1"/>
          <note key="28" pan="0" pos="3576" vol="125" len="1"/>
          <note key="24" pan="0" pos="3588" vol="94" len="1"/>
          <note key="34" pan="0" pos="3600" vol="125" len="1"/>
          <note key="24" pan="0" pos="3600" vol="94" len="1"/>
          <note key="24" pan="0" pos="3612" vol="94" len="1"/>
          <note key="34" pan="0" pos="3624" vol="125" len="1"/>
          <note key="28" pan="0" pos="3624" vol="125" len="1"/>
          <note key="34" pan="0" pos="3648" vol="125" len="1"/>
          <note key="24" pan="0" pos="3648" vol="94" len="1"/>
          <note key="34" pan="0" pos="3672" vol="125" len="1"/>
          <note key="28" pan="0" pos="3672" vol="125" len="1"/>
          <note key="34" pan="0" pos="3696" vol="125" len="1"/>
          <note key="24" pan="0" pos="3696" vol="94" len="1"/>
          <note key="24" pan="0" pos="3708" vol="94" len="1"/>
          <note key="34" pan="0" pos="3720" vol="125" len="1"/>
          <note key="28" pan="0" pos="3720" vol="125" len="1"/>
          <note key="24" pan="0" pos="3732" vol="94" len="1"/>
          <note key="34" pan="0" pos="3744" vol="125" len="1"/>
          <note key="24" pan="0" pos="3756" vol="94" len="1"/>
          <note key="34" pan="0" pos="3768" vol="125" len="1"/>
          <note key="28" pan="0" pos="3768" vol="125" len="1"/>
          <note key="24" pan="0" pos="3780" vol="94" len="1"/>
          <note key="34" pan="0" pos="3792" vol="125" len="1"/>
          <note key="24" pan="0" pos="3792" vol="94" len="1"/>
          <note key="24" pan="0" pos="3804" vol="94" len="1"/>
          <note key="34" pan="0" pos="3816" vol="125" len="1"/>
          <note key="28" pan="0" pos="3816" vol="125" len="1"/>
          <note key="34" pan="0" pos="3840" vol="125" len="1"/>
          <note key="24" pan="0" pos="3840" vol="94" len="1"/>
          <note key="34" pan="0" pos="3852" vol="125" len="1"/>
          <note key="34" pan="0" pos="3864" vol="125" len="1"/>
          <note key="28" pan="0" pos="3864" vol="125" len="1"/>
          <note key="34" pan="0" pos="3888" vol="125" len="1"/>
          <note key="24" pan="0" pos="3888" vol="94" len="1"/>
          <note key="34" pan="0" pos="3900" vol="125" len="1"/>
          <note key="24" pan="0" pos="3900" vol="94" len="1"/>
          <note key="34" pan="0" pos="3912" vol="125" len="1"/>
          <note key="28" pan="0" pos="3912" vol="125" len="1"/>
          <note key="24" pan="0" pos="3924" vol="94" len="1"/>
          <note key="45" pan="0" pos="3936" vol="125" len="1"/>
          <note key="28" pan="0" pos="3936" vol="125" len="1"/>
          <note key="24" pan="0" pos="3948" vol="94" len="1"/>
          <note key="28" pan="0" pos="3960" vol="110" len="1"/>
          <note key="45" pan="0" pos="3972" vol="125" len="1"/>
          <note key="28" pan="0" pos="3972" vol="125" len="1"/>
          <note key="24" pan="0" pos="3984" vol="94" len="1"/>
          <note key="28" pan="0" pos="3996" vol="110" len="1"/>
          <note key="45" pan="0" pos="4008" vol="125" len="1"/>
          <note key="28" pan="0" pos="4008" vol="125" len="1"/>
          <note key="24" pan="0" pos="4020" vol="94" len="1"/>
          <note key="45" pan="0" pos="4032" vol="125" len="1"/>
          <note key="34" pan="0" pos="4032" vol="125" len="1"/>
          <note key="24" pan="0" pos="4032" vol="94" len="1"/>
          <note key="34" pan="0" pos="4056" vol="125" len="1"/>
          <note key="28" pan="0" pos="4056" vol="125" len="1"/>
          <note key="34" pan="0" pos="4080" vol="125" len="1"/>
          <note key="24" pan="0" pos="4080" vol="94" len="1"/>
          <note key="24" pan="0" pos="4092" vol="94" len="1"/>
          <note key="34" pan="0" pos="4104" vol="125" len="1"/>
          <note key="28" pan="0" pos="4104" vol="125" len="1"/>
          <note key="24" pan="0" pos="4116" vol="94" len="1"/>
          <note key="34" pan="0" pos="4128" vol="125" len="1"/>
          <note key="24" pan="0" pos="4140" vol="94" len="1"/>
          <note key="34" pan="0" pos="4152" vol="125" len="1"/>
          <note key="28" pan="0" pos="4152" vol="125" len="1"/>
          <note key="24" pan="0" pos="4164" vol="94" len="1"/>
          <note key="34" pan="0" pos="4176" vol="125" len="1"/>
          <note key="24" pan="0" pos="4176" vol="94" len="1"/>
          <note key="24" pan="0" pos="4188" vol="94" len="1"/>
          <note key="34" pan="0" pos="4200" vol="125" len="1"/>
          <note key="28" pan="0" pos="4200" vol="125" len="1"/>
          <note key="34" pan="0" pos="4224" vol="125" len="1"/>
          <note key="24" pan="0" pos="4224" vol="94" len="1"/>
          <note key="34" pan="0" pos="4248" vol="125" len="1"/>
          <note key="28" pan="0" pos="4248" vol="125" len="1"/>
          <note key="34" pan="0" pos="4272" vol="125" len="1"/>
          <note key="24" pan="0" pos="4272" vol="94" len="1"/>
          <note key="24" pan="0" pos="4284" vol="94" len="1"/>
          <note key="34" pan="0" pos="4296" vol="125" len="1"/>
          <note key="28" pan="0" pos="4296" vol="125" len="1"/>
          <note key="24" pan="0" pos="4308" vol="94" len="1"/>
          <note key="34" pan="0" pos="4320" vol="125" len="1"/>
          <note key="24" pan="0" pos="4332" vol="94" len="1"/>
          <note key="34" pan="0" pos="4344" vol="125" len="1"/>
          <note key="28" pan="0" pos="4344" vol="125" len="1"/>
          <note key="24" pan="0" pos="4356" vol="94" len="1"/>
          <note key="34" pan="0" pos="4368" vol="125" len="1"/>
          <note key="24" pan="0" pos="4368" vol="94" len="1"/>
          <note key="24" pan="0" pos="4380" vol="94" len="1"/>
          <note key="34" pan="0" pos="4392" vol="125" len="1"/>
          <note key="28" pan="0" pos="4392" vol="125" len="1"/>
          <note key="34" pan="0" pos="4416" vol="125" len="1"/>
          <note key="24" pan="0" pos="4416" vol="94" len="1"/>
          <note key="34" pan="0" pos="4440" vol="125" len="1"/>
          <note key="28" pan="0" pos="4440" vol="125" len="1"/>
          <note key="34" pan="0" pos="4464" vol="125" len="1"/>
          <note key="24" pan="0" pos="4464" vol="94" len="1"/>
          <note key="24" pan="0" pos="4476" vol="94" len="1"/>
          <note key="34" pan="0" pos="4488" vol="125" len="1"/>
          <note key="28" pan="0" pos="4488" vol="125" len="1"/>
          <note key="24" pan="0" pos="4500" vol="94" len="1"/>
          <note key="34" pan="0" pos="4512" vol="125" len="1"/>
          <note key="24" pan="0" pos="4524" vol="94" len="1"/>
          <note key="34" pan="0" pos="4536" vol="125" len="1"/>
          <note key="28" pan="0" pos="4536" vol="125" len="1"/>
          <note key="24" pan="0" pos="4548" vol="94" len="1"/>
          <note key="34" pan="0" pos="4560" vol="125" len="1"/>
          <note key="24" pan="0" pos="4560" vol="94" len="1"/>
          <note key="24" pan="0" pos="4572" vol="94" len="1"/>
          <note key="34" pan="0" pos="4584" vol="125" len="1"/>
          <note key="28" pan="0" pos="4584" vol="125" len="1"/>
          <note key="34" pan="0" pos="4608" vol="125" len="1"/>
          <note key="24" pan="0" pos="4608" vol="94" len="1"/>
          <note key="34" pan="0" pos="4620" vol="125" len="1"/>
          <note key="34" pan="0" pos="4632" vol="125" len="1"/>
          <note key="28" pan="0" pos="4632" vol="125" len="1"/>
          <note key="34" pan="0" pos="4656" vol="125" len="1"/>
          <note key="24" pan="0" pos="4656" vol="94" len="1"/>
          <note key="34" pan="0" pos="4668" vol="125" len="1"/>
          <note key="24" pan="0" pos="4668" vol="94" len="1"/>
          <note key="34" pan="0" pos="4680" vol="125" len="1"/>
          <note key="28" pan="0" pos="4680" vol="125" len="1"/>
          <note key="24" pan="0" pos="4692" vol="94" len="1"/>
          <note key="45" pan="0" pos="4704" vol="125" len="1"/>
          <note key="28" pan="0" pos="4704" vol="125" len="1"/>
          <note key="24" pan="0" pos="4716" vol="94" len="1"/>
          <note key="28" pan="0" pos="4728" vol="110" len="1"/>
          <note key="45" pan="0" pos="4740" vol="125" len="1"/>
          <note key="28" pan="0" pos="4740" vol="125" len="1"/>
          <note key="24" pan="0" pos="4752" vol="94" len="1"/>
          <note key="28" pan="0" pos="4764" vol="110" len="1"/>
          <note key="45" pan="0" pos="4776" vol="125" len="1"/>
          <note key="28" pan="0" pos="4776" vol="125" len="1"/>
          <note key="24" pan="0" pos="4788" vol="94" len="1"/>
          <note key="34" pan="0" pos="4800" vol="125" len="1"/>
          <note key="24" pan="0" pos="4800" vol="94" len="1"/>
          <note key="34" pan="0" pos="4824" vol="125" len="1"/>
          <note key="28" pan="0" pos="4824" vol="125" len="1"/>
          <note key="34" pan="0" pos="4848" vol="125" len="1"/>
          <note key="24" pan="0" pos="4848" vol="94" len="1"/>
          <note key="24" pan="0" pos="4860" vol="94" len="1"/>
          <note key="34" pan="0" pos="4872" vol="125" len="1"/>
          <note key="28" pan="0" pos="4872" vol="125" len="1"/>
          <note key="24" pan="0" pos="4884" vol="94" len="1"/>
          <note key="34" pan="0" pos="4896" vol="125" len="1"/>
          <note key="24" pan="0" pos="4908" vol="94" len="1"/>
          <note key="34" pan="0" pos="4920" vol="125" len="1"/>
          <note key="28" pan="0" pos="4920" vol="125" len="1"/>
          <note key="24" pan="0" pos="4932" vol="94" len="1"/>
          <note key="34" pan="0" pos="4944" vol="125" len="1"/>
          <note key="24" pan="0" pos="4944" vol="94" len="1"/>
          <note key="24" pan="0" pos="4956" vol="94" len="1"/>
          <note key="34" pan="0" pos="4968" vol="125" len="1"/>
          <note key="28" pan="0" pos="4968" vol="125" len="1"/>
          <note key="34" pan="0" pos="4992" vol="125" len="1"/>
          <note key="24" pan="0" pos="4992" vol="94" len="1"/>
          <note key="34" pan="0" pos="5016" vol="125" len="1"/>
          <note key="28" pan="0" pos="5016" vol="125" len="1"/>
          <note key="34" pan="0" pos="5040" vol="125" len="1"/>
          <note key="24" pan="0" pos="5040" vol="94" len="1"/>
          <note key="24" pan="0" pos="5052" vol="94" len="1"/>
          <note key="34" pan="0" pos="5064" vol="125" len="1"/>
          <note key="28" pan="0" pos="5064" vol="125" len="1"/>
          <note key="24" pan="0" pos="5076" vol="94" len="1"/>
          <note key="34" pan="0" pos="5088" vol="125" len="1"/>
          <note key="24" pan="0" pos="5100" vol="94" len="1"/>
          <note key="34" pan="0" pos="5112" vol="125" len="1"/>
          <note key="28" pan="0" pos="5112" vol="125" len="1"/>
          <note key="24" pan="0" pos="5124" vol="94" len="1"/>
          <note key="34" pan="0" pos="5136" vol="125" len="1"/>
          <note key="24" pan="0" pos="5136" vol="94" len="1"/>
          <note key="24" pan="0" pos="5148" vol="94" len="1"/>
          <note key="34" pan="0" pos="5160" vol="125" len="1"/>
          <note key="28" pan="0" pos="5160" vol="125" len="1"/>
          <note key="34" pan="0" pos="5184" vol="125" len="1"/>
          <note key="24" pan="0" pos="5184" vol="94" len="1"/>
          <note key="34" pan="0" pos="5208" vol="125" len="1"/>
          <note key="28" pan="0" pos="5208" vol="125" len="1"/>
          <note key="34" pan="0" pos="5232" vol="125" len="1"/>
          <note key="24" pan="0" pos="5232" vol="94" len="1"/>
          <note key="24" pan="0" pos="5244" vol="94" len="1"/>
          <note key="34" pan="0" pos="5256" vol="125" len="1"/>
          <note key="28" pan="0" pos="5256" vol="125" len="1"/>
          <note key="24" pan="0" pos="5268" vol="94" len="1"/>
          <note key="34" pan="0" pos="5280" vol="125" len="1"/>
          <note key="24" pan="0" pos="5292" vol="94" len="1"/>
          <note key="34" pan="0" pos="5304" vol="125" len="1"/>
          <note key="28" pan="0" pos="5304" vol="125" len="1"/>
          <note key="24" pan="0" pos="5316" vol="94" len="1"/>
          <note key="34" pan="0" pos="5328" vol="125" len="1"/>
          <note key="24" pan="0" pos="5328" vol="94" len="1"/>
          <note key="24" pan="0" pos="5340" vol="94" len="1"/>
          <note key="34" pan="0" pos="5352" vol="125" len="1"/>
          <note key="28" pan="0" pos="5352" vol="125" len="1"/>
          <note key="34" pan="0" pos="5376" vol="125" len="1"/>
          <note key="24" pan="0" pos="5376" vol="94" len="1"/>
          <note key="34" pan="0" pos="5388" vol="125" len="1"/>
          <note key="34" pan="0" pos="5400" vol="125" len="1"/>
          <note key="28" pan="0" pos="5400" vol="125" len="1"/>
          <note key="34" pan="0" pos="5424" vol="125" len="1"/>
          <note key="24" pan="0" pos="5424" vol="94" len="1"/>
          <note key="34" pan="0" pos="5436" vol="125" len="1"/>
          <note key="24" pan="0" pos="5436" vol="94" len="1"/>
          <note key="34" pan="0" pos="5448" vol="125" len="1"/>
          <note key="28" pan="0" pos="5448" vol="125" len="1"/>
          <note key="24" pan="0" pos="5460" vol="94" len="1"/>
          <note key="45" pan="0" pos="5472" vol="125" len="1"/>
          <note key="28" pan="0" pos="5472" vol="125" len="1"/>
          <note key="24" pan="0" pos="5484" vol="94" len="1"/>
          <note key="28" pan="0" pos="5496" vol="110" len="1"/>
          <note key="45" pan="0" pos="5508" vol="125" len="1"/>
          <note key="28" pan="0" pos="5508" vol="125" len="1"/>
          <note key="24" pan="0" pos="5520" vol="94" len="1"/>
          <note key="28" pan="0" pos="5532" vol="110" len="1"/>
          <note key="45" pan="0" pos="5544" vol="125" len="1"/>
          <note key="28" pan="0" pos="5544" vol="125" len="1"/>
          <note key="24" pan="0" pos="5556" vol="94" len="1"/>
          <note key="34" pan="0" pos="5568" vol="125" len="1"/>
          <note key="24" pan="0" pos="5568" vol="94" len="1"/>
          <note key="34" pan="0" pos="5592" vol="125" len="1"/>
          <note key="28" pan="0" pos="5592" vol="125" len="1"/>
          <note key="34" pan="0" pos="5616" vol="125" len="1"/>
          <note key="24" pan="0" pos="5616" vol="94" len="1"/>
          <note key="24" pan="0" pos="5628" vol="94" len="1"/>
          <note key="34" pan="0" pos="5640" vol="125" len="1"/>
          <note key="28" pan="0" pos="5640" vol="125" len="1"/>
          <note key="24" pan="0" pos="5652" vol="94" len="1"/>
          <note key="34" pan="0" pos="5664" vol="125" len="1"/>
          <note key="24" pan="0" pos="5676" vol="94" len="1"/>
          <note key="34" pan="0" pos="5688" vol="125" len="1"/>
          <note key="28" pan="0" pos="5688" vol="125" len="1"/>
          <note key="24" pan="0" pos="5700" vol="94" len="1"/>
          <note key="34" pan="0" pos="5712" vol="125" len="1"/>
          <note key="24" pan="0" pos="5712" vol="94" len="1"/>
          <note key="24" pan="0" pos="5724" vol="94" len="1"/>
          <note key="34" pan="0" pos="5736" vol="125" len="1"/>
          <note key="28" pan="0" pos="5736" vol="125" len="1"/>
          <note key="34" pan="0" pos="5760" vol="125" len="1"/>
          <note key="24" pan="0" pos="5760" vol="94" len="1"/>
          <note key="34" pan="0" pos="5784" vol="125" len="1"/>
          <note key="28" pan="0" pos="5784" vol="125" len="1"/>
          <note key="34" pan="0" pos="5808" vol="125" len="1"/>
          <note key="24" pan="0" pos="5808" vol="94" len="1"/>
          <note key="24" pan="0" pos="5820" vol="94" len="1"/>
          <note key="34" pan="0" pos="5832" vol="125" len="1"/>
          <note key="28" pan="0" pos="5832" vol="125" len="1"/>
          <note key="24" pan="0" pos="5844" vol="94" len="1"/>
          <note key="34" pan="0" pos="5856" vol="125" len="1"/>
          <note key="24" pan="0" pos="5868" vol="94" len="1"/>
          <note key="34" pan="0" pos="5880" vol="125" len="1"/>
          <note key="28" pan="0" pos="5880" vol="125" len="1"/>
          <note key="24" pan="0" pos="5892" vol="94" len="1"/>
          <note key="34" pan="0" pos="5904" vol="125" len="1"/>
          <note key="24" pan="0" pos="5904" vol="94" len="1"/>
          <note key="24" pan="0" pos="5916" vol="94" len="1"/>
          <note key="34" pan="0" pos="5928" vol="125" len="1"/>
          <note key="28" pan="0" pos="5928" vol="125" len="1"/>
          <note key="34" pan="0" pos="5952" vol="125" len="1"/>
          <note key="24" pan="0" pos="5952" vol="94" len="1"/>
          <note key="34" pan="0" pos="5976" vol="125" len="1"/>
          <note key="28" pan="0" pos="5976" vol="125" len="1"/>
          <note key="34" pan="0" pos="6000" vol="125" len="1"/>
          <note key="24" pan="0" pos="6000" vol="94" len="1"/>
          <note key="24" pan="0" pos="6012" vol="94" len="1"/>
          <note key="34" pan="0" pos="6024" vol="125" len="1"/>
          <note key="28" pan="0" pos="6024" vol="125" len="1"/>
          <note key="24" pan="0" pos="6036" vol="94" len="1"/>
          <note key="34" pan="0" pos="6048" vol="125" len="1"/>
          <note key="24" pan="0" pos="6060" vol="94" len="1"/>
          <note key="34" pan="0" pos="6072" vol="125" len="1"/>
          <note key="28" pan="0" pos="6072" vol="125" len="1"/>
          <note key="24" pan="0" pos="6084" vol="94" len="1"/>
          <note key="34" pan="0" pos="6096" vol="125" len="1"/>
          <note key="24" pan="0" pos="6096" vol="94" len="1"/>
          <note key="24" pan="0" pos="6108" vol="94" len="1"/>
          <note key="34" pan="0" pos="6120" vol="125" len="1"/>
          <note key="28" pan="0" pos="6120" vol="125" len="1"/>
          <note key="34" pan="0" pos="6144" vol="125" len="1"/>
          <note key="24" pan="0" pos="6144" vol="94" len="1"/>
          <note key="34" pan="0" pos="6156" vol="125" len="1"/>
          <note key="34" pan="0" pos="6168" vol="125" len="1"/>
          <note key="28" pan="0" pos="6168" vol="125" len="1"/>
          <note key="34" pan="0" pos="6192" vol="125" len="1"/>
          <note key="24" pan="0" pos="6192" vol="94" len="1"/>
          <note key="34" pan="0" pos="6204" vol="125" len="1"/>
          <note key="24" pan="0" pos="6204" vol="94" len="1"/>
          <note key="34" pan="0" pos="6216" vol="125" len="1"/>
          <note key="28" pan="0" pos="6216" vol="125" len="1"/>
          <note key="24" pan="0" pos="6228" vol="94" len="1"/>
          <note key="45" pan="0" pos="6240" vol="125" len="1"/>
          <note key="28" pan="0" pos="6240" vol="125" len="1"/>
          <note key="24" pan="0" pos="6252" vol="94" len="1"/>
          <note key="28" pan="0" pos="6264" vol="110" len="1"/>
          <note key="45" pan="0" pos="6276" vol="125" len="1"/>
          <note key="28" pan="0" pos="6276" vol="125" len="1"/>
          <note key="24" pan="0" pos="6288" vol="94" len="1"/>
          <note key="28" pan="0" pos="6300" vol="110" len="1"/>
          <note key="45" pan="0" pos="6312" vol="125" len="1"/>
          <note key="28" pan="0" pos="6312" vol="125" len="1"/>
          <note key="24" pan="0" pos="6324" vol="94" len="1"/>
          <note key="45" pan="0" pos="6336" vol="125" len="1"/>
          <note key="34" pan="0" pos="6336" vol="125" len="1"/>
          <note key="24" pan="0" pos="6336" vol="94" len="1"/>
          <note key="32" pan="0" pos="6360" vol="157" len="1"/>
          <note key="34" pan="0" pos="6384" vol="125" len="1"/>
          <note key="28" pan="0" pos="6384" vol="125" len="1"/>
          <note key="24" pan="0" pos="6396" vol="94" len="1"/>
          <note key="32" pan="0" pos="6408" vol="157" len="1"/>
          <note key="24" pan="0" pos="6420" vol="94" len="1"/>
          <note key="34" pan="0" pos="6432" vol="125" len="1"/>
          <note key="28" pan="0" pos="6444" vol="94" len="1"/>
          <note key="32" pan="0" pos="6456" vol="157" len="1"/>
          <note key="24" pan="0" pos="6468" vol="94" len="1"/>
          <note key="34" pan="0" pos="6480" vol="125" len="1"/>
          <note key="24" pan="0" pos="6480" vol="94" len="1"/>
          <note key="24" pan="0" pos="6492" vol="94" len="1"/>
          <note key="28" pan="0" pos="6504" vol="94" len="1"/>
          <note key="34" pan="0" pos="6528" vol="125" len="1"/>
          <note key="24" pan="0" pos="6528" vol="94" len="1"/>
          <note key="32" pan="0" pos="6552" vol="157" len="1"/>
          <note key="34" pan="0" pos="6576" vol="125" len="1"/>
          <note key="28" pan="0" pos="6576" vol="125" len="1"/>
          <note key="24" pan="0" pos="6588" vol="94" len="1"/>
          <note key="32" pan="0" pos="6600" vol="157" len="1"/>
          <note key="24" pan="0" pos="6612" vol="94" len="1"/>
          <note key="34" pan="0" pos="6624" vol="125" len="1"/>
          <note key="28" pan="0" pos="6636" vol="94" len="1"/>
          <note key="32" pan="0" pos="6648" vol="157" len="1"/>
          <note key="24" pan="0" pos="6660" vol="94" len="1"/>
          <note key="34" pan="0" pos="6672" vol="125" len="1"/>
          <note key="24" pan="0" pos="6672" vol="94" len="1"/>
          <note key="24" pan="0" pos="6684" vol="94" len="1"/>
          <note key="32" pan="0" pos="6696" vol="157" len="1"/>
          <note key="28" pan="0" pos="6696" vol="94" len="1"/>
          <note key="34" pan="0" pos="6720" vol="125" len="1"/>
          <note key="24" pan="0" pos="6720" vol="94" len="1"/>
          <note key="32" pan="0" pos="6744" vol="157" len="1"/>
          <note key="34" pan="0" pos="6768" vol="125" len="1"/>
          <note key="28" pan="0" pos="6768" vol="125" len="1"/>
          <note key="24" pan="0" pos="6780" vol="94" len="1"/>
          <note key="32" pan="0" pos="6792" vol="157" len="1"/>
          <note key="24" pan="0" pos="6804" vol="94" len="1"/>
          <note key="34" pan="0" pos="6816" vol="125" len="1"/>
          <note key="28" pan="0" pos="6828" vol="94" len="1"/>
          <note key="32" pan="0" pos="6840" vol="157" len="1"/>
          <note key="24" pan="0" pos="6852" vol="94" len="1"/>
          <note key="34" pan="0" pos="6864" vol="125" len="1"/>
          <note key="24" pan="0" pos="6864" vol="94" len="1"/>
          <note key="24" pan="0" pos="6876" vol="94" len="1"/>
          <note key="28" pan="0" pos="6888" vol="94" len="1"/>
          <note key="34" pan="0" pos="6912" vol="125" len="1"/>
          <note key="24" pan="0" pos="6912" vol="94" len="1"/>
          <note key="32" pan="0" pos="6936" vol="157" len="1"/>
          <note key="34" pan="0" pos="6960" vol="125" len="1"/>
          <note key="28" pan="0" pos="6960" vol="125" len="1"/>
          <note key="24" pan="0" pos="6972" vol="94" len="1"/>
          <note key="32" pan="0" pos="6984" vol="157" len="1"/>
          <note key="24" pan="0" pos="6996" vol="94" len="1"/>
          <note key="34" pan="0" pos="7008" vol="125" len="1"/>
          <note key="28" pan="0" pos="7020" vol="94" len="1"/>
          <note key="32" pan="0" pos="7032" vol="157" len="1"/>
          <note key="24" pan="0" pos="7044" vol="94" len="1"/>
          <note key="34" pan="0" pos="7056" vol="125" len="1"/>
          <note key="24" pan="0" pos="7056" vol="94" len="1"/>
          <note key="24" pan="0" pos="7068" vol="94" len="1"/>
          <note key="32" pan="0" pos="7080" vol="157" len="1"/>
          <note key="28" pan="0" pos="7080" vol="94" len="1"/>
          <note key="34" pan="0" pos="7104" vol="125" len="1"/>
          <note key="24" pan="0" pos="7104" vol="94" len="1"/>
          <note key="32" pan="0" pos="7128" vol="157" len="1"/>
          <note key="34" pan="0" pos="7152" vol="125" len="1"/>
          <note key="28" pan="0" pos="7152" vol="125" len="1"/>
          <note key="35" pan="0" pos="7164" vol="110" len="1"/>
          <note key="24" pan="0" pos="7164" vol="94" len="1"/>
          <note key="32" pan="0" pos="7176" vol="157" len="1"/>
          <note key="24" pan="0" pos="7188" vol="94" len="1"/>
          <note key="34" pan="0" pos="7200" vol="125" len="1"/>
          <note key="28" pan="0" pos="7212" vol="94" len="1"/>
          <note key="32" pan="0" pos="7224" vol="157" len="1"/>
          <note key="24" pan="0" pos="7236" vol="94" len="1"/>
          <note key="34" pan="0" pos="7248" vol="125" len="1"/>
          <note key="24" pan="0" pos="7248" vol="94" len="1"/>
          <note key="24" pan="0" pos="7260" vol="94" len="1"/>
          <note key="28" pan="0" pos="7272" vol="94" len="1"/>
          <note key="31" pan="0" pos="7284" vol="78" len="1"/>
          <note key="34" pan="0" pos="7296" vol="125" len="1"/>
          <note key="24" pan="0" pos="7296" vol="94" len="1"/>
          <note key="32" pan="0" pos="7320" vol="157" len="1"/>
          <note key="34" pan="0" pos="7344" vol="125" len="1"/>
          <note key="28" pan="0" pos="7344" vol="125" len="1"/>
          <note key="35" pan="0" pos="7356" vol="110" len="1"/>
          <note key="24" pan="0" pos="7356" vol="94" len="1"/>
          <note key="32" pan="0" pos="7368" vol="157" len="1"/>
          <note key="24" pan="0" pos="7380" vol="94" len="1"/>
          <note key="34" pan="0" pos="7392" vol="125" len="1"/>
          <note key="28" pan="0" pos="7404" vol="94" len="1"/>
          <note key="32" pan="0" pos="7416" vol="157" len="1"/>
          <note key="24" pan="0" pos="7428" vol="94" len="1"/>
          <note key="34" pan="0" pos="7440" vol="125" len="1"/>
          <note key="24" pan="0" pos="7440" vol="94" len="1"/>
          <note key="24" pan="0" pos="7452" vol="94" len="1"/>
          <note key="32" pan="0" pos="7464" vol="157" len="1"/>
          <note key="28" pan="0" pos="7464" vol="94" len="1"/>
          <note key="31" pan="0" pos="7476" vol="78" len="1"/>
          <note key="34" pan="0" pos="7488" vol="125" len="1"/>
          <note key="24" pan="0" pos="7488" vol="94" len="1"/>
          <note key="32" pan="0" pos="7512" vol="157" len="1"/>
          <note key="34" pan="0" pos="7536" vol="125" len="1"/>
          <note key="28" pan="0" pos="7536" vol="125" len="1"/>
          <note key="35" pan="0" pos="7548" vol="110" len="1"/>
          <note key="24" pan="0" pos="7548" vol="94" len="1"/>
          <note key="32" pan="0" pos="7560" vol="157" len="1"/>
          <note key="24" pan="0" pos="7572" vol="94" len="1"/>
          <note key="34" pan="0" pos="7584" vol="125" len="1"/>
          <note key="28" pan="0" pos="7596" vol="94" len="1"/>
          <note key="32" pan="0" pos="7608" vol="157" len="1"/>
          <note key="24" pan="0" pos="7620" vol="94" len="1"/>
          <note key="34" pan="0" pos="7632" vol="125" len="1"/>
          <note key="24" pan="0" pos="7632" vol="94" len="1"/>
          <note key="24" pan="0" pos="7644" vol="94" len="1"/>
          <note key="28" pan="0" pos="7656" vol="94" len="1"/>
          <note key="31" pan="0" pos="7668" vol="78" len="1"/>
          <note key="34" pan="0" pos="7680" vol="125" len="1"/>
          <note key="24" pan="0" pos="7680" vol="94" len="1"/>
          <note key="32" pan="0" pos="7704" vol="157" len="1"/>
          <note key="34" pan="0" pos="7728" vol="125" len="1"/>
          <note key="28" pan="0" pos="7728" vol="125" len="1"/>
          <note key="35" pan="0" pos="7740" vol="110" len="1"/>
          <note key="24" pan="0" pos="7740" vol="94" len="1"/>
          <note key="32" pan="0" pos="7752" vol="157" len="1"/>
          <note key="24" pan="0" pos="7764" vol="94" len="1"/>
          <note key="34" pan="0" pos="7776" vol="125" len="1"/>
          <note key="28" pan="0" pos="7788" vol="94" len="1"/>
          <note key="32" pan="0" pos="7800" vol="157" len="1"/>
          <note key="24" pan="0" pos="7812" vol="94" len="1"/>
          <note key="34" pan="0" pos="7824" vol="125" len="1"/>
          <note key="24" pan="0" pos="7824" vol="94" len="1"/>
          <note key="24" pan="0" pos="7836" vol="94" len="1"/>
          <note key="32" pan="0" pos="7848" vol="157" len="1"/>
          <note key="28" pan="0" pos="7848" vol="94" len="1"/>
          <note key="31" pan="0" pos="7860" vol="78" len="1"/>
          <note key="34" pan="0" pos="7872" vol="125" len="1"/>
          <note key="24" pan="0" pos="7872" vol="94" len="1"/>
          <note key="32" pan="0" pos="7896" vol="157" len="1"/>
          <note key="34" pan="0" pos="7920" vol="125" len="1"/>
          <note key="28" pan="0" pos="7920" vol="125" len="1"/>
          <note key="35" pan="0" pos="7932" vol="110" len="1"/>
          <note key="24" pan="0" pos="7932" vol="94" len="1"/>
          <note key="32" pan="0" pos="7944" vol="157" len="1"/>
          <note key="24" pan="0" pos="7956" vol="94" len="1"/>
          <note key="34" pan="0" pos="7968" vol="125" len="1"/>
          <note key="28" pan="0" pos="7980" vol="94" len="1"/>
          <note key="32" pan="0" pos="7992" vol="157" len="1"/>
          <note key="24" pan="0" pos="8004" vol="94" len="1"/>
          <note key="34" pan="0" pos="8016" vol="125" len="1"/>
          <note key="24" pan="0" pos="8016" vol="94" len="1"/>
          <note key="24" pan="0" pos="8028" vol="94" len="1"/>
          <note key="28" pan="0" pos="8040" vol="94" len="1"/>
          <note key="31" pan="0" pos="8052" vol="78" len="1"/>
          <note key="34" pan="0" pos="8064" vol="125" len="1"/>
          <note key="24" pan="0" pos="8064" vol="94" len="1"/>
          <note key="32" pan="0" pos="8088" vol="157" len="1"/>
          <note key="34" pan="0" pos="8112" vol="125" len="1"/>
          <note key="28" pan="0" pos="8112" vol="125" len="1"/>
          <note key="35" pan="0" pos="8124" vol="110" len="1"/>
          <note key="24" pan="0" pos="8124" vol="94" len="1"/>
          <note key="32" pan="0" pos="8136" vol="157" len="1"/>
          <note key="24" pan="0" pos="8148" vol="94" len="1"/>
          <note key="34" pan="0" pos="8160" vol="125" len="1"/>
          <note key="28" pan="0" pos="8172" vol="94" len="1"/>
          <note key="32" pan="0" pos="8184" vol="157" len="1"/>
          <note key="24" pan="0" pos="8196" vol="94" len="1"/>
          <note key="34" pan="0" pos="8208" vol="125" len="1"/>
          <note key="24" pan="0" pos="8208" vol="94" len="1"/>
          <note key="24" pan="0" pos="8220" vol="94" len="1"/>
          <note key="32" pan="0" pos="8232" vol="157" len="1"/>
          <note key="28" pan="0" pos="8232" vol="94" len="1"/>
          <note key="31" pan="0" pos="8244" vol="78" len="1"/>
          <note key="34" pan="0" pos="8256" vol="125" len="1"/>
          <note key="24" pan="0" pos="8256" vol="94" len="1"/>
          <note key="32" pan="0" pos="8280" vol="157" len="1"/>
          <note key="34" pan="0" pos="8304" vol="125" len="1"/>
          <note key="28" pan="0" pos="8304" vol="125" len="1"/>
          <note key="35" pan="0" pos="8316" vol="110" len="1"/>
          <note key="24" pan="0" pos="8316" vol="94" len="1"/>
          <note key="32" pan="0" pos="8328" vol="157" len="1"/>
          <note key="24" pan="0" pos="8340" vol="94" len="1"/>
          <note key="34" pan="0" pos="8352" vol="125" len="1"/>
          <note key="28" pan="0" pos="8364" vol="94" len="1"/>
          <note key="32" pan="0" pos="8376" vol="157" len="1"/>
          <note key="24" pan="0" pos="8388" vol="94" len="1"/>
          <note key="34" pan="0" pos="8400" vol="125" len="1"/>
          <note key="24" pan="0" pos="8400" vol="94" len="1"/>
          <note key="24" pan="0" pos="8412" vol="94" len="1"/>
          <note key="28" pan="0" pos="8424" vol="94" len="1"/>
          <note key="31" pan="0" pos="8436" vol="78" len="1"/>
          <note key="34" pan="0" pos="8448" vol="125" len="1"/>
          <note key="24" pan="0" pos="8448" vol="94" len="1"/>
          <note key="32" pan="0" pos="8472" vol="157" len="1"/>
          <note key="34" pan="0" pos="8496" vol="125" len="1"/>
          <note key="28" pan="0" pos="8496" vol="125" len="1"/>
          <note key="35" pan="0" pos="8508" vol="110" len="1"/>
          <note key="24" pan="0" pos="8508" vol="94" len="1"/>
          <note key="32" pan="0" pos="8520" vol="157" len="1"/>
          <note key="24" pan="0" pos="8532" vol="94" len="1"/>
          <note key="34" pan="0" pos="8544" vol="125" len="1"/>
          <note key="28" pan="0" pos="8556" vol="94" len="1"/>
          <note key="32" pan="0" pos="8568" vol="157" len="1"/>
          <note key="24" pan="0" pos="8580" vol="94" len="1"/>
          <note key="34" pan="0" pos="8592" vol="125" len="1"/>
          <note key="24" pan="0" pos="8592" vol="94" len="1"/>
          <note key="24" pan="0" pos="8604" vol="94" len="1"/>
          <note key="32" pan="0" pos="8616" vol="157" len="1"/>
          <note key="28" pan="0" pos="8616" vol="94" len="1"/>
          <note key="31" pan="0" pos="8628" vol="78" len="1"/>
          <note key="34" pan="0" pos="8640" vol="125" len="1"/>
          <note key="24" pan="0" pos="8640" vol="94" len="1"/>
          <note key="32" pan="0" pos="8664" vol="157" len="1"/>
          <note key="34" pan="0" pos="8688" vol="125" len="1"/>
          <note key="28" pan="0" pos="8688" vol="125" len="1"/>
          <note key="35" pan="0" pos="8700" vol="110" len="1"/>
          <note key="24" pan="0" pos="8700" vol="94" len="1"/>
          <note key="32" pan="0" pos="8712" vol="157" len="1"/>
          <note key="24" pan="0" pos="8724" vol="94" len="1"/>
          <note key="34" pan="0" pos="8736" vol="125" len="1"/>
          <note key="28" pan="0" pos="8748" vol="94" len="1"/>
          <note key="32" pan="0" pos="8760" vol="157" len="1"/>
          <note key="24" pan="0" pos="8772" vol="94" len="1"/>
          <note key="34" pan="0" pos="8784" vol="125" len="1"/>
          <note key="24" pan="0" pos="8784" vol="94" len="1"/>
          <note key="24" pan="0" pos="8796" vol="94" len="1"/>
          <note key="28" pan="0" pos="8808" vol="94" len="1"/>
          <note key="31" pan="0" pos="8820" vol="78" len="1"/>
          <note key="34" pan="0" pos="8832" vol="125" len="1"/>
          <note key="24" pan="0" pos="8832" vol="94" len="1"/>
          <note key="32" pan="0" pos="8856" vol="157" len="1"/>
          <note key="34" pan="0" pos="8880" vol="125" len="1"/>
          <note key="28" pan="0" pos="8880" vol="125" len="1"/>
          <note key="35" pan="0" pos="8892" vol="110" len="1"/>
          <note key="24" pan="0" pos="8892" vol="94" len="1"/>
          <note key="32" pan="0" pos="8904" vol="157" len="1"/>
          <note key="24" pan="0" pos="8916" vol="94" len="1"/>
          <note key="34" pan="0" pos="8928" vol="125" len="1"/>
          <note key="28" pan="0" pos="8940" vol="94" len="1"/>
          <note key="32" pan="0" pos="8952" vol="157" len="1"/>
          <note key="24" pan="0" pos="8964" vol="94" len="1"/>
          <note key="34" pan="0" pos="8976" vol="125" len="1"/>
          <note key="24" pan="0" pos="8976" vol="94" len="1"/>
          <note key="24" pan="0" pos="8988" vol="94" len="1"/>
          <note key="32" pan="0" pos="9000" vol="157" len="1"/>
          <note key="28" pan="0" pos="9000" vol="94" len="1"/>
          <note key="31" pan="0" pos="9012" vol="78" len="1"/>
        </pattern>
        <pattern steps="16" name="Track 7" pos="25728" type="1" muted="0">
          <note key="45" pan="0" pos="96" vol="125" len="1"/>
          <note key="28" pan="0" pos="96" vol="125" len="1"/>
          <note key="24" pan="0" pos="108" vol="94" len="1"/>
          <note key="28" pan="0" pos="120" vol="110" len="1"/>
          <note key="45" pan="0" pos="132" vol="125" len="1"/>
          <note key="28" pan="0" pos="132" vol="125" len="1"/>
          <note key="24" pan="0" pos="144" vol="94" len="1"/>
          <note key="28" pan="0" pos="156" vol="110" len="1"/>
          <note key="45" pan="0" pos="168" vol="125" len="1"/>
          <note key="28" pan="0" pos="168" vol="125" len="1"/>
          <note key="24" pan="0" pos="180" vol="94" len="1"/>
          <note key="45" pan="0" pos="192" vol="125" len="1"/>
          <note key="34" pan="0" pos="192" vol="125" len="1"/>
          <note key="24" pan="0" pos="192" vol="94" len="1"/>
          <note key="34" pan="0" pos="204" vol="125" len="1"/>
          <note key="34" pan="0" pos="216" vol="125" len="1"/>
          <note key="28" pan="0" pos="216" vol="125" len="1"/>
          <note key="34" pan="0" pos="240" vol="125" len="1"/>
          <note key="24" pan="0" pos="240" vol="94" len="1"/>
          <note key="34" pan="0" pos="252" vol="125" len="1"/>
          <note key="24" pan="0" pos="252" vol="94" len="1"/>
          <note key="34" pan="0" pos="264" vol="125" len="1"/>
          <note key="28" pan="0" pos="264" vol="125" len="1"/>
          <note key="24" pan="0" pos="276" vol="94" len="1"/>
          <note key="34" pan="0" pos="300" vol="125" len="1"/>
          <note key="24" pan="0" pos="300" vol="94" len="1"/>
          <note key="28" pan="0" pos="312" vol="125" len="1"/>
          <note key="34" pan="0" pos="324" vol="125" len="1"/>
          <note key="24" pan="0" pos="324" vol="94" len="1"/>
          <note key="32" pan="0" pos="336" vol="125" len="1"/>
          <note key="24" pan="0" pos="336" vol="94" len="1"/>
          <note key="24" pan="0" pos="348" vol="94" len="1"/>
          <note key="34" pan="0" pos="360" vol="125" len="1"/>
          <note key="28" pan="0" pos="360" vol="125" len="1"/>
          <note key="34" pan="0" pos="384" vol="125" len="1"/>
          <note key="24" pan="0" pos="384" vol="94" len="1"/>
          <note key="34" pan="0" pos="396" vol="125" len="1"/>
          <note key="34" pan="0" pos="408" vol="125" len="1"/>
          <note key="28" pan="0" pos="408" vol="125" len="1"/>
          <note key="34" pan="0" pos="432" vol="125" len="1"/>
          <note key="24" pan="0" pos="432" vol="94" len="1"/>
          <note key="34" pan="0" pos="444" vol="125" len="1"/>
          <note key="24" pan="0" pos="444" vol="94" len="1"/>
          <note key="34" pan="0" pos="456" vol="125" len="1"/>
          <note key="28" pan="0" pos="456" vol="125" len="1"/>
          <note key="24" pan="0" pos="468" vol="94" len="1"/>
          <note key="34" pan="0" pos="492" vol="125" len="1"/>
          <note key="24" pan="0" pos="492" vol="94" len="1"/>
          <note key="28" pan="0" pos="504" vol="125" len="1"/>
          <note key="34" pan="0" pos="516" vol="125" len="1"/>
          <note key="24" pan="0" pos="516" vol="94" len="1"/>
          <note key="32" pan="0" pos="528" vol="125" len="1"/>
          <note key="24" pan="0" pos="528" vol="94" len="1"/>
          <note key="24" pan="0" pos="540" vol="94" len="1"/>
          <note key="34" pan="0" pos="552" vol="125" len="1"/>
          <note key="28" pan="0" pos="552" vol="125" len="1"/>
          <note key="34" pan="0" pos="576" vol="125" len="1"/>
          <note key="24" pan="0" pos="576" vol="94" len="1"/>
          <note key="34" pan="0" pos="588" vol="125" len="1"/>
          <note key="34" pan="0" pos="600" vol="125" len="1"/>
          <note key="28" pan="0" pos="600" vol="125" len="1"/>
          <note key="34" pan="0" pos="624" vol="125" len="1"/>
          <note key="24" pan="0" pos="624" vol="94" len="1"/>
          <note key="34" pan="0" pos="636" vol="125" len="1"/>
          <note key="24" pan="0" pos="636" vol="94" len="1"/>
          <note key="34" pan="0" pos="648" vol="125" len="1"/>
          <note key="28" pan="0" pos="648" vol="125" len="1"/>
          <note key="24" pan="0" pos="660" vol="94" len="1"/>
          <note key="34" pan="0" pos="684" vol="125" len="1"/>
          <note key="24" pan="0" pos="684" vol="94" len="1"/>
          <note key="28" pan="0" pos="696" vol="125" len="1"/>
          <note key="34" pan="0" pos="708" vol="125" len="1"/>
          <note key="24" pan="0" pos="708" vol="94" len="1"/>
          <note key="32" pan="0" pos="720" vol="125" len="1"/>
          <note key="24" pan="0" pos="720" vol="94" len="1"/>
          <note key="24" pan="0" pos="732" vol="94" len="1"/>
          <note key="34" pan="0" pos="744" vol="125" len="1"/>
          <note key="28" pan="0" pos="744" vol="125" len="1"/>
          <note key="34" pan="0" pos="768" vol="125" len="1"/>
          <note key="24" pan="0" pos="768" vol="94" len="1"/>
          <note key="34" pan="0" pos="780" vol="125" len="1"/>
          <note key="34" pan="0" pos="792" vol="125" len="1"/>
          <note key="28" pan="0" pos="792" vol="125" len="1"/>
          <note key="34" pan="0" pos="816" vol="125" len="1"/>
          <note key="24" pan="0" pos="816" vol="94" len="1"/>
          <note key="34" pan="0" pos="828" vol="125" len="1"/>
          <note key="24" pan="0" pos="828" vol="94" len="1"/>
          <note key="34" pan="0" pos="840" vol="125" len="1"/>
          <note key="28" pan="0" pos="840" vol="125" len="1"/>
          <note key="24" pan="0" pos="852" vol="94" len="1"/>
          <note key="34" pan="0" pos="876" vol="125" len="1"/>
          <note key="24" pan="0" pos="876" vol="94" len="1"/>
          <note key="28" pan="0" pos="888" vol="125" len="1"/>
          <note key="34" pan="0" pos="900" vol="125" len="1"/>
          <note key="24" pan="0" pos="900" vol="94" len="1"/>
          <note key="32" pan="0" pos="912" vol="125" len="1"/>
          <note key="24" pan="0" pos="912" vol="94" len="1"/>
          <note key="24" pan="0" pos="924" vol="94" len="1"/>
          <note key="34" pan="0" pos="936" vol="125" len="1"/>
          <note key="28" pan="0" pos="936" vol="125" len="1"/>
          <note key="34" pan="0" pos="960" vol="125" len="1"/>
          <note key="24" pan="0" pos="960" vol="94" len="1"/>
          <note key="34" pan="0" pos="972" vol="125" len="1"/>
          <note key="34" pan="0" pos="984" vol="125" len="1"/>
          <note key="28" pan="0" pos="984" vol="125" len="1"/>
          <note key="34" pan="0" pos="1008" vol="125" len="1"/>
          <note key="24" pan="0" pos="1008" vol="94" len="1"/>
          <note key="34" pan="0" pos="1020" vol="125" len="1"/>
          <note key="24" pan="0" pos="1020" vol="94" len="1"/>
          <note key="34" pan="0" pos="1032" vol="125" len="1"/>
          <note key="28" pan="0" pos="1032" vol="125" len="1"/>
          <note key="24" pan="0" pos="1044" vol="94" len="1"/>
          <note key="34" pan="0" pos="1068" vol="125" len="1"/>
          <note key="24" pan="0" pos="1068" vol="94" len="1"/>
          <note key="28" pan="0" pos="1080" vol="125" len="1"/>
          <note key="34" pan="0" pos="1092" vol="125" len="1"/>
          <note key="24" pan="0" pos="1092" vol="94" len="1"/>
          <note key="32" pan="0" pos="1104" vol="125" len="1"/>
          <note key="24" pan="0" pos="1104" vol="94" len="1"/>
          <note key="24" pan="0" pos="1116" vol="94" len="1"/>
          <note key="34" pan="0" pos="1128" vol="125" len="1"/>
          <note key="28" pan="0" pos="1128" vol="125" len="1"/>
          <note key="34" pan="0" pos="1152" vol="125" len="1"/>
          <note key="24" pan="0" pos="1152" vol="94" len="1"/>
          <note key="34" pan="0" pos="1164" vol="125" len="1"/>
          <note key="34" pan="0" pos="1176" vol="125" len="1"/>
          <note key="28" pan="0" pos="1176" vol="125" len="1"/>
          <note key="34" pan="0" pos="1200" vol="125" len="1"/>
          <note key="24" pan="0" pos="1200" vol="94" len="1"/>
          <note key="34" pan="0" pos="1212" vol="125" len="1"/>
          <note key="24" pan="0" pos="1212" vol="94" len="1"/>
          <note key="34" pan="0" pos="1224" vol="125" len="1"/>
          <note key="28" pan="0" pos="1224" vol="125" len="1"/>
          <note key="24" pan="0" pos="1236" vol="94" len="1"/>
          <note key="34" pan="0" pos="1260" vol="125" len="1"/>
          <note key="24" pan="0" pos="1260" vol="94" len="1"/>
          <note key="28" pan="0" pos="1272" vol="125" len="1"/>
          <note key="34" pan="0" pos="1284" vol="125" len="1"/>
          <note key="24" pan="0" pos="1284" vol="94" len="1"/>
          <note key="32" pan="0" pos="1296" vol="125" len="1"/>
          <note key="24" pan="0" pos="1296" vol="94" len="1"/>
          <note key="24" pan="0" pos="1308" vol="94" len="1"/>
          <note key="34" pan="0" pos="1320" vol="125" len="1"/>
          <note key="28" pan="0" pos="1320" vol="125" len="1"/>
          <note key="34" pan="0" pos="1344" vol="125" len="1"/>
          <note key="24" pan="0" pos="1344" vol="94" len="1"/>
          <note key="34" pan="0" pos="1356" vol="125" len="1"/>
          <note key="34" pan="0" pos="1368" vol="125" len="1"/>
          <note key="28" pan="0" pos="1368" vol="125" len="1"/>
          <note key="34" pan="0" pos="1392" vol="125" len="1"/>
          <note key="24" pan="0" pos="1392" vol="94" len="1"/>
          <note key="34" pan="0" pos="1404" vol="125" len="1"/>
          <note key="24" pan="0" pos="1404" vol="94" len="1"/>
          <note key="34" pan="0" pos="1416" vol="125" len="1"/>
          <note key="28" pan="0" pos="1416" vol="125" len="1"/>
          <note key="24" pan="0" pos="1428" vol="94" len="1"/>
          <note key="34" pan="0" pos="1452" vol="125" len="1"/>
          <note key="24" pan="0" pos="1452" vol="94" len="1"/>
          <note key="28" pan="0" pos="1464" vol="125" len="1"/>
          <note key="34" pan="0" pos="1476" vol="125" len="1"/>
          <note key="24" pan="0" pos="1476" vol="94" len="1"/>
          <note key="32" pan="0" pos="1488" vol="125" len="1"/>
          <note key="24" pan="0" pos="1488" vol="94" len="1"/>
          <note key="24" pan="0" pos="1500" vol="94" len="1"/>
          <note key="34" pan="0" pos="1512" vol="125" len="1"/>
          <note key="28" pan="0" pos="1512" vol="125" len="1"/>
          <note key="34" pan="0" pos="1536" vol="125" len="1"/>
          <note key="24" pan="0" pos="1536" vol="94" len="1"/>
          <note key="34" pan="0" pos="1548" vol="125" len="1"/>
          <note key="34" pan="0" pos="1560" vol="125" len="1"/>
          <note key="28" pan="0" pos="1560" vol="125" len="1"/>
          <note key="34" pan="0" pos="1584" vol="125" len="1"/>
          <note key="24" pan="0" pos="1584" vol="94" len="1"/>
          <note key="34" pan="0" pos="1596" vol="125" len="1"/>
          <note key="24" pan="0" pos="1596" vol="94" len="1"/>
          <note key="34" pan="0" pos="1608" vol="125" len="1"/>
          <note key="28" pan="0" pos="1608" vol="125" len="1"/>
          <note key="24" pan="0" pos="1620" vol="94" len="1"/>
          <note key="34" pan="0" pos="1644" vol="125" len="1"/>
          <note key="24" pan="0" pos="1644" vol="94" len="1"/>
          <note key="28" pan="0" pos="1656" vol="125" len="1"/>
          <note key="34" pan="0" pos="1668" vol="125" len="1"/>
          <note key="24" pan="0" pos="1668" vol="94" len="1"/>
          <note key="32" pan="0" pos="1680" vol="125" len="1"/>
          <note key="24" pan="0" pos="1680" vol="94" len="1"/>
          <note key="24" pan="0" pos="1692" vol="94" len="1"/>
          <note key="34" pan="0" pos="1704" vol="125" len="1"/>
          <note key="28" pan="0" pos="1704" vol="125" len="1"/>
          <note key="34" pan="0" pos="1728" vol="125" len="1"/>
          <note key="24" pan="0" pos="1728" vol="94" len="1"/>
          <note key="34" pan="0" pos="1740" vol="125" len="1"/>
          <note key="34" pan="0" pos="1752" vol="125" len="1"/>
          <note key="28" pan="0" pos="1752" vol="125" len="1"/>
          <note key="34" pan="0" pos="1776" vol="125" len="1"/>
          <note key="24" pan="0" pos="1776" vol="94" len="1"/>
          <note key="34" pan="0" pos="1788" vol="125" len="1"/>
          <note key="24" pan="0" pos="1788" vol="94" len="1"/>
          <note key="34" pan="0" pos="1800" vol="125" len="1"/>
          <note key="28" pan="0" pos="1800" vol="125" len="1"/>
          <note key="24" pan="0" pos="1812" vol="94" len="1"/>
          <note key="34" pan="0" pos="1836" vol="125" len="1"/>
          <note key="24" pan="0" pos="1836" vol="94" len="1"/>
          <note key="28" pan="0" pos="1848" vol="125" len="1"/>
          <note key="34" pan="0" pos="1860" vol="125" len="1"/>
          <note key="24" pan="0" pos="1860" vol="94" len="1"/>
          <note key="32" pan="0" pos="1872" vol="125" len="1"/>
          <note key="24" pan="0" pos="1872" vol="94" len="1"/>
          <note key="24" pan="0" pos="1884" vol="94" len="1"/>
          <note key="34" pan="0" pos="1896" vol="125" len="1"/>
          <note key="28" pan="0" pos="1896" vol="125" len="1"/>
          <note key="34" pan="0" pos="1920" vol="125" len="1"/>
          <note key="24" pan="0" pos="1920" vol="94" len="1"/>
          <note key="34" pan="0" pos="1932" vol="125" len="1"/>
          <note key="34" pan="0" pos="1944" vol="125" len="1"/>
          <note key="28" pan="0" pos="1944" vol="125" len="1"/>
          <note key="34" pan="0" pos="1968" vol="125" len="1"/>
          <note key="24" pan="0" pos="1968" vol="94" len="1"/>
          <note key="34" pan="0" pos="1980" vol="125" len="1"/>
          <note key="24" pan="0" pos="1980" vol="94" len="1"/>
          <note key="34" pan="0" pos="1992" vol="125" len="1"/>
          <note key="28" pan="0" pos="1992" vol="125" len="1"/>
          <note key="24" pan="0" pos="2004" vol="94" len="1"/>
          <note key="34" pan="0" pos="2028" vol="125" len="1"/>
          <note key="24" pan="0" pos="2028" vol="94" len="1"/>
          <note key="28" pan="0" pos="2040" vol="125" len="1"/>
          <note key="34" pan="0" pos="2052" vol="125" len="1"/>
          <note key="24" pan="0" pos="2052" vol="94" len="1"/>
          <note key="32" pan="0" pos="2064" vol="125" len="1"/>
          <note key="24" pan="0" pos="2064" vol="94" len="1"/>
          <note key="24" pan="0" pos="2076" vol="94" len="1"/>
          <note key="34" pan="0" pos="2088" vol="125" len="1"/>
          <note key="28" pan="0" pos="2088" vol="125" len="1"/>
          <note key="34" pan="0" pos="2112" vol="125" len="1"/>
          <note key="24" pan="0" pos="2112" vol="94" len="1"/>
          <note key="34" pan="0" pos="2124" vol="125" len="1"/>
          <note key="34" pan="0" pos="2136" vol="125" len="1"/>
          <note key="28" pan="0" pos="2136" vol="125" len="1"/>
          <note key="34" pan="0" pos="2160" vol="125" len="1"/>
          <note key="24" pan="0" pos="2160" vol="94" len="1"/>
          <note key="34" pan="0" pos="2172" vol="125" len="1"/>
          <note key="24" pan="0" pos="2172" vol="94" len="1"/>
          <note key="34" pan="0" pos="2184" vol="125" len="1"/>
          <note key="28" pan="0" pos="2184" vol="125" len="1"/>
          <note key="24" pan="0" pos="2196" vol="94" len="1"/>
          <note key="34" pan="0" pos="2220" vol="125" len="1"/>
          <note key="24" pan="0" pos="2220" vol="94" len="1"/>
          <note key="28" pan="0" pos="2232" vol="125" len="1"/>
          <note key="34" pan="0" pos="2244" vol="125" len="1"/>
          <note key="24" pan="0" pos="2244" vol="94" len="1"/>
          <note key="32" pan="0" pos="2256" vol="125" len="1"/>
          <note key="24" pan="0" pos="2256" vol="94" len="1"/>
          <note key="24" pan="0" pos="2268" vol="94" len="1"/>
          <note key="34" pan="0" pos="2280" vol="125" len="1"/>
          <note key="28" pan="0" pos="2280" vol="125" len="1"/>
          <note key="34" pan="0" pos="2304" vol="125" len="1"/>
          <note key="24" pan="0" pos="2304" vol="94" len="1"/>
          <note key="34" pan="0" pos="2316" vol="125" len="1"/>
          <note key="34" pan="0" pos="2328" vol="125" len="1"/>
          <note key="28" pan="0" pos="2328" vol="125" len="1"/>
          <note key="34" pan="0" pos="2352" vol="125" len="1"/>
          <note key="24" pan="0" pos="2352" vol="94" len="1"/>
          <note key="34" pan="0" pos="2364" vol="125" len="1"/>
          <note key="24" pan="0" pos="2364" vol="94" len="1"/>
          <note key="34" pan="0" pos="2376" vol="125" len="1"/>
          <note key="28" pan="0" pos="2376" vol="125" len="1"/>
          <note key="24" pan="0" pos="2388" vol="94" len="1"/>
          <note key="34" pan="0" pos="2412" vol="125" len="1"/>
          <note key="24" pan="0" pos="2412" vol="94" len="1"/>
          <note key="28" pan="0" pos="2424" vol="125" len="1"/>
          <note key="34" pan="0" pos="2436" vol="125" len="1"/>
          <note key="24" pan="0" pos="2436" vol="94" len="1"/>
          <note key="32" pan="0" pos="2448" vol="125" len="1"/>
          <note key="24" pan="0" pos="2448" vol="94" len="1"/>
          <note key="24" pan="0" pos="2460" vol="94" len="1"/>
          <note key="34" pan="0" pos="2472" vol="125" len="1"/>
          <note key="28" pan="0" pos="2472" vol="125" len="1"/>
          <note key="34" pan="0" pos="2496" vol="125" len="1"/>
          <note key="24" pan="0" pos="2496" vol="94" len="1"/>
          <note key="34" pan="0" pos="2508" vol="125" len="1"/>
          <note key="34" pan="0" pos="2520" vol="125" len="1"/>
          <note key="28" pan="0" pos="2520" vol="125" len="1"/>
          <note key="34" pan="0" pos="2544" vol="125" len="1"/>
          <note key="24" pan="0" pos="2544" vol="94" len="1"/>
          <note key="34" pan="0" pos="2556" vol="125" len="1"/>
          <note key="24" pan="0" pos="2556" vol="94" len="1"/>
          <note key="34" pan="0" pos="2568" vol="125" len="1"/>
          <note key="28" pan="0" pos="2568" vol="125" len="1"/>
          <note key="24" pan="0" pos="2580" vol="94" len="1"/>
          <note key="34" pan="0" pos="2604" vol="125" len="1"/>
          <note key="24" pan="0" pos="2604" vol="94" len="1"/>
          <note key="28" pan="0" pos="2616" vol="125" len="1"/>
          <note key="34" pan="0" pos="2628" vol="125" len="1"/>
          <note key="24" pan="0" pos="2628" vol="94" len="1"/>
          <note key="32" pan="0" pos="2640" vol="125" len="1"/>
          <note key="24" pan="0" pos="2640" vol="94" len="1"/>
          <note key="24" pan="0" pos="2652" vol="94" len="1"/>
          <note key="34" pan="0" pos="2664" vol="125" len="1"/>
          <note key="28" pan="0" pos="2664" vol="125" len="1"/>
          <note key="34" pan="0" pos="2688" vol="125" len="1"/>
          <note key="24" pan="0" pos="2688" vol="94" len="1"/>
          <note key="34" pan="0" pos="2700" vol="125" len="1"/>
          <note key="34" pan="0" pos="2712" vol="125" len="1"/>
          <note key="28" pan="0" pos="2712" vol="125" len="1"/>
          <note key="34" pan="0" pos="2736" vol="125" len="1"/>
          <note key="24" pan="0" pos="2736" vol="94" len="1"/>
          <note key="34" pan="0" pos="2748" vol="125" len="1"/>
          <note key="24" pan="0" pos="2748" vol="94" len="1"/>
          <note key="34" pan="0" pos="2760" vol="125" len="1"/>
          <note key="28" pan="0" pos="2760" vol="125" len="1"/>
          <note key="24" pan="0" pos="2772" vol="94" len="1"/>
          <note key="34" pan="0" pos="2796" vol="125" len="1"/>
          <note key="24" pan="0" pos="2796" vol="94" len="1"/>
          <note key="28" pan="0" pos="2808" vol="125" len="1"/>
          <note key="34" pan="0" pos="2820" vol="125" len="1"/>
          <note key="24" pan="0" pos="2820" vol="94" len="1"/>
          <note key="32" pan="0" pos="2832" vol="125" len="1"/>
          <note key="24" pan="0" pos="2832" vol="94" len="1"/>
          <note key="24" pan="0" pos="2844" vol="94" len="1"/>
          <note key="34" pan="0" pos="2856" vol="125" len="1"/>
          <note key="28" pan="0" pos="2856" vol="125" len="1"/>
          <note key="34" pan="0" pos="2880" vol="125" len="1"/>
          <note key="24" pan="0" pos="2880" vol="94" len="1"/>
          <note key="34" pan="0" pos="2892" vol="125" len="1"/>
          <note key="34" pan="0" pos="2904" vol="125" len="1"/>
          <note key="28" pan="0" pos="2904" vol="125" len="1"/>
          <note key="34" pan="0" pos="2928" vol="125" len="1"/>
          <note key="24" pan="0" pos="2928" vol="94" len="1"/>
          <note key="34" pan="0" pos="2940" vol="125" len="1"/>
          <note key="24" pan="0" pos="2940" vol="94" len="1"/>
          <note key="34" pan="0" pos="2952" vol="125" len="1"/>
          <note key="28" pan="0" pos="2952" vol="125" len="1"/>
          <note key="24" pan="0" pos="2964" vol="94" len="1"/>
          <note key="34" pan="0" pos="2988" vol="125" len="1"/>
          <note key="24" pan="0" pos="2988" vol="94" len="1"/>
          <note key="28" pan="0" pos="3000" vol="125" len="1"/>
          <note key="34" pan="0" pos="3012" vol="125" len="1"/>
          <note key="24" pan="0" pos="3012" vol="94" len="1"/>
          <note key="32" pan="0" pos="3024" vol="125" len="1"/>
          <note key="24" pan="0" pos="3024" vol="94" len="1"/>
          <note key="24" pan="0" pos="3036" vol="94" len="1"/>
          <note key="34" pan="0" pos="3048" vol="125" len="1"/>
          <note key="28" pan="0" pos="3048" vol="125" len="1"/>
          <note key="34" pan="0" pos="3072" vol="125" len="1"/>
          <note key="24" pan="0" pos="3072" vol="94" len="1"/>
          <note key="34" pan="0" pos="3084" vol="125" len="1"/>
          <note key="34" pan="0" pos="3096" vol="125" len="1"/>
          <note key="28" pan="0" pos="3096" vol="125" len="1"/>
          <note key="34" pan="0" pos="3120" vol="125" len="1"/>
          <note key="24" pan="0" pos="3120" vol="94" len="1"/>
          <note key="34" pan="0" pos="3132" vol="125" len="1"/>
          <note key="24" pan="0" pos="3132" vol="94" len="1"/>
          <note key="34" pan="0" pos="3144" vol="125" len="1"/>
          <note key="28" pan="0" pos="3144" vol="125" len="1"/>
          <note key="24" pan="0" pos="3156" vol="94" len="1"/>
          <note key="34" pan="0" pos="3180" vol="125" len="1"/>
          <note key="24" pan="0" pos="3180" vol="94" len="1"/>
          <note key="28" pan="0" pos="3192" vol="125" len="1"/>
          <note key="34" pan="0" pos="3204" vol="125" len="1"/>
          <note key="24" pan="0" pos="3204" vol="94" len="1"/>
          <note key="32" pan="0" pos="3216" vol="125" len="1"/>
          <note key="24" pan="0" pos="3216" vol="94" len="1"/>
          <note key="24" pan="0" pos="3228" vol="94" len="1"/>
          <note key="34" pan="0" pos="3240" vol="125" len="1"/>
          <note key="28" pan="0" pos="3240" vol="125" len="1"/>
        </pattern>
      </track>
      <track name="Track 8" type="0" solo="0" muted="0">
        <instrumenttrack fxch="0" basenote="57" pan="18.1102" usemasterpitch="1" pitchrange="2">
          <vol scale_type="linear" id="34020" value="100"/>
          <pitch scale_type="linear" id="34023" value="-6.49414"/>
          <instrument name="sf2player">
            <sf2player gain="1" src="C:/Users/cervi/Downloads/tmp/Layton_TC.sf2" reverbDamping="0" chorusOn="0" chorusSpeed="0.3" reverbOn="0" chorusNum="3" reverbLevel="0.9" chorusDepth="8" reverbWidth="0.5" patch="80" reverbRoomSize="0.2" chorusLevel="2">
              <bank scale_type="linear" id="34101" value="0"/>
            </sf2player>
          </instrument>
          <eldata fwet="0" fres="0.5" fcut="14000" ftype="0">
            <elvol dec="0.5" lspd="0.1" hold="0.5" sustain="0.5" lshp="0" ctlenvamt="0" rel="0.1" userwavefile="" lamt="0" pdel="0" lspd_syncmode="0" lpdel="0" att="0" x100="0" lspd_numerator="4" lspd_denominator="4" amt="0" latt="0"/>
            <elcut dec="0.5" lspd="0.1" hold="0.5" sustain="0.5" lshp="0" ctlenvamt="0" rel="0.1" userwavefile="" lamt="0" pdel="0" lspd_syncmode="0" lpdel="0" att="0" x100="0" lspd_numerator="4" lspd_denominator="4" amt="0" latt="0"/>
            <elres dec="0.5" lspd="0.1" hold="0.5" sustain="0.5" lshp="0" ctlenvamt="0" rel="0.1" userwavefile="" lamt="0" pdel="0" lspd_syncmode="0" lpdel="0" att="0" x100="0" lspd_numerator="4" lspd_denominator="4" amt="0" latt="0"/>
          </eldata>
          <chordcreator chord="0" chordrange="1" chord-enabled="0"/>
          <arpeggiator arpcycle="0" arpgate="100" arp="0" arprange="1" arpdir="0" arp-enabled="0" arpskip="0" arptime_syncmode="0" arptime="200" arpmiss="0" arpmode="0" arptime_denominator="4" arptime_numerator="4"/>
          <midiport inputchannel="0" fixedoutputvelocity="-1" outputchannel="1" outputcontroller="0" writable="0" inputcontroller="0" fixedoutputnote="-1" outputprogram="1" basevelocity="63" fixedinputvelocity="-1" readable="0"/>
          <fxchain enabled="0" numofeffects="0"/>
        </instrumenttrack>
        <pattern steps="16" name="Track 8" pos="3072" type="1" muted="0">
          <note key="63" pan="0" pos="144" vol="141" len="48"/>
          <note key="65" pan="0" pos="192" vol="141" len="24"/>
          <note key="65" pan="0" pos="216" vol="141" len="9"/>
          <note key="65" pan="0" pos="228" vol="141" len="6"/>
          <note key="65" pan="0" pos="252" vol="141" len="6"/>
          <note key="65" pan="0" pos="276" vol="141" len="24"/>
          <note key="62" pan="0" pos="300" vol="141" len="9"/>
          <note key="62" pan="0" pos="324" vol="141" len="54"/>
          <note key="65" pan="0" pos="384" vol="141" len="21"/>
          <note key="65" pan="0" pos="408" vol="141" len="9"/>
          <note key="65" pan="0" pos="420" vol="141" len="6"/>
          <note key="67" pan="0" pos="444" vol="141" len="6"/>
          <note key="68" pan="0" pos="468" vol="141" len="24"/>
          <note key="67" pan="0" pos="492" vol="141" len="6"/>
          <note key="68" pan="0" pos="498" vol="141" len="6"/>
          <note key="65" pan="0" pos="504" vol="141" len="6"/>
          <note key="62" pan="0" pos="516" vol="141" len="6"/>
          <note key="65" pan="0" pos="528" vol="141" len="12"/>
          <note key="67" pan="0" pos="540" vol="141" len="6"/>
          <note key="65" pan="0" pos="576" vol="141" len="18"/>
          <note key="65" pan="0" pos="600" vol="141" len="6"/>
          <note key="65" pan="0" pos="612" vol="141" len="9"/>
          <note key="67" pan="0" pos="636" vol="141" len="6"/>
          <note key="68" pan="0" pos="660" vol="141" len="6"/>
          <note key="69" pan="0" pos="684" vol="141" len="9"/>
          <note key="72" pan="0" pos="708" vol="141" len="9"/>
          <note key="69" pan="0" pos="732" vol="141" len="33"/>
          <note key="74" pan="0" pos="768" vol="141" len="9"/>
          <note key="74" pan="0" pos="792" vol="141" len="9"/>
          <note key="74" pan="0" pos="816" vol="141" len="12"/>
          <note key="69" pan="0" pos="828" vol="141" len="12"/>
          <note key="74" pan="0" pos="840" vol="141" len="12"/>
          <note key="72" pan="0" pos="852" vol="141" len="102"/>
          <note key="65" pan="0" pos="960" vol="141" len="24"/>
          <note key="65" pan="0" pos="984" vol="141" len="9"/>
          <note key="65" pan="0" pos="996" vol="141" len="6"/>
          <note key="65" pan="0" pos="1020" vol="141" len="6"/>
          <note key="65" pan="0" pos="1044" vol="141" len="24"/>
          <note key="62" pan="0" pos="1068" vol="141" len="9"/>
          <note key="62" pan="0" pos="1092" vol="141" len="54"/>
          <note key="65" pan="0" pos="1152" vol="141" len="21"/>
          <note key="65" pan="0" pos="1176" vol="141" len="9"/>
          <note key="65" pan="0" pos="1188" vol="141" len="6"/>
          <note key="65" pan="0" pos="1212" vol="141" len="6"/>
          <note key="62" pan="0" pos="1236" vol="141" len="6"/>
          <note key="65" pan="0" pos="1260" vol="141" len="6"/>
          <note key="64" pan="0" pos="1284" vol="141" len="6"/>
          <note key="62" pan="0" pos="1308" vol="141" len="6"/>
          <note key="60" pan="0" pos="1320" vol="141" len="24"/>
          <note key="69" pan="0" pos="1344" vol="141" len="6"/>
          <note key="65" pan="0" pos="1356" vol="141" len="6"/>
          <note key="62" pan="0" pos="1368" vol="141" len="6"/>
          <note key="64" pan="0" pos="1380" vol="141" len="6"/>
          <note key="65" pan="0" pos="1392" vol="141" len="6"/>
          <note key="62" pan="0" pos="1404" vol="141" len="6"/>
          <note key="60" pan="0" pos="1416" vol="141" len="6"/>
          <note key="62" pan="0" pos="1428" vol="141" len="6"/>
          <note key="67" pan="0" pos="1440" vol="141" len="6"/>
          <note key="62" pan="0" pos="1452" vol="141" len="6"/>
          <note key="59" pan="0" pos="1464" vol="141" len="6"/>
          <note key="62" pan="0" pos="1476" vol="141" len="6"/>
          <note key="60" pan="0" pos="1488" vol="141" len="6"/>
          <note key="55" pan="0" pos="1500" vol="141" len="6"/>
          <note key="60" pan="0" pos="1512" vol="141" len="6"/>
          <note key="55" pan="0" pos="1524" vol="141" len="6"/>
          <note key="53" pan="0" pos="1536" vol="141" len="24"/>
          <note key="55" pan="0" pos="1560" vol="141" len="12"/>
          <note key="58" pan="0" pos="1572" vol="141" len="12"/>
          <note key="62" pan="0" pos="1596" vol="141" len="12"/>
          <note key="64" pan="0" pos="1620" vol="141" len="108"/>
        </pattern>
        <pattern steps="16" name="Track 8" pos="18048" type="1" muted="0">
          <note key="63" pan="0" pos="144" vol="141" len="48"/>
          <note key="65" pan="0" pos="192" vol="141" len="24"/>
          <note key="65" pan="0" pos="216" vol="141" len="9"/>
          <note key="65" pan="0" pos="228" vol="141" len="6"/>
          <note key="65" pan="0" pos="252" vol="141" len="6"/>
          <note key="65" pan="0" pos="276" vol="141" len="24"/>
          <note key="62" pan="0" pos="300" vol="141" len="9"/>
          <note key="62" pan="0" pos="324" vol="141" len="54"/>
          <note key="65" pan="0" pos="384" vol="141" len="21"/>
          <note key="65" pan="0" pos="408" vol="141" len="9"/>
          <note key="65" pan="0" pos="420" vol="141" len="6"/>
          <note key="67" pan="0" pos="444" vol="141" len="6"/>
          <note key="68" pan="0" pos="468" vol="141" len="24"/>
          <note key="67" pan="0" pos="492" vol="141" len="6"/>
          <note key="68" pan="0" pos="498" vol="141" len="6"/>
          <note key="65" pan="0" pos="504" vol="141" len="6"/>
          <note key="62" pan="0" pos="516" vol="141" len="6"/>
          <note key="65" pan="0" pos="528" vol="141" len="12"/>
          <note key="67" pan="0" pos="540" vol="141" len="6"/>
          <note key="65" pan="0" pos="576" vol="141" len="18"/>
          <note key="65" pan="0" pos="600" vol="141" len="6"/>
          <note key="65" pan="0" pos="612" vol="141" len="9"/>
          <note key="67" pan="0" pos="636" vol="141" len="6"/>
          <note key="68" pan="0" pos="660" vol="141" len="6"/>
          <note key="69" pan="0" pos="684" vol="141" len="9"/>
          <note key="72" pan="0" pos="708" vol="141" len="9"/>
          <note key="69" pan="0" pos="732" vol="141" len="33"/>
          <note key="74" pan="0" pos="768" vol="141" len="9"/>
          <note key="74" pan="0" pos="792" vol="141" len="9"/>
          <note key="74" pan="0" pos="816" vol="141" len="12"/>
          <note key="69" pan="0" pos="828" vol="141" len="12"/>
          <note key="74" pan="0" pos="840" vol="141" len="12"/>
          <note key="72" pan="0" pos="852" vol="141" len="102"/>
          <note key="65" pan="0" pos="960" vol="141" len="24"/>
          <note key="65" pan="0" pos="984" vol="141" len="9"/>
          <note key="65" pan="0" pos="996" vol="141" len="6"/>
          <note key="65" pan="0" pos="1020" vol="141" len="6"/>
          <note key="65" pan="0" pos="1044" vol="141" len="24"/>
          <note key="62" pan="0" pos="1068" vol="141" len="9"/>
          <note key="62" pan="0" pos="1092" vol="141" len="54"/>
          <note key="65" pan="0" pos="1152" vol="141" len="21"/>
          <note key="65" pan="0" pos="1176" vol="141" len="9"/>
          <note key="65" pan="0" pos="1188" vol="141" len="6"/>
          <note key="65" pan="0" pos="1212" vol="141" len="6"/>
          <note key="62" pan="0" pos="1236" vol="141" len="6"/>
          <note key="65" pan="0" pos="1260" vol="141" len="6"/>
          <note key="64" pan="0" pos="1284" vol="141" len="6"/>
          <note key="62" pan="0" pos="1308" vol="141" len="6"/>
          <note key="60" pan="0" pos="1320" vol="141" len="24"/>
          <note key="69" pan="0" pos="1344" vol="141" len="6"/>
          <note key="65" pan="0" pos="1356" vol="141" len="6"/>
          <note key="62" pan="0" pos="1368" vol="141" len="6"/>
          <note key="64" pan="0" pos="1380" vol="141" len="6"/>
          <note key="65" pan="0" pos="1392" vol="141" len="6"/>
          <note key="62" pan="0" pos="1404" vol="141" len="6"/>
          <note key="60" pan="0" pos="1416" vol="141" len="6"/>
          <note key="62" pan="0" pos="1428" vol="141" len="6"/>
          <note key="67" pan="0" pos="1440" vol="141" len="6"/>
          <note key="62" pan="0" pos="1452" vol="141" len="6"/>
          <note key="59" pan="0" pos="1464" vol="141" len="6"/>
          <note key="62" pan="0" pos="1476" vol="141" len="6"/>
          <note key="60" pan="0" pos="1488" vol="141" len="6"/>
          <note key="55" pan="0" pos="1500" vol="141" len="6"/>
          <note key="60" pan="0" pos="1512" vol="141" len="6"/>
          <note key="55" pan="0" pos="1524" vol="141" len="6"/>
          <note key="53" pan="0" pos="1536" vol="141" len="24"/>
          <note key="55" pan="0" pos="1560" vol="141" len="12"/>
          <note key="58" pan="0" pos="1572" vol="141" len="12"/>
          <note key="62" pan="0" pos="1596" vol="141" len="12"/>
          <note key="64" pan="0" pos="1620" vol="141" len="108"/>
        </pattern>
      </track>
      <track name="Untitled > Volume" type="5" solo="0" muted="0">
        <automationtrack/>
        <automationpattern tens="1" mute="0" pos="3072" name="Track 8>Volume" prog="0" len="192">
          <time pos="0" value="100"/>
          <time pos="144" value="75.5906"/>
          <time pos="145" value="76.378"/>
          <time pos="147" value="77.1654"/>
          <time pos="148" value="77.9528"/>
          <time pos="150" value="78.7402"/>
          <time pos="151" value="79.5276"/>
          <time pos="153" value="80.315"/>
          <time pos="154" value="81.1024"/>
          <time pos="156" value="81.8898"/>
          <time pos="157" value="82.6772"/>
          <time pos="159" value="83.4646"/>
          <time pos="160" value="84.252"/>
          <time pos="162" value="85.0394"/>
          <time pos="163" value="85.8268"/>
          <time pos="165" value="86.6142"/>
          <time pos="166" value="87.4016"/>
          <time pos="168" value="88.189"/>
          <time pos="169" value="88.9764"/>
          <time pos="171" value="89.7638"/>
          <time pos="172" value="90.5512"/>
          <time pos="174" value="91.3386"/>
          <time pos="175" value="92.126"/>
          <time pos="177" value="92.9134"/>
          <time pos="178" value="93.7008"/>
          <time pos="180" value="94.4882"/>
          <time pos="181" value="95.2756"/>
          <time pos="183" value="96.063"/>
          <time pos="184" value="96.8504"/>
          <time pos="186" value="97.6378"/>
          <time pos="187" value="98.4252"/>
          <time pos="189" value="99.2126"/>
          <time pos="190" value="100"/>
          <object id="34020"/>
        </automationpattern>
        <automationpattern tens="1" mute="0" pos="18048" name="Track 8>Volume" prog="0" len="192">
          <time pos="0" value="100"/>
          <time pos="144" value="75.5906"/>
          <time pos="145" value="76.378"/>
          <time pos="147" value="77.1654"/>
          <time pos="148" value="77.9528"/>
          <time pos="150" value="78.7402"/>
          <time pos="151" value="79.5276"/>
          <time pos="153" value="80.315"/>
          <time pos="154" value="81.1024"/>
          <time pos="156" value="81.8898"/>
          <time pos="157" value="82.6772"/>
          <time pos="159" value="83.4646"/>
          <time pos="160" value="84.252"/>
          <time pos="162" value="85.0394"/>
          <time pos="163" value="85.8268"/>
          <time pos="165" value="86.6142"/>
          <time pos="166" value="87.4016"/>
          <time pos="168" value="88.189"/>
          <time pos="169" value="88.9764"/>
          <time pos="171" value="89.7638"/>
          <time pos="172" value="90.5512"/>
          <time pos="174" value="91.3386"/>
          <time pos="175" value="92.126"/>
          <time pos="177" value="92.9134"/>
          <time pos="178" value="93.7008"/>
          <time pos="180" value="94.4882"/>
          <time pos="181" value="95.2756"/>
          <time pos="183" value="96.063"/>
          <time pos="184" value="96.8504"/>
          <time pos="186" value="97.6378"/>
          <time pos="187" value="98.4252"/>
          <time pos="189" value="99.2126"/>
          <time pos="190" value="100"/>
          <object id="34020"/>
        </automationpattern>
      </track>
      <track name="Untitled > Bank" type="5" solo="0" muted="0">
        <automationtrack/>
        <automationpattern tens="1" mute="0" pos="3072" name="Track 8>Bank" prog="0" len="192">
          <time pos="0" value="0"/>
          <time pos="96" value="0"/>
          <object id="34101"/>
        </automationpattern>
      </track>
      <track name="Untitled > Pitch" type="5" solo="0" muted="0">
        <automationtrack/>
        <automationpattern tens="1" mute="0" pos="3072" name="Track 8>Pitch" prog="0" len="576">
          <time pos="0" value="0"/>
          <time pos="144" value="-93.7012"/>
          <time pos="145" value="-90.5518"/>
          <time pos="146" value="-85.8276"/>
          <time pos="147" value="-81.1035"/>
          <time pos="148" value="-77.9541"/>
          <time pos="149" value="-73.23"/>
          <time pos="150" value="-70.0806"/>
          <time pos="151" value="-65.3564"/>
          <time pos="152" value="-62.207"/>
          <time pos="153" value="-57.4829"/>
          <time pos="154" value="-52.7588"/>
          <time pos="155" value="-49.6094"/>
          <time pos="156" value="-44.8853"/>
          <time pos="157" value="-41.7358"/>
          <time pos="158" value="-37.0117"/>
          <time pos="159" value="-33.8623"/>
          <time pos="160" value="-29.1382"/>
          <time pos="161" value="-25.9888"/>
          <time pos="162" value="-21.2646"/>
          <time pos="163" value="-16.5405"/>
          <time pos="164" value="-13.3911"/>
          <time pos="165" value="-8.66699"/>
          <time pos="166" value="-5.51758"/>
          <time pos="167" value="-0.793457"/>
          <time pos="168" value="2.35596"/>
          <time pos="169" value="7.08008"/>
          <time pos="170" value="11.8042"/>
          <time pos="171" value="14.9536"/>
          <time pos="172" value="19.6777"/>
          <time pos="173" value="22.8271"/>
          <time pos="174" value="27.5513"/>
          <time pos="175" value="30.7007"/>
          <time pos="176" value="35.4248"/>
          <time pos="177" value="38.5742"/>
          <time pos="178" value="43.2983"/>
          <time pos="179" value="48.0225"/>
          <time pos="180" value="51.1719"/>
          <time pos="181" value="55.896"/>
          <time pos="182" value="59.0454"/>
          <time pos="183" value="63.7695"/>
          <time pos="184" value="66.9189"/>
          <time pos="185" value="71.6431"/>
          <time pos="186" value="76.3672"/>
          <time pos="187" value="79.5166"/>
          <time pos="188" value="84.2407"/>
          <time pos="189" value="87.3901"/>
          <time pos="190" value="92.1143"/>
          <time pos="191" value="95.2637"/>
          <time pos="192" value="-6.49414"/>
          <time pos="276" value="-46.46"/>
          <time pos="277" value="-38.5864"/>
          <time pos="278" value="-30.7129"/>
          <time pos="279" value="-21.2646"/>
          <time pos="280" value="-13.3911"/>
          <time pos="281" value="-5.51758"/>
          <time pos="282" value="-6.49414"/>
          <time pos="372" value="-8.66699"/>
          <time pos="373" value="-13.3911"/>
          <time pos="374" value="-16.5405"/>
          <time pos="375" value="-21.2646"/>
          <time pos="376" value="-25.9888"/>
          <time pos="377" value="-29.1382"/>
          <time pos="378" value="-33.8623"/>
          <time pos="379" value="-38.5864"/>
          <time pos="380" value="-41.7358"/>
          <time pos="381" value="-46.46"/>
          <time pos="382" value="-51.1841"/>
          <time pos="383" value="-54.3335"/>
          <time pos="384" value="-6.49414"/>
          <object id="34023"/>
        </automationpattern>
        <automationpattern tens="1" mute="0" pos="4032" name="Track 8>Pitch" prog="0" len="384">
          <time pos="0" value="0"/>
          <time pos="84" value="-46.46"/>
          <time pos="85" value="-38.5864"/>
          <time pos="86" value="-30.7129"/>
          <time pos="87" value="-21.2646"/>
          <time pos="88" value="-13.3911"/>
          <time pos="89" value="-5.51758"/>
          <time pos="90" value="-6.49414"/>
          <time pos="180" value="-8.66699"/>
          <time pos="181" value="-13.3911"/>
          <time pos="182" value="-16.5405"/>
          <time pos="183" value="-21.2646"/>
          <time pos="184" value="-25.9888"/>
          <time pos="185" value="-29.1382"/>
          <time pos="186" value="-33.8623"/>
          <time pos="187" value="-38.5864"/>
          <time pos="188" value="-41.7358"/>
          <time pos="189" value="-46.46"/>
          <time pos="190" value="-51.1841"/>
          <time pos="191" value="-54.3335"/>
          <time pos="192" value="-6.49414"/>
          <object id="34023"/>
        </automationpattern>
        <automationpattern tens="1" mute="0" pos="18048" name="Track 8>Pitch" prog="0" len="576">
          <time pos="0" value="0"/>
          <time pos="144" value="-93.7012"/>
          <time pos="145" value="-90.5518"/>
          <time pos="146" value="-85.8276"/>
          <time pos="147" value="-81.1035"/>
          <time pos="148" value="-77.9541"/>
          <time pos="149" value="-73.23"/>
          <time pos="150" value="-70.0806"/>
          <time pos="151" value="-65.3564"/>
          <time pos="152" value="-62.207"/>
          <time pos="153" value="-57.4829"/>
          <time pos="154" value="-52.7588"/>
          <time pos="155" value="-49.6094"/>
          <time pos="156" value="-44.8853"/>
          <time pos="157" value="-41.7358"/>
          <time pos="158" value="-37.0117"/>
          <time pos="159" value="-33.8623"/>
          <time pos="160" value="-29.1382"/>
          <time pos="161" value="-25.9888"/>
          <time pos="162" value="-21.2646"/>
          <time pos="163" value="-16.5405"/>
          <time pos="164" value="-13.3911"/>
          <time pos="165" value="-8.66699"/>
          <time pos="166" value="-5.51758"/>
          <time pos="167" value="-0.793457"/>
          <time pos="168" value="2.35596"/>
          <time pos="169" value="7.08008"/>
          <time pos="170" value="11.8042"/>
          <time pos="171" value="14.9536"/>
          <time pos="172" value="19.6777"/>
          <time pos="173" value="22.8271"/>
          <time pos="174" value="27.5513"/>
          <time pos="175" value="30.7007"/>
          <time pos="176" value="35.4248"/>
          <time pos="177" value="38.5742"/>
          <time pos="178" value="43.2983"/>
          <time pos="179" value="48.0225"/>
          <time pos="180" value="51.1719"/>
          <time pos="181" value="55.896"/>
          <time pos="182" value="59.0454"/>
          <time pos="183" value="63.7695"/>
          <time pos="184" value="66.9189"/>
          <time pos="185" value="71.6431"/>
          <time pos="186" value="76.3672"/>
          <time pos="187" value="79.5166"/>
          <time pos="188" value="84.2407"/>
          <time pos="189" value="87.3901"/>
          <time pos="190" value="92.1143"/>
          <time pos="191" value="95.2637"/>
          <time pos="192" value="-6.49414"/>
          <time pos="276" value="-46.46"/>
          <time pos="277" value="-38.5864"/>
          <time pos="278" value="-30.7129"/>
          <time pos="279" value="-21.2646"/>
          <time pos="280" value="-13.3911"/>
          <time pos="281" value="-5.51758"/>
          <time pos="282" value="-6.49414"/>
          <time pos="372" value="-8.66699"/>
          <time pos="373" value="-13.3911"/>
          <time pos="374" value="-16.5405"/>
          <time pos="375" value="-21.2646"/>
          <time pos="376" value="-25.9888"/>
          <time pos="377" value="-29.1382"/>
          <time pos="378" value="-33.8623"/>
          <time pos="379" value="-38.5864"/>
          <time pos="380" value="-41.7358"/>
          <time pos="381" value="-46.46"/>
          <time pos="382" value="-51.1841"/>
          <time pos="383" value="-54.3335"/>
          <time pos="384" value="-6.49414"/>
          <object id="34023"/>
        </automationpattern>
        <automationpattern tens="1" mute="0" pos="19008" name="Track 8>Pitch" prog="0" len="384">
          <time pos="0" value="0"/>
          <time pos="84" value="-46.46"/>
          <time pos="85" value="-38.5864"/>
          <time pos="86" value="-30.7129"/>
          <time pos="87" value="-21.2646"/>
          <time pos="88" value="-13.3911"/>
          <time pos="89" value="-5.51758"/>
          <time pos="90" value="-6.49414"/>
          <time pos="180" value="-8.66699"/>
          <time pos="181" value="-13.3911"/>
          <time pos="182" value="-16.5405"/>
          <time pos="183" value="-21.2646"/>
          <time pos="184" value="-25.9888"/>
          <time pos="185" value="-29.1382"/>
          <time pos="186" value="-33.8623"/>
          <time pos="187" value="-38.5864"/>
          <time pos="188" value="-41.7358"/>
          <time pos="189" value="-46.46"/>
          <time pos="190" value="-51.1841"/>
          <time pos="191" value="-54.3335"/>
          <time pos="192" value="-6.49414"/>
          <object id="34023"/>
        </automationpattern>
      </track>
      <track name="Track 9" type="0" solo="0" muted="0">
        <instrumenttrack fxch="0" basenote="57" pan="-19.685" usemasterpitch="1" pitchrange="2">
          <vol scale_type="linear" id="34743" value="100"/>
          <pitch scale_type="linear" id="34746" value="-6.49414"/>
          <instrument name="sf2player">
            <sf2player gain="1" src="C:/Users/cervi/Downloads/tmp/Layton_TC.sf2" reverbDamping="0" chorusOn="0" chorusSpeed="0.3" reverbOn="0" chorusNum="3" reverbLevel="0.9" chorusDepth="8" reverbWidth="0.5" patch="80" reverbRoomSize="0.2" chorusLevel="2">
              <bank scale_type="linear" id="34823" value="0"/>
            </sf2player>
          </instrument>
          <eldata fwet="0" fres="0.5" fcut="14000" ftype="0">
            <elvol dec="0.5" lspd="0.1" hold="0.5" sustain="0.5" lshp="0" ctlenvamt="0" rel="0.1" userwavefile="" lamt="0" pdel="0" lspd_syncmode="0" lpdel="0" att="0" x100="0" lspd_numerator="4" lspd_denominator="4" amt="0" latt="0"/>
            <elcut dec="0.5" lspd="0.1" hold="0.5" sustain="0.5" lshp="0" ctlenvamt="0" rel="0.1" userwavefile="" lamt="0" pdel="0" lspd_syncmode="0" lpdel="0" att="0" x100="0" lspd_numerator="4" lspd_denominator="4" amt="0" latt="0"/>
            <elres dec="0.5" lspd="0.1" hold="0.5" sustain="0.5" lshp="0" ctlenvamt="0" rel="0.1" userwavefile="" lamt="0" pdel="0" lspd_syncmode="0" lpdel="0" att="0" x100="0" lspd_numerator="4" lspd_denominator="4" amt="0" latt="0"/>
          </eldata>
          <chordcreator chord="0" chordrange="1" chord-enabled="0"/>
          <arpeggiator arpcycle="0" arpgate="100" arp="0" arprange="1" arpdir="0" arp-enabled="0" arpskip="0" arptime_syncmode="0" arptime="200" arpmiss="0" arpmode="0" arptime_denominator="4" arptime_numerator="4"/>
          <midiport inputchannel="0" fixedoutputvelocity="-1" outputchannel="1" outputcontroller="0" writable="0" inputcontroller="0" fixedoutputnote="-1" outputprogram="1" basevelocity="63" fixedinputvelocity="-1" readable="0"/>
          <fxchain enabled="0" numofeffects="0"/>
        </instrumenttrack>
        <pattern steps="16" name="Track 9" pos="3840" type="1" muted="0">
          <note key="79" pan="0" pos="84" vol="141" len="108"/>
          <note key="69" pan="0" pos="192" vol="141" len="24"/>
          <note key="69" pan="0" pos="216" vol="141" len="12"/>
          <note key="69" pan="0" pos="228" vol="141" len="12"/>
          <note key="69" pan="0" pos="252" vol="141" len="12"/>
          <note key="69" pan="0" pos="276" vol="141" len="24"/>
          <note key="67" pan="0" pos="300" vol="141" len="12"/>
          <note key="67" pan="0" pos="324" vol="141" len="60"/>
          <note key="69" pan="0" pos="384" vol="141" len="24"/>
          <note key="69" pan="0" pos="408" vol="141" len="12"/>
          <note key="69" pan="0" pos="420" vol="141" len="12"/>
          <note key="69" pan="0" pos="444" vol="141" len="12"/>
          <note key="65" pan="0" pos="468" vol="141" len="12"/>
          <note key="69" pan="0" pos="492" vol="141" len="12"/>
          <note key="74" pan="0" pos="516" vol="141" len="12"/>
          <note key="69" pan="0" pos="540" vol="141" len="12"/>
          <note key="67" pan="0" pos="552" vol="141" len="24"/>
          <note key="74" pan="0" pos="576" vol="141" len="18"/>
          <note key="69" pan="0" pos="600" vol="141" len="18"/>
          <note key="67" pan="0" pos="624" vol="141" len="18"/>
          <note key="65" pan="0" pos="648" vol="141" len="18"/>
          <note key="72" pan="0" pos="672" vol="141" len="18"/>
          <note key="69" pan="0" pos="696" vol="141" len="18"/>
          <note key="65" pan="0" pos="720" vol="141" len="18"/>
          <note key="64" pan="0" pos="744" vol="141" len="18"/>
          <note key="62" pan="0" pos="768" vol="141" len="24"/>
          <note key="64" pan="0" pos="792" vol="141" len="12"/>
          <note key="65" pan="0" pos="804" vol="141" len="12"/>
          <note key="69" pan="0" pos="828" vol="141" len="12"/>
          <note key="72" pan="0" pos="852" vol="141" len="108"/>
        </pattern>
        <pattern steps="16" name="Track 9" pos="18816" type="1" muted="0">
          <note key="79" pan="0" pos="84" vol="141" len="108"/>
          <note key="69" pan="0" pos="192" vol="141" len="24"/>
          <note key="69" pan="0" pos="216" vol="141" len="12"/>
          <note key="69" pan="0" pos="228" vol="141" len="12"/>
          <note key="69" pan="0" pos="252" vol="141" len="12"/>
          <note key="69" pan="0" pos="276" vol="141" len="24"/>
          <note key="67" pan="0" pos="300" vol="141" len="12"/>
          <note key="67" pan="0" pos="324" vol="141" len="60"/>
          <note key="69" pan="0" pos="384" vol="141" len="24"/>
          <note key="69" pan="0" pos="408" vol="141" len="12"/>
          <note key="69" pan="0" pos="420" vol="141" len="12"/>
          <note key="69" pan="0" pos="444" vol="141" len="12"/>
          <note key="65" pan="0" pos="468" vol="141" len="12"/>
          <note key="69" pan="0" pos="492" vol="141" len="12"/>
          <note key="74" pan="0" pos="516" vol="141" len="12"/>
          <note key="69" pan="0" pos="540" vol="141" len="12"/>
          <note key="67" pan="0" pos="552" vol="141" len="24"/>
          <note key="74" pan="0" pos="576" vol="141" len="18"/>
          <note key="69" pan="0" pos="600" vol="141" len="18"/>
          <note key="67" pan="0" pos="624" vol="141" len="18"/>
          <note key="65" pan="0" pos="648" vol="141" len="18"/>
          <note key="72" pan="0" pos="672" vol="141" len="18"/>
          <note key="69" pan="0" pos="696" vol="141" len="18"/>
          <note key="65" pan="0" pos="720" vol="141" len="18"/>
          <note key="64" pan="0" pos="744" vol="141" len="18"/>
          <note key="62" pan="0" pos="768" vol="141" len="24"/>
          <note key="64" pan="0" pos="792" vol="141" len="12"/>
          <note key="65" pan="0" pos="804" vol="141" len="12"/>
          <note key="69" pan="0" pos="828" vol="141" len="12"/>
          <note key="72" pan="0" pos="852" vol="141" len="108"/>
        </pattern>
      </track>
      <track name="Untitled > Volume" type="5" solo="0" muted="0">
        <automationtrack/>
        <automationpattern tens="1" mute="0" pos="3072" name="Track 9>Volume" prog="0" len="192">
          <time pos="0" value="100"/>
          <object id="34743"/>
        </automationpattern>
        <automationpattern tens="1" mute="0" pos="3840" name="Track 9>Volume" prog="0" len="192">
          <time pos="0" value="100"/>
          <time pos="84" value="51.1811"/>
          <time pos="85" value="52.7559"/>
          <time pos="86" value="54.3307"/>
          <time pos="87" value="55.9055"/>
          <time pos="88" value="56.6929"/>
          <time pos="89" value="58.2677"/>
          <time pos="90" value="59.8425"/>
          <time pos="91" value="61.4173"/>
          <time pos="92" value="62.2047"/>
          <time pos="93" value="63.7795"/>
          <time pos="94" value="65.3543"/>
          <time pos="95" value="66.9291"/>
          <time pos="96" value="68.5039"/>
          <time pos="97" value="69.2913"/>
          <time pos="98" value="70.8661"/>
          <time pos="99" value="72.4409"/>
          <time pos="100" value="74.0157"/>
          <time pos="101" value="74.8031"/>
          <time pos="102" value="76.378"/>
          <time pos="103" value="77.9528"/>
          <time pos="104" value="79.5276"/>
          <time pos="105" value="81.1024"/>
          <time pos="106" value="81.8898"/>
          <time pos="107" value="83.4646"/>
          <time pos="108" value="85.0394"/>
          <time pos="109" value="86.6142"/>
          <time pos="110" value="87.4016"/>
          <time pos="111" value="88.9764"/>
          <time pos="112" value="90.5512"/>
          <time pos="113" value="92.126"/>
          <time pos="114" value="93.7008"/>
          <time pos="115" value="94.4882"/>
          <time pos="116" value="96.063"/>
          <time pos="117" value="97.6378"/>
          <time pos="118" value="99.2126"/>
          <time pos="119" value="100"/>
          <object id="34743"/>
        </automationpattern>
        <automationpattern tens="1" mute="0" pos="18048" name="Track 9>Volume" prog="0" len="192">
          <time pos="0" value="100"/>
          <object id="34743"/>
        </automationpattern>
        <automationpattern tens="1" mute="0" pos="18816" name="Track 9>Volume" prog="0" len="192">
          <time pos="0" value="100"/>
          <time pos="84" value="51.1811"/>
          <time pos="85" value="52.7559"/>
          <time pos="86" value="54.3307"/>
          <time pos="87" value="55.9055"/>
          <time pos="88" value="56.6929"/>
          <time pos="89" value="58.2677"/>
          <time pos="90" value="59.8425"/>
          <time pos="91" value="61.4173"/>
          <time pos="92" value="62.2047"/>
          <time pos="93" value="63.7795"/>
          <time pos="94" value="65.3543"/>
          <time pos="95" value="66.9291"/>
          <time pos="96" value="68.5039"/>
          <time pos="97" value="69.2913"/>
          <time pos="98" value="70.8661"/>
          <time pos="99" value="72.4409"/>
          <time pos="100" value="74.0157"/>
          <time pos="101" value="74.8031"/>
          <time pos="102" value="76.378"/>
          <time pos="103" value="77.9528"/>
          <time pos="104" value="79.5276"/>
          <time pos="105" value="81.1024"/>
          <time pos="106" value="81.8898"/>
          <time pos="107" value="83.4646"/>
          <time pos="108" value="85.0394"/>
          <time pos="109" value="86.6142"/>
          <time pos="110" value="87.4016"/>
          <time pos="111" value="88.9764"/>
          <time pos="112" value="90.5512"/>
          <time pos="113" value="92.126"/>
          <time pos="114" value="93.7008"/>
          <time pos="115" value="94.4882"/>
          <time pos="116" value="96.063"/>
          <time pos="117" value="97.6378"/>
          <time pos="118" value="99.2126"/>
          <time pos="119" value="100"/>
          <object id="34743"/>
        </automationpattern>
      </track>
      <track name="Untitled > Bank" type="5" solo="0" muted="0">
        <automationtrack/>
        <automationpattern tens="1" mute="0" pos="3648" name="Track 9>Bank" prog="0" len="192">
          <time pos="0" value="0"/>
          <time pos="96" value="0"/>
          <object id="34823"/>
        </automationpattern>
      </track>
      <track name="Untitled > Pitch" type="5" solo="0" muted="0">
        <automationtrack/>
        <automationpattern tens="1" mute="0" pos="3840" name="Track 9>Pitch" prog="0" len="192">
          <time pos="0" value="-6.49414"/>
          <time pos="84" value="-95.2759"/>
          <time pos="85" value="-92.1265"/>
          <time pos="86" value="-90.5518"/>
          <time pos="87" value="-87.4023"/>
          <time pos="88" value="-84.2529"/>
          <time pos="89" value="-82.6782"/>
          <time pos="90" value="-79.5288"/>
          <time pos="91" value="-76.3794"/>
          <time pos="92" value="-74.8047"/>
          <time pos="93" value="-71.6553"/>
          <time pos="94" value="-70.0806"/>
          <time pos="95" value="-66.9312"/>
          <time pos="96" value="-63.7817"/>
          <time pos="97" value="-62.207"/>
          <time pos="98" value="-59.0576"/>
          <time pos="99" value="-55.9082"/>
          <time pos="100" value="-54.3335"/>
          <time pos="101" value="-51.1841"/>
          <time pos="102" value="-48.0347"/>
          <time pos="103" value="-46.46"/>
          <time pos="104" value="-43.3105"/>
          <time pos="105" value="-41.7358"/>
          <time pos="106" value="-38.5864"/>
          <time pos="107" value="-35.437"/>
          <time pos="108" value="-33.8623"/>
          <time pos="109" value="-30.7129"/>
          <time pos="110" value="-27.5635"/>
          <time pos="111" value="-25.9888"/>
          <time pos="112" value="-22.8394"/>
          <time pos="113" value="-19.6899"/>
          <time pos="114" value="-18.1152"/>
          <time pos="115" value="-14.9658"/>
          <time pos="116" value="-11.8164"/>
          <time pos="117" value="-10.2417"/>
          <time pos="118" value="-7.09229"/>
          <time pos="119" value="-5.51758"/>
          <time pos="120" value="-6.49414"/>
          <object id="34746"/>
        </automationpattern>
        <automationpattern tens="1" mute="0" pos="18816" name="Track 9>Pitch" prog="0" len="192">
          <time pos="0" value="-6.49414"/>
          <time pos="84" value="-95.2759"/>
          <time pos="85" value="-92.1265"/>
          <time pos="86" value="-90.5518"/>
          <time pos="87" value="-87.4023"/>
          <time pos="88" value="-84.2529"/>
          <time pos="89" value="-82.6782"/>
          <time pos="90" value="-79.5288"/>
          <time pos="91" value="-76.3794"/>
          <time pos="92" value="-74.8047"/>
          <time pos="93" value="-71.6553"/>
          <time pos="94" value="-70.0806"/>
          <time pos="95" value="-66.9312"/>
          <time pos="96" value="-63.7817"/>
          <time pos="97" value="-62.207"/>
          <time pos="98" value="-59.0576"/>
          <time pos="99" value="-55.9082"/>
          <time pos="100" value="-54.3335"/>
          <time pos="101" value="-51.1841"/>
          <time pos="102" value="-48.0347"/>
          <time pos="103" value="-46.46"/>
          <time pos="104" value="-43.3105"/>
          <time pos="105" value="-41.7358"/>
          <time pos="106" value="-38.5864"/>
          <time pos="107" value="-35.437"/>
          <time pos="108" value="-33.8623"/>
          <time pos="109" value="-30.7129"/>
          <time pos="110" value="-27.5635"/>
          <time pos="111" value="-25.9888"/>
          <time pos="112" value="-22.8394"/>
          <time pos="113" value="-19.6899"/>
          <time pos="114" value="-18.1152"/>
          <time pos="115" value="-14.9658"/>
          <time pos="116" value="-11.8164"/>
          <time pos="117" value="-10.2417"/>
          <time pos="118" value="-7.09229"/>
          <time pos="119" value="-5.51758"/>
          <time pos="120" value="-6.49414"/>
          <object id="34746"/>
        </automationpattern>
      </track>
      <track name="Track 10" type="0" solo="0" muted="0">
        <instrumenttrack fxch="0" basenote="57" pan="0" vol="79.5276" usemasterpitch="1" pitchrange="2">
          <pitch scale_type="linear" id="35144" value="-6.49414"/>
          <instrument name="sf2player">
            <sf2player gain="1" src="C:/Users/cervi/Downloads/tmp/Layton_TC.sf2" reverbDamping="0" chorusOn="0" chorusSpeed="0.3" reverbOn="0" chorusNum="3" reverbLevel="0.9" chorusDepth="8" reverbWidth="0.5" bank="0" patch="61" reverbRoomSize="0.2" chorusLevel="2"/>
          </instrument>
          <eldata fwet="0" fres="0.5" fcut="14000" ftype="0">
            <elvol dec="0.5" lspd="0.1" hold="0.5" sustain="0.5" lshp="0" ctlenvamt="0" rel="0.1" userwavefile="" lamt="0" pdel="0" lspd_syncmode="0" lpdel="0" att="0" x100="0" lspd_numerator="4" lspd_denominator="4" amt="0" latt="0"/>
            <elcut dec="0.5" lspd="0.1" hold="0.5" sustain="0.5" lshp="0" ctlenvamt="0" rel="0.1" userwavefile="" lamt="0" pdel="0" lspd_syncmode="0" lpdel="0" att="0" x100="0" lspd_numerator="4" lspd_denominator="4" amt="0" latt="0"/>
            <elres dec="0.5" lspd="0.1" hold="0.5" sustain="0.5" lshp="0" ctlenvamt="0" rel="0.1" userwavefile="" lamt="0" pdel="0" lspd_syncmode="0" lpdel="0" att="0" x100="0" lspd_numerator="4" lspd_denominator="4" amt="0" latt="0"/>
          </eldata>
          <chordcreator chord="0" chordrange="1" chord-enabled="0"/>
          <arpeggiator arpcycle="0" arpgate="100" arp="0" arprange="1" arpdir="0" arp-enabled="0" arpskip="0" arptime_syncmode="0" arptime="200" arpmiss="0" arpmode="0" arptime_denominator="4" arptime_numerator="4"/>
          <midiport inputchannel="0" fixedoutputvelocity="-1" outputchannel="1" outputcontroller="0" writable="0" inputcontroller="0" fixedoutputnote="-1" outputprogram="1" basevelocity="63" fixedinputvelocity="-1" readable="0"/>
          <fxchain enabled="0" numofeffects="0"/>
        </instrumenttrack>
        <pattern steps="16" name="Track 10" pos="4800" type="1" muted="0">
          <note key="65" pan="0" pos="96" vol="200" len="9"/>
          <note key="62" pan="0" pos="108" vol="200" len="9"/>
          <note key="65" pan="0" pos="120" vol="200" len="9"/>
          <note key="67" pan="0" pos="132" vol="200" len="9"/>
          <note key="68" pan="0" pos="144" vol="200" len="9"/>
          <note key="67" pan="0" pos="156" vol="200" len="9"/>
          <note key="65" pan="0" pos="168" vol="200" len="9"/>
          <note key="62" pan="0" pos="180" vol="200" len="9"/>
          <note key="68" pan="0" pos="192" vol="200" len="6"/>
          <note key="67" pan="0" pos="198" vol="200" len="6"/>
          <note key="65" pan="0" pos="204" vol="200" len="6"/>
          <note key="62" pan="0" pos="210" vol="200" len="6"/>
          <note key="65" pan="0" pos="216" vol="200" len="21"/>
          <note key="67" pan="0" pos="240" vol="200" len="96"/>
          <note key="68" pan="0" pos="348" vol="200" len="24"/>
          <note key="69" pan="0" pos="372" vol="200" len="12"/>
          <note key="72" pan="0" pos="384" vol="200" len="6"/>
          <note key="69" pan="0" pos="408" vol="200" len="6"/>
          <note key="68" pan="0" pos="420" vol="200" len="6"/>
          <note key="67" pan="0" pos="432" vol="200" len="6"/>
          <note key="65" pan="0" pos="444" vol="200" len="6"/>
          <note key="62" pan="0" pos="456" vol="200" len="6"/>
          <note key="64" pan="0" pos="468" vol="200" len="6"/>
          <note key="65" pan="0" pos="480" vol="200" len="24"/>
          <note key="67" pan="0" pos="504" vol="200" len="24"/>
          <note key="69" pan="0" pos="528" vol="200" len="24"/>
          <note key="72" pan="0" pos="552" vol="200" len="24"/>
          <note key="73" pan="0" pos="576" vol="200" len="24"/>
          <note key="68" pan="0" pos="600" vol="200" len="12"/>
          <note key="68" pan="0" pos="624" vol="200" len="12"/>
          <note key="67" pan="0" pos="636" vol="200" len="12"/>
          <note key="65" pan="0" pos="648" vol="200" len="12"/>
          <note key="65" pan="0" pos="660" vol="200" len="96"/>
          <note key="53" pan="0" pos="768" vol="200" len="24"/>
          <note key="55" pan="0" pos="792" vol="200" len="24"/>
          <note key="57" pan="0" pos="816" vol="200" len="24"/>
          <note key="65" pan="0" pos="840" vol="200" len="24"/>
          <note key="64" pan="0" pos="864" vol="200" len="48"/>
          <note key="62" pan="0" pos="912" vol="200" len="48"/>
          <note key="64" pan="0" pos="960" vol="200" len="48"/>
          <note key="65" pan="0" pos="1008" vol="200" len="48"/>
          <note key="67" pan="0" pos="1056" vol="200" len="48"/>
          <note key="64" pan="0" pos="1104" vol="200" len="48"/>
          <note key="69" pan="0" pos="1152" vol="200" len="96"/>
          <note key="69" pan="0" pos="1248" vol="200" len="12"/>
          <note key="68" pan="0" pos="1260" vol="200" len="12"/>
          <note key="67" pan="0" pos="1272" vol="200" len="12"/>
          <note key="66" pan="0" pos="1284" vol="200" len="12"/>
          <note key="65" pan="0" pos="1296" vol="200" len="12"/>
          <note key="64" pan="0" pos="1308" vol="200" len="12"/>
          <note key="63" pan="0" pos="1320" vol="200" len="12"/>
          <note key="62" pan="0" pos="1332" vol="200" len="12"/>
          <note key="61" pan="0" pos="1344" vol="200" len="96"/>
          <note key="63" pan="0" pos="1440" vol="200" len="96"/>
          <note key="65" pan="0" pos="1632" vol="200" len="9"/>
          <note key="62" pan="0" pos="1644" vol="200" len="9"/>
          <note key="65" pan="0" pos="1656" vol="200" len="9"/>
          <note key="67" pan="0" pos="1668" vol="200" len="9"/>
          <note key="68" pan="0" pos="1680" vol="200" len="9"/>
          <note key="67" pan="0" pos="1692" vol="200" len="9"/>
          <note key="65" pan="0" pos="1704" vol="200" len="9"/>
          <note key="62" pan="0" pos="1716" vol="200" len="9"/>
          <note key="68" pan="0" pos="1728" vol="200" len="6"/>
          <note key="67" pan="0" pos="1734" vol="200" len="6"/>
          <note key="65" pan="0" pos="1740" vol="200" len="6"/>
          <note key="62" pan="0" pos="1746" vol="200" len="6"/>
          <note key="65" pan="0" pos="1752" vol="200" len="21"/>
          <note key="67" pan="0" pos="1776" vol="200" len="96"/>
          <note key="68" pan="0" pos="1884" vol="200" len="24"/>
          <note key="69" pan="0" pos="1908" vol="200" len="12"/>
          <note key="72" pan="0" pos="1920" vol="200" len="6"/>
          <note key="69" pan="0" pos="1944" vol="200" len="6"/>
          <note key="68" pan="0" pos="1956" vol="200" len="6"/>
          <note key="67" pan="0" pos="1968" vol="200" len="6"/>
          <note key="65" pan="0" pos="1980" vol="200" len="6"/>
          <note key="62" pan="0" pos="1992" vol="200" len="6"/>
          <note key="64" pan="0" pos="2004" vol="200" len="6"/>
          <note key="65" pan="0" pos="2016" vol="200" len="24"/>
          <note key="67" pan="0" pos="2040" vol="200" len="24"/>
          <note key="69" pan="0" pos="2064" vol="200" len="24"/>
          <note key="72" pan="0" pos="2088" vol="200" len="24"/>
          <note key="73" pan="0" pos="2112" vol="200" len="24"/>
          <note key="68" pan="0" pos="2136" vol="200" len="12"/>
          <note key="68" pan="0" pos="2160" vol="200" len="12"/>
          <note key="67" pan="0" pos="2172" vol="200" len="12"/>
          <note key="65" pan="0" pos="2184" vol="200" len="12"/>
          <note key="65" pan="0" pos="2196" vol="200" len="96"/>
          <note key="53" pan="0" pos="2304" vol="200" len="24"/>
          <note key="55" pan="0" pos="2328" vol="200" len="24"/>
          <note key="57" pan="0" pos="2352" vol="200" len="24"/>
          <note key="65" pan="0" pos="2376" vol="200" len="24"/>
          <note key="64" pan="0" pos="2400" vol="200" len="48"/>
          <note key="62" pan="0" pos="2448" vol="200" len="48"/>
          <note key="64" pan="0" pos="2496" vol="200" len="48"/>
          <note key="65" pan="0" pos="2544" vol="200" len="48"/>
          <note key="67" pan="0" pos="2592" vol="200" len="48"/>
          <note key="64" pan="0" pos="2640" vol="200" len="48"/>
          <note key="69" pan="0" pos="2688" vol="200" len="96"/>
          <note key="69" pan="0" pos="2784" vol="200" len="12"/>
          <note key="68" pan="0" pos="2796" vol="200" len="12"/>
          <note key="67" pan="0" pos="2808" vol="200" len="12"/>
          <note key="66" pan="0" pos="2820" vol="200" len="12"/>
          <note key="65" pan="0" pos="2832" vol="200" len="12"/>
          <note key="64" pan="0" pos="2844" vol="200" len="12"/>
          <note key="63" pan="0" pos="2856" vol="200" len="12"/>
          <note key="62" pan="0" pos="2868" vol="200" len="12"/>
          <note key="61" pan="0" pos="2880" vol="200" len="96"/>
          <note key="63" pan="0" pos="2976" vol="200" len="96"/>
        </pattern>
        <pattern steps="16" name="Track 10" pos="19776" type="1" muted="0">
          <note key="65" pan="0" pos="96" vol="200" len="9"/>
          <note key="62" pan="0" pos="108" vol="200" len="9"/>
          <note key="65" pan="0" pos="120" vol="200" len="9"/>
          <note key="67" pan="0" pos="132" vol="200" len="9"/>
          <note key="68" pan="0" pos="144" vol="200" len="9"/>
          <note key="67" pan="0" pos="156" vol="200" len="9"/>
          <note key="65" pan="0" pos="168" vol="200" len="9"/>
          <note key="62" pan="0" pos="180" vol="200" len="9"/>
          <note key="68" pan="0" pos="192" vol="200" len="6"/>
          <note key="67" pan="0" pos="198" vol="200" len="6"/>
          <note key="65" pan="0" pos="204" vol="200" len="6"/>
          <note key="62" pan="0" pos="210" vol="200" len="6"/>
          <note key="65" pan="0" pos="216" vol="200" len="21"/>
          <note key="67" pan="0" pos="240" vol="200" len="96"/>
          <note key="68" pan="0" pos="348" vol="200" len="24"/>
          <note key="69" pan="0" pos="372" vol="200" len="12"/>
          <note key="72" pan="0" pos="384" vol="200" len="6"/>
          <note key="69" pan="0" pos="408" vol="200" len="6"/>
          <note key="68" pan="0" pos="420" vol="200" len="6"/>
          <note key="67" pan="0" pos="432" vol="200" len="6"/>
          <note key="65" pan="0" pos="444" vol="200" len="6"/>
          <note key="62" pan="0" pos="456" vol="200" len="6"/>
          <note key="64" pan="0" pos="468" vol="200" len="6"/>
          <note key="65" pan="0" pos="480" vol="200" len="24"/>
          <note key="67" pan="0" pos="504" vol="200" len="24"/>
          <note key="69" pan="0" pos="528" vol="200" len="24"/>
          <note key="72" pan="0" pos="552" vol="200" len="24"/>
          <note key="73" pan="0" pos="576" vol="200" len="24"/>
          <note key="68" pan="0" pos="600" vol="200" len="12"/>
          <note key="68" pan="0" pos="624" vol="200" len="12"/>
          <note key="67" pan="0" pos="636" vol="200" len="12"/>
          <note key="65" pan="0" pos="648" vol="200" len="12"/>
          <note key="65" pan="0" pos="660" vol="200" len="96"/>
          <note key="53" pan="0" pos="768" vol="200" len="24"/>
          <note key="55" pan="0" pos="792" vol="200" len="24"/>
          <note key="57" pan="0" pos="816" vol="200" len="24"/>
          <note key="65" pan="0" pos="840" vol="200" len="24"/>
          <note key="64" pan="0" pos="864" vol="200" len="48"/>
          <note key="62" pan="0" pos="912" vol="200" len="48"/>
          <note key="64" pan="0" pos="960" vol="200" len="48"/>
          <note key="65" pan="0" pos="1008" vol="200" len="48"/>
          <note key="67" pan="0" pos="1056" vol="200" len="48"/>
          <note key="64" pan="0" pos="1104" vol="200" len="48"/>
          <note key="69" pan="0" pos="1152" vol="200" len="96"/>
          <note key="69" pan="0" pos="1248" vol="200" len="12"/>
          <note key="68" pan="0" pos="1260" vol="200" len="12"/>
          <note key="67" pan="0" pos="1272" vol="200" len="12"/>
          <note key="66" pan="0" pos="1284" vol="200" len="12"/>
          <note key="65" pan="0" pos="1296" vol="200" len="12"/>
          <note key="64" pan="0" pos="1308" vol="200" len="12"/>
          <note key="63" pan="0" pos="1320" vol="200" len="12"/>
          <note key="62" pan="0" pos="1332" vol="200" len="12"/>
          <note key="61" pan="0" pos="1344" vol="200" len="96"/>
          <note key="63" pan="0" pos="1440" vol="200" len="96"/>
          <note key="65" pan="0" pos="1632" vol="200" len="9"/>
          <note key="62" pan="0" pos="1644" vol="200" len="9"/>
          <note key="65" pan="0" pos="1656" vol="200" len="9"/>
          <note key="67" pan="0" pos="1668" vol="200" len="9"/>
          <note key="68" pan="0" pos="1680" vol="200" len="9"/>
          <note key="67" pan="0" pos="1692" vol="200" len="9"/>
          <note key="65" pan="0" pos="1704" vol="200" len="9"/>
          <note key="62" pan="0" pos="1716" vol="200" len="9"/>
          <note key="68" pan="0" pos="1728" vol="200" len="6"/>
          <note key="67" pan="0" pos="1734" vol="200" len="6"/>
          <note key="65" pan="0" pos="1740" vol="200" len="6"/>
          <note key="62" pan="0" pos="1746" vol="200" len="6"/>
          <note key="65" pan="0" pos="1752" vol="200" len="21"/>
          <note key="67" pan="0" pos="1776" vol="200" len="96"/>
          <note key="68" pan="0" pos="1884" vol="200" len="24"/>
          <note key="69" pan="0" pos="1908" vol="200" len="12"/>
          <note key="72" pan="0" pos="1920" vol="200" len="6"/>
          <note key="69" pan="0" pos="1944" vol="200" len="6"/>
          <note key="68" pan="0" pos="1956" vol="200" len="6"/>
          <note key="67" pan="0" pos="1968" vol="200" len="6"/>
          <note key="65" pan="0" pos="1980" vol="200" len="6"/>
          <note key="62" pan="0" pos="1992" vol="200" len="6"/>
          <note key="64" pan="0" pos="2004" vol="200" len="6"/>
          <note key="65" pan="0" pos="2016" vol="200" len="24"/>
          <note key="67" pan="0" pos="2040" vol="200" len="24"/>
          <note key="69" pan="0" pos="2064" vol="200" len="24"/>
          <note key="72" pan="0" pos="2088" vol="200" len="24"/>
          <note key="73" pan="0" pos="2112" vol="200" len="24"/>
          <note key="68" pan="0" pos="2136" vol="200" len="12"/>
          <note key="68" pan="0" pos="2160" vol="200" len="12"/>
          <note key="67" pan="0" pos="2172" vol="200" len="12"/>
          <note key="65" pan="0" pos="2184" vol="200" len="12"/>
          <note key="65" pan="0" pos="2196" vol="200" len="96"/>
          <note key="53" pan="0" pos="2304" vol="200" len="24"/>
          <note key="55" pan="0" pos="2328" vol="200" len="24"/>
          <note key="57" pan="0" pos="2352" vol="200" len="24"/>
          <note key="65" pan="0" pos="2376" vol="200" len="24"/>
          <note key="64" pan="0" pos="2400" vol="200" len="48"/>
          <note key="62" pan="0" pos="2448" vol="200" len="48"/>
          <note key="64" pan="0" pos="2496" vol="200" len="48"/>
          <note key="65" pan="0" pos="2544" vol="200" len="48"/>
          <note key="67" pan="0" pos="2592" vol="200" len="48"/>
          <note key="64" pan="0" pos="2640" vol="200" len="48"/>
          <note key="69" pan="0" pos="2688" vol="200" len="96"/>
          <note key="69" pan="0" pos="2784" vol="200" len="12"/>
          <note key="68" pan="0" pos="2796" vol="200" len="12"/>
          <note key="67" pan="0" pos="2808" vol="200" len="12"/>
          <note key="66" pan="0" pos="2820" vol="200" len="12"/>
          <note key="65" pan="0" pos="2832" vol="200" len="12"/>
          <note key="64" pan="0" pos="2844" vol="200" len="12"/>
          <note key="63" pan="0" pos="2856" vol="200" len="12"/>
          <note key="62" pan="0" pos="2868" vol="200" len="12"/>
          <note key="61" pan="0" pos="2880" vol="200" len="96"/>
          <note key="63" pan="0" pos="2976" vol="200" len="96"/>
        </pattern>
      </track>
      <track name="Untitled > Pitch" type="5" solo="0" muted="0">
        <automationtrack/>
        <automationpattern tens="1" mute="0" pos="4800" name="Track 10>Pitch" prog="0" len="192">
          <time pos="0" value="0"/>
          <time pos="96" value="-6.49414"/>
          <object id="35144"/>
        </automationpattern>
        <automationpattern tens="1" mute="0" pos="5376" name="Track 10>Pitch" prog="0" len="384">
          <time pos="0" value="0"/>
          <time pos="84" value="93.4814"/>
          <time pos="144" value="88.9648"/>
          <time pos="145" value="84.2407"/>
          <time pos="146" value="77.9419"/>
          <time pos="147" value="73.2178"/>
          <time pos="148" value="68.4937"/>
          <time pos="149" value="62.1948"/>
          <time pos="150" value="57.4707"/>
          <time pos="151" value="51.1719"/>
          <time pos="152" value="46.4478"/>
          <time pos="153" value="41.7236"/>
          <time pos="154" value="35.4248"/>
          <time pos="155" value="30.7007"/>
          <time pos="156" value="24.4019"/>
          <time pos="157" value="19.6777"/>
          <time pos="158" value="13.3789"/>
          <time pos="159" value="8.65479"/>
          <time pos="160" value="3.93066"/>
          <time pos="161" value="-2.36816"/>
          <time pos="162" value="-7.09229"/>
          <time pos="163" value="-13.3911"/>
          <time pos="164" value="-18.1152"/>
          <time pos="165" value="-22.8394"/>
          <time pos="166" value="-29.1382"/>
          <time pos="167" value="-33.8623"/>
          <time pos="168" value="-40.1611"/>
          <time pos="169" value="-44.8853"/>
          <time pos="170" value="-51.1841"/>
          <time pos="171" value="-55.9082"/>
          <time pos="172" value="-60.6323"/>
          <time pos="173" value="-66.9312"/>
          <time pos="174" value="-71.6553"/>
          <time pos="175" value="-77.9541"/>
          <time pos="176" value="-82.6782"/>
          <time pos="177" value="-87.4023"/>
          <time pos="178" value="-93.7012"/>
          <time pos="179" value="-98.4253"/>
          <time pos="192" value="-6.49414"/>
          <object id="35144"/>
        </automationpattern>
        <automationpattern tens="1" mute="0" pos="6144" name="Track 10>Pitch" prog="0" len="192">
          <time pos="0" value="-6.49414"/>
          <time pos="72" value="-0.793457"/>
          <time pos="73" value="3.93066"/>
          <time pos="74" value="7.08008"/>
          <time pos="75" value="11.8042"/>
          <time pos="76" value="16.5283"/>
          <time pos="77" value="19.6777"/>
          <time pos="78" value="24.4019"/>
          <time pos="79" value="29.126"/>
          <time pos="80" value="32.2754"/>
          <time pos="81" value="36.9995"/>
          <time pos="82" value="41.7236"/>
          <time pos="83" value="44.873"/>
          <time pos="84" value="49.5972"/>
          <time pos="85" value="54.3213"/>
          <time pos="86" value="57.4707"/>
          <time pos="87" value="62.1948"/>
          <time pos="88" value="66.9189"/>
          <time pos="89" value="70.0684"/>
          <time pos="90" value="74.7925"/>
          <time pos="91" value="79.5166"/>
          <time pos="92" value="82.666"/>
          <time pos="93" value="87.3901"/>
          <time pos="94" value="92.1143"/>
          <time pos="95" value="95.2637"/>
          <time pos="96" value="-6.49414"/>
          <object id="35144"/>
        </automationpattern>
        <automationpattern tens="1" mute="0" pos="6912" name="Track 10>Pitch" prog="0" len="384">
          <time pos="0" value="0"/>
          <time pos="84" value="93.4814"/>
          <time pos="144" value="90.5396"/>
          <time pos="145" value="85.8154"/>
          <time pos="146" value="79.5166"/>
          <time pos="147" value="74.7925"/>
          <time pos="148" value="68.4937"/>
          <time pos="149" value="63.7695"/>
          <time pos="150" value="59.0454"/>
          <time pos="151" value="52.7466"/>
          <time pos="152" value="48.0225"/>
          <time pos="153" value="41.7236"/>
          <time pos="154" value="36.9995"/>
          <time pos="155" value="30.7007"/>
          <time pos="156" value="25.9766"/>
          <time pos="157" value="19.6777"/>
          <time pos="158" value="14.9536"/>
          <time pos="159" value="10.2295"/>
          <time pos="160" value="3.93066"/>
          <time pos="161" value="-0.793457"/>
          <time pos="162" value="-7.09229"/>
          <time pos="163" value="-11.8164"/>
          <time pos="164" value="-18.1152"/>
          <time pos="165" value="-22.8394"/>
          <time pos="166" value="-29.1382"/>
          <time pos="167" value="-33.8623"/>
          <time pos="168" value="-38.5864"/>
          <time pos="169" value="-44.8853"/>
          <time pos="170" value="-49.6094"/>
          <time pos="171" value="-55.9082"/>
          <time pos="172" value="-60.6323"/>
          <time pos="173" value="-66.9312"/>
          <time pos="174" value="-71.6553"/>
          <time pos="175" value="-77.9541"/>
          <time pos="176" value="-82.6782"/>
          <time pos="177" value="-87.4023"/>
          <time pos="178" value="-93.7012"/>
          <time pos="179" value="-98.4253"/>
          <time pos="192" value="-6.49414"/>
          <object id="35144"/>
        </automationpattern>
        <automationpattern tens="1" mute="0" pos="7680" name="Track 10>Pitch" prog="0" len="192">
          <time pos="0" value="0"/>
          <time pos="72" value="-0.793457"/>
          <time pos="73" value="3.93066"/>
          <time pos="74" value="7.08008"/>
          <time pos="75" value="11.8042"/>
          <time pos="76" value="16.5283"/>
          <time pos="77" value="19.6777"/>
          <time pos="78" value="24.4019"/>
          <time pos="79" value="29.126"/>
          <time pos="80" value="32.2754"/>
          <time pos="81" value="36.9995"/>
          <time pos="82" value="41.7236"/>
          <time pos="83" value="44.873"/>
          <time pos="84" value="49.5972"/>
          <time pos="85" value="54.3213"/>
          <time pos="86" value="57.4707"/>
          <time pos="87" value="62.1948"/>
          <time pos="88" value="66.9189"/>
          <time pos="89" value="70.0684"/>
          <time pos="90" value="74.7925"/>
          <time pos="91" value="79.5166"/>
          <time pos="92" value="82.666"/>
          <time pos="93" value="87.3901"/>
          <time pos="94" value="92.1143"/>
          <time pos="95" value="95.2637"/>
          <time pos="96" value="-6.49414"/>
          <object id="35144"/>
        </automationpattern>
        <automationpattern tens="1" mute="0" pos="19776" name="Track 10>Pitch" prog="0" len="192">
          <time pos="0" value="0"/>
          <time pos="96" value="-6.49414"/>
          <object id="35144"/>
        </automationpattern>
        <automationpattern tens="1" mute="0" pos="20352" name="Track 10>Pitch" prog="0" len="384">
          <time pos="0" value="0"/>
          <time pos="84" value="93.4814"/>
          <time pos="144" value="88.9648"/>
          <time pos="145" value="84.2407"/>
          <time pos="146" value="77.9419"/>
          <time pos="147" value="73.2178"/>
          <time pos="148" value="68.4937"/>
          <time pos="149" value="62.1948"/>
          <time pos="150" value="57.4707"/>
          <time pos="151" value="51.1719"/>
          <time pos="152" value="46.4478"/>
          <time pos="153" value="41.7236"/>
          <time pos="154" value="35.4248"/>
          <time pos="155" value="30.7007"/>
          <time pos="156" value="24.4019"/>
          <time pos="157" value="19.6777"/>
          <time pos="158" value="13.3789"/>
          <time pos="159" value="8.65479"/>
          <time pos="160" value="3.93066"/>
          <time pos="161" value="-2.36816"/>
          <time pos="162" value="-7.09229"/>
          <time pos="163" value="-13.3911"/>
          <time pos="164" value="-18.1152"/>
          <time pos="165" value="-22.8394"/>
          <time pos="166" value="-29.1382"/>
          <time pos="167" value="-33.8623"/>
          <time pos="168" value="-40.1611"/>
          <time pos="169" value="-44.8853"/>
          <time pos="170" value="-51.1841"/>
          <time pos="171" value="-55.9082"/>
          <time pos="172" value="-60.6323"/>
          <time pos="173" value="-66.9312"/>
          <time pos="174" value="-71.6553"/>
          <time pos="175" value="-77.9541"/>
          <time pos="176" value="-82.6782"/>
          <time pos="177" value="-87.4023"/>
          <time pos="178" value="-93.7012"/>
          <time pos="179" value="-98.4253"/>
          <time pos="192" value="-6.49414"/>
          <object id="35144"/>
        </automationpattern>
        <automationpattern tens="1" mute="0" pos="21120" name="Track 10>Pitch" prog="0" len="192">
          <time pos="0" value="-6.49414"/>
          <time pos="72" value="-0.793457"/>
          <time pos="73" value="3.93066"/>
          <time pos="74" value="7.08008"/>
          <time pos="75" value="11.8042"/>
          <time pos="76" value="16.5283"/>
          <time pos="77" value="19.6777"/>
          <time pos="78" value="24.4019"/>
          <time pos="79" value="29.126"/>
          <time pos="80" value="32.2754"/>
          <time pos="81" value="36.9995"/>
          <time pos="82" value="41.7236"/>
          <time pos="83" value="44.873"/>
          <time pos="84" value="49.5972"/>
          <time pos="85" value="54.3213"/>
          <time pos="86" value="57.4707"/>
          <time pos="87" value="62.1948"/>
          <time pos="88" value="66.9189"/>
          <time pos="89" value="70.0684"/>
          <time pos="90" value="74.7925"/>
          <time pos="91" value="79.5166"/>
          <time pos="92" value="82.666"/>
          <time pos="93" value="87.3901"/>
          <time pos="94" value="92.1143"/>
          <time pos="95" value="95.2637"/>
          <time pos="96" value="-6.49414"/>
          <object id="35144"/>
        </automationpattern>
        <automationpattern tens="1" mute="0" pos="21888" name="Track 10>Pitch" prog="0" len="384">
          <time pos="0" value="0"/>
          <time pos="84" value="93.4814"/>
          <time pos="144" value="90.5396"/>
          <time pos="145" value="85.8154"/>
          <time pos="146" value="79.5166"/>
          <time pos="147" value="74.7925"/>
          <time pos="148" value="68.4937"/>
          <time pos="149" value="63.7695"/>
          <time pos="150" value="59.0454"/>
          <time pos="151" value="52.7466"/>
          <time pos="152" value="48.0225"/>
          <time pos="153" value="41.7236"/>
          <time pos="154" value="36.9995"/>
          <time pos="155" value="30.7007"/>
          <time pos="156" value="25.9766"/>
          <time pos="157" value="19.6777"/>
          <time pos="158" value="14.9536"/>
          <time pos="159" value="10.2295"/>
          <time pos="160" value="3.93066"/>
          <time pos="161" value="-0.793457"/>
          <time pos="162" value="-7.09229"/>
          <time pos="163" value="-11.8164"/>
          <time pos="164" value="-18.1152"/>
          <time pos="165" value="-22.8394"/>
          <time pos="166" value="-29.1382"/>
          <time pos="167" value="-33.8623"/>
          <time pos="168" value="-38.5864"/>
          <time pos="169" value="-44.8853"/>
          <time pos="170" value="-49.6094"/>
          <time pos="171" value="-55.9082"/>
          <time pos="172" value="-60.6323"/>
          <time pos="173" value="-66.9312"/>
          <time pos="174" value="-71.6553"/>
          <time pos="175" value="-77.9541"/>
          <time pos="176" value="-82.6782"/>
          <time pos="177" value="-87.4023"/>
          <time pos="178" value="-93.7012"/>
          <time pos="179" value="-98.4253"/>
          <time pos="192" value="-6.49414"/>
          <object id="35144"/>
        </automationpattern>
        <automationpattern tens="1" mute="0" pos="22656" name="Track 10>Pitch" prog="0" len="192">
          <time pos="0" value="0"/>
          <time pos="72" value="-0.793457"/>
          <time pos="73" value="3.93066"/>
          <time pos="74" value="7.08008"/>
          <time pos="75" value="11.8042"/>
          <time pos="76" value="16.5283"/>
          <time pos="77" value="19.6777"/>
          <time pos="78" value="24.4019"/>
          <time pos="79" value="29.126"/>
          <time pos="80" value="32.2754"/>
          <time pos="81" value="36.9995"/>
          <time pos="82" value="41.7236"/>
          <time pos="83" value="44.873"/>
          <time pos="84" value="49.5972"/>
          <time pos="85" value="54.3213"/>
          <time pos="86" value="57.4707"/>
          <time pos="87" value="62.1948"/>
          <time pos="88" value="66.9189"/>
          <time pos="89" value="70.0684"/>
          <time pos="90" value="74.7925"/>
          <time pos="91" value="79.5166"/>
          <time pos="92" value="82.666"/>
          <time pos="93" value="87.3901"/>
          <time pos="94" value="92.1143"/>
          <time pos="95" value="95.2637"/>
          <time pos="96" value="-6.49414"/>
          <object id="35144"/>
        </automationpattern>
      </track>
      <track name="Track 11" type="0" solo="0" muted="0">
        <instrumenttrack fxch="0" basenote="57" pan="0" vol="79.5276" usemasterpitch="1" pitchrange="2">
          <pitch scale_type="linear" id="36163" value="-6.49414"/>
          <instrument name="sf2player">
            <sf2player gain="1" src="C:/Users/cervi/Downloads/tmp/Layton_TC.sf2" reverbDamping="0" chorusOn="0" chorusSpeed="0.3" reverbOn="0" chorusNum="3" reverbLevel="0.9" chorusDepth="8" reverbWidth="0.5" bank="0" patch="61" reverbRoomSize="0.2" chorusLevel="2"/>
          </instrument>
          <eldata fwet="0" fres="0.5" fcut="14000" ftype="0">
            <elvol dec="0.5" lspd="0.1" hold="0.5" sustain="0.5" lshp="0" ctlenvamt="0" rel="0.1" userwavefile="" lamt="0" pdel="0" lspd_syncmode="0" lpdel="0" att="0" x100="0" lspd_numerator="4" lspd_denominator="4" amt="0" latt="0"/>
            <elcut dec="0.5" lspd="0.1" hold="0.5" sustain="0.5" lshp="0" ctlenvamt="0" rel="0.1" userwavefile="" lamt="0" pdel="0" lspd_syncmode="0" lpdel="0" att="0" x100="0" lspd_numerator="4" lspd_denominator="4" amt="0" latt="0"/>
            <elres dec="0.5" lspd="0.1" hold="0.5" sustain="0.5" lshp="0" ctlenvamt="0" rel="0.1" userwavefile="" lamt="0" pdel="0" lspd_syncmode="0" lpdel="0" att="0" x100="0" lspd_numerator="4" lspd_denominator="4" amt="0" latt="0"/>
          </eldata>
          <chordcreator chord="0" chordrange="1" chord-enabled="0"/>
          <arpeggiator arpcycle="0" arpgate="100" arp="0" arprange="1" arpdir="0" arp-enabled="0" arpskip="0" arptime_syncmode="0" arptime="200" arpmiss="0" arpmode="0" arptime_denominator="4" arptime_numerator="4"/>
          <midiport inputchannel="0" fixedoutputvelocity="-1" outputchannel="1" outputcontroller="0" writable="0" inputcontroller="0" fixedoutputnote="-1" outputprogram="1" basevelocity="63" fixedinputvelocity="-1" readable="0"/>
          <fxchain enabled="0" numofeffects="0"/>
        </instrumenttrack>
        <pattern steps="16" name="Track 11" pos="4800" type="1" muted="0">
          <note key="62" pan="0" pos="96" vol="157" len="9"/>
          <note key="58" pan="0" pos="108" vol="157" len="9"/>
          <note key="62" pan="0" pos="120" vol="157" len="9"/>
          <note key="64" pan="0" pos="132" vol="157" len="9"/>
          <note key="65" pan="0" pos="144" vol="157" len="9"/>
          <note key="64" pan="0" pos="156" vol="157" len="9"/>
          <note key="62" pan="0" pos="168" vol="157" len="9"/>
          <note key="58" pan="0" pos="180" vol="157" len="9"/>
          <note key="65" pan="0" pos="192" vol="157" len="6"/>
          <note key="64" pan="0" pos="198" vol="157" len="6"/>
          <note key="62" pan="0" pos="204" vol="157" len="6"/>
          <note key="58" pan="0" pos="210" vol="157" len="6"/>
          <note key="62" pan="0" pos="216" vol="157" len="21"/>
          <note key="62" pan="0" pos="240" vol="157" len="96"/>
          <note key="56" pan="0" pos="348" vol="157" len="24"/>
          <note key="57" pan="0" pos="372" vol="157" len="12"/>
          <note key="60" pan="0" pos="384" vol="157" len="6"/>
          <note key="57" pan="0" pos="408" vol="157" len="6"/>
          <note key="56" pan="0" pos="420" vol="157" len="6"/>
          <note key="55" pan="0" pos="432" vol="157" len="6"/>
          <note key="53" pan="0" pos="444" vol="157" len="6"/>
          <note key="50" pan="0" pos="456" vol="157" len="6"/>
          <note key="52" pan="0" pos="468" vol="157" len="6"/>
          <note key="53" pan="0" pos="480" vol="157" len="24"/>
          <note key="55" pan="0" pos="504" vol="157" len="24"/>
          <note key="57" pan="0" pos="528" vol="157" len="24"/>
          <note key="60" pan="0" pos="552" vol="157" len="24"/>
          <note key="61" pan="0" pos="576" vol="157" len="24"/>
          <note key="56" pan="0" pos="600" vol="157" len="12"/>
          <note key="56" pan="0" pos="624" vol="157" len="12"/>
          <note key="55" pan="0" pos="636" vol="157" len="12"/>
          <note key="53" pan="0" pos="648" vol="157" len="12"/>
          <note key="55" pan="0" pos="660" vol="157" len="102"/>
          <note key="50" pan="0" pos="768" vol="157" len="24"/>
          <note key="52" pan="0" pos="792" vol="157" len="24"/>
          <note key="53" pan="0" pos="816" vol="157" len="24"/>
          <note key="57" pan="0" pos="840" vol="157" len="24"/>
          <note key="60" pan="0" pos="864" vol="157" len="48"/>
          <note key="57" pan="0" pos="912" vol="157" len="48"/>
          <note key="55" pan="0" pos="960" vol="157" len="48"/>
          <note key="57" pan="0" pos="1008" vol="157" len="48"/>
          <note key="60" pan="0" pos="1056" vol="157" len="48"/>
          <note key="57" pan="0" pos="1104" vol="157" len="48"/>
          <note key="62" pan="0" pos="1152" vol="157" len="96"/>
          <note key="56" pan="0" pos="1344" vol="157" len="96"/>
          <note key="58" pan="0" pos="1440" vol="157" len="96"/>
          <note key="62" pan="0" pos="1632" vol="157" len="9"/>
          <note key="58" pan="0" pos="1644" vol="157" len="9"/>
          <note key="62" pan="0" pos="1656" vol="157" len="9"/>
          <note key="64" pan="0" pos="1668" vol="157" len="9"/>
          <note key="65" pan="0" pos="1680" vol="157" len="9"/>
          <note key="64" pan="0" pos="1692" vol="157" len="9"/>
          <note key="62" pan="0" pos="1704" vol="157" len="9"/>
          <note key="58" pan="0" pos="1716" vol="157" len="9"/>
          <note key="65" pan="0" pos="1728" vol="157" len="6"/>
          <note key="64" pan="0" pos="1734" vol="157" len="6"/>
          <note key="62" pan="0" pos="1740" vol="157" len="6"/>
          <note key="58" pan="0" pos="1746" vol="157" len="6"/>
          <note key="62" pan="0" pos="1752" vol="157" len="21"/>
          <note key="62" pan="0" pos="1776" vol="157" len="96"/>
          <note key="56" pan="0" pos="1884" vol="157" len="24"/>
          <note key="57" pan="0" pos="1908" vol="157" len="12"/>
          <note key="60" pan="0" pos="1920" vol="157" len="6"/>
          <note key="57" pan="0" pos="1944" vol="157" len="6"/>
          <note key="56" pan="0" pos="1956" vol="157" len="6"/>
          <note key="55" pan="0" pos="1968" vol="157" len="6"/>
          <note key="53" pan="0" pos="1980" vol="157" len="6"/>
          <note key="50" pan="0" pos="1992" vol="157" len="6"/>
          <note key="52" pan="0" pos="2004" vol="157" len="6"/>
          <note key="53" pan="0" pos="2016" vol="157" len="24"/>
          <note key="55" pan="0" pos="2040" vol="157" len="24"/>
          <note key="57" pan="0" pos="2064" vol="157" len="24"/>
          <note key="60" pan="0" pos="2088" vol="157" len="24"/>
          <note key="61" pan="0" pos="2112" vol="157" len="24"/>
          <note key="56" pan="0" pos="2136" vol="157" len="12"/>
          <note key="56" pan="0" pos="2160" vol="157" len="12"/>
          <note key="55" pan="0" pos="2172" vol="157" len="12"/>
          <note key="53" pan="0" pos="2184" vol="157" len="12"/>
          <note key="55" pan="0" pos="2196" vol="157" len="102"/>
          <note key="50" pan="0" pos="2304" vol="157" len="24"/>
          <note key="52" pan="0" pos="2328" vol="157" len="24"/>
          <note key="53" pan="0" pos="2352" vol="157" len="24"/>
          <note key="57" pan="0" pos="2376" vol="157" len="24"/>
          <note key="60" pan="0" pos="2400" vol="157" len="48"/>
          <note key="57" pan="0" pos="2448" vol="157" len="48"/>
          <note key="55" pan="0" pos="2496" vol="157" len="48"/>
          <note key="57" pan="0" pos="2544" vol="157" len="48"/>
          <note key="60" pan="0" pos="2592" vol="157" len="48"/>
          <note key="57" pan="0" pos="2640" vol="157" len="48"/>
          <note key="62" pan="0" pos="2688" vol="157" len="96"/>
          <note key="56" pan="0" pos="2880" vol="157" len="96"/>
          <note key="58" pan="0" pos="2976" vol="157" len="96"/>
        </pattern>
        <pattern steps="16" name="Track 11" pos="19776" type="1" muted="0">
          <note key="62" pan="0" pos="96" vol="157" len="9"/>
          <note key="58" pan="0" pos="108" vol="157" len="9"/>
          <note key="62" pan="0" pos="120" vol="157" len="9"/>
          <note key="64" pan="0" pos="132" vol="157" len="9"/>
          <note key="65" pan="0" pos="144" vol="157" len="9"/>
          <note key="64" pan="0" pos="156" vol="157" len="9"/>
          <note key="62" pan="0" pos="168" vol="157" len="9"/>
          <note key="58" pan="0" pos="180" vol="157" len="9"/>
          <note key="65" pan="0" pos="192" vol="157" len="6"/>
          <note key="64" pan="0" pos="198" vol="157" len="6"/>
          <note key="62" pan="0" pos="204" vol="157" len="6"/>
          <note key="58" pan="0" pos="210" vol="157" len="6"/>
          <note key="62" pan="0" pos="216" vol="157" len="21"/>
          <note key="62" pan="0" pos="240" vol="157" len="96"/>
          <note key="56" pan="0" pos="348" vol="157" len="24"/>
          <note key="57" pan="0" pos="372" vol="157" len="12"/>
          <note key="60" pan="0" pos="384" vol="157" len="6"/>
          <note key="57" pan="0" pos="408" vol="157" len="6"/>
          <note key="56" pan="0" pos="420" vol="157" len="6"/>
          <note key="55" pan="0" pos="432" vol="157" len="6"/>
          <note key="53" pan="0" pos="444" vol="157" len="6"/>
          <note key="50" pan="0" pos="456" vol="157" len="6"/>
          <note key="52" pan="0" pos="468" vol="157" len="6"/>
          <note key="53" pan="0" pos="480" vol="157" len="24"/>
          <note key="55" pan="0" pos="504" vol="157" len="24"/>
          <note key="57" pan="0" pos="528" vol="157" len="24"/>
          <note key="60" pan="0" pos="552" vol="157" len="24"/>
          <note key="61" pan="0" pos="576" vol="157" len="24"/>
          <note key="56" pan="0" pos="600" vol="157" len="12"/>
          <note key="56" pan="0" pos="624" vol="157" len="12"/>
          <note key="55" pan="0" pos="636" vol="157" len="12"/>
          <note key="53" pan="0" pos="648" vol="157" len="12"/>
          <note key="55" pan="0" pos="660" vol="157" len="102"/>
          <note key="50" pan="0" pos="768" vol="157" len="24"/>
          <note key="52" pan="0" pos="792" vol="157" len="24"/>
          <note key="53" pan="0" pos="816" vol="157" len="24"/>
          <note key="57" pan="0" pos="840" vol="157" len="24"/>
          <note key="60" pan="0" pos="864" vol="157" len="48"/>
          <note key="57" pan="0" pos="912" vol="157" len="48"/>
          <note key="55" pan="0" pos="960" vol="157" len="48"/>
          <note key="57" pan="0" pos="1008" vol="157" len="48"/>
          <note key="60" pan="0" pos="1056" vol="157" len="48"/>
          <note key="57" pan="0" pos="1104" vol="157" len="48"/>
          <note key="62" pan="0" pos="1152" vol="157" len="96"/>
          <note key="56" pan="0" pos="1344" vol="157" len="96"/>
          <note key="58" pan="0" pos="1440" vol="157" len="96"/>
          <note key="62" pan="0" pos="1632" vol="157" len="9"/>
          <note key="58" pan="0" pos="1644" vol="157" len="9"/>
          <note key="62" pan="0" pos="1656" vol="157" len="9"/>
          <note key="64" pan="0" pos="1668" vol="157" len="9"/>
          <note key="65" pan="0" pos="1680" vol="157" len="9"/>
          <note key="64" pan="0" pos="1692" vol="157" len="9"/>
          <note key="62" pan="0" pos="1704" vol="157" len="9"/>
          <note key="58" pan="0" pos="1716" vol="157" len="9"/>
          <note key="65" pan="0" pos="1728" vol="157" len="6"/>
          <note key="64" pan="0" pos="1734" vol="157" len="6"/>
          <note key="62" pan="0" pos="1740" vol="157" len="6"/>
          <note key="58" pan="0" pos="1746" vol="157" len="6"/>
          <note key="62" pan="0" pos="1752" vol="157" len="21"/>
          <note key="62" pan="0" pos="1776" vol="157" len="96"/>
          <note key="56" pan="0" pos="1884" vol="157" len="24"/>
          <note key="57" pan="0" pos="1908" vol="157" len="12"/>
          <note key="60" pan="0" pos="1920" vol="157" len="6"/>
          <note key="57" pan="0" pos="1944" vol="157" len="6"/>
          <note key="56" pan="0" pos="1956" vol="157" len="6"/>
          <note key="55" pan="0" pos="1968" vol="157" len="6"/>
          <note key="53" pan="0" pos="1980" vol="157" len="6"/>
          <note key="50" pan="0" pos="1992" vol="157" len="6"/>
          <note key="52" pan="0" pos="2004" vol="157" len="6"/>
          <note key="53" pan="0" pos="2016" vol="157" len="24"/>
          <note key="55" pan="0" pos="2040" vol="157" len="24"/>
          <note key="57" pan="0" pos="2064" vol="157" len="24"/>
          <note key="60" pan="0" pos="2088" vol="157" len="24"/>
          <note key="61" pan="0" pos="2112" vol="157" len="24"/>
          <note key="56" pan="0" pos="2136" vol="157" len="12"/>
          <note key="56" pan="0" pos="2160" vol="157" len="12"/>
          <note key="55" pan="0" pos="2172" vol="157" len="12"/>
          <note key="53" pan="0" pos="2184" vol="157" len="12"/>
          <note key="55" pan="0" pos="2196" vol="157" len="102"/>
          <note key="50" pan="0" pos="2304" vol="157" len="24"/>
          <note key="52" pan="0" pos="2328" vol="157" len="24"/>
          <note key="53" pan="0" pos="2352" vol="157" len="24"/>
          <note key="57" pan="0" pos="2376" vol="157" len="24"/>
          <note key="60" pan="0" pos="2400" vol="157" len="48"/>
          <note key="57" pan="0" pos="2448" vol="157" len="48"/>
          <note key="55" pan="0" pos="2496" vol="157" len="48"/>
          <note key="57" pan="0" pos="2544" vol="157" len="48"/>
          <note key="60" pan="0" pos="2592" vol="157" len="48"/>
          <note key="57" pan="0" pos="2640" vol="157" len="48"/>
          <note key="62" pan="0" pos="2688" vol="157" len="96"/>
          <note key="56" pan="0" pos="2880" vol="157" len="96"/>
          <note key="58" pan="0" pos="2976" vol="157" len="96"/>
        </pattern>
      </track>
      <track name="Untitled > Pitch" type="5" solo="0" muted="0">
        <automationtrack/>
        <automationpattern tens="1" mute="0" pos="4800" name="Track 11>Pitch" prog="0" len="192">
          <time pos="0" value="0"/>
          <time pos="96" value="-6.49414"/>
          <object id="36163"/>
        </automationpattern>
        <automationpattern tens="1" mute="0" pos="6144" name="Track 11>Pitch" prog="0" len="192">
          <time pos="0" value="0"/>
          <time pos="72" value="-0.793457"/>
          <time pos="73" value="3.93066"/>
          <time pos="74" value="7.08008"/>
          <time pos="75" value="11.8042"/>
          <time pos="76" value="14.9536"/>
          <time pos="77" value="19.6777"/>
          <time pos="78" value="24.4019"/>
          <time pos="79" value="27.5513"/>
          <time pos="80" value="32.2754"/>
          <time pos="81" value="36.9995"/>
          <time pos="82" value="40.1489"/>
          <time pos="83" value="44.873"/>
          <time pos="84" value="48.0225"/>
          <time pos="85" value="52.7466"/>
          <time pos="86" value="57.4707"/>
          <time pos="87" value="60.6201"/>
          <time pos="88" value="65.3442"/>
          <time pos="89" value="70.0684"/>
          <time pos="90" value="73.2178"/>
          <time pos="91" value="77.9419"/>
          <time pos="92" value="81.0913"/>
          <time pos="93" value="85.8154"/>
          <time pos="94" value="90.5396"/>
          <time pos="95" value="93.689"/>
          <time pos="96" value="-6.49414"/>
          <object id="36163"/>
        </automationpattern>
        <automationpattern tens="1" mute="0" pos="7680" name="Track 11>Pitch" prog="0" len="192">
          <time pos="0" value="0"/>
          <time pos="72" value="-0.793457"/>
          <time pos="73" value="3.93066"/>
          <time pos="74" value="7.08008"/>
          <time pos="75" value="11.8042"/>
          <time pos="76" value="16.5283"/>
          <time pos="77" value="19.6777"/>
          <time pos="78" value="24.4019"/>
          <time pos="79" value="29.126"/>
          <time pos="80" value="32.2754"/>
          <time pos="81" value="36.9995"/>
          <time pos="82" value="41.7236"/>
          <time pos="83" value="44.873"/>
          <time pos="84" value="49.5972"/>
          <time pos="85" value="54.3213"/>
          <time pos="86" value="57.4707"/>
          <time pos="87" value="62.1948"/>
          <time pos="88" value="66.9189"/>
          <time pos="89" value="70.0684"/>
          <time pos="90" value="74.7925"/>
          <time pos="91" value="79.5166"/>
          <time pos="92" value="82.666"/>
          <time pos="93" value="87.3901"/>
          <time pos="94" value="92.1143"/>
          <time pos="95" value="95.2637"/>
          <time pos="96" value="-6.49414"/>
          <object id="36163"/>
        </automationpattern>
        <automationpattern tens="1" mute="0" pos="19776" name="Track 11>Pitch" prog="0" len="192">
          <time pos="0" value="0"/>
          <time pos="96" value="-6.49414"/>
          <object id="36163"/>
        </automationpattern>
        <automationpattern tens="1" mute="0" pos="21120" name="Track 11>Pitch" prog="0" len="192">
          <time pos="0" value="0"/>
          <time pos="72" value="-0.793457"/>
          <time pos="73" value="3.93066"/>
          <time pos="74" value="7.08008"/>
          <time pos="75" value="11.8042"/>
          <time pos="76" value="14.9536"/>
          <time pos="77" value="19.6777"/>
          <time pos="78" value="24.4019"/>
          <time pos="79" value="27.5513"/>
          <time pos="80" value="32.2754"/>
          <time pos="81" value="36.9995"/>
          <time pos="82" value="40.1489"/>
          <time pos="83" value="44.873"/>
          <time pos="84" value="48.0225"/>
          <time pos="85" value="52.7466"/>
          <time pos="86" value="57.4707"/>
          <time pos="87" value="60.6201"/>
          <time pos="88" value="65.3442"/>
          <time pos="89" value="70.0684"/>
          <time pos="90" value="73.2178"/>
          <time pos="91" value="77.9419"/>
          <time pos="92" value="81.0913"/>
          <time pos="93" value="85.8154"/>
          <time pos="94" value="90.5396"/>
          <time pos="95" value="93.689"/>
          <time pos="96" value="-6.49414"/>
          <object id="36163"/>
        </automationpattern>
        <automationpattern tens="1" mute="0" pos="22656" name="Track 11>Pitch" prog="0" len="192">
          <time pos="0" value="0"/>
          <time pos="72" value="-0.793457"/>
          <time pos="73" value="3.93066"/>
          <time pos="74" value="7.08008"/>
          <time pos="75" value="11.8042"/>
          <time pos="76" value="16.5283"/>
          <time pos="77" value="19.6777"/>
          <time pos="78" value="24.4019"/>
          <time pos="79" value="29.126"/>
          <time pos="80" value="32.2754"/>
          <time pos="81" value="36.9995"/>
          <time pos="82" value="41.7236"/>
          <time pos="83" value="44.873"/>
          <time pos="84" value="49.5972"/>
          <time pos="85" value="54.3213"/>
          <time pos="86" value="57.4707"/>
          <time pos="87" value="62.1948"/>
          <time pos="88" value="66.9189"/>
          <time pos="89" value="70.0684"/>
          <time pos="90" value="74.7925"/>
          <time pos="91" value="79.5166"/>
          <time pos="92" value="82.666"/>
          <time pos="93" value="87.3901"/>
          <time pos="94" value="92.1143"/>
          <time pos="95" value="95.2637"/>
          <time pos="96" value="-6.49414"/>
          <object id="36163"/>
        </automationpattern>
      </track>
      <track name="Track 12" type="0" solo="0" muted="0">
        <instrumenttrack fxch="0" basenote="57" pan="0" vol="100" usemasterpitch="1" pitchrange="2">
          <pitch scale_type="linear" id="37045" value="-6.49414"/>
          <instrument name="sf2player">
            <sf2player gain="1" src="C:/Users/cervi/Downloads/tmp/Layton_TC.sf2" reverbDamping="0" chorusOn="0" chorusSpeed="0.3" reverbOn="0" chorusNum="3" reverbLevel="0.9" chorusDepth="8" reverbWidth="0.5" bank="0" patch="55" reverbRoomSize="0.2" chorusLevel="2"/>
          </instrument>
          <eldata fwet="0" fres="0.5" fcut="14000" ftype="0">
            <elvol dec="0.5" lspd="0.1" hold="0.5" sustain="0.5" lshp="0" ctlenvamt="0" rel="0.1" userwavefile="" lamt="0" pdel="0" lspd_syncmode="0" lpdel="0" att="0" x100="0" lspd_numerator="4" lspd_denominator="4" amt="0" latt="0"/>
            <elcut dec="0.5" lspd="0.1" hold="0.5" sustain="0.5" lshp="0" ctlenvamt="0" rel="0.1" userwavefile="" lamt="0" pdel="0" lspd_syncmode="0" lpdel="0" att="0" x100="0" lspd_numerator="4" lspd_denominator="4" amt="0" latt="0"/>
            <elres dec="0.5" lspd="0.1" hold="0.5" sustain="0.5" lshp="0" ctlenvamt="0" rel="0.1" userwavefile="" lamt="0" pdel="0" lspd_syncmode="0" lpdel="0" att="0" x100="0" lspd_numerator="4" lspd_denominator="4" amt="0" latt="0"/>
          </eldata>
          <chordcreator chord="0" chordrange="1" chord-enabled="0"/>
          <arpeggiator arpcycle="0" arpgate="100" arp="0" arprange="1" arpdir="0" arp-enabled="0" arpskip="0" arptime_syncmode="0" arptime="200" arpmiss="0" arpmode="0" arptime_denominator="4" arptime_numerator="4"/>
          <midiport inputchannel="0" fixedoutputvelocity="-1" outputchannel="1" outputcontroller="0" writable="0" inputcontroller="0" fixedoutputnote="-1" outputprogram="1" basevelocity="63" fixedinputvelocity="-1" readable="0"/>
          <fxchain enabled="0" numofeffects="0"/>
        </instrumenttrack>
        <pattern steps="16" name="Track 12" pos="10560" type="1" muted="0">
          <note key="65" pan="0" pos="24" vol="110" len="12"/>
          <note key="62" pan="0" pos="24" vol="110" len="12"/>
          <note key="64" pan="0" pos="48" vol="110" len="12"/>
          <note key="60" pan="0" pos="48" vol="110" len="12"/>
          <note key="60" pan="0" pos="84" vol="110" len="12"/>
          <note key="57" pan="0" pos="84" vol="110" len="12"/>
          <note key="64" pan="0" pos="108" vol="110" len="12"/>
          <note key="60" pan="0" pos="108" vol="110" len="12"/>
          <note key="62" pan="0" pos="132" vol="110" len="24"/>
          <note key="57" pan="0" pos="132" vol="110" len="24"/>
          <note key="55" pan="0" pos="156" vol="110" len="12"/>
          <note key="57" pan="0" pos="168" vol="110" len="12"/>
          <note key="60" pan="0" pos="180" vol="110" len="12"/>
          <note key="65" pan="0" pos="216" vol="110" len="12"/>
          <note key="62" pan="0" pos="216" vol="110" len="12"/>
          <note key="64" pan="0" pos="240" vol="110" len="12"/>
          <note key="60" pan="0" pos="240" vol="110" len="12"/>
          <note key="60" pan="0" pos="276" vol="110" len="12"/>
          <note key="57" pan="0" pos="276" vol="110" len="12"/>
          <note key="64" pan="0" pos="300" vol="110" len="12"/>
          <note key="60" pan="0" pos="300" vol="110" len="12"/>
          <note key="62" pan="0" pos="324" vol="110" len="24"/>
          <note key="57" pan="0" pos="324" vol="110" len="24"/>
          <note key="55" pan="0" pos="348" vol="110" len="12"/>
          <note key="57" pan="0" pos="360" vol="110" len="12"/>
          <note key="60" pan="0" pos="372" vol="110" len="12"/>
        </pattern>
        <pattern steps="16" name="Track 12" pos="25536" type="1" muted="0">
          <note key="65" pan="0" pos="24" vol="110" len="12"/>
          <note key="62" pan="0" pos="24" vol="110" len="12"/>
          <note key="64" pan="0" pos="48" vol="110" len="12"/>
          <note key="60" pan="0" pos="48" vol="110" len="12"/>
          <note key="60" pan="0" pos="84" vol="110" len="12"/>
          <note key="57" pan="0" pos="84" vol="110" len="12"/>
          <note key="64" pan="0" pos="108" vol="110" len="12"/>
          <note key="60" pan="0" pos="108" vol="110" len="12"/>
          <note key="62" pan="0" pos="132" vol="110" len="24"/>
          <note key="57" pan="0" pos="132" vol="110" len="24"/>
          <note key="55" pan="0" pos="156" vol="110" len="12"/>
          <note key="57" pan="0" pos="168" vol="110" len="12"/>
          <note key="60" pan="0" pos="180" vol="110" len="12"/>
          <note key="65" pan="0" pos="216" vol="110" len="12"/>
          <note key="62" pan="0" pos="216" vol="110" len="12"/>
          <note key="64" pan="0" pos="240" vol="110" len="12"/>
          <note key="60" pan="0" pos="240" vol="110" len="12"/>
          <note key="60" pan="0" pos="276" vol="110" len="12"/>
          <note key="57" pan="0" pos="276" vol="110" len="12"/>
          <note key="64" pan="0" pos="300" vol="110" len="12"/>
          <note key="60" pan="0" pos="300" vol="110" len="12"/>
          <note key="62" pan="0" pos="324" vol="110" len="24"/>
          <note key="57" pan="0" pos="324" vol="110" len="24"/>
          <note key="55" pan="0" pos="348" vol="110" len="12"/>
          <note key="57" pan="0" pos="360" vol="110" len="12"/>
          <note key="60" pan="0" pos="372" vol="110" len="12"/>
        </pattern>
      </track>
      <track name="Untitled > Pitch" type="5" solo="0" muted="0">
        <automationtrack/>
        <automationpattern tens="1" mute="0" pos="10560" name="Track 12>Pitch" prog="0" len="192">
          <time pos="0" value="-6.49414"/>
          <object id="37045"/>
        </automationpattern>
        <automationpattern tens="1" mute="0" pos="25536" name="Track 12>Pitch" prog="0" len="192">
          <time pos="0" value="-6.49414"/>
          <object id="37045"/>
        </automationpattern>
      </track>
    </trackcontainer>
    <track name="Automation track" type="6" solo="0" muted="0">
      <automationtrack/>
      <automationpattern tens="1" mute="0" pos="0" name="Numerator" prog="0" len="192"/>
      <automationpattern tens="1" mute="0" pos="0" name="Denominator" prog="0" len="192"/>
      <automationpattern tens="1" mute="0" pos="0" name="Tempo" prog="0" len="192"/>
      <automationpattern tens="1" mute="0" pos="0" name="Master volume" prog="0" len="192"/>
      <automationpattern tens="1" mute="0" pos="0" name="Master pitch" prog="0" len="192"/>
      <automationpattern tens="1" mute="0" pos="0" name="Numerator" prog="0" len="0">
        <time pos="0" value="4"/>
        <object id="10745"/>
      </automationpattern>
      <automationpattern tens="1" mute="0" pos="0" name="Denominator" prog="0" len="0">
        <time pos="0" value="4"/>
        <object id="30717"/>
      </automationpattern>
      <automationpattern tens="1" mute="0" pos="0" name="Tempo" prog="0" len="0">
        <time pos="0" value="120"/>
        <object id="7670"/>
      </automationpattern>
    </track>
    <fxmixer minimized="0" x="5" visible="1" maximized="0" y="310" width="543" height="333">
      <fxchannel volume="1" name="Master" num="0" muted="0" soloed="0">
        <fxchain enabled="0" numofeffects="0"/>
      </fxchannel>
    </fxmixer>
    <ControllerRackView minimized="0" x="680" visible="0" maximized="0" y="310" width="350" height="200"/>
    <pianoroll minimized="0" x="5" visible="0" maximized="0" y="5" width="860" height="480"/>
    <automationeditor minimized="0" x="1" visible="0" maximized="0" y="1" width="860" height="400"/>
    <projectnotes minimized="0" x="700" visible="0" maximized="0" y="10" width="687" height="400"><![CDATA[<!DOCTYPE HTML PUBLIC "-//W3C//DTD HTML 4.0//EN" "http://www.w3.org/TR/REC-html40/strict.dtd">
<html><head><meta name="qrichtext" content="1" /><style type="text/css">
p, li { white-space: pre-wrap; }
</style></head><body style=" font-family:'MS Shell Dlg 2'; font-size:8.25pt; font-weight:400; font-style:normal;">
<p style="-qt-paragraph-type:empty; margin-top:0px; margin-bottom:0px; margin-left:0px; margin-right:0px; -qt-block-indent:0; text-indent:0px;"><br /></p></body></html>]]></projectnotes>
    <timeline lp0pos="0" lp1pos="192" lpstate="0"/>
    <controllers/>
  </song>
</lmms-project>
